<svg xmlns="http://www.w3.org/2000/svg" xmlns:xlink="http://www.w3.org/1999/xlink" width="23.5" height="23.5" viewBox="0 0 23.5 23.5">
  <defs>
    <linearGradient id="linear-gradient" x1="0.234" y1="0.788" x2="0.719" y2="0.418" gradientUnits="objectBoundingBox">
      <stop offset="0" stop-color="#12a8f5"/>
      <stop offset="1" stop-color="#00d48d"/>
    </linearGradient>
  </defs>
  <g id="selected" transform="translate(1132.193 -693.999)">
    <path id="Path_33316" data-name="Path 33316" d="M-1122.7,694.793l-7.98,6.3a4.1,4.1,0,0,0-1.228,4.679l3.6,9.258a3.774,3.774,0,0,0,3.489,2.466h8.768a3.774,3.774,0,0,0,3.489-2.466l3.6-9.258a4.1,4.1,0,0,0-1.228-4.679l-7.98-6.3A3.617,3.617,0,0,0-1122.7,694.793Z" fill="url(#linear-gradient)"/>
    <path id="Path_33317" data-name="Path 33317" d="M-1118.5,724.672V719.8a3.3,3.3,0,0,1,3.3-3.3h0a3.3,3.3,0,0,1,3.3,3.3v4.872" transform="translate(-5.086 -7.173)" fill="#fff"/>
  </g>
</svg>
