<svg xmlns="http://www.w3.org/2000/svg" xmlns:xlink="http://www.w3.org/1999/xlink" width="375" height="484" viewBox="0 0 375 484">
  <defs>
    <clipPath id="clip-path">
      <rect id="Rectangle_18147" data-name="Rectangle 18147" width="375" height="484" fill="none" stroke="#707070" stroke-width="1"/>
    </clipPath>
  </defs>
  <g id="Mask_Group_137" data-name="Mask Group 137" clip-path="url(#clip-path)">
    <g id="Group_39727" data-name="Group 39727" transform="translate(0 90.891)" opacity="0.46">
      <path id="Path_34530" data-name="Path 34530" d="M-7.834,140.616s.079,77.872,98.586,68.965,92.971,95.528,92.971,95.528" transform="translate(-5 96)" fill="none" stroke="#1add79" stroke-width="2"/>
      <path id="Path_34531" data-name="Path 34531" d="M-6.782,261.549s52.073-30.324,121.077-24.843,132.136,57.657,132.136,57.657" transform="translate(-5 94.342)" fill="none" stroke="#0e675c" stroke-width="2"/>
      <path id="Path_34532" data-name="Path 34532" d="M620.728,588.322l22.7-7.958-5.832,24.419Z" transform="translate(-592 -289)" fill="#1add79"/>
    </g>
    <g id="Group_39730" data-name="Group 39730" transform="translate(-16.107 -3.508)" opacity="0.46">
      <path id="Path_34530-2" data-name="Path 34530" d="M205.22,4.172A99.191,99.191,0,0,0,170.991.129C140.266,1.67,98.714,16.7,99.6,78.056,101.047,177.82,0,180.4,0,180.4" transform="translate(222.693 195.648) rotate(-111)" fill="none" stroke="#1add79" stroke-width="2"/>
      <path id="Path_34531-2" data-name="Path 34531" d="M271.271,27.324S215.484-5.162,141.559.71,0,62.479,0,62.479" transform="matrix(-0.545, -0.839, 0.839, -0.545, 338.708, 211.736)" fill="none" stroke="#0e675c" stroke-width="2"/>
      <path id="Path_34532-2" data-name="Path 34532" d="M24.314,8.525,0,0,6.248,26.161Z" transform="translate(358.5 71.276) rotate(51)" fill="#1add79"/>
    </g>
  </g>
</svg>
