<svg id="Component_2_20" data-name="Component 2 – 20" xmlns="http://www.w3.org/2000/svg" width="19.489" height="15.591" viewBox="0 0 19.489 15.591">
  <path id="Icon_awesome-eye" data-name="Icon awesome-eye" d="M17.409,9.894A9.753,9.753,0,0,0,8.758,4.5,9.755,9.755,0,0,0,.106,9.895a.984.984,0,0,0,0,.888,9.753,9.753,0,0,0,8.652,5.394,9.755,9.755,0,0,0,8.652-5.395A.984.984,0,0,0,17.409,9.894ZM8.758,14.717a4.379,4.379,0,1,1,4.379-4.379A4.379,4.379,0,0,1,8.758,14.717Zm0-7.3a2.9,2.9,0,0,0-.77.115A1.455,1.455,0,0,1,5.954,9.569a2.913,2.913,0,1,0,2.8-2.15Z" transform="translate(0.987 -2.543)" fill="#babed0" opacity="0"/>
  <path id="Icon_awesome-eye-slash" data-name="Icon awesome-eye-slash" d="M9.744,12.18A4.369,4.369,0,0,1,5.393,8.127L2.2,5.658A10.149,10.149,0,0,0,1.08,7.351a.985.985,0,0,0,0,.889,9.767,9.767,0,0,0,8.664,5.4,9.459,9.459,0,0,0,2.372-.319L10.536,12.1a4.389,4.389,0,0,1-.792.079ZM19.3,13.95l-3.366-2.6A10.087,10.087,0,0,0,18.408,8.24a.985.985,0,0,0,0-.889,9.767,9.767,0,0,0-8.664-5.4A9.384,9.384,0,0,0,5.258,3.1L1.384.1A.487.487,0,0,0,.7.188L.1.958a.487.487,0,0,0,.086.684L18.1,15.488a.487.487,0,0,0,.684-.086l.6-.77a.487.487,0,0,0-.086-.684ZM13.706,9.626l-1.2-.925A2.885,2.885,0,0,0,8.974,4.987a1.451,1.451,0,0,1,.284.859,1.42,1.42,0,0,1-.047.3L6.969,4.419A4.334,4.334,0,0,1,9.744,3.41,4.383,4.383,0,0,1,14.129,7.8a4.281,4.281,0,0,1-.423,1.83Z" transform="translate(0 0)" fill="#babed0"/>
</svg>
