<svg xmlns="http://www.w3.org/2000/svg" width="26.488" height="26.473" viewBox="0 0 26.488 26.473">
  <g id="Layer_2" data-name="Layer 2" transform="translate(-0.012 0.019)">
    <g id="Layer_1" data-name="Layer 1" transform="translate(0.012 -0.019)">
      <path id="Path_34650" data-name="Path 34650" d="M92.789,117.387c.3.7.557,1.345.833,1.979.124.283.22.558-.091.769s-.538.017-.761-.187c-.852-.778-1.7-1.56-2.57-2.319a1,1,0,0,0-.581-.231c-.8-.026-1.6-.007-2.4-.012a2.83,2.83,0,0,1-2.94-2.921q-.012-1.811,0-3.621a2.826,2.826,0,0,1,2.906-2.913q3.718-.012,7.435,0a2.817,2.817,0,0,1,2.885,2.89q.015,1.83,0,3.659a2.826,2.826,0,0,1-2.918,2.9C94.016,117.391,93.437,117.387,92.789,117.387Z" transform="translate(-77.641 -99.427)" fill="#11d16e"/>
      <path id="Path_34651" data-name="Path 34651" d="M4.761,13.393v3.464a.961.961,0,0,1-1.1,1.081,7.732,7.732,0,0,1-1.331-.065A2.78,2.78,0,0,1,.042,15.2,12.629,12.629,0,0,1,.06,13.228a2.655,2.655,0,0,1,.509-1.194A5.539,5.539,0,0,1,2.6,10.519a.443.443,0,0,0,.276-.451,10.388,10.388,0,0,1,20.767-.043.556.556,0,0,0,.309.514,21.6,21.6,0,0,1,1.956,1.433A1.758,1.758,0,0,1,26.5,13.46c-.035.732.028,1.477-.079,2.2a2.748,2.748,0,0,1-2.643,2.279c-.328.013-.656.009-.984,0a.948.948,0,0,1-1.02-1.04c0-2.152,0-4.3,0-6.456A8.491,8.491,0,0,0,4.847,9.383c-.127,1.325-.019,2.673-.019,4.01Z" transform="translate(-0.012 0.019)" fill="#00352e"/>
      <path id="Path_34652" data-name="Path 34652" d="M144.4,240.32h1.9a7.646,7.646,0,0,1-7.67,6.6,5.023,5.023,0,0,1-.511,0,.864.864,0,0,0-.872.357,1.621,1.621,0,0,1-1.322.588c-.642.009-1.286.013-1.927,0a1.889,1.889,0,0,1,0-3.779c.63-.013,1.26-.006,1.889,0a1.9,1.9,0,0,1,1.5.729c.079.091.194.2.3.2a7.069,7.069,0,0,0,3.389-.491,5.659,5.659,0,0,0,3.262-3.989C144.357,240.474,144.376,240.412,144.4,240.32Z" transform="translate(-121.71 -221.399)" fill="#00352e"/>
    </g>
  </g>
</svg>
