<svg xmlns="http://www.w3.org/2000/svg" width="30.137" height="26.368" viewBox="0 0 30.137 26.368">
  <g id="Layer_2" data-name="Layer 2" transform="translate(0.001 0.01)">
    <g id="Layer_1" data-name="Layer 1" transform="translate(-0.001 -0.01)">
      <path id="Path_34615" data-name="Path 34615" d="M57.6,21.736a11.023,11.023,0,0,1-5.419-1.4.907.907,0,0,1-.426-.569,14.063,14.063,0,0,0-.951-2.248c-.673-1.195-1.445-2.33-2.161-3.5a2.345,2.345,0,0,0-1.523-1.146.55.55,0,0,1-.316-.378A10.868,10.868,0,1,1,68.343,9.652a18.015,18.015,0,0,1-.057,2.855.445.445,0,0,1-.246.336,2.5,2.5,0,0,0-1.679,1.3c-.584.936-1.135,1.9-1.739,2.818a7.989,7.989,0,0,0-1.349,3c-.023.136-.208.276-.35.358A10.664,10.664,0,0,1,57.6,21.736ZM65.15,9.077a7.815,7.815,0,0,0-8.135-6.032c-3.236.153-6.7,3.007-6.968,5.751a1.819,1.819,0,0,0,1.907.022,12.549,12.549,0,0,1,11.432,0A2.773,2.773,0,0,0,65.15,9.077Zm-1.908,3.39a1.708,1.708,0,0,0-1.463.663,13.6,13.6,0,0,1-.885,1.124A5.062,5.062,0,0,0,59.61,17.42c-.073.585.341.923.889.693A7.71,7.71,0,0,0,64.914,13.5a.607.607,0,0,0-.529-.909c-.4-.063-.8-.089-1.142-.125Zm-11.3,0c-.456.039-.875.056-1.288.116a.613.613,0,0,0-.522.826,7.709,7.709,0,0,0,4.523,4.734c.488.2.891-.168.811-.711-.074-.5-.162-1-.28-1.495a2.073,2.073,0,0,0-.306-.736c-.516-.712-1.06-1.406-1.607-2.1a1.643,1.643,0,0,0-1.33-.642Zm7.839-.778a2.24,2.24,0,1,0-2.255,2.24,2.24,2.24,0,0,0,2.255-2.24Z" transform="translate(-42.478 0.01)" fill="#11d16e"/>
      <path id="Path_34616" data-name="Path 34616" d="M7.23,137.022c-.189.01-.306.022-.422.02q-2.42-.047-4.839-.1c-.6-.013-.836-.3-.591-.827a5.343,5.343,0,0,0-.269-5.141,16.985,16.985,0,0,1-.773-1.76A4.044,4.044,0,0,1,.151,126.5c.306-1.092.634-2.177.973-3.257a2.512,2.512,0,0,1,2.041-1.672c.073.682.15,1.33.2,1.98.006.081-.1.2-.188.255a2.123,2.123,0,0,0-.9,2.647c.295.937.584,1.878.878,2.816.084.269.239.465.548.4a.48.48,0,0,0,.392-.643c-.159-.62-.353-1.233-.543-1.844-.119-.384-.269-.758-.386-1.144a1.153,1.153,0,0,1,2.109-.919c.787,1.267,1.566,2.54,2.372,3.794a4.565,4.565,0,0,1,.469,4.077c-.151.468-.308.936-.5,1.389A3.836,3.836,0,0,0,7.23,137.022Z" transform="translate(0.001 -110.675)" fill="#00352e"/>
      <path id="Path_34617" data-name="Path 34617" d="M247.918,121.56a2.549,2.549,0,0,1,2.116,1.866c.316,1.15.682,2.287.977,3.442a3.586,3.586,0,0,1-.231,2.281q-.583,1.406-1.219,2.788a4.174,4.174,0,0,0-.122,3.347,9.607,9.607,0,0,1,.337,1.019c.077.3-.027.55-.382.56-1.792.051-3.585.09-5.372.131-.026,0-.053-.021-.129-.056.324-1.178-.24-2.2-.678-3.233a5.08,5.08,0,0,1,.553-5.287c.724-1.02,1.332-2.123,1.988-3.191a1.227,1.227,0,0,1,1.572-.642,1.171,1.171,0,0,1,.548,1.593c-.255.763-.515,1.523-.755,2.3a1.633,1.633,0,0,0-.112.738.625.625,0,0,0,.408.423.6.6,0,0,0,.487-.324q.538-1.563,1-3.155a2.039,2.039,0,0,0-.9-2.3.48.48,0,0,1-.256-.571C247.831,122.732,247.861,122.167,247.918,121.56Z" transform="translate(-220.968 -110.666)" fill="#00352e"/>
      <path id="Path_34618" data-name="Path 34618" d="M156.484,117.485a1.267,1.267,0,1,1-1.274-1.26A1.267,1.267,0,0,1,156.484,117.485Z" transform="translate(-140.154 -105.808)" fill="#00352e"/>
    </g>
  </g>
</svg>
