<svg xmlns="http://www.w3.org/2000/svg" width="32" height="32" viewBox="0 0 32 32">
  <g id="Group_40837" data-name="Group 40837" transform="translate(-321 -735)">
    <circle id="Ellipse_4286" data-name="Ellipse 4286" cx="16" cy="16" r="16" transform="translate(321 735)" fill="#fff"/>
    <path id="apple" d="M11.285,10.527a3.264,3.264,0,0,1,1.748-2.965A3.757,3.757,0,0,0,10.072,6c-1.241-.1-2.6.724-3.095.724-.524,0-1.727-.689-2.671-.689C2.355,6.068.281,7.593.281,10.694a8.715,8.715,0,0,0,.5,2.839c.448,1.283,2.063,4.43,3.748,4.378.881-.021,1.5-.626,2.65-.626,1.112,0,1.689.626,2.671.626,1.7-.024,3.161-2.885,3.588-4.172A3.466,3.466,0,0,1,11.285,10.527ZM9.306,4.785a3.293,3.293,0,0,0,.839-2.535A3.708,3.708,0,0,0,7.771,3.47a3.345,3.345,0,0,0-.9,2.514A2.937,2.937,0,0,0,9.306,4.785Z" transform="translate(330.138 739.919)"/>
  </g>
</svg>
