<svg xmlns="http://www.w3.org/2000/svg" width="110" height="110" viewBox="0 0 110 110">
  <g id="Group_38531" data-name="Group 38531" transform="translate(-157.513 -369.513)">
    <g id="Ellipse_4226" data-name="Ellipse 4226" transform="translate(157.513 369.513)" fill="rgba(17,209,110,0.27)" stroke="rgba(37,126,249,0.12)" stroke-width="1">
      <circle cx="55" cy="55" r="55" stroke="none"/>
      <circle cx="55" cy="55" r="54.5" fill="none"/>
    </g>
    <path id="Path_34631" data-name="Path 34631" d="M45.338,0A45.338,45.338,0,1,1,0,45.338,45.338,45.338,0,0,1,45.338,0Z" transform="translate(166.798 378.798)" fill="#11d16e" opacity="0.7"/>
    <circle id="Ellipse_4264" data-name="Ellipse 4264" cx="37.338" cy="37.338" r="37.338" transform="translate(174.798 386.798)" fill="#11d16e"/>
    <path id="Path_34608" data-name="Path 34608" d="M34.66,6.4a2.183,2.183,0,0,1,.524,3.043l-12.37,17.51c-.786,1.109-1.452,2.052-2.052,2.771A6.818,6.818,0,0,1,18.5,31.6a6.179,6.179,0,0,1-4.432.334A6.617,6.617,0,0,1,11.555,30.4c-.688-.622-1.467-1.458-2.38-2.437l-3.57-3.827A2.183,2.183,0,1,1,8.8,21.161L12.3,24.92c.993,1.063,1.646,1.76,2.179,2.242a2.5,2.5,0,0,0,.841.592,1.8,1.8,0,0,0,1.306-.1,2.66,2.66,0,0,0,.786-.738c.472-.561,1.033-1.354,1.884-2.557L31.617,6.924A2.183,2.183,0,0,1,34.66,6.4" transform="translate(191.852 405.037)" fill="#fff"/>
  </g>
</svg>
