<svg xmlns="http://www.w3.org/2000/svg" width="14.594" height="14.594" viewBox="0 0 14.594 14.594">
  <path id="Icon_metro-instagram" data-name="Icon metro-instagram" d="M14.742,1.928H4.994A2.43,2.43,0,0,0,2.571,4.351V14.1a2.43,2.43,0,0,0,2.423,2.423h9.748A2.43,2.43,0,0,0,17.165,14.1V4.351a2.43,2.43,0,0,0-2.423-2.423Zm-7.5,6.385h5.25a2.779,2.779,0,1,1-5.25,0Zm8.1,0v5.472a.915.915,0,0,1-.912.912H5.307a.915.915,0,0,1-.912-.912V8.313H5.822a4.147,4.147,0,1,0,8.092,0H15.34Zm0-3.193a.457.457,0,0,1-.456.456h-.912a.457.457,0,0,1-.456-.456V4.208a.457.457,0,0,1,.456-.456h.912a.457.457,0,0,1,.456.456Z" transform="translate(-2.571 -1.928)" fill="#394675"/>
</svg>
