<svg xmlns="http://www.w3.org/2000/svg" xmlns:xlink="http://www.w3.org/1999/xlink" width="260" height="260" viewBox="0 0 260 260">
  <defs>
    <linearGradient id="linear-gradient" x1="0.5" x2="0.5" y2="1" gradientUnits="objectBoundingBox">
      <stop offset="0" stop-color="#00d3f2"/>
      <stop offset="1" stop-color="#00d48d"/>
    </linearGradient>
    <filter id="Path_13326" x="49.882" y="75.641" width="117.892" height="122.307" filterUnits="userSpaceOnUse">
      <feOffset dy="3" input="SourceAlpha"/>
      <feGaussianBlur stdDeviation="3" result="blur"/>
      <feFlood flood-opacity="0.078"/>
      <feComposite operator="in" in2="blur"/>
      <feComposite in="SourceGraphic"/>
    </filter>
  </defs>
  <g id="Group_39649" data-name="Group 39649" transform="translate(-60 -251)">
    <rect id="Rectangle_17699" data-name="Rectangle 17699" width="260" height="260" transform="translate(60 251)" fill="none"/>
    <g id="Group_37953" data-name="Group 37953" transform="translate(0 62)">
      <ellipse id="Ellipse_3328" data-name="Ellipse 3328" cx="89.818" cy="89.818" rx="89.818" ry="89.818" transform="translate(98 229.305)" fill="url(#linear-gradient)"/>
      <ellipse id="Ellipse_3331" data-name="Ellipse 3331" cx="9.165" cy="9.165" rx="9.165" ry="9.165" transform="translate(84.74 375.947)" fill="#9cd161"/>
      <ellipse id="Ellipse_3332" data-name="Ellipse 3332" cx="5.499" cy="5.499" rx="5.499" ry="5.499" transform="translate(78.629 275.741)" fill="#f35d86"/>
      <ellipse id="Ellipse_3333" data-name="Ellipse 3333" cx="7.943" cy="7.943" rx="7.943" ry="7.943" transform="translate(277.637 260.264)" fill="#12d7c0"/>
      <ellipse id="Ellipse_3334" data-name="Ellipse 3334" cx="6.11" cy="6.11" rx="6.11" ry="6.11" transform="translate(289.858 237.045)" fill="#ffbe16"/>
      <path id="Path_13327" data-name="Path 13327" d="M947.586-245.5c24.964,0,45.2,18.213,45.2,40.682,0,12.175-5.951,23.093-15.368,30.549v21.84a1.326,1.326,0,0,1-2.154,1.035l-17.292-13.834a50.113,50.113,0,0,1-10.387,1.092c-24.965,0-45.2-18.213-45.2-40.681S922.621-245.5,947.586-245.5Z" transform="translate(-736.669 517.137)" fill="#e8e8e8"/>
      <g transform="matrix(1, 0, 0, 1, 60, 189)" filter="url(#Path_13326)">
        <path id="Path_13326-2" data-name="Path 13326" d="M905.446-246.5c-27.584,0-49.946,20.125-49.946,44.952,0,13.454,6.576,25.518,16.982,33.756v24.132a1.465,1.465,0,0,0,2.379,1.144L893.969-157.8a55.325,55.325,0,0,0,11.478,1.207c27.584,0,49.946-20.125,49.946-44.952S933.031-246.5,905.446-246.5Z" transform="translate(-796.62 328.14)" fill="#fff"/>
      </g>
      <ellipse id="Ellipse_3336" data-name="Ellipse 3336" cx="5.994" cy="5.994" rx="5.994" ry="5.994" transform="translate(145.853 305.602)" fill="#dfebe5"/>
      <ellipse id="Ellipse_3337" data-name="Ellipse 3337" cx="5.994" cy="5.994" rx="5.994" ry="5.994" transform="translate(176.819 305.602)" fill="#dfebe5"/>
      <path id="Path_13328" data-name="Path 13328" d="M912.482-182.509h-3c0-3.03-2.151-5.494-4.795-5.494h-.9c-2.644,0-4.795,2.464-4.795,5.494h-3c0-4.682,3.5-8.491,7.792-8.491h.9C908.987-191,912.482-187.191,912.482-182.509Z" transform="translate(-736.662 517.08)" fill="#dfebe5"/>
    </g>
  </g>
</svg>
