<svg xmlns="http://www.w3.org/2000/svg" width="12.769" height="25.003" viewBox="0 0 12.769 25.003">
  <g id="Group_40927" data-name="Group 40927" transform="translate(-21899.613 7808.484)">
    <path id="Path_53327" data-name="Path 53327" d="M199.579,93.164c.238.944.474,1.878.708,2.812.161.637.11.7-.551.7h-2.422v.283c0,1.532.005,3.064,0,4.6a1.461,1.461,0,0,1-1.562,1.474,1.416,1.416,0,0,1-.993-.565c-.031.028-.056.047-.078.071a1.347,1.347,0,0,1-1.537.406,1.466,1.466,0,0,1-.954-1.371c-.006-1.532,0-3.064,0-4.6v-.3h-2.638c-.365,0-.474-.142-.388-.494q.351-1.4.706-2.8c.018-.073.034-.147.051-.221-.023-.021-.038-.047-.059-.053a1.908,1.908,0,0,1-1.151-2.29c.423-1.706.825-3.417,1.244-5.124a1.829,1.829,0,0,1,1.8-1.436q3-.02,5.992,0A1.788,1.788,0,0,1,199.52,85.6c.452,1.786.889,3.575,1.3,5.372A1.822,1.822,0,0,1,199.579,93.164Zm.091,2.9c-.021-.1-.037-.177-.057-.257q-.829-3.294-1.659-6.587l-.406-1.625a.305.305,0,1,1,.588-.157c.012.041.024.081.035.123l.677,2.679.6,2.37a3.379,3.379,0,0,0,.554-.441,1.369,1.369,0,0,0,.2-1.251q-.609-2.473-1.2-4.952a1.285,1.285,0,0,0-1.393-1.1h-5.688a1.288,1.288,0,0,0-1.4,1.1c-.232.961-.467,1.921-.7,2.882-.184.765-.369,1.528-.542,2.295a1.194,1.194,0,0,0,.818,1.37l.721-2.844c.185-.729.366-1.459.555-2.187.068-.267.271-.371.467-.244.162.106.156.255.112.427q-1.016,4-2.022,8.011c-.032.126-.054.254-.083.392Zm-6.874.632v2.94c0,.643-.007,1.287,0,1.929a.819.819,0,0,0,1.159.783.892.892,0,0,0,.492-.876q0-2.271,0-4.543c0-.074-.009-.149-.014-.234Zm2.273,0c-.006.072-.012.114-.012.156,0,1.581-.007,3.162,0,4.74a.827.827,0,1,0,1.654-.008V96.864c0-.056-.009-.112-.016-.173Z" transform="translate(21711.254 -7886.778)" fill="#f624b8" stroke="#f624b8" stroke-width="0.5"/>
    <path id="Path_53328" data-name="Path 53328" d="M246.785,0a2.317,2.317,0,1,1-1.653.684A2.332,2.332,0,0,1,246.785,0Zm-1.719,2.322A1.723,1.723,0,1,0,246.8.609a1.723,1.723,0,0,0-1.731,1.713Z" transform="translate(21659.229 -7808.233)" fill="#f624b8" stroke="#f624b8" stroke-width="0.5"/>
  </g>
</svg>
