<svg xmlns="http://www.w3.org/2000/svg" width="36" height="36" viewBox="0 0 36 36">
  <g id="Group_39668" data-name="Group 39668" transform="translate(-206 -417)">
    <rect id="Rectangle_17700" data-name="Rectangle 17700" width="36" height="36" transform="translate(206 417)" fill="none"/>
    <g id="Group_39667" data-name="Group 39667" transform="translate(492.96 548.493)">
      <path id="Path_34545" data-name="Path 34545" d="M-280.614-120.779a1.263,1.263,0,0,1,.959-1.507,1.266,1.266,0,0,1,.3-.03l1.2.025a3.169,3.169,0,0,1,.847.136,3.109,3.109,0,0,0,.429-2.285,3.106,3.106,0,0,0-.1-.369,4.268,4.268,0,0,0-3.876-2.683,1.081,1.081,0,0,0-1.107,1.053,1.072,1.072,0,0,0,.027.267l1.376,5.655h0Z" fill="none" stroke="#394675" stroke-miterlimit="10" stroke-width="1.5"/>
      <path id="Path_34546" data-name="Path 34546" d="M-227.545-31.888a4.053,4.053,0,0,0-.531.008l-14.472,1.9a1.936,1.936,0,0,1,.2.531l.814,3.5h16.341a1.594,1.594,0,0,0,1.519-1.662A4.082,4.082,0,0,0-227.545-31.888Z" transform="translate(-31.384 -76.124)" fill="none" stroke="#394675" stroke-miterlimit="10" stroke-width="1.5"/>
      <g id="Group_39666" data-name="Group 39666" transform="translate(-273.067 -102.735)">
        <path id="Path_34547" data-name="Path 34547" d="M-238.3-5.962h0l.078.335Z" transform="translate(238.304 5.962)" fill="none" stroke="#394675" stroke-miterlimit="10" stroke-width="1.5"/>
        <path id="Path_34548" data-name="Path 34548" d="M-237.547-2.708l.5,2.141h12.7A1.751,1.751,0,0,0-222.6-2.319v-.389Z" transform="translate(237.701 3.371)" fill="none" stroke="#394675" stroke-miterlimit="10" stroke-width="1.5"/>
      </g>
      <path id="Path_1539" data-name="Path 1539" d="M-258.518-20.165h3.362l-1.312-5.643a1.932,1.932,0,0,0-2.306-1.465h0a1.932,1.932,0,0,0-1.465,2.306h0l1.023,4.25A.72.72,0,0,0-258.518-20.165Z" transform="translate(-17.259 -79.766)" fill="none" stroke="#394675" stroke-miterlimit="10" stroke-width="1.5"/>
      <path id="Path_34549" data-name="Path 34549" d="M-270.888-86.8h0a1.932,1.932,0,0,1,2.1.934l1.457-.191-.542-5.249a26.818,26.818,0,0,0-1.813-7.636l-.444-1.112a3.177,3.177,0,0,0-2.882-2l-1.2-.025a1.264,1.264,0,0,0-.3.03,1.263,1.263,0,0,0-.959,1.507l3.282,14.745A1.927,1.927,0,0,1-270.888-86.8Z" transform="translate(-5.146 -20.236)" fill="none" stroke="#394675" stroke-miterlimit="10" stroke-width="1.5"/>
    </g>
  </g>
</svg>
