<svg id="trash" xmlns="http://www.w3.org/2000/svg" width="19.467" height="19.467" viewBox="0 0 19.467 19.467">
  <path id="Vector" d="M14.6.406C11.9.138,9.182,0,6.473,0A47.911,47.911,0,0,0,1.655.243L0,.406" transform="translate(2.433 4.445)" fill="none" stroke="#fff" stroke-linecap="round" stroke-linejoin="round" stroke-width="1.5"/>
  <path id="Vector-2" data-name="Vector" d="M0,2.409.178,1.346C.308.576.406,0,1.776,0H3.9C5.272,0,5.378.608,5.5,1.355l.178,1.054" transform="translate(6.894 1.622)" fill="none" stroke="#fff" stroke-linecap="round" stroke-linejoin="round" stroke-width="1.5"/>
  <path id="Vector-3" data-name="Vector" d="M11.112,0l-.527,8.168c-.089,1.273-.162,2.263-2.425,2.263H2.952c-2.263,0-2.336-.99-2.425-2.263L0,0" transform="translate(4.177 7.414)" fill="none" stroke="#fff" stroke-linecap="round" stroke-linejoin="round" stroke-width="1.5"/>
  <path id="Vector-4" data-name="Vector" d="M0,0H2.7" transform="translate(8.379 13.383)" fill="none" stroke="#fff" stroke-linecap="round" stroke-linejoin="round" stroke-width="1.5"/>
  <path id="Vector-5" data-name="Vector" d="M0,0H4.056" transform="translate(7.706 10.139)" fill="none" stroke="#fff" stroke-linecap="round" stroke-linejoin="round" stroke-width="1.5"/>
  <path id="Vector-6" data-name="Vector" d="M0,0H19.467V19.467H0Z" fill="none" opacity="0"/>
</svg>
