<svg xmlns="http://www.w3.org/2000/svg" width="16.5" height="19.5" viewBox="0 0 16.5 19.5">
  <path id="Path_34749" data-name="Path 34749" d="M18,9l-.84,8.4a6.01,6.01,0,0,1-.48,2.39,2.5,2.5,0,0,1-1.075.973A6.043,6.043,0,0,1,13.18,21H10.82A6.022,6.022,0,0,1,8.4,20.76a2.5,2.5,0,0,1-1.076-.973,6.054,6.054,0,0,1-.48-2.389L6,9m7.5,6.5v-5m-3,5v-5m-6-4H9.115m0,0L9.5,3.828A1.029,1.029,0,0,1,10.481,3h3.038a1.029,1.029,0,0,1,.98.828L14.885,6.5m-5.77,0h5.77m0,0H19.5" transform="translate(-3.75 -2.25)" fill="none" stroke="#00352e" stroke-linecap="round" stroke-linejoin="round" stroke-width="1.5"/>
</svg>
