<svg xmlns="http://www.w3.org/2000/svg" width="28.394" height="28.322" viewBox="0 0 28.394 28.322">
  <g id="Group_39251" data-name="Group 39251" transform="translate(-222.456 -44.813)">
    <path id="Path_1" data-name="Path 1" d="M231.991,83.189a9.528,9.528,0,1,1,6.742-2.788A9.506,9.506,0,0,1,231.991,83.189Zm0-16.449a6.919,6.919,0,1,0,4.892,2.027A6.872,6.872,0,0,0,231.991,66.74Z" transform="translate(0 -10.055)" fill="#fff"/>
    <path id="Path_2" data-name="Path 2" d="M255.967,60.867a1.308,1.308,0,0,1-.925-2.233l9.815-9.814a1.308,1.308,0,1,1,1.85,1.85l-9.815,9.815A1.3,1.3,0,0,1,255.967,60.867Z" transform="translate(-18.159 -1.773)" fill="#fff"/>
    <path id="Path_33603" data-name="Path 33603" d="M1.666,10.927A1.666,1.666,0,0,1,.488,8.083l5.97-7.6A1.666,1.666,0,1,1,8.814,2.844l-5.97,7.6A1.661,1.661,0,0,1,1.666,10.927Z" transform="matrix(-0.695, 0.719, -0.719, -0.695, 250.836, 52.403)" fill="#fff"/>
    <path id="Path_33604" data-name="Path 33604" d="M1.666,0A1.666,1.666,0,0,0,.488,2.844l5.97,7.6A1.666,1.666,0,0,0,8.814,8.083L2.844.488A1.661,1.661,0,0,0,1.666,0Z" transform="translate(250.85 51.902) rotate(130)" fill="#fff"/>
  </g>
</svg>
