<svg xmlns="http://www.w3.org/2000/svg" width="21.559" height="21.498" viewBox="0 0 21.559 21.498">
  <path id="Path_34740" data-name="Path 34740" d="M5.222,13A5.555,5.555,0,0,1,13,20.776M5.222,13a5.561,5.561,0,0,0-1.973,6.092,6.547,6.547,0,0,1-.11,3.093.52.52,0,0,0,.658.6,4.523,4.523,0,0,1,2.841-.124A5.561,5.561,0,0,0,13,20.776M5.222,13c0-5.205,3.194-10,8.888-10a8.888,8.888,0,0,1,8.368,11.888c-.529,1.473.041,3.446.374,5.075a.5.5,0,0,1-.649.584c-1.458-.456-3.169-1.1-4.539-.518A11.762,11.762,0,0,1,13,20.776" transform="translate(-2.25 -2.25)" fill="none" stroke="#00352e" stroke-linecap="round" stroke-linejoin="round" stroke-width="1.5"/>
</svg>
