<svg xmlns="http://www.w3.org/2000/svg" width="23.5" height="23.5" viewBox="0 0 23.5 23.5">
  <g id="dafault" transform="translate(1132.193 -693.999)">
    <g id="Path_33316" data-name="Path 33316" fill="none" stroke-miterlimit="10">
      <path d="M-1122.7,694.793l-7.98,6.3a4.1,4.1,0,0,0-1.228,4.679l3.6,9.258a3.774,3.774,0,0,0,3.489,2.466h8.768a3.774,3.774,0,0,0,3.489-2.466l3.6-9.258a4.1,4.1,0,0,0-1.228-4.679l-7.98-6.3A3.617,3.617,0,0,0-1122.7,694.793Z" stroke="none"/>
      <path d="M -1120.442749023438 695.9990234375 C -1120.810180664062 695.9990234375 -1121.163452148438 696.124755859375 -1121.46484375 696.3629150390625 L -1129.445190429688 702.6657104492188 C -1130.123046875 703.2008056640625 -1130.37646484375 704.2037963867188 -1130.047729492188 705.05029296875 L -1126.450927734375 714.3082885742188 C -1126.169921875 715.0316772460938 -1125.5322265625 715.4990844726562 -1124.826538085938 715.4990844726562 L -1116.058959960938 715.4990844726562 C -1115.353271484375 715.4990844726562 -1114.715698242188 715.0316162109375 -1114.4345703125 714.308349609375 L -1110.837890625 705.0504760742188 C -1110.509155273438 704.2037353515625 -1110.762451171875 703.2008056640625 -1111.44091796875 702.6653442382812 L -1119.421264648438 696.362548828125 C -1119.72216796875 696.124755859375 -1120.075439453125 695.9990234375 -1120.442749023438 695.9990234375 M -1120.442749023438 693.9990234375 C -1119.64697265625 693.9990234375 -1118.851196289062 694.2637939453125 -1118.18115234375 694.7933959960938 L -1110.201293945312 701.0958251953125 C -1108.828369140625 702.1795043945312 -1108.32421875 704.1024780273438 -1108.9736328125 705.7745361328125 L -1112.5703125 715.0325927734375 C -1113.14990234375 716.5240478515625 -1114.5283203125 717.4990844726562 -1116.058959960938 717.4990844726562 L -1124.826538085938 717.4990844726562 C -1126.357177734375 717.4990844726562 -1127.735717773438 716.5240478515625 -1128.315185546875 715.0325927734375 L -1131.911987304688 705.7745361328125 C -1132.561279296875 704.1024780273438 -1132.057250976562 702.1795043945312 -1130.684326171875 701.0958251953125 L -1122.704467773438 694.7933959960938 C -1122.034423828125 694.2637939453125 -1121.238647460938 693.9990234375 -1120.442749023438 693.9990234375 Z" stroke="none" fill="#fff"/>
    </g>
    <path id="Path_33317" data-name="Path 33317" d="M-1118.5,724.672V719.8a3.3,3.3,0,0,1,3.3-3.3h0a3.3,3.3,0,0,1,3.3,3.3v4.872" transform="translate(-5.086 -7.173)" fill="none" stroke="#fff" stroke-miterlimit="10" stroke-width="2"/>
  </g>
</svg>
