<svg xmlns="http://www.w3.org/2000/svg" width="23.622" height="19.738" viewBox="0 0 23.622 19.738">
  <g id="_6623015_holidays_luggage_suitcase_summer_travel_icon" data-name="6623015_holidays_luggage_suitcase_summer_travel_icon" transform="translate(-2 -5)">
    <path id="Path_33314" data-name="Path 33314" d="M22.959,24.138H4.663A1.668,1.668,0,0,1,3,22.474V11.663A1.668,1.668,0,0,1,4.663,10h18.3a1.668,1.668,0,0,1,1.663,1.663V22.474A1.668,1.668,0,0,1,22.959,24.138Z" transform="translate(0 -0.674)" fill="none" stroke="#394675" stroke-linecap="round" stroke-linejoin="round" stroke-width="2"/>
    <line id="Line_206" data-name="Line 206" y2="13.499" transform="translate(7.675 9.346)" fill="none" stroke="#394675" stroke-linecap="round" stroke-linejoin="round" stroke-width="2"/>
    <line id="Line_207" data-name="Line 207" y2="13.499" transform="translate(19.947 9.346)" fill="none" stroke="#394675" stroke-linecap="round" stroke-linejoin="round" stroke-width="2"/>
    <path id="Path_33315" data-name="Path 33315" d="M19.316,9.326H11V7.663A1.668,1.668,0,0,1,12.663,6h4.99a1.668,1.668,0,0,1,1.663,1.663Z" transform="translate(-1.347)" fill="none" stroke="#394675" stroke-linecap="round" stroke-linejoin="round" stroke-width="2"/>
    <line id="Line_208" data-name="Line 208" transform="translate(5.221 23.738)" fill="none" stroke="#394675" stroke-linecap="round" stroke-linejoin="round" stroke-width="2"/>
    <line id="Line_209" data-name="Line 209" transform="translate(22.402 23.738)" fill="none" stroke="#394675" stroke-linecap="round" stroke-linejoin="round" stroke-width="2"/>
  </g>
</svg>
