<svg xmlns="http://www.w3.org/2000/svg" width="12.299" height="12.299" viewBox="0 0 12.299 12.299">
  <path id="Icon_awesome-key" data-name="Icon awesome-key" d="M12.3,4.228A4.23,4.23,0,0,1,7.283,8.382l-.577.649a.576.576,0,0,1-.431.193H5.381v.961a.577.577,0,0,1-.577.577H3.843v.961a.577.577,0,0,1-.577.577H.577A.577.577,0,0,1,0,11.723V9.847A.577.577,0,0,1,.169,9.44L4.056,5.553A4.228,4.228,0,1,1,12.3,4.228ZM8.071,3.075A1.153,1.153,0,1,0,9.224,1.922,1.153,1.153,0,0,0,8.071,3.075Z" fill="#394675"/>
</svg>
