<svg xmlns="http://www.w3.org/2000/svg" width="39.567" height="37.871" viewBox="0 0 39.567 37.871">
  <path id="Icon_awesome-star" data-name="Icon awesome-star" d="M19.1,1.316l-4.829,9.792L3.468,12.684a2.368,2.368,0,0,0-1.309,4.038l7.817,7.618L8.127,35.1a2.365,2.365,0,0,0,3.432,2.492l9.666-5.081,9.666,5.081A2.367,2.367,0,0,0,34.323,35.1L32.474,24.339l7.817-7.618a2.368,2.368,0,0,0-1.309-4.038L28.177,11.108,23.347,1.316a2.369,2.369,0,0,0-4.245,0Z" transform="translate(-1.441 0.001)" fill="#fb0"/>
</svg>
