<svg xmlns="http://www.w3.org/2000/svg" width="28.089" height="24.575" viewBox="0 0 28.089 24.575">
  <g id="Layer_2" data-name="Layer 2" transform="translate(0.001 0.01)">
    <g id="Layer_1" data-name="Layer 1" transform="translate(-0.001 -0.01)">
      <path id="Path_34615" data-name="Path 34615" d="M56.852,20.258A10.273,10.273,0,0,1,51.8,18.951a.845.845,0,0,1-.4-.53,13.108,13.108,0,0,0-.886-2.095c-.627-1.113-1.347-2.172-2.015-3.267a2.186,2.186,0,0,0-1.42-1.068.513.513,0,0,1-.295-.352A10.129,10.129,0,1,1,66.869,8.995a16.79,16.79,0,0,1-.053,2.661.415.415,0,0,1-.23.313,2.33,2.33,0,0,0-1.565,1.215c-.545.873-1.057,1.767-1.621,2.627A7.446,7.446,0,0,0,62.143,18.6c-.022.127-.194.257-.327.334A9.939,9.939,0,0,1,56.852,20.258Zm7.042-11.8a7.284,7.284,0,0,0-7.582-5.622c-3.016.143-6.248,2.8-6.495,5.36a1.7,1.7,0,0,0,1.777.021,11.7,11.7,0,0,1,10.655,0A2.584,2.584,0,0,0,63.894,8.46Zm-1.778,3.16a1.592,1.592,0,0,0-1.363.618,12.679,12.679,0,0,1-.825,1.047,4.718,4.718,0,0,0-1.2,2.951c-.068.545.318.86.829.646a7.186,7.186,0,0,0,4.114-4.3.566.566,0,0,0-.493-.847c-.373-.058-.746-.083-1.064-.116Zm-10.531,0c-.425.037-.815.053-1.2.108a.572.572,0,0,0-.487.77,7.185,7.185,0,0,0,4.215,4.413c.455.185.83-.157.756-.662-.069-.467-.151-.934-.261-1.393a1.932,1.932,0,0,0-.286-.686c-.481-.664-.988-1.31-1.5-1.954a1.531,1.531,0,0,0-1.239-.6Zm7.306-.725a2.088,2.088,0,1,0-2.1,2.088,2.088,2.088,0,0,0,2.1-2.088Z" transform="translate(-42.762 0.01)" fill="#11d16e"/>
      <path id="Path_34616" data-name="Path 34616" d="M6.738,135.972c-.176.009-.285.021-.393.018q-2.255-.044-4.51-.093c-.556-.013-.779-.281-.551-.771a4.98,4.98,0,0,0-.251-4.792,15.836,15.836,0,0,1-.721-1.64,3.769,3.769,0,0,1-.171-2.53c.286-1.017.591-2.029.907-3.036a2.342,2.342,0,0,1,1.9-1.559c.068.636.139,1.239.187,1.845.006.075-.1.182-.175.237a1.979,1.979,0,0,0-.835,2.467c.275.874.545,1.751.819,2.624.079.251.223.433.511.374a.447.447,0,0,0,.365-.6c-.148-.578-.329-1.149-.506-1.719-.111-.358-.251-.707-.36-1.067a1.075,1.075,0,0,1,1.965-.856c.733,1.181,1.459,2.367,2.211,3.536a4.254,4.254,0,0,1,.437,3.8c-.141.436-.287.872-.464,1.295A3.575,3.575,0,0,0,6.738,135.972Z" transform="translate(0.001 -111.415)" fill="#00352e"/>
      <path id="Path_34617" data-name="Path 34617" d="M247.564,121.56a2.376,2.376,0,0,1,1.972,1.739c.295,1.072.636,2.132.91,3.208a3.342,3.342,0,0,1-.215,2.126q-.543,1.31-1.136,2.6a3.891,3.891,0,0,0-.114,3.12,8.958,8.958,0,0,1,.314.95c.072.283-.025.513-.356.522-1.67.048-3.341.084-5.007.122-.024,0-.049-.02-.12-.052a4.5,4.5,0,0,0-.632-3.014,4.735,4.735,0,0,1,.515-4.928c.675-.951,1.241-1.979,1.853-2.974a1.144,1.144,0,0,1,1.465-.6,1.091,1.091,0,0,1,.511,1.485c-.237.712-.48,1.42-.7,2.139a1.522,1.522,0,0,0-.1.688.583.583,0,0,0,.38.394.56.56,0,0,0,.454-.3q.5-1.457.928-2.941a1.9,1.9,0,0,0-.835-2.142.448.448,0,0,1-.239-.532C247.483,122.652,247.512,122.125,247.564,121.56Z" transform="translate(-222.446 -111.406)" fill="#00352e"/>
      <path id="Path_34618" data-name="Path 34618" d="M156.312,117.4a1.181,1.181,0,1,1-1.187-1.175,1.181,1.181,0,0,1,1.187,1.175Z" transform="translate(-141.091 -106.517)" fill="#00352e"/>
    </g>
  </g>
</svg>
