<svg xmlns="http://www.w3.org/2000/svg" width="23.686" height="22.205" viewBox="0 0 23.686 22.205">
  <g id="Group_39753" data-name="Group 39753" transform="translate(11578 14000.624)">
    <path id="Subtraction_6" data-name="Subtraction 6" d="M17.532,17.226H4a4,4,0,0,1-4-4V4A4,4,0,0,1,4,0H17.532a4,4,0,0,1,4,4v.307H13.766a3,3,0,0,0-3,3V9.92a3,3,0,0,0,3,3h7.766v.306A4.005,4.005,0,0,1,17.532,17.226Z" transform="translate(-11578 -13995.646)" fill="#11d16e"/>
    <rect id="Rectangle_17448" data-name="Rectangle 17448" width="11.843" height="6.46" rx="2" transform="translate(-11566.157 -13990.263)" fill="#00352e"/>
    <circle id="Ellipse_4232" data-name="Ellipse 4232" cx="1.077" cy="1.077" r="1.077" transform="translate(-11564.004 -13988.109)" fill="#11d16e"/>
    <path id="Path_34545" data-name="Path 34545" d="M153.021,32.383H142.45l-.01-.041a2.544,2.544,0,0,1,.241-.086l8.1-2.4c1.014-.3,1.613.065,1.9,1.176C152.794,31.472,152.9,31.911,153.021,32.383Z" transform="translate(-11712.274 -14028.434)" fill="#00352e"/>
    <path id="Path_34546" data-name="Path 34546" d="M81.309,1.832c-.1.037-.172.069-.247.091-2.905.86-5.808,1.735-8.719,2.569a3.929,3.929,0,0,1-1.393.048,1.751,1.751,0,0,1,.177-.126q3.914-2.1,7.828-4.2A1.281,1.281,0,0,1,80.9.939C81.037,1.229,81.168,1.52,81.309,1.832Z" transform="translate(-11645.096 -14000.624)" fill="#00352e"/>
  </g>
</svg>
