<svg xmlns="http://www.w3.org/2000/svg" width="20" height="20" viewBox="0 0 20 20">
  <g id="Group_39641" data-name="Group 39641" transform="translate(-63 -458)">
    <g id="Group_39640" data-name="Group 39640" transform="translate(2399.112 736.508)">
      <path id="Path_34525" data-name="Path 34525" d="M-2331.855-119.258c-.243,0-.477-.009-.708,0a.508.508,0,0,1-.547-.544c.011-1.521-.018-3.043.013-4.563a3.177,3.177,0,0,1,1.618-2.743.178.178,0,0,1,.158.005,2.624,2.624,0,0,0,.92.4c.092.02.117.055.116.144,0,.557,0,1.115,0,1.672a.5.5,0,0,0,.227.453.452.452,0,0,0,.481.021.478.478,0,0,0,.261-.446c0-.4,0-.8,0-1.193,0-.169,0-.337,0-.506,0-.088.022-.127.116-.146a2.375,2.375,0,0,0,.906-.4.147.147,0,0,1,.194,0,3.247,3.247,0,0,1,1.6,2.838c.016,1.5,0,3,0,4.5a.472.472,0,0,1-.5.5c-.246,0-.491,0-.75,0,0,.075-.01.138-.01.2q0,1.776,0,3.552a.477.477,0,0,1-.263.492.527.527,0,0,1-.212.046q-1.568,0-3.137,0a.443.443,0,0,1-.473-.483q0-1.809,0-3.617C-2331.846-119.125-2331.852-119.184-2331.855-119.258Z" transform="translate(0 -145.544)" fill="#394675"/>
      <path id="Path_34526" data-name="Path 34526" d="M-2035.713-120.579c.181.331.342.627.5.921s.332.6.494.9a.458.458,0,0,1-.412.694q-2.825,0-5.651,0a.458.458,0,0,1-.421-.688q.385-.806.769-1.613c.027-.058.052-.117.088-.2-.057-.006-.1-.013-.137-.014-.108,0-.216,0-.324,0a.459.459,0,0,1-.457-.455c0-1.153-.035-2.308.013-3.46a3.193,3.193,0,0,1,1.608-2.672.137.137,0,0,1,.175,0,2.643,2.643,0,0,0,3.016.006.152.152,0,0,1,.2,0,3.3,3.3,0,0,1,1.561,2.308,3.4,3.4,0,0,1,.039.581c0,1.054,0,2.108,0,3.162a.468.468,0,0,1-.536.53Zm-2.245-5.19a.489.489,0,0,0-.481.478.489.489,0,0,0,.485.487.489.489,0,0,0,.48-.478A.489.489,0,0,0-2037.958-125.769Z" transform="translate(-284.269 -145.484)" fill="#394675"/>
      <path id="Path_34527" data-name="Path 34527" d="M-1977.441-276.553a1.7,1.7,0,0,1,1.715,1.7,1.7,1.7,0,0,1-1.7,1.707,1.708,1.708,0,0,1-1.714-1.7A1.7,1.7,0,0,1-1977.441-276.553Z" transform="translate(-344.791 0)" fill="#394675"/>
      <path id="Path_34528" data-name="Path 34528" d="M-2269.574-276.552a1.7,1.7,0,0,1,1.7,1.705,1.7,1.7,0,0,1-1.708,1.706,1.706,1.706,0,0,1-1.708-1.716A1.7,1.7,0,0,1-2269.574-276.552Z" transform="translate(-60.223 -0.001)" fill="#394675"/>
      <path id="Path_34529" data-name="Path 34529" d="M-1980.112,262.363h3.452c0,.047.008.089.008.131q0,.719,0,1.438a.456.456,0,0,1-.5.5q-1.237,0-2.474,0a.452.452,0,0,1-.5-.489c0-.488,0-.976,0-1.464C-1980.119,262.446-1980.115,262.412-1980.112,262.363Z" transform="translate(-343.839 -524.943)" fill="#394675"/>
    </g>
    <rect id="Rectangle_17696" data-name="Rectangle 17696" width="20" height="20" transform="translate(63 458)" fill="none"/>
  </g>
</svg>
