<svg xmlns="http://www.w3.org/2000/svg" width="92" height="92" viewBox="0 0 92 92">
  <g id="Group_39626" data-name="Group 39626" transform="translate(-45 -171)">
    <rect id="Rectangle_17335" data-name="Rectangle 17335" width="92" height="92" rx="21" transform="translate(45 171)" fill="rgba(0,211,242,0.12)"/>
    <g id="Group_38656" data-name="Group 38656" transform="translate(-398.909 182.88)">
      <g id="Group_38621" data-name="Group 38621" transform="translate(462.699 42.17)">
        <g id="Group_38620" data-name="Group 38620">
          <path id="Path_33359" data-name="Path 33359" d="M502.12,112.167a1.629,1.629,0,0,0-1.093-.138c-.134.015-.269.038-.4.064-.464.189-.926.384-1.377.6a11.191,11.191,0,0,0-1.44.826c-.486.335-.954.693-1.43,1.041s-.958.692-1.462,1a13.255,13.255,0,0,1-1.6.836.044.044,0,0,1-.064-.026q-.036-.09-.074-.18a3.88,3.88,0,0,0-.624-.515,5.352,5.352,0,0,0-.714-.379c-.289-.131-.582-.255-.874-.379-.255-.109-.511-.217-.764-.329-.109-.041-.218-.082-.327-.125l-.148-.059-.011.006c-.455-.184-.908-.375-1.357-.577-.625-.283-1.242-.587-1.836-.93s-1.133-.728-1.694-1.1a19.118,19.118,0,0,0-3.556-1.961,8.966,8.966,0,0,0-3.563-.619,7.819,7.819,0,0,0-3.041.677c-1.036.045-2.068.138-3.1.246q-2.791.294-5.558.732c.091.253.185.5.286.754a24.516,24.516,0,0,0,2.2,4.147c.337.519.693,1.026,1.054,1.529.692-.229,1.386-.451,2.085-.655.29-.084.574-.19.865-.268a1.32,1.32,0,0,1,.876-.045.117.117,0,0,0,.1-.006,3.842,3.842,0,0,0,.561.458,12.382,12.382,0,0,0,2.044,1c1.468.576,3,.936,4.51,1.388a44.885,44.885,0,0,0,4.866,1.329,12.237,12.237,0,0,0,2.506.213,12.96,12.96,0,0,0,2.45-.33c.907-.2,1.8-.454,2.691-.727.936-.288,1.876-.576,2.8-.893a.122.122,0,0,0,.081-.081,2.113,2.113,0,0,0,.489-.2,4.561,4.561,0,0,0,.817-.636c.254-.234.495-.482.739-.726s.531-.5.787-.762c.577-.591,1.084-1.267,1.707-1.81a8.564,8.564,0,0,0,1.523-1.345C502.255,112.935,502.48,112.426,502.12,112.167Z" transform="translate(-466.015 -109.223)" fill="#d09670"/>
          <path id="Path_33360" data-name="Path 33360" d="M533.5,124.138c-.08-.03-.161-.06-.24-.091l-.015,0q.308.123.616.244Z" transform="translate(-509.318 -118.771)" fill="#ffe3cb"/>
          <path id="Path_33361" data-name="Path 33361" d="M502.143,112.789a.49.49,0,0,0-.328-.181,2.993,2.993,0,0,0-1.18.086c-.181.04-.362.088-.538.145a2.537,2.537,0,0,0-.429.179,15.466,15.466,0,0,0-2.06,1.336c-.667.494-1.324,1-2.027,1.44a8.6,8.6,0,0,1-1.011.553,6.231,6.231,0,0,0-.993.523.661.661,0,0,1,.023.1.813.813,0,0,1-.39.738,2.944,2.944,0,0,1-1.6.4,8.38,8.38,0,0,1-2.034-.172,19.151,19.151,0,0,1-3.982-1.467,7.868,7.868,0,0,0-1.932-.727c-.082-.014-.165-.025-.248-.034l0,.006a.835.835,0,0,1-.231.152c-.081.039-.164.075-.248.108a.029.029,0,0,1-.038-.012.035.035,0,0,1,.02-.039,2.137,2.137,0,0,0,.224-.123,1.381,1.381,0,0,0,.135-.1c-.412-.035-.827-.026-1.241-.023.107-.054.219-.1.325-.144.13-.007.26-.015.389-.02a4.7,4.7,0,0,1,1.725.213,10.031,10.031,0,0,1,.936.412q.479.221.962.432a14.893,14.893,0,0,0,3.892,1.276,7.241,7.241,0,0,0,1.93.025c.4-.053.952-.163,1.14-.573.247-.537-.6-1.01-.964-1.209a13.8,13.8,0,0,0-1.777-.77,32.769,32.769,0,0,1-3.278-1.431,15.939,15.939,0,0,1-1.656-.967c-.537-.362-1.073-.727-1.622-1.073a14.43,14.43,0,0,0-3.551-1.724,8.64,8.64,0,0,0-3.467-.281,8.479,8.479,0,0,0-1.713.383l.025,0a12.535,12.535,0,0,0-1.332.5c.145-.1.292-.191.444-.276l.017-.009-.242.018c-2.053.159-4.107.393-6.146.683-.624.089-1.245.189-1.866.292.07.19.142.38.219.569a24.517,24.517,0,0,0,2.2,4.147c.3.462.615.915.935,1.363l.075-.026c.8-.268,1.61-.5,2.409-.762a7.29,7.29,0,0,1,.856-.242,2.228,2.228,0,0,1,.366-.048,1.76,1.76,0,0,1,.707.263c.065.038.131.074.2.11a1.809,1.809,0,0,0,.183.132,13.089,13.089,0,0,0,2.312,1.1c1.466.549,2.992.906,4.488,1.362a35.727,35.727,0,0,0,4.97,1.311,11.088,11.088,0,0,0,2.511.118,14.849,14.849,0,0,0,2.428-.415c.827-.2,1.645-.441,2.458-.694s1.65-.549,2.494-.745a.14.14,0,0,1,.051,0,4.164,4.164,0,0,0,.621-.4,7.1,7.1,0,0,0,.82-.724c.245-.244.48-.5.729-.738.318-.305.633-.609.931-.935a12.651,12.651,0,0,1,1.577-1.578c.268-.205.544-.4.8-.621a2.113,2.113,0,0,0,.583-.705A.521.521,0,0,0,502.143,112.789Z" transform="translate(-466.137 -109.578)" fill="#ffe3cb"/>
          <path id="Path_33362" data-name="Path 33362" d="M480.485,110.117a8.64,8.64,0,0,0-3.467-.281,8.479,8.479,0,0,0-1.713.383l.025,0a12.535,12.535,0,0,0-1.332.5c.145-.1.292-.191.444-.276l.017-.009-.242.018c-2.053.159-4.107.393-6.146.683-.624.089-1.245.189-1.866.292.04.109.083.217.125.325.876-.106,1.751-.211,2.622-.349,1.441-.228,2.869-.527,4.3-.793a.115.115,0,0,1,.094.2,17.241,17.241,0,0,0-1.291,1.182,9.112,9.112,0,0,1,.848-.533,10.308,10.308,0,0,1,1.6-.634,11.323,11.323,0,0,1,2.912-.559,13.009,13.009,0,0,1,2.986.234,17.109,17.109,0,0,1,2.533.689A12.192,12.192,0,0,0,480.485,110.117Z" transform="translate(-466.137 -109.578)" fill="#d09670" style="mix-blend-mode: screen;isolation: isolate"/>
          <path id="Path_33363" data-name="Path 33363" d="M543.092,122.332a11.062,11.062,0,0,0,1.815-1,12.393,12.393,0,0,0,1.078-.68c.353-.259.693-.535,1.049-.79a21.907,21.907,0,0,1,2.256-1.479,5.446,5.446,0,0,1,1.811-.642,3.455,3.455,0,0,1,.347-.03.909.909,0,0,0-.109-.03,2.994,2.994,0,0,0-1.18.086c-.182.039-.362.088-.538.145a2.538,2.538,0,0,0-.429.179,15.459,15.459,0,0,0-2.06,1.336c-.667.494-1.324,1-2.027,1.44a8.593,8.593,0,0,1-1.011.553,6.228,6.228,0,0,0-.993.523.653.653,0,0,1,.023.1A.591.591,0,0,1,543.092,122.332Z" transform="translate(-515.661 -114.653)" fill="#d09670" style="mix-blend-mode: screen;isolation: isolate"/>
        </g>
        <path id="Path_33364" data-name="Path 33364" d="M562.785,117.13c-.117.015-.235.034-.352.057q-.229.093-.456.189C562.241,117.28,562.511,117.2,562.785,117.13Z" transform="translate(-527.824 -114.316)" fill="#ffe3cb" style="mix-blend-mode: multiply;isolation: isolate"/>
        <path id="Path_33365" data-name="Path 33365" d="M549.407,120.765c-.348.255-.7.507-1.06.744.2-.1.4-.209.6-.32a17.737,17.737,0,0,0,1.817-1.242,14.28,14.28,0,0,1,1.621-1.1l-.106.05a11.182,11.182,0,0,0-1.44.826C550.351,120.058,549.882,120.416,549.407,120.765Z" transform="translate(-519.045 -115.422)" fill="#ffe3cb" style="mix-blend-mode: multiply;isolation: isolate"/>
        <path id="Path_33366" data-name="Path 33366" d="M506.765,113.506a.918.918,0,0,0-.417-.151.11.11,0,0,1-.023.062.874.874,0,0,1-.126.391,1.748,1.748,0,0,1-.449.521c-.355.275-.742.519-1.116.768-.793.528-1.6,1.039-2.384,1.576-.738.505-1.43,1.072-2.166,1.578a9.239,9.239,0,0,1-1.1.665,1.41,1.41,0,0,1-1.053.2.115.115,0,0,1-.067-.147,2.607,2.607,0,0,0,.17-.659c.021-.133.018-.267.038-.4a.312.312,0,0,1,.149-.212c.1-.076.209-.152.314-.226-.188.094-.378.185-.571.269a.044.044,0,0,1-.064-.026q-.036-.09-.074-.18a3.879,3.879,0,0,0-.624-.515,5.349,5.349,0,0,0-.714-.379c-.289-.131-.582-.255-.874-.379-.255-.109-.511-.217-.764-.329-.109-.041-.218-.082-.327-.125l-.148-.059-.011.006q-.532-.215-1.058-.447c.306.213.618.413.922.609a10.513,10.513,0,0,1,1.259.847,1.208,1.208,0,0,1,.5,1c-.1.588-1.024.424-1.419.349a8.5,8.5,0,0,1-1.724-.507,19.305,19.305,0,0,0-4.054-1.392,6.9,6.9,0,0,0-2.175-.067,9.887,9.887,0,0,0-1.62.4,10.877,10.877,0,0,1-3.276.762,3.01,3.01,0,0,1-1.491-.381,3.165,3.165,0,0,1-1.178-1.223,3.976,3.976,0,0,1-.16-3.072,8.428,8.428,0,0,1,.54-1.335,5.015,5.015,0,0,0-.4.337,6.748,6.748,0,0,0-1.5,2.554c-.168.427-.316.872-.525,1.282a2.061,2.061,0,0,1-.867.909,5.478,5.478,0,0,1-1.262.455c-.456.119-.915.23-1.373.34l-.283.067c.313.477.639.945.972,1.408.692-.229,1.386-.451,2.085-.655.29-.084.574-.19.866-.268a1.319,1.319,0,0,1,.876-.045.117.117,0,0,0,.1-.006,3.837,3.837,0,0,0,.561.458,12.38,12.38,0,0,0,2.043,1c1.468.576,3,.936,4.51,1.388a44.885,44.885,0,0,0,4.866,1.329,12.237,12.237,0,0,0,2.506.213,12.961,12.961,0,0,0,2.45-.33c.907-.2,1.8-.454,2.691-.727.936-.288,1.876-.576,2.8-.893a.122.122,0,0,0,.081-.081,2.115,2.115,0,0,0,.489-.2,4.56,4.56,0,0,0,.816-.636c.254-.234.495-.482.739-.726s.531-.5.787-.762c.577-.591,1.084-1.267,1.707-1.81a8.565,8.565,0,0,0,1.523-1.345C506.9,114.273,507.125,113.764,506.765,113.506Z" transform="translate(-470.66 -110.561)" fill="#ffe3cb" style="mix-blend-mode: multiply;isolation: isolate"/>
        <path id="Path_33367" data-name="Path 33367" d="M507.853,126.762c.966.3,1.9.684,2.857,1.012A22.738,22.738,0,0,0,514,128.782a7.144,7.144,0,0,0,2.66-.006,2.4,2.4,0,0,0,1.574-.777,6.278,6.278,0,0,1-2.415.136,11.91,11.91,0,0,1-2.405-.578c-.86-.293-1.683-.679-2.518-1.035a10.4,10.4,0,0,0-1.3-.483,7.456,7.456,0,0,0-1.333-.236,14.291,14.291,0,0,0-1.633-.033,7.8,7.8,0,0,0-1.511.543A8.366,8.366,0,0,1,507.853,126.762Z" transform="translate(-491.205 -119.875)" fill="#ffe3cb" style="mix-blend-mode: multiply;isolation: isolate"/>
        <path id="Path_33368" data-name="Path 33368" d="M506.81,120.375c-.379.279-.773.538-1.164.8a8.471,8.471,0,0,0-1.02.8,21.955,21.955,0,0,1-3.048,2.688,11.836,11.836,0,0,1-3.961,1.266c-.29.06-.58.125-.869.188l-.008,0c-.07.017-.142.029-.212.044l-.1.02c-.146.031-.291.065-.437.092l-.04.006c-.2.038-.394.073-.592.1a9.853,9.853,0,0,1-2.3.1.1.1,0,0,1-.021-.006,19.211,19.211,0,0,1-3.11-.366,32.419,32.419,0,0,1-5.959-1.866c-.968-.4-1.937-.8-2.88-1.251a13.6,13.6,0,0,1-1.275-.663,3.306,3.306,0,0,0-.59-.317,1.1,1.1,0,0,0-.573-.033,17.652,17.652,0,0,0-2.241.743q-.942.281-1.883.566.251.364.51.721c.692-.23,1.386-.451,2.085-.655.29-.084.574-.19.866-.268a1.32,1.32,0,0,1,.876-.045.117.117,0,0,0,.1-.006,3.838,3.838,0,0,0,.561.458,12.377,12.377,0,0,0,2.044,1c1.468.576,3,.936,4.509,1.388a44.884,44.884,0,0,0,4.866,1.329,12.237,12.237,0,0,0,2.506.213,12.931,12.931,0,0,0,2.45-.33c.907-.2,1.8-.454,2.691-.727.936-.288,1.876-.576,2.8-.893a.122.122,0,0,0,.081-.081,2.114,2.114,0,0,0,.489-.2,4.563,4.563,0,0,0,.816-.636c.254-.234.495-.482.739-.726s.531-.5.786-.762c.577-.591,1.084-1.267,1.707-1.81a8.564,8.564,0,0,0,1.523-1.345,1.715,1.715,0,0,0,.165-.291A7.754,7.754,0,0,1,506.81,120.375Z" transform="translate(-471.498 -115.927)" fill="#ffe3cb" style="mix-blend-mode: multiply;isolation: isolate"/>
      </g>
      <g id="Group_38654" data-name="Group 38654" transform="translate(476.581 11.26)">
        <g id="Group_38636" data-name="Group 38636" transform="translate(14.649 10.082)">
          <g id="Group_38635" data-name="Group 38635">
            <g id="Group_38622" data-name="Group 38622">
              <path id="Path_33369" data-name="Path 33369" d="M571.9,66.647a33.017,33.017,0,0,0,.023-7.042c-1.066-.374-2.124-.774-3.213-1.079-.471-.132-.949-.232-1.42-.359a8.635,8.635,0,0,0-2.723-3.329c-.682-.575-1.378-1.15-2.1-1.674a7.6,7.6,0,0,0-1.37-.817,6.62,6.62,0,0,0-1.532-.427c-.538-.1-1.077-.179-1.609-.3-.565-.133-1.125-.289-1.685-.444-.526-.145-1.053-.3-1.588-.411a2.281,2.281,0,0,0-1.276.07c-1.022.377-2,.876-3,1.311q-.371.162-.747.314c-.213.085-.431.161-.637.263a1.917,1.917,0,0,0-.775.658,4.342,4.342,0,0,0-.437,1.137,8.287,8.287,0,0,1-.661,1.543c-.187.344-.4.671-.6,1.007-.1.169-.289.459-.2.663a.191.191,0,0,0,.044.061.511.511,0,0,0-.146.162c-.231.42.115.914.41,1.2a2.261,2.261,0,0,0,1.159.573c.1.02.2.033.305.045-.012.015-.013.033.012.049a2.461,2.461,0,0,1,.557.59c.179.234.343.48.544.7.268.288.563.548.854.813.144.131.288.263.426.4s.253.275.391.4a1.334,1.334,0,0,0,.78.363,1.23,1.23,0,0,0,.578-.106,4.031,4.031,0,0,0,.7.315,2.078,2.078,0,0,0,.642.141.98.98,0,0,0,.952-.612c0-.011.006-.022.01-.033a9.606,9.606,0,0,0,.923.434q.506.23,1.007.468c.682.321,1.365.642,2.072.908a6.969,6.969,0,0,0,4.3.4,4.8,4.8,0,0,0,1.09-.444l.047-.027c.295.165.6.315.9.466.691.346,1.376.7,2.07,1.039,1.393.679,2.792,1.354,4.207,1.986.2.088.394.171.591.256Q571.836,67.456,571.9,66.647Z" transform="translate(-546.181 -50.701)" fill="#d09670"/>
            </g>
            <g id="Group_38623" data-name="Group 38623" transform="translate(2.169 8.716)">
              <path id="Path_33370" data-name="Path 33370" d="M555.7,78.68a1.214,1.214,0,0,1-.746-.386c-.256-.253-.5-.51-.771-.752s-.554-.5-.811-.763c-.216-.225-.391-.485-.585-.729a1.814,1.814,0,0,0-.509-.493,9.2,9.2,0,0,0,2.244-.254c.241-.047.482-.091.724-.114.081.1.169.2.259.3a.013.013,0,0,0,.006.016l.024.016a6.615,6.615,0,0,1,.837.956,2.387,2.387,0,0,1,.321.873,1.156,1.156,0,0,1-.138.922A1.049,1.049,0,0,1,555.7,78.68Z" transform="translate(-552.276 -75.19)" fill="#ffe3cb"/>
            </g>
            <g id="Group_38624" data-name="Group 38624" transform="translate(5.893 9.346)">
              <path id="Path_33371" data-name="Path 33371" d="M564.429,80.184a1.676,1.676,0,0,1-.65-.1,4.628,4.628,0,0,1-.709-.26,1.505,1.505,0,0,0,.2-.137,1,1,0,0,0,.384-.844,2.677,2.677,0,0,0-.247-.976,3.213,3.213,0,0,0-.622-.854l-.047-.049c.226.138.453.274.672.422a6.078,6.078,0,0,1,1.077.9,1.862,1.862,0,0,1,.6,1.108A.762.762,0,0,1,564.429,80.184Z" transform="translate(-562.739 -76.961)" fill="#ffe3cb"/>
            </g>
            <g id="Group_38625" data-name="Group 38625" transform="translate(5.271 8.699)">
              <path id="Path_33372" data-name="Path 33372" d="M563.812,77.352a5.261,5.261,0,0,0-1.138-1.053,8.191,8.191,0,0,0-1.307-.763c-.126-.128-.25-.257-.375-.386a2.725,2.725,0,0,1,.675.033,3.565,3.565,0,0,1,1.349.6c.152.1.3.215.443.328-.013,0-.023.015-.014.026.295.349.713.611.852,1.067a1.872,1.872,0,0,1,.081.622.586.586,0,0,1-.071.277.266.266,0,0,1-.148.115A1.513,1.513,0,0,0,563.812,77.352Z" transform="translate(-560.992 -75.142)" fill="#ffe3cb"/>
            </g>
            <g id="Group_38626" data-name="Group 38626" transform="translate(0.229 0.158)">
              <path id="Path_33373" data-name="Path 33373" d="M572.314,66.933a33.857,33.857,0,0,0,.048-6.857c-.577-.2-1.15-.405-1.725-.609-.622-.221-1.251-.426-1.888-.6-.317-.085-.638-.158-.955-.245l-.035-.01c.015.047.03.095.044.142a6.461,6.461,0,0,0-.419-.674,11.4,11.4,0,0,0-2.929-3.173,25.563,25.563,0,0,0-2.14-1.645,5.412,5.412,0,0,0-1.38-.673,12.274,12.274,0,0,0-1.555-.321c-1.068-.179-2.1-.476-3.148-.76a10.438,10.438,0,0,0-1.482-.351,1.786,1.786,0,0,0-.6.025,4.22,4.22,0,0,0-.677.244c-.974.4-1.918.874-2.889,1.285a8.707,8.707,0,0,0-1.236.536,1.629,1.629,0,0,0-.615.7c-.192.407-.273.857-.43,1.278a9.275,9.275,0,0,1-.7,1.433c-.164.279-.352.546-.506.831-.045.083-.233.422-.089.481a.853.853,0,0,1,.115-.027c.23-.034.459-.047.688-.094a9.3,9.3,0,0,0,1.546-.483c.251-.1.5-.2.749-.309a4.381,4.381,0,0,1,.252-.47c.094-.163.19-.325.283-.489a6.383,6.383,0,0,0,.471-1.009,1.318,1.318,0,0,0,.094-.378.786.786,0,0,0-.1-.38c-.13-.261-.379-.625-.7-.642-.03,0-.013-.037.01-.037a1.011,1.011,0,0,1,.8.519.888.888,0,0,1,.147.736.073.073,0,0,1,.01-.007c.011-.011.047-.02.057,0a2.446,2.446,0,0,1,.525-.059c.22-.014.443-.038.663-.041a4.07,4.07,0,0,1,.641.056c.206.03.412.045.619.063.032,0,.021.041,0,.046a7.961,7.961,0,0,1-1.253.015c-.221.007-.441.028-.662.035l-.33.012a1.264,1.264,0,0,1-.3,0,4.73,4.73,0,0,1-.458,1.015c-.11.188-.227.372-.341.558-.076.124-.146.252-.219.378.178-.073.356-.145.536-.212a4.082,4.082,0,0,1,1.292-.291,12.557,12.557,0,0,1,2.729.362,19.452,19.452,0,0,0,2.522.305,5.307,5.307,0,0,0,2.188-.255c-.065.052-.131.1-.2.157a5.9,5.9,0,0,1-2.436.222,20.434,20.434,0,0,1-2.441-.332c-.451-.088-.9-.18-1.357-.242a5.3,5.3,0,0,0-1.319-.052,4.985,4.985,0,0,0-1.321.449c-.49.205-.978.417-1.478.6a7.81,7.81,0,0,1-1.5.4c-.108.016-.215.023-.324.032a.494.494,0,0,0-.231.055c-.2.13-.172.432-.1.622a1.755,1.755,0,0,0,.934.914,3.2,3.2,0,0,0,1.346.215,9.34,9.34,0,0,0,1.393-.157,9.99,9.99,0,0,1,1.389-.216,3.182,3.182,0,0,1,1.4.263,5.787,5.787,0,0,1,1.219.78,28.716,28.716,0,0,0,2.811,2.128,6.8,6.8,0,0,0,3.3,1.069,2.545,2.545,0,0,1-.416.094c-.126-.009-.252-.02-.377-.038a7.692,7.692,0,0,1-3.233-1.381c-.5-.348-.984-.729-1.458-1.117l-.092-.077a1.273,1.273,0,0,1,.272.564c.072.361.125.975-.347,1.043a1.035,1.035,0,0,1-.023.125,5.361,5.361,0,0,1,1.1.391c.376.162.746.336,1.117.508a12.994,12.994,0,0,0,4.08,1.365,5.311,5.311,0,0,0,2.1-.193,4.49,4.49,0,0,0,.859-.366l-.01-.005c.054-.027.107-.054.16-.083h0c.268-.145.527-.305.8-.44a2.614,2.614,0,0,1-.632.528c.362.185.731.358,1.094.54q2.087,1.043,4.193,2.044c.7.333,1.4.66,2.112.973.076.033.152.065.228.1Q572.257,67.651,572.314,66.933Z" transform="translate(-546.823 -51.145)" fill="#ffe3cb"/>
            </g>
            <g id="Group_38627" data-name="Group 38627" transform="translate(0.419 0.158)" style="mix-blend-mode: screen;isolation: isolate">
              <path id="Path_33374" data-name="Path 33374" d="M548.818,55.223c.083-.22.16-.441.235-.663a1.976,1.976,0,0,1,.312-.63,3.275,3.275,0,0,1,1.2-.818c.536-.259,1.074-.505,1.626-.727s1.126-.426,1.688-.643a5.968,5.968,0,0,1,1.593-.475c.049,0,.1-.007.148-.01a4.95,4.95,0,0,0-.524-.1,1.785,1.785,0,0,0-.6.025,4.225,4.225,0,0,0-.677.244c-.974.4-1.918.874-2.889,1.285a8.708,8.708,0,0,0-1.236.536,1.63,1.63,0,0,0-.615.7c-.192.407-.273.857-.43,1.278a9.281,9.281,0,0,1-.7,1.433c-.164.279-.352.546-.506.831-.017.031-.053.1-.085.171A5.989,5.989,0,0,0,548.818,55.223Z" transform="translate(-547.357 -51.145)" fill="#ffe3cb"/>
            </g>
            <g id="Group_38628" data-name="Group 38628" transform="translate(8.698 2.382)" style="mix-blend-mode: screen;isolation: isolate">
              <path id="Path_33375" data-name="Path 33375" d="M570.62,57.4c.224.026.448.054.671.088a10.39,10.39,0,0,1,1.71.429c.277.092.553.193.821.31.168.074.336.152.508.219a3.9,3.9,0,0,0-1.122-.658A6.83,6.83,0,0,0,570.62,57.4Z" transform="translate(-570.62 -57.394)" fill="#ffe3cb"/>
            </g>
            <g id="Group_38629" data-name="Group 38629" transform="translate(0.229 5.631)" style="mix-blend-mode: screen;isolation: isolate">
              <path id="Path_33376" data-name="Path 33376" d="M547.523,68.167a2.136,2.136,0,0,0,.357-.058,17,17,0,0,0,2.8-.937,4.9,4.9,0,0,1,1.319-.4,4.811,4.811,0,0,1,1.251.046c.469.071.931.182,1.4.252.5.075,1,.122,1.5.153a7.7,7.7,0,0,0,1.763-.025c-.325.008-.649-.005-.963-.028a20.434,20.434,0,0,1-2.441-.332c-.451-.088-.9-.18-1.357-.242a5.3,5.3,0,0,0-1.319-.052,4.983,4.983,0,0,0-1.321.449c-.49.205-.978.417-1.478.6a7.807,7.807,0,0,1-1.5.4c-.108.016-.215.023-.323.032a.494.494,0,0,0-.231.055c-.19.123-.174.4-.108.589a.677.677,0,0,1,.037-.166.47.47,0,0,1,.363-.319A1.845,1.845,0,0,1,547.523,68.167Z" transform="translate(-546.824 -66.523)" fill="#ffe3cb"/>
            </g>
            <g id="Group_38630" data-name="Group 38630" transform="translate(0.107 2.646)" style="mix-blend-mode: multiply;isolation: isolate">
              <path id="Path_33377" data-name="Path 33377" d="M549.724,60.144c-.159.186-.312.378-.478.559a2.726,2.726,0,0,1-1.211.886,1.127,1.127,0,0,1-.983-.234c-.1.166-.2.331-.3.5s-.289.459-.2.663a.19.19,0,0,0,.044.061.537.537,0,0,0-.115.119,1.647,1.647,0,0,0,.528-.112c.226-.075.452-.131.683-.188a12.471,12.471,0,0,0,1.506-.479c.453-.177.9-.376,1.36-.531A4.961,4.961,0,0,1,551.9,61.1a6.476,6.476,0,0,1,1.384.118c.732.123,1.462.269,2.2.375a7.05,7.05,0,0,0,2.169.048,3.029,3.029,0,0,0,.972-.327c.249-.138.587-.354.64-.658a.884.884,0,0,0-.322-.7,7.1,7.1,0,0,0-.708-.615,4.407,4.407,0,0,0-1.046-.71,3.915,3.915,0,0,0-1.444-.194c-1.08-.019-2.159.049-3.237.114a9.357,9.357,0,0,1-1.169.095c-.364-.024-.568-.305-.826-.514a1.24,1.24,0,0,1,.118.629,1.732,1.732,0,0,1-.37.746C550.089,59.731,549.9,59.934,549.724,60.144Z" transform="translate(-546.481 -58.137)" fill="#ffe3cb"/>
            </g>
            <g id="Group_38631" data-name="Group 38631" transform="translate(2.972 3.133)" style="mix-blend-mode: multiply;isolation: isolate">
              <path id="Path_33378" data-name="Path 33378" d="M563.8,62.2a2.043,2.043,0,0,0,.435-.309.4.4,0,0,0,.029-.231c-.055-.31-.359-.51-.609-.657a6.845,6.845,0,0,0-2.462-.838,28.657,28.657,0,0,0-3.176-.273q-.4-.015-.8-.019a5.21,5.21,0,0,1-.715-.02,1.072,1.072,0,0,1-.6-.348,2.1,2.1,0,0,1,0,.766,2.558,2.558,0,0,1-.3.734c-.169.3-.345.6-.527.893s-.368.56-.552.841c.4-.161.8-.333,1.213-.472a4.96,4.96,0,0,1,1.337-.282,6.476,6.476,0,0,1,1.384.118c.732.123,1.462.269,2.2.375a7.05,7.05,0,0,0,2.169.048A3.029,3.029,0,0,0,563.8,62.2Z" transform="translate(-554.53 -59.505)" fill="#fcd1c2"/>
            </g>
            <g id="Group_38632" data-name="Group 38632" transform="translate(0.2)" style="mix-blend-mode: multiply;isolation: isolate">
              <path id="Path_33379" data-name="Path 33379" d="M572.261,66.647c.071-.906.138-1.816.175-2.727a16.552,16.552,0,0,1-2.041-1.059,9.272,9.272,0,0,1-1.073-.777,4.923,4.923,0,0,1-.871-.888c-.621-.888-.479-2-.7-3l-.1-.026a8.635,8.635,0,0,0-2.723-3.329c-.682-.575-1.378-1.15-2.1-1.674a7.608,7.608,0,0,0-1.37-.817,6.619,6.619,0,0,0-1.532-.427c-.538-.1-1.077-.179-1.609-.3-.565-.133-1.125-.289-1.685-.444-.526-.145-1.054-.3-1.588-.411a2.281,2.281,0,0,0-1.276.07c-.046.017-.091.037-.137.055a7.231,7.231,0,0,1,1.383.3c.367.117.727.253,1.1.364.4.12.8.228,1.2.331.751.194,1.512.361,2.249.6a8.162,8.162,0,0,1,3.332,1.954,6.964,6.964,0,0,1,1.214,1.638,3.644,3.644,0,0,1,.429,1.686,3.442,3.442,0,0,1-1.5,2.777,5.24,5.24,0,0,1-3.713.755,7.529,7.529,0,0,1-1.959-.55,9.209,9.209,0,0,1-1.794-1.074,7.3,7.3,0,0,0-1.889-1.127,3.627,3.627,0,0,0-2.06-.057c-.631.153-1.234.4-1.861.571a4.814,4.814,0,0,1-1.458.182,3,3,0,0,1-1.557-.431,2.094,2.094,0,0,0,.286.343,2.26,2.26,0,0,0,1.159.573c.1.02.2.033.305.045-.012.015-.013.033.012.049s.056.044.084.066a5.553,5.553,0,0,1,1.442.133,4.123,4.123,0,0,1,2.1,1.567,1.772,1.772,0,0,1,.457.92.633.633,0,0,1-.269.56,1.321,1.321,0,0,0,.313-.092,4.028,4.028,0,0,0,.7.315,2.079,2.079,0,0,0,.642.141.98.98,0,0,0,.952-.612c0-.011.006-.022.01-.033a9.607,9.607,0,0,0,.923.434q.506.23,1.007.468c.682.321,1.365.642,2.072.908a6.969,6.969,0,0,0,4.3.4,4.8,4.8,0,0,0,1.09-.444l.047-.027c.295.165.6.315.9.466.69.346,1.376.7,2.07,1.039,1.393.679,2.792,1.354,4.207,1.986.2.088.394.171.591.256Q572.2,67.456,572.261,66.647Z" transform="translate(-546.742 -50.701)" fill="#ffe3cb"/>
            </g>
            <g id="Group_38633" data-name="Group 38633" transform="translate(17.872 3.706)" style="mix-blend-mode: multiply;isolation: isolate">
              <path id="Path_33380" data-name="Path 33380" d="M598.221,63.928a7.514,7.514,0,0,1,.69,3.26,3.932,3.932,0,0,0,.2-.653,7.323,7.323,0,0,0-.067-2.784,11.544,11.544,0,0,0-2.13-2.207q-.256-.216-.515-.431A12.576,12.576,0,0,1,598.221,63.928Z" transform="translate(-596.399 -61.113)" fill="#ffe3cb"/>
            </g>
            <g id="Group_38634" data-name="Group 38634" transform="translate(2.905 8.165)" style="mix-blend-mode: multiply;isolation: isolate">
              <path id="Path_33381" data-name="Path 33381" d="M618.784,97.732q-.027.353-.053.706c.153-.158.3-.32.449-.486Z" transform="translate(-595.815 -89.159)" fill="#ffe3cb"/>
              <path id="Path_33382" data-name="Path 33382" d="M577.1,82.1c-.489-.272-1-.511-1.5-.761s-1.013-.5-1.52-.75l-1.5-.734a7.917,7.917,0,0,1-1-.536,1.207,1.207,0,0,1-.5-.579,1.182,1.182,0,0,1,.087-.838c.189-.441.462-.844.665-1.279l.023-.051-.083.072c-.418.36-.878.669-1.328.985a9.069,9.069,0,0,1-1.8,1.08,6.068,6.068,0,0,1-1.838.426A3.2,3.2,0,0,1,565,78.8a.09.09,0,0,1,.036-.159,7.377,7.377,0,0,0,2.479-.683,10.617,10.617,0,0,1-1.415.066,6.407,6.407,0,0,1-1.751-.3,9.442,9.442,0,0,1-2.913-1.607,20.081,20.081,0,0,0-2.6-2.045,3.325,3.325,0,0,0-1.511-.424,4.93,4.93,0,0,0-1.039.108,7.232,7.232,0,0,0-1.217.333,3.036,3.036,0,0,0-.727.366c.446.016.885-.1,1.331-.118a1.619,1.619,0,0,1,.633.085,1.428,1.428,0,0,1,.516.358,3.735,3.735,0,0,1,.736,1.071,2.173,2.173,0,0,1,.215,1.212,1.364,1.364,0,0,1-.373.739c.043-.014.087-.028.128-.047.037.022.075.042.114.062.14-.149.293-.287.421-.447s.19-.38.313-.556a.441.441,0,0,1,.4-.2.544.544,0,0,1,.316.111,1.042,1.042,0,0,1,.325.689,3,3,0,0,1,.017.65.937.937,0,0,0,.386-.461c0-.011.006-.022.01-.033a9.6,9.6,0,0,0,.923.434q.505.23,1.007.468c.682.321,1.365.642,2.072.908a6.969,6.969,0,0,0,4.3.4,4.8,4.8,0,0,0,1.09-.444l.047-.027c.295.165.6.315.9.466.69.346,1.376.7,2.07,1.039,1.393.679,2.792,1.354,4.207,1.986.2.088.394.171.591.256Q577.069,82.573,577.1,82.1Z" transform="translate(-554.342 -73.644)" fill="#ffe3cb"/>
            </g>
          </g>
        </g>
        <g id="Group_38639" data-name="Group 38639" transform="translate(7.759 0)">
          <g id="Group_38637" data-name="Group 38637" transform="translate(0)">
            <rect id="Rectangle_17336" data-name="Rectangle 17336" width="13.622" height="29.876" transform="matrix(0.997, 0.076, -0.076, 0.997, 2.269, 0)" fill="#7ebf4d"/>
            <path id="Path_33383" data-name="Path 33383" d="M540.4,54.391,526.82,53.356l2.217-29.105,8.706-.025Z" transform="translate(-526.82 -23.567)" fill="#b5d99a" style="mix-blend-mode: multiply;isolation: isolate"/>
            <path id="Path_33384" data-name="Path 33384" d="M540.946,53.751l-12.581-.958,2.171-28.5,12.581.958Zm-12.28-1.216,12.023.916,2.128-27.94L530.794,24.6Z" transform="translate(-527.816 -23.611)" fill="#fff"/>
          </g>
          <ellipse id="Ellipse_4230" data-name="Ellipse 4230" cx="6.631" cy="4.724" rx="6.631" ry="4.724" transform="matrix(0.076, -0.997, 0.997, 0.076, 2.712, 21.665)" fill="#9fb684"/>
          <path id="Path_33385" data-name="Path 33385" d="M540.574,60.667c-2.438-.186-4.21-3.1-3.951-6.5s2.453-6.017,4.891-5.831,4.21,3.1,3.951,6.5S543.011,60.852,540.574,60.667Zm.925-12.15c-2.335-.178-4.439,2.361-4.69,5.659s1.444,6.126,3.779,6.3,4.439-2.361,4.691-5.659S543.834,48.695,541.5,48.517Z" transform="translate(-533.118 -39.087)" fill="#fff"/>
          <g id="Group_38638" data-name="Group 38638" transform="translate(5.264 14.075)">
            <path id="Path_33386" data-name="Path 33386" d="M541.643,62.839l.651.049a1.886,1.886,0,0,1,.359-.965l.42.188a1.728,1.728,0,0,0-.348.908.68.68,0,0,0,.574.815c.354.027.593-.208.823-.67.308-.638.636-1.022,1.2-.979a1.061,1.061,0,0,1,.964,1.053l.651.05-.03.4-.626-.048a1.72,1.72,0,0,1-.29.821l-.413-.194a1.562,1.562,0,0,0,.281-.8c.038-.5-.245-.706-.5-.726-.335-.026-.521.2-.8.743-.321.644-.682.953-1.256.91a1.125,1.125,0,0,1-1.019-1.1l-.671-.051Z" transform="translate(-541.612 -61.923)" fill="#fff"/>
          </g>
        </g>
        <g id="Group_38642" data-name="Group 38642" transform="translate(4.612 0.163)">
          <g id="Group_38640" data-name="Group 38640" transform="translate(0 0)">
            <rect id="Rectangle_17337" data-name="Rectangle 17337" width="13.621" height="29.876" transform="translate(0 1.889) rotate(-7.97)" fill="#7ebf4d"/>
            <path id="Path_33387" data-name="Path 33387" d="M536.088,53.133l-12.5,1.749-3.963-28.3,12.5-1.75Zm-12.257,1.434L535.772,52.9l-3.885-27.75-11.941,1.672Z" transform="translate(-519.043 -24.118)" fill="#fff"/>
            <path id="Path_33388" data-name="Path 33388" d="M535.081,53.159l-12.959,2.253L517.98,25.825l9.129-1.278Z" transform="translate(-517.98 -23.936)" fill="#b5d99a" style="mix-blend-mode: multiply;isolation: isolate"/>
          </g>
          <ellipse id="Ellipse_4231" data-name="Ellipse 4231" cx="4.724" cy="6.631" rx="4.724" ry="6.631" transform="translate(3.219 9.826) rotate(-7.97)" fill="#9fb684"/>
          <path id="Path_33389" data-name="Path 33389" d="M535.511,62.035c-2.421.339-4.775-2.134-5.248-5.511s1.112-6.4,3.533-6.741,4.776,2.134,5.249,5.511S537.932,61.7,535.511,62.035Zm-1.689-12.067c-2.319.325-3.833,3.254-3.374,6.53s2.719,5.677,5.038,5.352,3.833-3.254,3.375-6.53S536.141,49.643,533.822,49.968Z" transform="translate(-525.838 -40.171)" fill="#fff"/>
          <g id="Group_38641" data-name="Group 38641" transform="translate(6.156 14.454)">
            <path id="Path_33390" data-name="Path 33390" d="M535.278,64.878l.647-.09a1.885,1.885,0,0,1,.145-1.02l.451.094a1.725,1.725,0,0,0-.146.961c.064.455.369.726.735.674s.535-.33.661-.83c.165-.689.4-1.134.96-1.212a1.061,1.061,0,0,1,1.167.823l.647-.09.055.4-.621.087a1.721,1.721,0,0,1-.107.864l-.445-.1a1.563,1.563,0,0,0,.105-.837c-.069-.493-.39-.638-.646-.6-.333.047-.467.307-.619.9-.176.7-.463,1.077-1.033,1.157a1.125,1.125,0,0,1-1.23-.859l-.666.093Z" transform="translate(-535.278 -63.444)" fill="#fff"/>
          </g>
        </g>
        <g id="Group_38645" data-name="Group 38645" transform="translate(0 0.461)">
          <g id="Group_38643" data-name="Group 38643" transform="translate(0 0)">
            <rect id="Rectangle_17338" data-name="Rectangle 17338" width="13.622" height="29.876" transform="matrix(0.96, -0.28, 0.28, 0.96, 0, 3.82)" fill="#7ebf4d"/>
            <path id="Path_33391" data-name="Path 33391" d="M527.011,53.246,514.9,56.784l-8.015-27.433L519,25.812ZM515.09,56.437l11.574-3.382-7.859-26.9-11.574,3.382Z" transform="translate(-506.221 -25.05)" fill="#fff"/>
          </g>
          <ellipse id="Ellipse_4232" data-name="Ellipse 4232" cx="4.724" cy="6.631" rx="4.724" ry="6.631" transform="translate(4.333 11.209) rotate(-16.287)" fill="#fecf7d"/>
          <path id="Path_33392" data-name="Path 33392" d="M528.577,64.282c-2.346.685-5.034-1.42-5.99-4.694s.174-6.5,2.521-7.181,5.034,1.42,5.991,4.694S530.924,63.6,528.577,64.282Zm-3.417-11.7c-2.248.657-3.322,3.774-2.394,6.95s3.511,5.224,5.759,4.567,3.322-3.774,2.394-6.95S527.408,51.93,525.16,52.587Z" transform="translate(-516.115 -42.096)" fill="#fff"/>
          <g id="Group_38644" data-name="Group 38644" transform="translate(8.117 14.831)">
            <path id="Path_33393" data-name="Path 33393" d="M527.826,67.293l.627-.183a1.884,1.884,0,0,1,0-1.03l.459.027a1.723,1.723,0,0,0-.006.972.679.679,0,0,0,.824.561c.342-.1.482-.4.534-.918.063-.706.235-1.18.775-1.338a1.061,1.061,0,0,1,1.273.645l.627-.183.112.385-.6.176a1.728,1.728,0,0,1,.018.87l-.455-.035a1.564,1.564,0,0,0-.017-.844c-.14-.478-.478-.575-.726-.5-.323.094-.417.371-.483.977-.074.716-.3,1.133-.855,1.294a1.126,1.126,0,0,1-1.342-.673l-.646.189Z" transform="translate(-527.826 -65.342)" fill="#fff"/>
          </g>
        </g>
        <g id="Group_38653" data-name="Group 38653" transform="translate(14.649 15.595)">
          <g id="Group_38652" data-name="Group 38652">
            <g id="Group_38646" data-name="Group 38646">
              <path id="Path_33394" data-name="Path 33394" d="M561.507,72.7a3.43,3.43,0,0,0,.48-3.4,4.192,4.192,0,0,0-1.224-1.75,3.131,3.131,0,0,0-1.012-.576c-.279-.1-.565-.174-.846-.267l-.424.055a7.668,7.668,0,0,1-1.114.052c-1.456-.033-2.877-.383-4.317-.557a6.5,6.5,0,0,0-2.045.036,6.8,6.8,0,0,0-.685.177c-.382.146-.752.314-1.123.489a7.972,7.972,0,0,1-1.22.488c-.356.1-.722.115-1.083.185a1.282,1.282,0,0,0-.639.3c-.226.419.119.91.412,1.2a2.261,2.261,0,0,0,1.159.573c.1.02.2.033.305.045a.039.039,0,0,0-.006.011c.26,0,.52.016.78.027.575-.075,1.135-.258,1.711-.337.048-.007.1-.01.145-.015a1.958,1.958,0,0,1,.568-.094,2.653,2.653,0,0,1,.764.084h.01a2.392,2.392,0,0,1,1.175.478c.775.561,1.51,1.173,2.279,1.742A10.934,10.934,0,0,0,558,73.1a6.284,6.284,0,0,0,1.749.392,5.425,5.425,0,0,0,1.021-.168A3.275,3.275,0,0,0,561.507,72.7Z" transform="translate(-546.182 -66.192)" fill="#d09670"/>
            </g>
            <g id="Group_38647" data-name="Group 38647" transform="translate(2.169 3.547)">
              <path id="Path_33395" data-name="Path 33395" d="M552.828,76.2q.147-.019.292-.046a5.446,5.446,0,0,1-.844.024h0C552.461,76.189,552.644,76.2,552.828,76.2Z" transform="translate(-552.276 -76.158)" fill="#ffe3cb"/>
            </g>
            <g id="Group_38648" data-name="Group 38648" transform="translate(6.917 3.591)">
              <path id="Path_33396" data-name="Path 33396" d="M565.8,76.4c.215.156.427.315.637.477l-.008-.009c-.009-.011,0-.021.014-.026-.145-.113-.292-.224-.443-.328q-.183-.125-.377-.233C565.678,76.319,565.737,76.358,565.8,76.4Z" transform="translate(-565.618 -76.281)" fill="#ffe3cb"/>
            </g>
            <g id="Group_38649" data-name="Group 38649" transform="translate(0.228 0.118)">
              <path id="Path_33397" data-name="Path 33397" d="M549.16,69.832a9.342,9.342,0,0,0,1.393-.157,9.99,9.99,0,0,1,1.389-.216,3.187,3.187,0,0,1,1.4.263,5.786,5.786,0,0,1,1.219.78,28.716,28.716,0,0,0,2.811,2.128,6.935,6.935,0,0,0,3.03,1.053,5.509,5.509,0,0,0,1.131-.251,2.713,2.713,0,0,0,1.24-.823,3.276,3.276,0,0,0,.572-2.69,3.905,3.905,0,0,0-1.65-2.6,3.069,3.069,0,0,0-1.72-.457c-.178.005-.354.022-.531.043l-.06.048a5.9,5.9,0,0,1-2.436.222,20.433,20.433,0,0,1-2.441-.332c-.451-.088-.9-.18-1.357-.242a5.3,5.3,0,0,0-1.32-.052,4.987,4.987,0,0,0-1.321.449c-.49.205-.978.417-1.478.6a7.81,7.81,0,0,1-1.5.4c-.108.016-.215.023-.324.032a.494.494,0,0,0-.231.055c-.2.13-.172.432-.1.622a1.755,1.755,0,0,0,.934.914A3.2,3.2,0,0,0,549.16,69.832Z" transform="translate(-546.823 -66.523)" fill="#ffe3cb"/>
              <path id="Path_33398" data-name="Path 33398" d="M570.4,79.867l-.221-.179-.093-.076.021.028Z" transform="translate(-561.804 -74.953)" fill="#ffe3cb"/>
            </g>
            <g id="Group_38650" data-name="Group 38650" transform="translate(0.229 0.118)" style="mix-blend-mode: screen;isolation: isolate">
              <path id="Path_33399" data-name="Path 33399" d="M547.523,68.167a2.136,2.136,0,0,0,.357-.058,17,17,0,0,0,2.8-.937,4.9,4.9,0,0,1,1.319-.4,4.811,4.811,0,0,1,1.251.046c.469.071.931.182,1.4.252.5.075,1,.122,1.5.153a7.7,7.7,0,0,0,1.763-.025c-.325.008-.649-.005-.963-.028a20.434,20.434,0,0,1-2.441-.332c-.451-.088-.9-.18-1.357-.242a5.3,5.3,0,0,0-1.319-.052,4.983,4.983,0,0,0-1.321.449c-.49.205-.978.417-1.478.6a7.807,7.807,0,0,1-1.5.4c-.108.016-.215.023-.323.032a.494.494,0,0,0-.231.055c-.19.123-.174.4-.108.589a.677.677,0,0,1,.037-.166.47.47,0,0,1,.363-.319A1.845,1.845,0,0,1,547.523,68.167Z" transform="translate(-546.824 -66.523)" fill="#ffe3cb"/>
            </g>
            <g id="Group_38651" data-name="Group 38651" transform="translate(0.199 2.15)" style="mix-blend-mode: multiply;isolation: isolate">
              <path id="Path_33400" data-name="Path 33400" d="M563.361,74.147a3.624,3.624,0,0,1-.328.259,5.24,5.24,0,0,1-3.713.755,7.529,7.529,0,0,1-1.959-.55,9.208,9.208,0,0,1-1.794-1.074,7.3,7.3,0,0,0-1.889-1.127,3.627,3.627,0,0,0-2.06-.057c-.631.153-1.234.4-1.861.571a4.815,4.815,0,0,1-1.458.182,3,3,0,0,1-1.557-.431,2.094,2.094,0,0,0,.286.343,2.26,2.26,0,0,0,1.159.573c.1.02.2.033.305.045a.039.039,0,0,0-.006.011c.26,0,.52.016.78.027.576-.075,1.135-.258,1.711-.337.048-.007.1-.01.145-.015a1.959,1.959,0,0,1,.568-.094,2.653,2.653,0,0,1,.764.084h.01a2.393,2.393,0,0,1,1.175.478c.775.561,1.51,1.173,2.279,1.742a10.935,10.935,0,0,0,2.446,1.455,6.284,6.284,0,0,0,1.748.392,5.473,5.473,0,0,0,1.373-.273,2.714,2.714,0,0,0,1.24-.823A3.084,3.084,0,0,0,563.361,74.147Z" transform="translate(-546.742 -72.232)" fill="#ffe3cb"/>
            </g>
          </g>
        </g>
      </g>
      <g id="Group_38655" data-name="Group 38655" transform="translate(460.867 5.12)">
        <path id="Path_33401" data-name="Path 33401" d="M489.867,5.12a29,29,0,1,0,29,29A29,29,0,0,0,489.867,5.12Zm0,54.96a25.959,25.959,0,1,1,25.96-25.959A25.959,25.959,0,0,1,489.867,60.08Z" transform="translate(-460.867 -5.12)" fill="#394675"/>
      </g>
      <path id="Path_33402" data-name="Path 33402" d="M484.074,67.145l40-39.078,2.528,4L487.612,70.542Z" transform="translate(-14.948 -14.781)" fill="#394675"/>
    </g>
  </g>
</svg>
