<svg xmlns="http://www.w3.org/2000/svg" width="24" height="24" viewBox="0 0 24 24">
  <g id="Group_39672" data-name="Group 39672" transform="translate(6158 -194)">
    <rect id="Rectangle_17702" data-name="Rectangle 17702" width="24" height="24" transform="translate(-6158 194)" fill="none"/>
    <g id="Group_39671" data-name="Group 39671" transform="translate(-6486.365 119.416)">
      <g id="Icon_feather-more-horizontal" data-name="Icon feather-more-horizontal" transform="translate(329.953 83.584)">
        <path id="Path_33195" data-name="Path 33195" d="M11.374,19.187A2.687,2.687,0,1,1,8.687,16.5,2.687,2.687,0,0,1,11.374,19.187Z" transform="translate(-6 -16.5)" fill="#fff"/>
      </g>
      <g id="Icon_feather-more-horizontal-2" data-name="Icon feather-more-horizontal" transform="translate(337.678 83.584)">
        <path id="Path_33195-2" data-name="Path 33195" d="M11.374,19.187A2.687,2.687,0,1,1,8.687,16.5,2.687,2.687,0,0,1,11.374,19.187Z" transform="translate(-6 -16.5)" fill="#fff"/>
      </g>
      <g id="Icon_feather-more-horizontal-3" data-name="Icon feather-more-horizontal" transform="translate(345.403 83.584)">
        <path id="Path_33195-3" data-name="Path 33195" d="M11.374,19.187A2.687,2.687,0,1,1,8.687,16.5,2.687,2.687,0,0,1,11.374,19.187Z" transform="translate(-6 -16.5)" fill="#fff"/>
      </g>
    </g>
  </g>
</svg>
