<svg xmlns="http://www.w3.org/2000/svg" width="27.702" height="27.702" viewBox="0 0 27.702 27.702">
  <g id="Group_13407" data-name="Group 13407" transform="translate(0 0)">
    <path id="Subtraction_9" data-name="Subtraction 9" d="M-6616.452-4357.448c-1.42,0-2.437-1.063-3.253-1.918l-.014-.014a4.911,4.911,0,0,0-1.228-1.072,5.33,5.33,0,0,0-1.274-.157c-.158,0-.315.007-.468.022h-.338a4.322,4.322,0,0,1-3.253-.92c-.943-.932-.918-2.268-.9-3.447l0-.14a5.066,5.066,0,0,0-.135-1.742,4.913,4.913,0,0,0-1.072-1.228l-.042-.041c-.836-.8-1.877-1.791-1.877-3.194a4.694,4.694,0,0,1,1.831-3.173l.1-.095a4.933,4.933,0,0,0,1.07-1.228,5.172,5.172,0,0,0,.135-1.742v-.165a4.553,4.553,0,0,1,.92-3.423,3.935,3.935,0,0,1,2.966-.928c.223,0,.447,0,.626.009.159.015.321.022.48.022a5.059,5.059,0,0,0,1.262-.158,4.937,4.937,0,0,0,1.227-1.07l.084-.085a4.619,4.619,0,0,1,3.151-1.815c1.378,0,2.376,1.021,3.179,1.84l.089.091a4.931,4.931,0,0,0,1.228,1.072,5.246,5.246,0,0,0,1.268.157c.158,0,.317-.007.472-.022h.338a4.324,4.324,0,0,1,3.255.921c.977.971.947,2.361.92,3.587a5.035,5.035,0,0,0,.135,1.74,4.9,4.9,0,0,0,1.071,1.23l.081.08a4.623,4.623,0,0,1,1.818,3.155,4.689,4.689,0,0,1-1.824,3.168l-.1.1a4.892,4.892,0,0,0-1.072,1.228,5.212,5.212,0,0,0-.136,1.742v.171a4.543,4.543,0,0,1-.919,3.417,3.931,3.931,0,0,1-2.964.928c-.223,0-.448-.005-.628-.009-.159-.015-.319-.022-.479-.022a5.055,5.055,0,0,0-1.262.159,4.923,4.923,0,0,0-1.228,1.07l-.094.095A4.623,4.623,0,0,1-6616.452-4357.448Zm0-20.294a6.447,6.447,0,0,0-6.437,6.443,6.448,6.448,0,0,0,6.437,6.444A6.455,6.455,0,0,0-6610-4371.3,6.454,6.454,0,0,0-6616.455-4377.742Zm.007,11.6a5.161,5.161,0,0,1-5.155-5.155,5.161,5.161,0,0,1,5.155-5.155,5.161,5.161,0,0,1,5.155,5.155A5.161,5.161,0,0,1-6616.448-4366.144Zm-.644-3.221v1.288h1.288v-1.288Zm0-5.155v3.866h1.288v-3.866Z" transform="translate(6630.299 4385.149)" fill="#fb0"/>
  </g>
</svg>
