<svg xmlns="http://www.w3.org/2000/svg" width="23" height="23" viewBox="0 0 23 23">
  <g id="Group_39805" data-name="Group 39805" transform="translate(-220.676 -152.676)">
    <circle id="Ellipse_4260" data-name="Ellipse 4260" cx="11.5" cy="11.5" r="11.5" transform="translate(220.676 152.676)" fill="#11d16e"/>
    <path id="Path_34608" data-name="Path 34608" d="M16.445,6.154a.843.843,0,0,1,.2,1.175L11.87,14.092c-.3.428-.561.793-.793,1.07a2.633,2.633,0,0,1-.875.725,2.386,2.386,0,0,1-1.712.129,2.555,2.555,0,0,1-.969-.592c-.266-.24-.567-.563-.919-.941L5.224,13.005a.843.843,0,1,1,1.233-1.15l1.354,1.452c.384.411.636.68.841.866a.967.967,0,0,0,.325.229.694.694,0,0,0,.5-.039,1.027,1.027,0,0,0,.3-.285c.182-.217.4-.523.728-.987L15.27,6.357a.843.843,0,0,1,1.175-.2" transform="translate(221.283 153.117)" fill="#fff"/>
  </g>
</svg>
