<svg xmlns="http://www.w3.org/2000/svg" width="196" height="196" viewBox="0 0 196 196">
  <g id="Group_39639" data-name="Group 39639" transform="translate(-80 -101)">
    <g id="Group_37661" data-name="Group 37661" transform="translate(111 172.118)">
      <g id="Group_37659" data-name="Group 37659" transform="translate(-4.85 -1.936)">
        <g id="Group_37658" data-name="Group 37658" transform="translate(103.938 31.118)">
          <path id="Subtraction_4" data-name="Subtraction 4" d="M13.259,26.517a13.11,13.11,0,0,1-5.151-1.045A13.368,13.368,0,0,1,1.045,18.41a13.218,13.218,0,0,1,0-10.3A13.368,13.368,0,0,1,8.107,1.045a13.217,13.217,0,0,1,10.3,0,13.367,13.367,0,0,1,7.062,7.062,13.218,13.218,0,0,1,0,10.3,13.367,13.367,0,0,1-7.062,7.062A13.111,13.111,0,0,1,13.259,26.517Zm0-20.871a7.612,7.612,0,1,0,7.612,7.612A7.621,7.621,0,0,0,13.259,5.647Z" transform="translate(0 0)" fill="#bdb8c9" stroke="rgba(0,0,0,0)" stroke-width="1"/>
          <path id="Path_32946" data-name="Path 32946" d="M3358.112,1910.03l-.967,4.9-4.929-.624a6.719,6.719,0,0,0-.5,1.529l4.368,2.4-2.122,4.524a6.133,6.133,0,0,0,1.279.936l3.65-3.4,3.65,3.4a5.4,5.4,0,0,0,1.279-.936l-2.121-4.524,4.367-2.4a6.668,6.668,0,0,0-.468-1.529l-4.961.624-.936-4.9a7.089,7.089,0,0,0-.811-.031,6.305,6.305,0,0,0-.78.031Z" transform="translate(-3345.633 -1904.072)" fill="#bdb8c9" fill-rule="evenodd"/>
          <path id="Path_32947" data-name="Path 32947" d="M3434.757,2000.2a3.65,3.65,0,1,0-3.65-3.65,3.675,3.675,0,0,0,3.65,3.65Z" transform="translate(-3421.498 -1983.293)" fill="#bdb8c9" fill-rule="evenodd"/>
          <path id="Path_32948" data-name="Path 32948" d="M3479.74,2042.454a1.591,1.591,0,0,0,0-3.182,1.591,1.591,0,0,0,0,3.182Z" transform="translate(-3466.481 -2027.604)" fill="#bdb8c9" fill-rule="evenodd"/>
        </g>
        <g id="Group_37657" data-name="Group 37657" transform="translate(12.374 31.056)">
          <path id="Subtraction_3" data-name="Subtraction 3" d="M13.259,26.517a13.11,13.11,0,0,1-5.151-1.045A13.368,13.368,0,0,1,1.045,18.41a13.218,13.218,0,0,1,0-10.3A13.368,13.368,0,0,1,8.107,1.045a13.261,13.261,0,0,1,10.321,0A13.364,13.364,0,0,1,25.5,8.107a13.212,13.212,0,0,1,0,10.3,13.3,13.3,0,0,1-12.244,8.107Zm0-20.871a7.612,7.612,0,1,0,7.612,7.612A7.605,7.605,0,0,0,13.259,5.647Z" transform="translate(0)" fill="#bdb8c9" stroke="rgba(0,0,0,0)" stroke-width="1"/>
          <path id="Path_32951" data-name="Path 32951" d="M1296.063,1908.625l-.936,4.9-4.96-.593a7.672,7.672,0,0,0-.5,1.5l4.368,2.433-2.121,4.493a6.316,6.316,0,0,0,1.31.936l3.619-3.4,3.65,3.4a6.313,6.313,0,0,0,1.31-.936l-2.121-4.493,4.368-2.433a7.647,7.647,0,0,0-.5-1.5l-4.96.593-.936-4.9a6.748,6.748,0,0,0-.811-.031,6.48,6.48,0,0,0-.78.031Z" transform="translate(-1283.585 -1902.666)" fill="#bdb8c9" fill-rule="evenodd"/>
          <path id="Path_32952" data-name="Path 32952" d="M1373.381,1998.8a3.65,3.65,0,1,0-3.619-3.65,3.655,3.655,0,0,0,3.619,3.65Z" transform="translate(-1360.122 -1981.888)" fill="#bdb8c9" fill-rule="evenodd"/>
          <path id="Path_32953" data-name="Path 32953" d="M1417.691,2041.72a1.6,1.6,0,0,0,1.591-1.591,1.576,1.576,0,0,0-3.151,0,1.592,1.592,0,0,0,1.56,1.591Z" transform="translate(-1404.432 -2026.87)" fill="#bdb8c9" fill-rule="evenodd"/>
        </g>
        <path id="Subtraction_2" data-name="Subtraction 2" d="M133.373,47.743a3,3,0,0,1-.453-.028,14.681,14.681,0,0,0,.343-3.338,16.067,16.067,0,1,0-32.133,0,16.576,16.576,0,0,0,.344,3.338H101.1c-1.306-.016-3.961-.024-8.118-.024-5.192,0-11.938.012-19.079.025h-.539c-6.74.012-14.379.025-20.348.025-7.022,0-10.835-.019-11.659-.058a15.119,15.119,0,0,0,.375-3.369,16.082,16.082,0,0,0-32.164,0,15.689,15.689,0,0,0,.343,3.245,1.533,1.533,0,0,1-.217.014c-.077,0-.155,0-.217-.007s-.127-.007-.189-.007H5.647a5.455,5.455,0,0,1-3.871-1.332A5.86,5.86,0,0,1,.114,42.505a50.552,50.552,0,0,1-.062-5.8A20.261,20.261,0,0,1,.27,33.957a20.087,20.087,0,0,1,.825-2.3v0a20.088,20.088,0,0,0,.827-2.309,20.921,20.921,0,0,0,.228-2.572c.026-.5.051-.971.084-1.327a10.262,10.262,0,0,0,.053-1.246,4.6,4.6,0,0,1,.446-2.466,4.052,4.052,0,0,0,.312-.468c.664-1.024,2.043-1.936,4.215-2.788A51.848,51.848,0,0,1,12.9,16.753c.78-.2,1.453-.381,2-.547.782-.17,1.544-.373,2.121-.53h.094c.336-.095.679-.183,1.011-.268a16.752,16.752,0,0,0,2.608-.824,37.2,37.2,0,0,0,4.773-2.558c.311-.2.588-.416.856-.623l0,0c.268-.207.545-.42.857-.623A57.42,57.42,0,0,1,36.946,4.69,47.1,47.1,0,0,1,48,1.387,67.285,67.285,0,0,1,61.6,0c1.094,0,2.228.026,3.37.077a71.612,71.612,0,0,1,8.579.842,65.826,65.826,0,0,1,9.983,2.352A68.073,68.073,0,0,1,93.05,7.19c3.887,1.928,7.259,4.1,13.914,8.454a28.4,28.4,0,0,0,5.705,2.551l.191.069c.517.19,3.809.741,7.295,1.324l.081.013,1.516.254c2.855.473,5.886,1,8.8,1.778A31.547,31.547,0,0,1,138.879,25c.136.091.3.188.472.292l0,0a7.565,7.565,0,0,1,.834.548,8.225,8.225,0,0,1,2.683,4.212,9.416,9.416,0,0,1,.438,3.018,14.052,14.052,0,0,0,.218,2.317,5.176,5.176,0,0,0,.369,1.1,4.944,4.944,0,0,1,.442,1.523,29.562,29.562,0,0,1-.156,5.4,7.893,7.893,0,0,1-.655,2.141,4.986,4.986,0,0,1-1.31,1.79,2.09,2.09,0,0,1-1.472.375H134.48c-.2,0-.4.007-.588.014h-.014C133.708,47.736,133.533,47.743,133.373,47.743ZM69.63,15.113h0a6.233,6.233,0,0,0,.116.656c.03.154.054.3.078.436a2.4,2.4,0,0,0,.442,1.282,2.388,2.388,0,0,0,1.632.5l12.666.717c4.8.3,11.571.325,13.532.325.939,0,1.749,0,2.223-.013.911,0,1.23-.329,1.338-.6a1.118,1.118,0,0,0-.278-1.111c-2.389-2.213-7.087-4.818-10.607-6.614a44.79,44.79,0,0,0-5.99-2.589l-.344-.108c-4.366-1.374-8.881-2.794-14.35-2.825-1.116,0-1.522.059-1.67.242-.117.144-.069.372,0,.716.035.165.075.352.106.572.116.776.345,2.489.567,4.145v0l0,.029c.2,1.486.387,2.89.489,3.59a3.71,3.71,0,0,1,.073.7h0s-.009-.009-.017-.023l0-.005c0-.009-.009-.018-.011-.018Zm-35.917,1.9c4.125,0,9.271.054,14.881.156,2.2.026,4.363.057,6.456.087l.139,0c2.863.041,5.566.08,7.849.1h.052a.78.78,0,0,0,.6-.261,1.559,1.559,0,0,0,.249-1.238c-.244-1.724-.5-3.537-.722-5.136S62.768,7.5,62.539,5.88c-.094-.653-.125-.873-1.747-.873A52.836,52.836,0,0,0,44.944,7.627a38.4,38.4,0,0,0-9.89,5.335,27.661,27.661,0,0,0-2.5,2c-.792.739-1.138,1.263-1.026,1.556.182.467.709.5,1.556.5h.628Z" transform="translate(0)" fill="#bdb8c9" stroke="rgba(0,0,0,0)" stroke-width="1"/>
      </g>
    </g>
    <rect id="Rectangle_17695" data-name="Rectangle 17695" width="196" height="196" transform="translate(80 101)" fill="none"/>
  </g>
</svg>
