<svg xmlns="http://www.w3.org/2000/svg" width="55.818" height="48.836" viewBox="0 0 55.818 48.836">
  <g id="Layer_2" data-name="Layer 2" transform="translate(0.001 0.01)">
    <g id="Layer_1" data-name="Layer 1" transform="translate(-0.001 -0.01)">
      <path id="Path_34615" data-name="Path 34615" d="M66.913,40.266a20.415,20.415,0,0,1-10.037-2.6,1.679,1.679,0,0,1-.788-1.054,26.047,26.047,0,0,0-1.761-4.163c-1.246-2.212-2.677-4.315-4-6.491A4.344,4.344,0,0,0,47.5,23.838a1.019,1.019,0,0,1-.586-.7,20.128,20.128,0,1,1,39.9-5.253,33.365,33.365,0,0,1-.106,5.288.824.824,0,0,1-.456.622,4.63,4.63,0,0,0-3.11,2.415c-1.082,1.734-2.1,3.51-3.222,5.22a14.8,14.8,0,0,0-2.5,5.55c-.043.252-.385.511-.649.664A19.751,19.751,0,0,1,66.913,40.266ZM80.907,16.82C79.557,10.077,73.066,5.3,65.84,5.648c-5.993.284-12.415,5.57-12.906,10.651a3.37,3.37,0,0,0,3.532.041,23.241,23.241,0,0,1,21.174,0A5.135,5.135,0,0,0,80.907,16.82ZM77.373,23.1a3.163,3.163,0,0,0-2.709,1.228,25.193,25.193,0,0,1-1.64,2.081c-1.638,1.63-2.106,3.7-2.378,5.864-.136,1.084.632,1.71,1.646,1.283a14.28,14.28,0,0,0,8.176-8.543,1.125,1.125,0,0,0-.979-1.683c-.74-.116-1.482-.164-2.115-.231Zm-20.926,0c-.845.073-1.62.1-2.385.214a1.136,1.136,0,0,0-.968,1.53,14.278,14.278,0,0,0,8.377,8.768c.9.368,1.65-.312,1.5-1.316-.138-.928-.3-1.856-.518-2.768a3.839,3.839,0,0,0-.568-1.363c-.956-1.32-1.964-2.6-2.976-3.884a3.042,3.042,0,0,0-2.463-1.188Zm14.518-1.441a5.69,5.69,0,1,1,0-.007Z" transform="translate(-38.915 0.01)" fill="#11d16e"/>
      <path id="Path_34616" data-name="Path 34616" d="M13.391,150.189c-.35.018-.566.042-.782.037q-4.481-.088-8.963-.184c-1.105-.025-1.549-.558-1.1-1.532a9.9,9.9,0,0,0-.5-9.522,31.463,31.463,0,0,1-1.432-3.26,7.49,7.49,0,0,1-.34-5.027c.568-2.022,1.173-4.032,1.8-6.033a4.653,4.653,0,0,1,3.781-3.1c.134,1.263.277,2.463.372,3.666.012.149-.193.362-.349.471a3.933,3.933,0,0,0-1.66,4.9c.546,1.736,1.082,3.479,1.627,5.215.156.5.443.861,1.016.744a.889.889,0,0,0,.725-1.192c-.294-1.149-.654-2.284-1.006-3.416-.221-.712-.5-1.4-.715-2.12a2.136,2.136,0,0,1,3.905-1.7c1.457,2.347,2.9,4.7,4.393,7.027a8.454,8.454,0,0,1,.868,7.552c-.28.866-.571,1.733-.923,2.573A7.1,7.1,0,0,0,13.391,150.189Z" transform="translate(0.001 -101.391)" fill="#00352e"/>
      <path id="Path_34617" data-name="Path 34617" d="M252.347,121.56a4.721,4.721,0,0,1,3.919,3.456c.586,2.129,1.263,4.236,1.809,6.375a6.641,6.641,0,0,1-.428,4.224q-1.079,2.6-2.257,5.163a7.731,7.731,0,0,0-.226,6.2,17.818,17.818,0,0,1,.624,1.887c.143.563-.05,1.019-.707,1.037-3.32.095-6.639.166-9.95.242-.048,0-.1-.04-.239-.1.6-2.183-.445-4.081-1.256-5.988a9.409,9.409,0,0,1,1.024-9.793c1.341-1.889,2.466-3.932,3.681-5.91a2.273,2.273,0,0,1,2.911-1.188c1.1.488,1.472,1.58,1.016,2.951-.471,1.414-.954,2.822-1.4,4.251a3.026,3.026,0,0,0-.207,1.368,1.158,1.158,0,0,0,.755.783,1.112,1.112,0,0,0,.9-.6q1-2.895,1.844-5.844a3.776,3.776,0,0,0-1.66-4.256.889.889,0,0,1-.475-1.057C252.186,123.731,252.243,122.684,252.347,121.56Z" transform="translate(-202.433 -101.382)" fill="#00352e"/>
      <path id="Path_34618" data-name="Path 34618" d="M158.644,118.559a2.347,2.347,0,1,1-2.359-2.334,2.347,2.347,0,0,1,2.359,2.334Z" transform="translate(-128.398 -96.933)" fill="#00352e"/>
    </g>
  </g>
</svg>
