<svg xmlns="http://www.w3.org/2000/svg" width="23.764" height="26.332" viewBox="0 0 23.764 26.332">
  <g id="Group_39946" data-name="Group 39946" transform="translate(-2.75 -1.75)">
    <path id="Path_34637" data-name="Path 34637" d="M12.5,7.5a2.248,2.248,0,1,0,2.248,2.248A2.248,2.248,0,0,0,12.5,7.5" transform="translate(2.134 1.636)" fill="#00352e"/>
    <path id="Path_34638" data-name="Path 34638" d="M14.632,1.75a3.379,3.379,0,0,0-1.7.456L4.446,7.087l0,0A3.4,3.4,0,0,0,2.75,10.033V19.8a3.391,3.391,0,0,0,1.693,2.944l0,0,2.808,1.615a7.1,7.1,0,0,1,7.377-6.734,7.1,7.1,0,0,1,7.377,6.734l2.808-1.615,0,0A3.4,3.4,0,0,0,26.514,19.8V10.034A3.4,3.4,0,0,0,24.821,7.09L16.33,2.209l0,0a3.378,3.378,0,0,0-1.7-.456m-4.175,9.634a4.175,4.175,0,1,1,4.175,4.175,4.175,4.175,0,0,1-4.175-4.175" transform="translate(0 0)" fill="#11d16e"/>
    <path id="Path_34639" data-name="Path 34639" d="M18.678,21.515l-.006-.859a5.181,5.181,0,0,0-5.461-5.046A5.181,5.181,0,0,0,7.75,20.656c0,.024,0,.319-.006.859l3.77,2.167h0a3.378,3.378,0,0,0,3.39,0h0Z" transform="translate(1.421 3.944)" fill="#00352e"/>
  </g>
</svg>
