<svg xmlns="http://www.w3.org/2000/svg" width="21.5" height="21.5" viewBox="0 0 21.5 21.5">
  <path id="Path_34747" data-name="Path 34747" d="M23,6.056A3.056,3.056,0,1,1,19.944,3,3.056,3.056,0,0,1,23,6.056M12.444,3H10.111c-2.489,0-3.733,0-4.684.484A4.444,4.444,0,0,0,3.484,5.427C3,6.378,3,7.622,3,10.111v5.778c0,2.489,0,3.733.484,4.684a4.444,4.444,0,0,0,1.942,1.942c.951.484,2.2.484,4.684.484h5.778c2.489,0,3.733,0,4.684-.484a4.444,4.444,0,0,0,1.942-1.942c.484-.951.484-2.2.484-4.684V13.556" transform="translate(-2.25 -2.25)" fill="none" stroke="#00352e" stroke-linecap="round" stroke-linejoin="round" stroke-width="1.5"/>
</svg>
