<svg xmlns="http://www.w3.org/2000/svg" xmlns:xlink="http://www.w3.org/1999/xlink" width="214.9" height="71.485" viewBox="0 0 214.9 71.485">
  <defs>
    <linearGradient id="linear-gradient" x1="0.57" y1="0.205" x2="0.5" y2="0.97" gradientUnits="objectBoundingBox">
      <stop offset="0" stop-color="#98db39"/>
      <stop offset="1" stop-color="#01dd86"/>
    </linearGradient>
  </defs>
  <g id="Group_1" data-name="Group 1" transform="translate(-188.25 -337.98)">
    <path id="Path_33139" data-name="Path 33139" d="M-69.044-35.234c-13.02,0-22.634-11.431-22.634-26.116s8.63-26.116,21.726-26.116a25.914,25.914,0,0,1,15.216,4.542v-.908a26.846,26.846,0,0,0-15.216-4.542c-15.291,0-26.8,12.036-26.8,27.025s12.415,27.025,27.706,27.025a26.642,26.642,0,0,0,15.216-4.466V-39.7A26.363,26.363,0,0,1-69.044-35.234Zm48.372-23.618c0-4.315-.454-12.718-12.263-12.718-4.693,0-9.084,1.817-13.323,5.375l.681.757c3.482-2.8,7.116-4.693,10.825-4.693,6.207,0,9.311,3.179,9.462,10.371v3.482c-7.646.606-24.072,3.936-24.072,13.777,0,5.6,5.753,8.176,10.9,8.176a18.635,18.635,0,0,0,13.172-5.3v4.769h4.618ZM-25.29-40.911a16.065,16.065,0,0,1-11.052,4.618c-4.845,0-7.873-3.179-7.873-7.191,0-3.936,2.8-9.992,18.925-11.733ZM4.839-71.57a14.755,14.755,0,0,0-13.02,8.176V-86.785a1.468,1.468,0,0,0-1.59-1.59H-17.72v.908h.151c3.936,0,4.769,1.741,4.769,5.526v47.085h.908l3.709-7.57a14.945,14.945,0,0,0,12.945,8.1c9.538,0,17.184-7.343,17.184-18.622C21.947-64.3,14.377-71.57,4.839-71.57ZM4.763-35.234c-7.267,0-12.945-6.813-12.945-17.714,0-10.976,5.753-17.714,13.02-17.714S16.875-63.47,16.875-52.948C16.875-42.5,12.03-35.234,4.763-35.234Z" transform="translate(285 434.768)" fill="#fff"/>
    <rect id="Rectangle_17156" data-name="Rectangle 17156" width="12.619" height="3.155" transform="translate(311.812 377.929)" fill="#fff"/>
    <g id="Group_37746" data-name="Group 37746" transform="translate(331.398 337.98)">
      <path id="Subtraction_4" data-name="Subtraction 4" d="M23.851,70.47a36.34,36.34,0,1,1,47.9-42.292,33.616,33.616,0,1,0-47.9,42.291Z" transform="translate(0 0)" fill="url(#linear-gradient)"/>
      <path id="Subtraction_5" data-name="Subtraction 5" d="M23.231,58.428A31.432,31.432,0,0,1,0,48.208,31.514,31.514,0,0,0,39.625,0,31.716,31.716,0,0,1,50.583,11.259a31.345,31.345,0,0,1,3.072,7.421,31.6,31.6,0,0,1,1.087,8.236A31.485,31.485,0,0,1,23.231,58.428Z" transform="translate(16.113 13.057)" fill="url(#linear-gradient)"/>
      <path id="Path_33138" data-name="Path 33138" d="M219.823,273.115a10.154,10.154,0,1,1,10.023-9.98A10.2,10.2,0,0,1,219.823,273.115Z" transform="translate(-183.689 -226.526)" fill="#fff"/>
    </g>
  </g>
</svg>
