<svg xmlns="http://www.w3.org/2000/svg" width="21.577" height="21.603" viewBox="0 0 21.577 21.603">
  <path id="Path_34738" data-name="Path 34738" d="M17,15.8c-2.661,2.8-9.448-3.926-6.777-6.737,1.631-1.717-.211-3.678-1.231-5.121C7.077,1.238,2.876,4.973,3,7.35c.4,7.5,8.511,16.377,16.361,15.6,2.455-.242,5.278-4.678,2.461-6.3-1.409-.811-3.343-2.411-4.825-.852M15.222,3A7.777,7.777,0,0,1,23,10.777M15.222,7.444a3.333,3.333,0,0,1,3.333,3.333" transform="translate(-2.248 -2.153)" fill="none" stroke="#00352e" stroke-linecap="round" stroke-linejoin="round" stroke-width="1.5"/>
</svg>
