<svg xmlns="http://www.w3.org/2000/svg" xmlns:xlink="http://www.w3.org/1999/xlink" width="17.365" height="17.379" viewBox="0 0 17.365 17.379">
  <defs>
    <linearGradient id="linear-gradient" x1="0.5" x2="0.5" y2="1" gradientUnits="objectBoundingBox">
      <stop offset="0" stop-color="#00d3f2"/>
      <stop offset="1" stop-color="#00d48d"/>
    </linearGradient>
  </defs>
  <g id="编组" transform="translate(1.5 0.592)">
    <path id="路径-9" d="M0,16.787a1.513,1.513,0,0,1-.208-.014,1.5,1.5,0,0,1-1.279-1.692L.511.7a1.5,1.5,0,0,1,2.971.413l-2,14.379A1.5,1.5,0,0,1,0,16.787Z" transform="translate(0 0)" fill="#394675"/>
    <path id="路径-9-2" data-name="路径-9" d="M1.981,15.861A1.5,1.5,0,0,1,.5,14.566L-1.486.205A1.5,1.5,0,0,1-.205-1.486,1.5,1.5,0,0,1,1.486-.205L3.469,14.156a1.5,1.5,0,0,1-1.488,1.705Z" transform="translate(14.365 15.269) rotate(180)" fill="#394675"/>
    <path id="路径-10" d="M18,4.8a1.5,1.5,0,0,1-1.5-1.5V.908a1.5,1.5,0,0,1,3,0V3.3A1.5,1.5,0,0,1,18,4.8Z" transform="translate(-10.811 0)" fill="url(#linear-gradient)"/>
    <path id="路径-10-2" data-name="路径-10" d="M18,34.2a1.5,1.5,0,0,1-1.5-1.5v-2.8a1.5,1.5,0,0,1,3,0v2.8A1.5,1.5,0,0,1,18,34.2Z" transform="translate(-10.811 -17.417)" fill="url(#linear-gradient)"/>
    <path id="路径-10-3" data-name="路径-10" d="M18,19.2a1.5,1.5,0,0,1-1.5-1.5v-2.8a1.5,1.5,0,1,1,3,0v2.8A1.5,1.5,0,0,1,18,19.2Z" transform="translate(-10.811 -8.408)" fill="url(#linear-gradient)"/>
  </g>
</svg>
