<svg xmlns="http://www.w3.org/2000/svg" width="209.235" height="253.945" viewBox="0 0 209.235 253.945">
  <g id="forgotpass" transform="translate(-8.441 3.544)">
    <path id="Path_12837" data-name="Path 12837" d="M274.066-473.621v33.513l-17.823,1.535-1.233-29.164Z" transform="translate(-120.903 610.655)" fill="#ffc3b7"/>
    <path id="Path_12833" data-name="Path 12833" d="M250.772-376.28s46.145,16.565,66.259,1.183-21.3-68.626-46.145-75.725c0,0-14.79-2.958-19.523.592s-10.649-2.366-13.015-1.183S201.669-445.5,200.486-410l-42.349,28.113,101.47-1Z" transform="translate(-104.696 618.955)" fill="#4cd080"/>
    <path id="Path_12834" data-name="Path 12834" d="M259.61-404.9l11.973,5.169c1.332,7.111.112,13.184-4.833,16.966-20.114,15.382-66.259-1.183-66.259-1.183l.592-14.79c10.057-8.874,22.776-11.24,32.982-11.388A62.264,62.264,0,0,1,259.61-404.9Z" transform="translate(-54.414 626.621)" fill="#2e9e5a"/>
    <path id="Path_12835" data-name="Path 12835" d="M364.333-427.751s.748,51.414-68.3,42.446c0,0,.3-46.78,54.1-55Z" transform="translate(-259.707 621.093)" fill="#2e9e5a"/>
    <path id="Path_12836" data-name="Path 12836" d="M290.5-490.674s3.7,16.7-2.019,23.091c0,0,19.841,13.339,14.124,17.822s-28.06,13.265-32.133,18.683l14.2,12.554,26.23-28.994s8.631-9.416.561-12.891a174.164,174.164,0,0,1-16.478-8.407s6.053-16.254,1.122-21.858c0,0-.9,6.166-2.019,8.631C294.09-482.043,294.538-489.441,290.5-490.674Z" transform="translate(-180.048 611.866)" fill="#f0a99a"/>
    <path id="Path_12838" data-name="Path 12838" d="M274.931-501.189S255.2-493.456,253.634-480s-1.794,21.3,13.227,20.288,20.065-14.124,20.065-14.124l-3.475-24.548Z" transform="translate(-131.296 609.94)" fill="#f0a99a"/>
    <path id="Path_12839" data-name="Path 12839" d="M272.953-478.9s-.9,18.719-9.977,18.607-9.191,2.914-8.967,4.372-8.967-3.811-11.433-16.59-2.811-29.959-12.671-26.132c0,0,4.039-12.652,20.405-3.348S250.871-482.259,272.953-478.9Z" transform="translate(-90.086 609.168)" fill="#2d635b"/>
    <path id="Path_12840" data-name="Path 12840" d="M266.927-481s-.747-10.387-12.18-8.071C254.747-489.074,251.234-473.68,266.927-481Z" transform="translate(-113.054 612.097)" fill="none" stroke="#fff" stroke-width="2"/>
    <path id="Path_12841" data-name="Path 12841" d="M280.13-490.521s-.076-11.059-12.78-8C267.35-498.517,265.709-483.87,280.13-490.521Z" transform="translate(-141.501 610.331)" fill="none" stroke="#fff" stroke-width="2"/>
    <line id="Line_7" data-name="Line 7" x1="3.063" y1="3.213" transform="translate(138.629 119.81)" fill="none" stroke="#fff" stroke-width="2"/>
    <path id="Path_12842" data-name="Path 12842" d="M337.177-400.5s-16.708,9.546-24.779,8.09-19.578-7.154-26.1-3.97-21.316,6.212-25.8,6.212c0,0,2.353,2.914,7.846,2.689,0,0-6.277-.111-6.5,2.466s10.536,3.7,19.5-1.681,9.752-3.138,15.58,1.009,39.656-.025,39.656-.025" transform="translate(-190.509 628.386)" fill="#f0a99a"/>
    <g id="Group_39746" data-name="Group 39746">
      <g id="Group_39747" data-name="Group 39747" transform="translate(-6 -4)">
        <path id="Rectangle_238" data-name="Rectangle 238" d="M23.39,0h0A23.39,23.39,0,0,1,46.78,23.39V40.652a0,0,0,0,1,0,0H0a0,0,0,0,1,0,0V23.39A23.39,23.39,0,0,1,23.39,0Z" transform="matrix(-0.961, -0.278, 0.278, -0.961, 140.018, 72.441)" fill="#ffc484"/>
        <path id="Path_12843" data-name="Path 12843" d="M282.067-538.6h0a23.317,23.317,0,0,1-7.939-4.077,23.313,23.313,0,0,1-2.816-19.142l4.8-16.582L314.7-567.24l-3.664,12.67A23.39,23.39,0,0,1,282.067-538.6Z" transform="translate(-169.732 598.794)" fill="#ffae58"/>
        <ellipse id="Ellipse_3018" data-name="Ellipse 3018" cx="2.952" cy="2.952" rx="2.952" ry="2.952" transform="translate(122.145 36.896)" fill="#fff"/>
        <path id="Path_12844" data-name="Path 12844" d="M292.3-561.959l-6.661,6.883,8.491,2.456Z" transform="translate(-167.201 601.807)" fill="#fff"/>
        <path id="Path_12845" data-name="Path 12845" d="M300.243-564.555l2.337-8.078a15.5,15.5,0,0,0-10.661-19.145l-2.424-.7a15.5,15.5,0,0,0-19.234,10.5l-2.337,8.078" transform="translate(-155.303 596.102)" fill="none" stroke="#ffae58" stroke-width="5"/>
      </g>
    </g>
    <path id="Path_12846" data-name="Path 12846" d="M262.013-546.6l-5.455,6.875,5.829,6.053,5.754-7.1Z" transform="translate(-80.476 586.323)" fill="#2e9e5a"/>
    <path id="Path_12847" data-name="Path 12847" d="M232-535.863l-3.437,4.332,3.673,3.814,3.625-4.473Z" transform="translate(-18.18 682.101)" fill="#7fdc8b"/>
    <path id="Path_12852" data-name="Path 12852" d="M232-535.863l-3.437,4.332,3.673,3.814,3.625-4.473Z" transform="translate(-220.117 721.061)" fill="#fcc561"/>
    <path id="Path_12848" data-name="Path 12848" d="M279.688-519.189l-4.195,5.287,4.482,4.655,4.425-5.459Z" transform="translate(-158.317 604.003)" fill="#87b6f3"/>
    <path id="Path_12849" data-name="Path 12849" d="M269.839-534.411A23.065,23.065,0,0,0,253.4-515.056" transform="translate(-60.765 619.489)" fill="none" stroke="#4cd080" stroke-width="2"/>
    <path id="Path_12850" data-name="Path 12850" d="M307.892-509.122s-1.267-16.549-21.9-22.194" transform="translate(-230.599 606.045)" fill="none" stroke="#fff" stroke-width="2"/>
  </g>
</svg>
