<svg xmlns="http://www.w3.org/2000/svg" width="30.221" height="21.013" viewBox="0 0 30.221 21.013">
  <g id="Layer_1" data-name="Layer 1" transform="translate(-0.004 -0.01)">
    <g id="Group_41229" data-name="Group 41229" transform="translate(0.004 0.01)">
      <path id="Path_53785" data-name="Path 53785" d="M65.644,8.566h-8a1.952,1.952,0,0,1-.064-.333c-.136-1.728.112-3.628,0-5.374-.012-.3-.472-.83-.758-.83H50.981V8.474c-.694.272-1.021.33-1.33,1.053-.272.639-.45,1.395-.7,2.051l-.126.121-3.743-.017c-.688-.08-.6-1.094.077-1.147l3.5-.041.785-3.98c.176-.445.548-.318.86-.484v-4h-6.2c-.226,0-.764.559-.764.764V8.474l-.092.092H38.03a27.527,27.527,0,0,1,1.457-5.419l-.05-.109c-.531-.294-1.191-.545-1.1-1.278a.871.871,0,0,1,.545-.677C40.045.584,41.774.4,43.007.01H61.462a4.211,4.211,0,0,1,4.059,3.943c.072.941.1,2.047.125,2.991.012.54-.014,1.083,0,1.622ZM38.915,7.954h2.81a1.1,1.1,0,0,0,.933-.777c.15-.739-.076-1.882.006-2.666L40.136,3.442c-.059,0-.114.16-.138.219A20.234,20.234,0,0,0,38.827,7.75c0,.077.009.18.088.2Z" transform="translate(-35.703 -0.01)" fill="#00352e"/>
      <path id="Path_53786" data-name="Path 53786" d="M64.684,150.415c.087.054.084.122.095.211.127,1.084.022,2.541.056,3.671a31.894,31.894,0,0,1,.125,3.786,1.091,1.091,0,0,1-1.07.953c-.165-.015-.2-.459-.263-.6a3.257,3.257,0,0,0-6.071-.061c-.083.185-.132.616-.324.653l-14.594-.009c-.1-.035-.22-.758-.281-.941a4.883,4.883,0,0,0-3.043-3.066c-.268-.087-.871-.127-1.021-.323a12.211,12.211,0,0,1-.643-1.679,8.622,8.622,0,0,1-.609-2.6h5.285l.092.092v6.17c0,.354.563.714.891.758,1.33.181,3.025-.125,4.4.007a.914.914,0,0,0,.764-.764c.12-1-.151-2.294.026-3.273a19.119,19.119,0,0,1,.959-2.707c.181-.257.789-.433.974-.2a17.587,17.587,0,0,1,.053,2.452c.009,1.1-.083,2.413,0,3.482.031.4.078.7.467.877a8.54,8.54,0,0,0,3.12.018c1.013-.371,1.147-1.241,1.24-2.18.122-1.225.064-2.641.261-3.833.056-.337.457-.9.809-.9Z" transform="translate(-34.774 -141.187)" fill="#11d16e"/>
      <path id="Path_53787" data-name="Path 53787" d="M7.158,236.273l-4.036-.455-3.1-1.938c-.1-.18.306-.486.448-.6a4.164,4.164,0,0,1,6.689,2.992Z" transform="translate(-0.004 -218.187)" fill="#11d16e"/>
      <path id="Path_53788" data-name="Path 53788" d="M380.988,258.339a2.612,2.612,0,1,1-1.83,1.408,2.731,2.731,0,0,1,1.83-1.409Zm.182.976a1.623,1.623,0,0,0-.009,3.157A1.623,1.623,0,1,0,381.17,259.315Z" transform="translate(-355.705 -242.497)" fill="#00352e"/>
      <path id="Path_53789" data-name="Path 53789" d="M167.752,201.7v3.086l-.063.121c-.061.009-.176.092-.213.092h-2.566l-.092-.092v-3.116l.092-.092h2.841Z" transform="translate(-154.734 -189.358)" fill="#00352e"/>
      <path id="Path_53790" data-name="Path 53790" d="M11.16,279c.168.081.928.054.97.218a2.614,2.614,0,1,1-4.818-1.685c.061-.045.86.418.845.569a1.615,1.615,0,1,0,3,.9Z" transform="translate(-6.511 -260.547)" fill="#00352e"/>
      <path id="Path_53791" data-name="Path 53791" d="M312.57,204.765V201.71l.755.009.1.143c-.2.68.075,2.5-.64,2.846C312.714,204.743,312.664,204.786,312.57,204.765Z" transform="translate(-293.443 -189.367)" fill="#00352e"/>
      <path id="Path_53792" data-name="Path 53792" d="M35.756,292.1a.957.957,0,1,1-1.734-.556A2.947,2.947,0,0,0,35.756,292.1Z" transform="translate(-31.785 -273.7)" fill="#00352e"/>
      <path id="Path_53793" data-name="Path 53793" d="M301.243,171.76h1.1c.064,0,.093.148.1.213s-.066.738-.079.783c-.068.236-.889.2-1.114.161A.582.582,0,0,1,301.243,171.76Z" transform="translate(-282.329 -161.25)" fill="#00352e"/>
      <path id="Path_53794" data-name="Path 53794" d="M406.829,284.72c1.46-.113,1.337,2.271-.159,1.9A.971.971,0,0,1,406.829,284.72Z" transform="translate(-381.117 -267.294)" fill="#00352e"/>
    </g>
  </g>
</svg>
