<svg xmlns="http://www.w3.org/2000/svg" xmlns:xlink="http://www.w3.org/1999/xlink" width="24" height="24" viewBox="0 0 24 24">
  <defs>
    <linearGradient id="linear-gradient" x1="0.234" y1="0.788" x2="0.719" y2="0.418" gradientUnits="objectBoundingBox">
      <stop offset="0" stop-color="#12a8f5"/>
      <stop offset="1" stop-color="#00d48d"/>
    </linearGradient>
  </defs>
  <g id="driven-dark" transform="translate(-8728 3875)">
    <path id="Subtraction_11" data-name="Subtraction 11" d="M12,24A12,12,0,0,1,3.515,3.515,12,12,0,1,1,20.485,20.485,11.922,11.922,0,0,1,12,24ZM12,3a9,9,0,1,0,9,9A9.01,9.01,0,0,0,12,3Z" transform="translate(8728 -3875)" fill="#fff"/>
    <path id="Subtraction_12" data-name="Subtraction 12" d="M10,20A10,10,0,1,1,20,10,10.011,10.011,0,0,1,10,20ZM10,1a9,9,0,1,0,9,9A9.01,9.01,0,0,0,10,1Z" transform="translate(8730 -3873)" fill="#d8d9dc"/>
    <path id="Path_34553" data-name="Path 34553" d="M8694.844-3867.906a6.544,6.544,0,0,0,3.469.734v2.109a4,4,0,0,0-3.719,1.313l-.5-2.672Z" transform="translate(36.297 2.476)" fill="#d8d9dc"/>
    <path id="Path_34556" data-name="Path 34556" d="M8697.563-3867.906a6.544,6.544,0,0,1-3.469.734v2.109a4,4,0,0,1,3.719,1.313l.5-2.672Z" transform="translate(51.297 2.476)" fill="#d8d9dc"/>
    <path id="Path_34554" data-name="Path 34554" d="M8697.975-3867.5" transform="translate(36.297 2.476)" fill="none" stroke="#707070" stroke-width="1"/>
    <path id="Path_34555" data-name="Path 34555" d="M8709.44-3867.5s-6.576-2.233-11.487,0c.016.031,0,2.578,0,2.578l4.375,4.391h2.828l4.284-4.391Z" transform="translate(36.297 2.476)" fill="url(#linear-gradient)"/>
    <path id="Path_34557" data-name="Path 34557" d="M8702.487-3860.531l-.711,4.547,1.909.508,1.808-.731-.65-4.324Z" transform="translate(36.297 2.476)" fill="#d8d9dc"/>
  </g>
</svg>
