<svg xmlns="http://www.w3.org/2000/svg" width="10.592" height="24.899" viewBox="0 0 10.592 24.899">
  <g id="Group_40926" data-name="Group 40926" transform="translate(-21883.902 7808.483)">
    <path id="Path_53325" data-name="Path 53325" d="M5.048,101.357a1.5,1.5,0,0,1-1.765.606,1.674,1.674,0,0,1-1.1-1.648V93.4c0-.172-.023-.257-.228-.3A2.453,2.453,0,0,1,.008,90.709q-.016-2.752,0-5.5a1.905,1.905,0,0,1,1.9-1.894q3.131-.011,6.264,0a1.9,1.9,0,0,1,1.894,1.714,3.936,3.936,0,0,1,.021.428V90.4a2.505,2.505,0,0,1-2.05,2.72c-.057.016-.109.1-.135.167a.6.6,0,0,0-.005.2v6.843a1.632,1.632,0,0,1-.882,1.534,1.443,1.443,0,0,1-1.812-.319C5.159,101.493,5.112,101.434,5.048,101.357ZM2.184,92.5V87.9a1.2,1.2,0,0,1,.007-.226.29.29,0,0,1,.313-.269.278.278,0,0,1,.283.3c0,.075,0,.152,0,.227v12.225c0,.1-.005.2,0,.3a1.064,1.064,0,0,0,.943.99,1.049,1.049,0,0,0,1-.9,1.806,1.806,0,0,0,.012-.277V95.8c0-.075-.027-.171.009-.223.074-.106.179-.257.276-.261s.224.135.3.232c.042.053.017.163.017.247v4.672a1.053,1.053,0,0,0,.9.981,1.021,1.021,0,0,0,1.007-.761,1.858,1.858,0,0,0,.037-.451q0-6.149,0-12.3a.652.652,0,0,1,.034-.32c.057-.092.191-.2.278-.195.1.012.211.135.276.233.043.067.018.181.018.273v4.581a1.8,1.8,0,0,0,.2-.029A1.87,1.87,0,0,0,9.47,90.615q.013-2.651,0-5.3a1.317,1.317,0,0,0-1.414-1.4H2.02A1.32,1.32,0,0,0,.6,85.33v5.254a2.5,2.5,0,0,0,.05.5A1.832,1.832,0,0,0,2.184,92.5Z" transform="translate(21884.152 -7885.928)" fill="#0a9bfb" stroke="#0a9bfb" stroke-width="0.5"/>
    <path id="Path_53326" data-name="Path 53326" d="M42.82,0a2.32,2.32,0,1,1-2.31,2.335A2.32,2.32,0,0,1,42.82,0Zm-1.7,2.32A1.714,1.714,0,1,0,42.833.606,1.714,1.714,0,0,0,41.116,2.319Z" transform="translate(21846.371 -7808.233)" fill="#0a9bfb" stroke="#0a9bfb" stroke-width="0.5"/>
  </g>
</svg>
