<svg xmlns="http://www.w3.org/2000/svg" width="27.779" height="27.819" viewBox="0 0 27.779 27.819">
  <g id="Layer_2" data-name="Layer 2" transform="translate(0)">
    <g id="Layer_1" data-name="Layer 1" transform="translate(0)">
      <path id="Path_34640" data-name="Path 34640" d="M186.941,0a6.074,6.074,0,0,1,5.111,3.319,6.007,6.007,0,0,1-.2,6.533c-1.32,2.022-2.811,3.934-4.263,5.867a1.518,1.518,0,0,1-2.5-.132q-1.995-2.754-3.965-5.525A6.062,6.062,0,0,1,180,6.546,6.6,6.6,0,0,1,186.941,0Zm-2.983,6.527a2.476,2.476,0,1,0,2.463-2.476,2.476,2.476,0,0,0-2.463,2.476Z" transform="translate(-165.142)" fill="#11d16e"/>
      <path id="Path_34641" data-name="Path 34641" d="M84.529,183.033H75.28c-.976,0-1.3.33-1.3,1.32v.578A1,1,0,0,0,75.07,186c1.292.006,2.585-.012,3.879.006a2.966,2.966,0,0,1,2.954,3.015,2.87,2.87,0,0,1-2.646,2.881c-2.082.092-4.172.023-6.229.023-.074-.652-.146-1.285-.223-1.966H73.2c1.883,0,3.767,0,5.65,0a.991.991,0,1,0,.008-1.976H75.224A2.985,2.985,0,0,1,72,184.739a7.81,7.81,0,0,1,.073-1.313,2.876,2.876,0,0,1,2.752-2.361c2.68-.031,5.364-.013,8.043-.007a.441.441,0,0,1,.318.123C83.629,181.768,84.053,182.371,84.529,183.033Z" transform="translate(-66.058 -166.106)" fill="#00352e"/>
      <path id="Path_34642" data-name="Path 34642" d="M2.464,277.1A2.476,2.476,0,1,1,0,279.567,2.476,2.476,0,0,1,2.464,277.1Z" transform="translate(0 -254.232)" fill="#11d16e"/>
    </g>
  </g>
</svg>
