<svg xmlns="http://www.w3.org/2000/svg" width="11.705" height="15.401" viewBox="0 0 11.705 15.401">
  <g id="Icon_ionic-ios-document" data-name="Icon ionic-ios-document" transform="translate(-7.313 -3.938)">
    <path id="Path_32939" data-name="Path 32939" d="M21.333,7.753h3.5a.191.191,0,0,0,.193-.193h0a1.14,1.14,0,0,0-.412-.882L21.68,4.229a1.237,1.237,0,0,0-.793-.285h0a.284.284,0,0,0-.285.285V7.021A.731.731,0,0,0,21.333,7.753Z" transform="translate(-6.012 -0.003)" fill="#394675"/>
    <path id="Path_32940" data-name="Path 32940" d="M13.589,7.018V3.938H8.545A1.236,1.236,0,0,0,7.313,5.17V18.107a1.236,1.236,0,0,0,1.232,1.232h9.241a1.236,1.236,0,0,0,1.232-1.232V8.75h-3.7A1.735,1.735,0,0,1,13.589,7.018Z" fill="#394675"/>
  </g>
</svg>
