<svg id="Layer_2" data-name="Layer 2" xmlns="http://www.w3.org/2000/svg" width="22.821" height="25.511" viewBox="0 0 22.821 25.511">
  <g id="Layer_1" data-name="Layer 1">
    <path id="Path_34663" data-name="Path 34663" d="M11.226,21.456c0,.456,0,.854,0,1.251A2.765,2.765,0,0,1,7.041,25.12c-1.86-1.056-3.7-2.136-5.556-3.2A2.794,2.794,0,0,1,0,19.323V2.981A2.805,2.805,0,0,1,2.973,0H15.067a2.8,2.8,0,0,1,2.968,2.949q.008,1.628,0,3.255a.92.92,0,0,1-1.083.988.908.908,0,0,1-.749-.956c-.005-1.107,0-2.215,0-3.321a.954.954,0,0,0-1.053-1.08q-5.233-.006-10.465,0c-.066,0-.133.007-.272.015.147.1.238.159.337.215,1.61.93,3.21,1.879,4.834,2.782a2.991,2.991,0,0,1,1.653,2.87c-.027,3.82-.009,7.639-.009,11.459V19.6c.133.009.239.022.345.022h3.521a.971.971,0,0,0,1.1-1.1V15.7a.922.922,0,1,1,1.833,0c.006.952.009,1.9,0,2.856a2.794,2.794,0,0,1-2.918,2.9c-1.163.006-2.325,0-3.488,0Z" fill="#00352e"/>
    <path id="Path_34664" data-name="Path 34664" d="M188.862,113.484H183.65c-.454,0-.908,0-1.362,0a.911.911,0,1,1,.006-1.817c2.1,0,4.207,0,6.311,0h.369c-.345-.345-.638-.618-.9-.913a1.5,1.5,0,0,1-.332-.52.87.87,0,0,1,.4-1,.884.884,0,0,1,1.1.124c.488.465.959.95,1.438,1.427.368.368.74.731,1.1,1.105a.907.907,0,0,1,0,1.38q-1.228,1.236-2.466,2.462a.9.9,0,0,1-1.355.042.921.921,0,0,1,.066-1.334c.293-.3.6-.579.9-.869Z" transform="translate(-169.275 -101.846)" fill="#11d16e"/>
  </g>
</svg>
