<svg xmlns="http://www.w3.org/2000/svg" width="25" height="24.099" viewBox="0 0 25 24.099">
  <g id="Layer_2" data-name="Layer 2" transform="translate(-0.003 -0.003)">
    <g id="Layer_1" data-name="Layer 1" transform="translate(0.003 0.003)">
      <path id="Path_34764" data-name="Path 34764" d="M21.521,7.116c-.111.386-.2.7-.289,1l-.127.426a.7.7,0,0,1-.869.538.7.7,0,0,1-.461-.913c.241-.879.5-1.753.751-2.629a3.564,3.564,0,0,1,.132-.424.645.645,0,0,1,.774-.4q1.564.428,3.118.895a.686.686,0,0,1-.374,1.319c-.372-.079-.736-.2-1.1-.3-.048-.013-.1-.021-.215-.045.059.137.094.228.135.318a12.019,12.019,0,0,1-7.007,16.553A11.983,11.983,0,0,1,1.865,18.394,11.42,11.42,0,0,1,.422,9.1,11.734,11.734,0,0,1,9.588.276,15.258,15.258,0,0,1,11.952.007a.693.693,0,0,1,.833.7c0,.417-.314.681-.818.692a10.647,10.647,0,1,0,10.3,13.788,10.391,10.391,0,0,0,.372-4.589,9.964,9.964,0,0,0-.986-3.237C21.629,7.307,21.6,7.258,21.521,7.116Z" transform="translate(-0.003 -0.003)" fill="#00352e"/>
      <path id="Path_34620" data-name="Path 34620" d="M6.079,5.185a.632.632,0,1,0-.894.894L8.533,9.427,5.185,12.774a.632.632,0,1,0,.894.894l3.347-3.347,3.347,3.347a.632.632,0,1,0,.894-.894L10.321,9.427l3.347-3.347a.632.632,0,1,0-.894-.894L9.427,8.533Z" transform="translate(3.074 2.623)" fill="red"/>
    </g>
  </g>
</svg>
