<svg xmlns="http://www.w3.org/2000/svg" width="17.5" height="22.833" viewBox="0 0 17.5 22.833">
  <path id="Path_34744" data-name="Path 34744" d="M10.307,3H7.667A2.667,2.667,0,0,0,5,5.667v16a2.667,2.667,0,0,0,2.667,2.667H18.333A2.667,2.667,0,0,0,21,21.667v-8M10.307,3A2.688,2.688,0,0,1,13,5.667V8.333A2.667,2.667,0,0,0,15.667,11h2.667A2.667,2.667,0,0,1,21,13.667M10.307,3C14.681,3,21,9.353,21,13.667M9.741,19h7.111M9.741,15.444h4.741" transform="translate(-4.25 -2.25)" fill="none" stroke="#00352e" stroke-linecap="round" stroke-linejoin="round" stroke-width="1.5"/>
</svg>
