<svg xmlns="http://www.w3.org/2000/svg" width="21.849" height="20.328" viewBox="0 0 21.849 20.328">
  <g id="Layer_1" data-name="Layer 1" transform="translate(0 0.003)">
    <g id="Group_41227" data-name="Group 41227" transform="translate(0 -0.003)">
      <path id="Path_53783" data-name="Path 53783" d="M0,9.869a1.726,1.726,0,0,1,.383-.705l8.3-8.3A3.339,3.339,0,0,1,13.146.841c.872.751,1.634,1.744,2.518,2.5V1.909a1.349,1.349,0,0,1,.97-1.078,1.269,1.269,0,0,1,1.549,1.247c.1,1.221-.081,2.557.007,3.791C19.329,7.091,20.6,8.2,21.69,9.455a1.258,1.258,0,0,1-1.865,1.609L11.439,2.676a.759.759,0,0,0-1.026,0L2,11.082A1.281,1.281,0,0,1,0,10.3V9.868Z" transform="translate(0 0.003)" fill="#11d16e"/>
      <path id="Path_53784" data-name="Path 53784" d="M64.752,103.77V98.221h-4.1v5.548H56.664a2.406,2.406,0,0,1-1.858-2.069l.022-5.658.15-.235,7.469-7.425a.539.539,0,0,1,.482-.012c2.553,2.41,4.989,4.972,7.5,7.437l.15.235L70.6,101.7a2.406,2.406,0,0,1-1.858,2.069H64.752Z" transform="translate(-51.778 -83.441)" fill="#00352e"/>
    </g>
  </g>
</svg>
