<svg xmlns="http://www.w3.org/2000/svg" xmlns:xlink="http://www.w3.org/1999/xlink" width="375" height="350" viewBox="0 0 375 350">
  <defs>
    <clipPath id="clip-path">
      <rect id="Rectangle_18145" data-name="Rectangle 18145" width="375" height="350" transform="translate(0 107)" fill="none" stroke="#707070" stroke-width="1"/>
    </clipPath>
    <linearGradient id="linear-gradient" x1="0.57" y1="0.205" x2="0.5" y2="0.97" gradientUnits="objectBoundingBox">
      <stop offset="0" stop-color="#98db39"/>
      <stop offset="1" stop-color="#01dd86"/>
    </linearGradient>
  </defs>
  <g id="Mask_Group_135" data-name="Mask Group 135" transform="translate(0 -107)" clip-path="url(#clip-path)">
    <g id="Group_41169" data-name="Group 41169" transform="translate(14600.555 22339.832)">
      <path id="Path_53668" data-name="Path 53668" d="M606.749,603.469v-48.8H590.085v-36H574.053v16.03H560.787V497.758H539.067v33.774l-6.5.217V497.694h-7.582V483.183h-4.548v-9.747h-17.76v9.747h-4.548v14.511h-7.581v18.448l-3.5.217L486,461.706H462.61v29.074l-8.23.217V445.555h-2.817v-9.589h-24.69v9.589h-2.817v61.237h-5.2V487.7h-4.333v-9.337h-6.281V451.107h-9.1v27.254h-6.281V487.7h-4.333V520H385.5l-2.382-.032V482.544l-64.111.613v84.28H313.6V556.39H294.1v21.227h-5.631v-7.8H276.126v15.811H263.78v17.84Z" transform="translate(-14841.756 -22508.084)" fill="#01473d"/>
      <g id="Group_41155" data-name="Group 41155" transform="translate(-14594.555 -21991.553)">
        <path id="Path_53669" data-name="Path 53669" d="M235.915,1179.732s-8.121-46.863-11.405-51.7c-4.538-6.688-10.182,13.835-10.457,12.031-2.6-17.035-2.055-38.521-14.212-41.776-6.911-1.851.457,16.046-.4,20.657s-12.354-11.852-19.434-20.562-11.415-3.9-7.311,6.662c3.969,10.218,18.345,22.191,15.127,23.215s-21.264-13.209-23.983-7.963c-3.335,6.432,24.464,17.785,21.675,19.066s-16.032-4.741-16.032.383,18.3,6.4,17.823,8.619c-.771,3.587-12.265-5.6-13.163-.62-.918,5.091,15.6,5.477,15.027,9.458-.332,2.288-4.493-.107-5.246,3.039-1.716,7.173,24.32,17.224,24.32,17.224Z" transform="translate(-159.254 -1093.866)" fill="#01473d"/>
        <path id="Path_53670" data-name="Path 53670" d="M218.018,1498.014c-3.3-4.3-22.822-28.342-34.636-32.179-13.041-4.236-.75,12.589-.75,12.589s-23.134-25.383-31.624-23.094c-7.782,2.1,0,17.831,0,17.831s-8.765-8.712-19.394-8.712c-10.345,0,7.512,31.913,8.46,33.567Z" transform="translate(-128.4 -1410.937)" fill="#056a5c"/>
      </g>
      <path id="Path_53694" data-name="Path 53694" d="M636.073,1142.828c2.562-2.2,4.111-4.524,3.714-6.84-.708-4.131-6.573-1.476-6.8-4.459-.388-5.19,22-3.976,21.259-10.63-.723-6.506-17.177,4.137-17.866-.565-.425-2.9,24.453-2.658,24.958-9.26s-18-.215-21.647-2.154,35.075-13.688,31.2-22.321c-3.161-7.041-28.974,9.43-33.226,7.776s16.375-15.591,22.752-28.345c6.594-13.19,1.2-19.831-9.232-9.342s-27.61,30.511-28.316,24.48,11.025-28.327,1.5-26.658c-16.764,2.936-18.149,30.676-23.346,52.356-.55,2.3-6.158-24.732-12.957-16.585-3.5,4.191,2.988,35.052,7.031,52.547Z" transform="translate(-15125.453 -23048.254)" fill="#96d9c9"/>
      <ellipse id="Ellipse_4318" data-name="Ellipse 4318" cx="8.883" cy="8.883" rx="8.883" ry="8.883" transform="matrix(0.086, -0.996, 0.996, 0.086, -14397.58, -22031.729)" fill="#fff"/>
      <g id="Group_41159" data-name="Group 41159" transform="translate(-14568.24 -22167.393)">
        <path id="Path_53701" data-name="Path 53701" d="M648.394,177.911h0l-.033-.011c-.306-.111-.618-.209-.934-.3-.108-.031-.215-.063-.323-.092s-.229-.057-.344-.085-.234-.056-.352-.081-.223-.046-.335-.067-.251-.047-.378-.068q-.161-.027-.324-.05c-.137-.02-.274-.037-.412-.053-.1-.012-.2-.024-.3-.033-.157-.015-.316-.026-.475-.036-.084-.005-.167-.013-.251-.017-.244-.012-.489-.019-.736-.019H529.933q-.4,0-.786.02a15.274,15.274,0,0,0-1.54.157q-.379.058-.752.135a15.316,15.316,0,0,0-12.116,13.447,15.562,15.562,0,0,0-.079,1.567V424.591A15.327,15.327,0,0,0,524.735,439h0l.078.027c.291.1.587.2.887.284.108.031.215.063.324.092s.229.057.344.085.234.056.352.081.223.046.335.067.252.047.378.068c.108.018.215.035.323.05.137.02.274.037.412.053.1.011.2.024.3.033.157.015.316.026.475.036.084.005.167.012.25.017.244.012.49.019.737.019H643.2a15.31,15.31,0,0,0,15.273-15.325V192.324A15.328,15.328,0,0,0,648.394,177.911Z" transform="translate(-514.66 -176.999)" fill="#00352e"/>
        <g id="Group_41158" data-name="Group 41158" transform="translate(7.403 20.887)">
          <rect id="Rectangle_18130" data-name="Rectangle 18130" width="129.441" height="221.145" transform="translate(0 0)" fill="#eafcfc"/>
          <path id="Path_53702" data-name="Path 53702" d="M689.942,399.482l-37.359-3.065-1.065-21.9-9.18-.381V359.219l47.6,20.419v-4.19l-15.792-6.773-2.989-62.348h-3.855l2.908,60.66L642.338,355.03V354.6h-.993L635,351.883l-.03-45.556h-3.851l.028,43.9-38.622-16.566V306.327h-7.7v24.035L560.5,319.927v4.19l24.327,10.435v24.36L560.5,347.556v4.249l24.327,11.356v14.383l-21.963,27.88-2.364.047v3.851l19.336-.382v26.221l20.189,11.215-21.18,9.311L560.5,442.6v4.73l17.323,12.361.015-.02-4.173,67.8h7.716l2.593-42.129,32.544,11.9-3.725,30.233h3.88l3.558-28.876,31.763,11.611-5.56,17.265h4.045l5.134-15.942,34.328,12.548v-4.1L656.795,507.86l9.384-29.139-12.01-6.672c4.173-5.053,13.185-15.98,22.178-26.963,5.728-7,10.159-12.437,13.594-16.682v-6.131c-4.258,5.291-9.754,12.044-15.661,19.263l-20.129-12.865-1.38-28.375,37.17,3.049v-3.863Zm-45.775-17.558,2.118,43.546-23.2-20.149V381.049Zm-51.639-44.069,45.958,19.713V373.98l-45.958-1.906Zm-24.685,67.471L588.111,379.6l31.127,1.291V404.31Zm15.843,27.57V408.864l36.774-.727,22.362,19.424L604.451,444.43Zm77.858,47.656-8.369,25.986L584.22,481.333l1.24-20.141,23.018-10.119Zm10.28-36.017c-7.066,8.625-14.542,17.7-21.078,25.613l-37.841-21.022,39.163-17.217Z" transform="translate(-560.5 -306.327)" fill="#fff"/>
          <g id="Group_41157" data-name="Group 41157" transform="translate(17.948 45.358)">
            <g id="Group_41156" data-name="Group 41156">
              <path id="Path_53703" data-name="Path 53703" d="M747.163,745.757l-75.532-26.992,1.323-24.6,66.253-29.287L713,642.414V614.022l-32.516-.978V587.173h2.75v23.2l32.516.978v29.795l28.559,24.479-68.7,30.367-1.122,20.869,73.6,26.3Z" transform="translate(-671.631 -587.173)" fill="#c0dde3"/>
            </g>
          </g>
          <path id="Path_53704" data-name="Path 53704" d="M687.9,473.79l7.048,13.99,7.4-13.808a7.912,7.912,0,0,0-6.839-11.072q-.122-.005-.246-.007t-.246,0A7.912,7.912,0,0,0,687.9,473.79Zm3.606-2.9a3.655,3.655,0,1,1,3.608,3.7A3.655,3.655,0,0,1,691.5,470.886Z" transform="translate(-666.835 -437.606)" fill="#11d16e"/>
          <path id="Path_53705" data-name="Path 53705" d="M1093.906,1425.9l7.048,13.99,7.4-13.808a7.912,7.912,0,0,0-6.839-11.072q-.123,0-.246-.007c-.082,0-.164,0-.246,0A7.912,7.912,0,0,0,1093.906,1425.9Zm3.6-2.9a3.655,3.655,0,1,1,3.608,3.7A3.655,3.655,0,0,1,1097.511,1423Z" transform="translate(-1007.271 -1235.949)" fill="#184655"/>
        </g>
        <path id="Path_53706" data-name="Path 53706" d="M844.693,248.909H789.772a.14.14,0,0,1-.14-.14v-2.491a.14.14,0,0,1,.14-.14h54.921a.14.14,0,0,1,.14.14v2.491A.14.14,0,0,1,844.693,248.909Z" transform="translate(-745.223 -234.972)" fill="#fff"/>
        <path id="Path_53707" data-name="Path 53707" d="M932.862,1708.584a6.336,6.336,0,1,1-6.336-6.357A6.346,6.346,0,0,1,932.862,1708.584Z" transform="translate(-854.697 -1455.898)" fill="#daeef7" opacity="0.3"/>
        <rect id="Rectangle_18131" data-name="Rectangle 18131" width="129.002" height="9.278" transform="translate(7.403 232.752)" fill="#3cb4c5" opacity="0.2"/>
        <rect id="Rectangle_18132" data-name="Rectangle 18132" width="129.441" height="11.736" transform="translate(7.403 20.887)" fill="#3cb4c5" opacity="0.2"/>
      </g>
      <g id="Group_41160" data-name="Group 41160" transform="translate(-14347.725 -22011.92)">
        <path id="Path_53708" data-name="Path 53708" d="M2182.525,927.55h-36.254a2.271,2.271,0,0,0-2.268,2.275v15.012a2.271,2.271,0,0,0,2.268,2.275h28.543a48.715,48.715,0,0,0,3.434,4.514,24.8,24.8,0,0,0-.395-4.514h4.672a2.271,2.271,0,0,0,2.267-2.275V929.825A2.272,2.272,0,0,0,2182.525,927.55Z" transform="translate(-2144.003 -927.55)" fill="#11d16e"/>
        <path id="Path_53709" data-name="Path 53709" d="M2192.757,972.177h-10.441a.321.321,0,0,1-.321-.321v-.349a.321.321,0,0,1,.321-.321h10.441a.321.321,0,0,1,.321.321v.349A.321.321,0,0,1,2192.757,972.177Z" transform="translate(-2177.342 -965.842)" fill="#fff"/>
        <path id="Path_53710" data-name="Path 53710" d="M2189.162,1007.507h-6.845a.321.321,0,0,1-.321-.321v-.349a.321.321,0,0,1,.321-.321h6.845a.321.321,0,0,1,.321.321v.349A.32.32,0,0,1,2189.162,1007.507Z" transform="translate(-2177.343 -996.846)" fill="#fff"/>
        <path id="Path_53711" data-name="Path 53711" d="M2267.289,1007.507h-7.471a.321.321,0,0,1-.321-.321v-.349a.321.321,0,0,1,.321-.321h7.471a.321.321,0,0,1,.321.321v.349A.321.321,0,0,1,2267.289,1007.507Z" transform="translate(-2245.353 -996.846)" fill="#fff"/>
        <path id="Path_53712" data-name="Path 53712" d="M2356.141,1007.507h-11.075a.321.321,0,0,1-.321-.321v-.349a.321.321,0,0,1,.321-.321h11.076a.321.321,0,0,1,.321.321v.349A.321.321,0,0,1,2356.141,1007.507Z" transform="translate(-2320.161 -996.846)" fill="#fff"/>
        <path id="Path_53713" data-name="Path 53713" d="M2309.838,972.178H2292.3a.321.321,0,0,1-.321-.321v-.349a.321.321,0,0,1,.321-.321h17.537a.321.321,0,0,1,.321.321v.349A.322.322,0,0,1,2309.838,972.178Z" transform="translate(-2273.859 -965.843)" fill="#fff"/>
        <path id="Path_53714" data-name="Path 53714" d="M2196.524,1043.507h-14.205a.321.321,0,0,1-.321-.321v-.349a.321.321,0,0,1,.321-.321h14.205a.321.321,0,0,1,.321.321v.349A.321.321,0,0,1,2196.524,1043.507Z" transform="translate(-2177.344 -1028.437)" fill="#fff"/>
        <path id="Path_53715" data-name="Path 53715" d="M2333.679,1043.507h-14.21a.321.321,0,0,1-.321-.321v-.349a.321.321,0,0,1,.321-.321h14.21a.321.321,0,0,1,.321.321v.349A.322.322,0,0,1,2333.679,1043.507Z" transform="translate(-2297.7 -1028.437)" fill="#fff"/>
      </g>
      <g id="Group_41163" data-name="Group 41163" transform="translate(-14514.75 -21993.953)">
        <path id="Path_53716" data-name="Path 53716" d="M918.448,1426.615s46.349,7.691,46.9,7.358,6.558-26.231,6.558-26.231-38.327-6.891-38.948-6.891-8.957,6.669-9.068,7.114S918.448,1426.615,918.448,1426.615Z" transform="translate(-901.503 -1360.856)" fill="#00352e"/>
        <path id="Path_53717" data-name="Path 53717" d="M2042.115,1468.181c1.111.111,57.242-1.092,57.242-1.092l-4.224-12.913s-7.78-11.766-11.893-11.552-28.57-3.751-32.791-.824-8,.594-10,7.6-3.561,7.786-2,12.007A25.305,25.305,0,0,0,2042.115,1468.181Z" transform="translate(-1883.79 -1395.842)" fill="#00352e"/>
        <g id="Group_41161" data-name="Group 41161" transform="translate(21.208 51.224)">
          <ellipse id="Ellipse_4319" data-name="Ellipse 4319" cx="19.111" cy="19.105" rx="19.111" ry="19.105" transform="translate(0 38.222) rotate(-89.874)" fill="#01241f"/>
          <ellipse id="Ellipse_4320" data-name="Ellipse 4320" cx="13.292" cy="13.297" rx="13.292" ry="13.297" transform="translate(5.848 5.847)" fill="#fff"/>
          <ellipse id="Ellipse_4321" data-name="Ellipse 4321" cx="8.89" cy="8.893" rx="8.89" ry="8.893" transform="translate(10.251 10.252)" fill="#00352e"/>
        </g>
        <g id="Group_41162" data-name="Group 41162" transform="translate(168.304 51.223)">
          <ellipse id="Ellipse_4322" data-name="Ellipse 4322" cx="19.111" cy="19.105" rx="19.111" ry="19.105" transform="translate(0 38.222) rotate(-89.874)" fill="#01241f"/>
          <ellipse id="Ellipse_4323" data-name="Ellipse 4323" cx="13.292" cy="13.297" rx="13.292" ry="13.297" transform="translate(5.843 5.848)" fill="#fff"/>
          <ellipse id="Ellipse_4324" data-name="Ellipse 4324" cx="8.89" cy="8.893" rx="8.89" ry="8.893" transform="translate(10.245 10.253)" fill="#00352e"/>
        </g>
        <path id="Path_53718" data-name="Path 53718" d="M1019.245,1126.434c-1.615-10.651-6.836-12.887-22.281-15.976-17.043-3.409-38.68-14.523-38.68-14.523s-36.9-18.08-45.941-20.155-31.27-1.482-49.943-1.334-29.64,5.335-39.124,12.745-25.935,13.041-25.935,13.041l-2.988.534a6.443,6.443,0,0,0-5.311,6.343v26.429a6.593,6.593,0,0,0,4.909,6.374l10.8,2.853h0a1.544,1.544,0,0,0,1.794-1.361,21.7,21.7,0,1,1,42.876,6.531,2.146,2.146,0,0,0,2.111,2.536h99.395a3.2,3.2,0,0,0,3.176-3.611,21.591,21.591,0,1,1,42.861-.516,3.707,3.707,0,0,0,3.675,4.127h14.293a4.705,4.705,0,0,0,4.705-4.705v-13.844A36.53,36.53,0,0,0,1019.245,1126.434Z" transform="translate(-787.945 -1074.254)" fill="url(#linear-gradient)"/>
        <path id="Path_53719" data-name="Path 53719" d="M783.3,1368.08h11.772a1.411,1.411,0,0,1,1.3,1.957l-1.322,3.155a8.094,8.094,0,0,1-7.465,4.965H783.3a1.519,1.519,0,0,1-1.519-1.519V1369.6A1.519,1.519,0,0,1,783.3,1368.08Z" transform="translate(-781.573 -1332.098)" fill="#cf283c"/>
        <path id="Path_53720" data-name="Path 53720" d="M2465.543,1406.7c6.483.993,13.949,7.132,13.949,7.132a2.9,2.9,0,0,1-2.3,4.866l-12.64-.8a6.236,6.236,0,0,1-5.6-4.488h0C2457.721,1409.168,2458.767,1405.665,2465.543,1406.7Z" transform="translate(-2252.966 -1365.83)" fill="#f3fcff"/>
        <path id="Path_53721" data-name="Path 53721" d="M781.246,1566.4a1.135,1.135,0,0,0-1.086,1.548,7.382,7.382,0,0,0,4.977,4.418l12.1,3.2a1.73,1.73,0,0,0,2.011-1.525,23.321,23.321,0,0,1,1.427-5.865.973.973,0,0,0-.886-1.32Z" transform="translate(-780.08 -1506.129)" fill="#00352e"/>
        <path id="Path_53722" data-name="Path 53722" d="M2477.889,1607.077a1.494,1.494,0,0,0-1.511,1.7,24.237,24.237,0,0,1,.056,5.721,4.113,4.113,0,0,0,4.078,4.58h15.86a5.221,5.221,0,0,0,5.221-5.221v-4.1a2.144,2.144,0,0,0-2.092-2.144Z" transform="translate(-2268.639 -1541.827)" fill="#00352e"/>
        <path id="Path_53723" data-name="Path 53723" d="M1153.6,1130.153c-.211-.116-21.22-11.642-35.154-18.1-13.794-6.389-29.193-5.712-29.857-5.678-1.769-.041-38.61-.84-49.937,2.691-11.41,3.556-26.269,19.756-26.9,20.444l-.173.19,4,18.751.428-.024c11.621-.656,20.517,2.437,25.724,8.944a20.988,20.988,0,0,1,4.426,10.165l.038.446,41.9,1.077v0l.484.01.516.013v0l58.382,1.139.008-.5c.292-18.973,6.29-38.786,6.351-38.983l.119-.389Zm-106.5,36.854a22.068,22.068,0,0,0-4.555-10.217c-3.74-4.7-11.308-10.11-26.167-9.382l-3.71-17.409c1.72-1.849,15.777-16.7,26.281-19.975s44.644-2.741,49.146-2.655v60.691Zm99.394,2.2-57.4-1.12v-60.723c2.7-.078,16.487-.159,28.929,5.6,12.907,5.978,31.917,16.328,34.739,17.871C1151.926,1133.7,1146.854,1151.72,1146.494,1169.2Z" transform="translate(-983.232 -1102.353)" fill="#00352e" opacity="0.29"/>
        <path id="Path_53724" data-name="Path 53724" d="M780.736,1579.04a7.381,7.381,0,0,0,4.977,4.418l12.1,3.2a1.73,1.73,0,0,0,2.011-1.525,23.236,23.236,0,0,1,.377-2.333Z" transform="translate(-780.656 -1517.224)" fill="#00352e" opacity="0.5"/>
        <path id="Path_53725" data-name="Path 53725" d="M2476.857,1655.38q-.035.757-.115,1.5a4.113,4.113,0,0,0,4.078,4.58h15.86a5.221,5.221,0,0,0,5.221-5.221v-.86Z" transform="translate(-2268.947 -1584.215)" fill="#00352e" opacity="0.5"/>
        <path id="Path_53728" data-name="Path 53728" d="M1106.167,1346.484h-12.9a.553.553,0,0,1-.553-.553v-1.153a.553.553,0,0,1,.553-.553h12.9a.553.553,0,0,1,.553.553v1.153A.554.554,0,0,1,1106.167,1346.484Z" transform="translate(-1054.431 -1311.164)" fill="#00352e"/>
        <path id="Path_53729" data-name="Path 53729" d="M1686.828,1355.714h-12.9a.553.553,0,0,1-.553-.553v-1.154a.553.553,0,0,1,.553-.553h12.9a.553.553,0,0,1,.553.553v1.154A.553.553,0,0,1,1686.828,1355.714Z" transform="translate(-1563.984 -1319.263)" fill="#00352e"/>
        <path id="Path_53730" data-name="Path 53730" d="M1084.909,1147.987l57.133.54s3.5-.094,3.973-3.385.436-17.384.436-17.384-.415-2.829-3.125-2.866c-1.647-.022-15.45-1.009-28.876.627a49.137,49.137,0,0,0-28.764,14.02l-4.056,4.057S1078.895,1147.931,1084.909,1147.987Z" transform="translate(-1044.158 -1118.415)" fill="#00352e"/>
        <path id="Path_53731" data-name="Path 53731" d="M1667.33,1141.889v14.777a3.529,3.529,0,0,0,3.336,3.572l44.894,1.805a3.019,3.019,0,0,0,2.631-1.295c.806-1.188.9-3.142-3.124-5.761-7-4.555-24.794-14.408-31.378-15.361-4.191-.607-9.674-.87-13.107-.982A3.2,3.2,0,0,0,1667.33,1141.889Z" transform="translate(-1558.678 -1130.756)" fill="#00352e"/>
      </g>
      <g id="Group_41167" data-name="Group 41167" transform="translate(-14317.302 -22010.619)">
        <path id="Path_53732" data-name="Path 53732" d="M2398.556,1137.368l-.295.265a.362.362,0,0,1-.51-.013l-5.229-5.768a.358.358,0,0,1,.039-.506l.295-.265a.362.362,0,0,1,.509.013l5.229,5.768A.357.357,0,0,1,2398.556,1137.368Z" transform="translate(-2392.437 -1107.37)" fill="#fff"/>
        <path id="Path_53733" data-name="Path 53733" d="M2424.76,1144.235c-.7-.57-6.1,1.809-6.035,2.638s-3.771,8.859-3.771,8.859l-6.636-5.309,0,0c-.059-.192-.688-2.257-.718-2.626-.032-.387-1.153-1.065-1.674-.966s.446.755.509.876c.173.328-.495.45-.495.45s-1.917-1.056-1.958-1.677-.437-1.922-.851-1.65c-.214.14-.212,1.064-.145,1.5-.123-.5-.3-1.059-.467-1.115-.31-.1-.465.294-.408.489s.557,2.306.709,2.544,3.245,2.735,3.691,3.278c0,0,8.583,9.845,9.195,10.1.536.226,2.448-3.167,4.254-5.419S2426.944,1146.016,2424.76,1144.235Z" transform="translate(-2400.913 -1118.923)" fill="#f7a491"/>
        <path id="Path_53734" data-name="Path 53734" d="M2723.579,1712.858s1.179,1.155,1.206,1.579.1,4.964-.377,5.388-1.9.724-1.441,1.2c.344.36,2.988.283,4.74.187.512-.028,1.153-4.123,1.355-4.725.294-.874,1.01-2.843.742-3.452a5.105,5.105,0,0,0-1.633-1.477,8.044,8.044,0,0,1-1.809-1.932Z" transform="translate(-2682.413 -1615.153)" fill="#f48c7f"/>
        <path id="Path_53735" data-name="Path 53735" d="M2597.02,1757.52s1.055,2.992,1.057,3c.079.474.388,1.645.388,2.076,0,1.619-7.276-1.374-5.646-2.092a1.726,1.726,0,0,0,.659-1.135,3.8,3.8,0,0,0-.613-1.914Z" transform="translate(-2568.071 -1657.126)" fill="#f7a491"/>
        <g id="Group_41164" data-name="Group 41164" transform="translate(15.575 44.683)">
          <path id="Path_53736" data-name="Path 53736" d="M2521.577,1303.04s-.53,5.364-.53,5.443c0,8.676-1.714,25.624-1.388,27.255.8,3.979,9.354,24.275,9.354,24.275l4.626-.555-6.028-24.3,2.218-9.781,3.139-19.334Z" transform="translate(-2519.617 -1303.04)" fill="#355389"/>
          <path id="Path_53737" data-name="Path 53737" d="M2560.732,1313.27l.878,5.083,2.375,20.922,9.044,20.448s-1.272,2.975-3.148,3.393l-14.394-20.993-8.941-26.863.314-5.968Z" transform="translate(-2543.247 -1308.526)" fill="#466eb6"/>
        </g>
        <path id="Path_53738" data-name="Path 53738" d="M2520.56,1098.153l6.414.657s.294-5.276.294-7.793c0-3.054-.259-6.987-.626-6.9a5.588,5.588,0,0,0-3.248,1.949C2520.532,1090.008,2520.56,1098.153,2520.56,1098.153Z" transform="translate(-2504.87 -1066.24)" fill="#3c8f7c"/>
        <path id="Path_53739" data-name="Path 53739" d="M2527.658,1089.014c-.134.931-2.6,26.241-2.6,26.241,11.679,5.66,18.124,1.008,18.124,1.008s-.382-17.774.076-20.193c.3-1.6.681-12.236-.353-12.534a25.8,25.8,0,0,0-4.5-.961c-1.415-.147-6.912-.233-7.9.1A12.581,12.581,0,0,0,2527.658,1089.014Z" transform="translate(-2508.817 -1064.777)" fill="#50bfa5"/>
        <path id="Path_53740" data-name="Path 53740" d="M2724.717,1725.17s-2.718,7.68-3.782,8.051c-.283.1-1.639.348-1.894.95a2.609,2.609,0,0,0,0,.787h5.666s.717-3.384,1-4.871c0,0,1.5-3.632,1.333-3.963S2724.717,1725.17,2724.717,1725.17Z" transform="translate(-2679.015 -1628.794)" fill="#50bfa5"/>
        <path id="Path_53741" data-name="Path 53741" d="M2558.473,1784.865l-.833-2.641a7.22,7.22,0,0,1-2.625.619,26.455,26.455,0,0,1-2.583-.619c-3.493,1.153-6.354,1.713-5.833,2.641h11.874Z" transform="translate(-2527.666 -1678.861)" fill="#50bfa5"/>
        <g id="Group_41165" data-name="Group 41165" transform="translate(14.008 36.108)">
          <path id="Path_53742" data-name="Path 53742" d="M2507.611,1239.624a1.5,1.5,0,0,1-.176-.131c.208-2.48.17-4.882-.605-5.695l.365-.776c.9.7,1.326,2.551,1.158,5.559a5.164,5.164,0,0,1-.119.623C2507.973,1239.491,2507.737,1239.676,2507.611,1239.624Z" transform="translate(-2506.829 -1233.022)" fill="#f7a491"/>
        </g>
        <path id="Path_53743" data-name="Path 53743" d="M2683.048,1157.929a.7.7,0,0,0,0-.163c-.172-1.753-1.622-16.472-1.867-17.1-.22-.565-6.725-9.9-6.725-9.9l-3.2,4.371,6.256,8.373c.141.532,2.4,10.468,2.4,10.468s.463,1.811.67,2.9c-.094.261-.187.508-.27.711a6.517,6.517,0,0,1-.674,1.087,7.431,7.431,0,0,0-.8,1.417c-.066.256-.186.787-.253,1.107s-.16.694-.176.868a1.676,1.676,0,0,1-.2.466.28.28,0,0,0,.329.4c.227-.076.4-.371.513-.555.308-.519.472-1.467.548-1.417s.346,1.659.389,1.84a19.931,19.931,0,0,0,.549,2.391c.183.341.424.284.489.07.055-.184-.2-2.8-.2-2.8s-.032-.333.114-.229.383,2.476.485,2.824.332.531.527.252a10.541,10.541,0,0,0-.171-2.856s-.046-.316.089-.287.3,2.051.408,2.226a.265.265,0,0,0,.5-.054,12.479,12.479,0,0,0-.236-2.586s.019-.179.1-.119.351,1.772.524,1.931a.184.184,0,0,0,.268,0c.319-.218-.17-1.848-.165-2.658a19.969,19.969,0,0,1-.258-2.686C2683.016,1158.172,2683.036,1158.023,2683.048,1157.929Z" transform="translate(-2637.116 -1107.182)" fill="#f8a492"/>
        <path id="Path_53744" data-name="Path 53744" d="M2659.205,1102.195l-5.556,3.743a60.47,60.47,0,0,0-4.813-6.341c-2.106-2.086.767-8.474,2.124-8.113C2653.995,1092.293,2659.205,1102.195,2659.205,1102.195Z" transform="translate(-2616.781 -1072.696)" fill="#3c8f7c"/>
        <path id="Path_53745" data-name="Path 53745" d="M2595.659,1036.5l.831,5.5s-3.035,6.545-4.847,5.977c-1.52-.476-.585-6.267-.585-6.267a15.917,15.917,0,0,0,.58-4.666C2591.389,1035.483,2595.659,1036.5,2595.659,1036.5Z" transform="translate(-2566.485 -1024.17)" fill="#f7a491"/>
        <path id="Path_53746" data-name="Path 53746" d="M2597.069,1037.033c-.249-1.556,4.021-.541,4.021-.541l.069.456a2.542,2.542,0,0,1-.463.766,5.612,5.612,0,0,1-3.733,1.7A8.465,8.465,0,0,0,2597.069,1037.033Z" transform="translate(-2571.917 -1024.165)" fill="#f47458"/>
        <g id="Group_41166" data-name="Group 41166" transform="translate(22.584 0)">
          <path id="Path_53747" data-name="Path 53747" d="M2584.146,963.025c.121-.044.967,6.26-.639,7.995s-4.737,2.3-5.859.936c-1.242-1.511-1.18-8.287,1.318-10.071S2584.146,963.025,2584.146,963.025Z" transform="translate(-2576.855 -958.474)" fill="#f7a491"/>
          <path id="Path_53748" data-name="Path 53748" d="M2586.308,938.2a6.933,6.933,0,0,1,3.641,2.083c.876.1,2.068.59,3.3,2.634a5.123,5.123,0,0,1-1.365,6.664,3.987,3.987,0,0,0-1.737,2.944l-.278-.816a4.574,4.574,0,0,1-.221-1.923,3.771,3.771,0,0,1,.285-1.156c.424-.912-.91-1.519-1.284-2.278-.288-.584-.3-1.922-.755-2.888l-.542-.737a3.436,3.436,0,0,0-2.472-.7C2583.655,942.3,2583.83,937.695,2586.308,938.2Z" transform="translate(-2583.247 -938.163)" fill="#184655"/>
          <path id="Path_53749" data-name="Path 53749" d="M2621.618,1004.338c-.013.769.336,1.4.778,1.406s.812-.61.825-1.379-.336-1.4-.778-1.406S2621.631,1003.569,2621.618,1004.338Z" transform="translate(-2616.136 -995.024)" fill="#f7a491"/>
        </g>
        <path id="Path_53750" data-name="Path 53750" d="M2582.968,1027.829l-2.422-.126a1.062,1.062,0,0,0,1.072,1.012C2582.914,1028.821,2582.968,1027.829,2582.968,1027.829Z" transform="translate(-2557.51 -1016.738)" fill="#fff"/>
      </g>
      <g id="Group_41168" data-name="Group 41168" transform="translate(-14403.178 -22054.125)">
        <path id="Path_53751" data-name="Path 53751" d="M1520.817,620.365l13.669,27.131,14.348-26.778a15.345,15.345,0,0,0-13.263-21.473q-.237-.01-.477-.013t-.477,0A15.345,15.345,0,0,0,1520.817,620.365Zm6.993-5.63a7.088,7.088,0,1,1,7,7.177A7.088,7.088,0,0,1,1527.809,614.735Z" transform="translate(-1519.687 -599.231)" fill="#11d16e"/>
      </g>
      <path id="Path_53752" data-name="Path 53752" d="M528.148,1807.245H172.825a1.537,1.537,0,0,1-1.537-1.537v-.382a1.537,1.537,0,0,1,1.537-1.537H528.148a1.537,1.537,0,0,1,1.537,1.537v.382A1.536,1.536,0,0,1,528.148,1807.245Z" transform="translate(-14760.591 -23708.404)" fill="#056a5c"/>
    </g>
  </g>
</svg>
