<svg xmlns="http://www.w3.org/2000/svg" width="92" height="92" viewBox="0 0 92 92">
  <g id="Group_39627" data-name="Group 39627" transform="translate(-45 -171)">
    <rect id="Rectangle_17335" data-name="Rectangle 17335" width="92" height="92" rx="21" transform="translate(45 171)" fill="rgba(0,211,242,0.12)"/>
    <g id="Group_38663" data-name="Group 38663" transform="translate(-45.241 -30.653)">
      <g id="Group_38659" data-name="Group 38659" transform="translate(101.365 230.231)">
        <g id="Group_38657" data-name="Group 38657" transform="translate(30.494 0)">
          <path id="Path_33403" data-name="Path 33403" d="M286.1,234.568l.73-4.16a.214.214,0,0,1,.211-.177h1.233a.214.214,0,0,1,.21.173l.86,4.363Z" transform="translate(-284.273 -230.231)" fill="#f7da06"/>
          <path id="Path_33404" data-name="Path 33404" d="M282.565,248.634h-6.89v-.708a1.489,1.489,0,0,1,1.49-1.49h3.911a1.49,1.49,0,0,1,1.49,1.49Z" transform="translate(-275.675 -243.602)" fill="#f28c08"/>
        </g>
        <path id="Path_33405" data-name="Path 33405" d="M180.584,276.161l-2.12-4.926a11.148,11.148,0,0,0-8.22-6.556l-6.465-1.191-2.842-3.021a18.213,18.213,0,0,0-13.266-5.733H132.3A14.058,14.058,0,0,0,119.487,263l-.628,1.388h0a14.056,14.056,0,0,0-5.782,8.295l-.952,3.876Z" transform="translate(-110.243 -250.448)" fill="#f7da06"/>
        <path id="Path_33406" data-name="Path 33406" d="M113.077,273.425a14.059,14.059,0,0,1,5.782-8.295h0l.628-1.388a14.058,14.058,0,0,1,12.808-8.264H147.67a18.215,18.215,0,0,1,13.266,5.733l2.842,3.021,6.465,1.191a11.148,11.148,0,0,1,8.22,6.556l1.8,4.184.319,0-2.12-4.926a11.148,11.148,0,0,0-8.22-6.556l-6.465-1.191-2.842-3.021a18.213,18.213,0,0,0-13.266-5.733H132.3A14.058,14.058,0,0,0,119.487,263l-.628,1.388h0a14.056,14.056,0,0,0-5.782,8.295l-.952,3.876h.183Z" transform="translate(-110.243 -250.448)" fill="#fff315"/>
        <path id="Path_33407" data-name="Path 33407" d="M113.077,346l-.952,3.876,68.459-.4-2.121-4.926c-.141-.328-.3-.645-.471-.955H113.9A14.057,14.057,0,0,0,113.077,346Z" transform="translate(-110.243 -323.765)" fill="#f4c708"/>
        <path id="Path_33408" data-name="Path 33408" d="M172.574,374.285H101.9a.531.531,0,0,1-.531-.531v-3.642a.531.531,0,0,1,.531-.531h70.678a.531.531,0,0,1,.531.531v3.642a.531.531,0,0,1-.531.531Z" transform="translate(-101.365 -345.203)" fill="#f28c08"/>
        <path id="Path_33409" data-name="Path 33409" d="M232.033,333.474h-.97v-.97h.97Zm1.941-.97H233v.97h.97Zm1.941,0h-.97v.97h.97Zm1.941,0h-.97v.97h.97Zm1.941,0h-.97v.97h.97Zm1.941,0h-.97v.97h.97Zm1.941,0h-.97v.97h.97Zm1.941,0h-.97v.97h.97Zm1.941,0h-.97v.97h.97Zm1.941,0h-.97v.97h.97Zm-18.437.97h-.97v.97h.97Zm1.941,0h-.97v.97H233Zm1.941,0h-.97v.97h.97Zm1.941,0h-.97v.97h.97Zm1.941,0h-.97v.97h.97Zm1.941,0h-.97v.97h.97Zm1.941,0h-.97v.97h.97Zm1.941,0h-.97v.97h.97Zm1.941,0h-.97v.97h.97Zm1.941,0h-.97v.97h.97Zm-16.5.97h-.97v.97h.97Zm1.941,0H233v.97h.97Zm1.941,0h-.97v.97h.97Zm1.941,0h-.97v.97h.97Zm1.941,0h-.97v.97h.97Zm1.941,0h-.97v.97h.97Zm1.941,0h-.97v.97h.97Zm1.941,0h-.97v.97h.97Zm1.941,0h-.97v.97h.97Zm1.941,0h-.97v.97h.97Zm-18.437.97h-.97v.97h.97Zm1.941,0h-.97v.97H233Zm1.941,0h-.97v.97h.97Zm1.941,0h-.97v.97h.97Zm1.941,0h-.97v.97h.97Zm1.941,0h-.97v.97h.97Zm1.941,0h-.97v.97h.97Zm1.941,0h-.97v.97h.97Zm1.941,0h-.97v.97h.97Zm1.941,0h-.97v.97h.97Z" transform="translate(-207.572 -314.612)" fill="#353f60"/>
        <g id="Group_38658" data-name="Group 38658" transform="translate(10.796 6.036)">
          <path id="Path_33410" data-name="Path 33410" d="M223.727,272.637H233.9a.472.472,0,0,0,.472-.472v-6.958a.472.472,0,0,0-.472-.472h-9.912q-.133,0-.266,0a.474.474,0,0,0-.464.473v6.953A.472.472,0,0,0,223.727,272.637Z" transform="translate(-212.727 -264.735)" fill="#fff6c2"/>
          <path id="Path_33411" data-name="Path 33411" d="M294.966,272.637h16.627a.472.472,0,0,0,.344-.8l-1.81-1.924a16.464,16.464,0,0,0-11.992-5.183h-3.17a.472.472,0,0,0-.472.472v6.958A.472.472,0,0,0,294.966,272.637Z" transform="translate(-271.504 -264.735)" fill="#fff6c2"/>
          <path id="Path_33412" data-name="Path 33412" d="M172.255,266.8a.472.472,0,0,0-.572-.463,12.305,12.305,0,0,0-8.564,6.946h0a.472.472,0,0,0,.43.667h8.234a.472.472,0,0,0,.472-.472Z" transform="translate(-163.077 -266.047)" fill="#fff6c2"/>
        </g>
        <path id="Path_33413" data-name="Path 33413" d="M116.658,338.718l-.777-.213a.648.648,0,0,1-.453-.8l.927-3.378a.648.648,0,0,1,.8-.453l.777.213a.648.648,0,0,1,.453.8l-.927,3.378a.648.648,0,0,1-.8.453Z" transform="translate(-112.948 -315.726)" fill="#ea3d5b"/>
        <path id="Path_33414" data-name="Path 33414" d="M449.054,343.6h-8.393l1.526,3.138h8.278Z" transform="translate(-381.304 -323.765)" fill="#fff6c2"/>
        <path id="Path_33415" data-name="Path 33415" d="M440.661,343.6l1.526,3.138h2.779L443.44,343.6Z" transform="translate(-381.304 -323.765)" fill="#f28c08"/>
      </g>
      <g id="Group_38662" data-name="Group 38662" transform="translate(108.922 250.982)">
        <g id="Group_38660" data-name="Group 38660" transform="translate(0 0)">
          <circle id="Ellipse_4233" data-name="Ellipse 4233" cx="6.884" cy="6.884" r="6.884" fill="#353f60"/>
          <circle id="Ellipse_4234" data-name="Ellipse 4234" cx="5.067" cy="5.067" r="5.067" transform="translate(1.817 1.817)" fill="#293351"/>
          <circle id="Ellipse_4235" data-name="Ellipse 4235" cx="3.982" cy="3.982" r="3.982" transform="translate(2.902 2.902)" fill="#fff"/>
          <circle id="Ellipse_4236" data-name="Ellipse 4236" cx="3.64" cy="3.64" r="3.64" transform="translate(3.243 3.243)" fill="#fff6c2"/>
          <path id="Path_33416" data-name="Path 33416" d="M170.076,371.548c0-.667.313-.731.7-.731s.7.064.7.731-.314,1.684-.7,1.684S170.076,372.215,170.076,371.548Zm.7,2.934c-.387,0-.7,1.017-.7,1.684s.313.731.7.731.7-.064.7-.731S171.163,374.482,170.776,374.482Zm-2.35-1.173c.577.333,1.615.57,1.808.235s-.531-1.115-1.108-1.448-.79-.094-.983.241S167.849,372.975,168.427,373.309Zm4.7,1.1c-.577-.333-1.615-.57-1.808-.236s.531,1.115,1.108,1.448.79.094.983-.241S173.7,374.738,173.126,374.405Zm-1.808-.861c.193.335,1.231.1,1.808-.235s.476-.637.283-.972-.406-.574-.983-.241S171.124,373.209,171.318,373.544Zm-1.083.625c-.193-.335-1.231-.1-1.808.236s-.476.637-.283.972.406.574.983.241S170.428,374.5,170.235,374.169Z" transform="translate(-163.893 -366.973)" fill="#293351"/>
        </g>
        <g id="Group_38661" data-name="Group 38661" transform="translate(40.2 0)">
          <circle id="Ellipse_4237" data-name="Ellipse 4237" cx="6.884" cy="6.884" r="6.884" fill="#353f60"/>
          <circle id="Ellipse_4238" data-name="Ellipse 4238" cx="5.067" cy="5.067" r="5.067" transform="translate(1.817 1.817)" fill="#293351"/>
          <circle id="Ellipse_4239" data-name="Ellipse 4239" cx="3.982" cy="3.982" r="3.982" transform="translate(2.902 2.902)" fill="#fff"/>
          <circle id="Ellipse_4240" data-name="Ellipse 4240" cx="3.64" cy="3.64" r="3.64" transform="translate(3.243 3.243)" fill="#fff6c2"/>
          <path id="Path_33417" data-name="Path 33417" d="M399.87,371.548c0-.667.314-.731.7-.731s.7.064.7.731-.314,1.684-.7,1.684S399.87,372.215,399.87,371.548Zm.7,2.934c-.387,0-.7,1.017-.7,1.684s.314.731.7.731.7-.064.7-.731S400.956,374.482,400.57,374.482Zm-2.349-1.173c.577.333,1.615.57,1.808.235s-.531-1.115-1.108-1.448-.79-.094-.983.241S397.643,372.975,398.22,373.309Zm4.7,1.1c-.577-.333-1.615-.57-1.808-.236s.531,1.115,1.108,1.448.79.094.983-.241S403.5,374.738,402.919,374.405Zm-1.808-.861c.193.335,1.231.1,1.808-.235s.477-.637.283-.972-.406-.574-.983-.241S400.918,373.209,401.111,373.544Zm-1.083.625c-.193-.335-1.231-.1-1.808.236s-.477.637-.283.972.406.574.983.241S400.222,374.5,400.028,374.169Z" transform="translate(-393.686 -366.973)" fill="#293351"/>
        </g>
      </g>
    </g>
    <g id="Path_33418" data-name="Path 33418" transform="translate(-413.4 171.511)" fill="red">
      <path d="M 487.1234436035156 71.07405090332031 L 486.4281005859375 70.47849273681641 L 483.4233703613281 67.90496826171875 L 482.5932922363281 67.19400024414062 L 483.3750305175781 66.43019866943359 L 523.3710327148438 27.35258102416992 L 524.1087646484375 26.63179206848145 L 524.806396484375 27.39144134521484 L 527.4496459960938 30.26963043212891 L 528.1050415039062 30.98329162597656 L 527.4124145507812 31.6608715057373 L 487.7778930664062 70.43382263183594 L 487.1234436035156 71.07405090332031 Z" stroke="none"/>
      <path d="M 487.07861328125 69.718994140625 L 526.713134765625 30.94604110717773 L 524.0698852539062 28.06785202026367 L 484.0738830566406 67.14546966552734 L 487.07861328125 69.718994140625 M 487.1683044433594 72.42910766601562 L 481.1126708984375 67.24253845214844 L 524.1476440429688 25.19573211669922 L 529.4970092773438 31.02054023742676 L 487.1683044433594 72.42910766601562 Z" stroke="none" fill="#e0fafe"/>
    </g>
  </g>
</svg>
