<svg xmlns="http://www.w3.org/2000/svg" xmlns:xlink="http://www.w3.org/1999/xlink" width="375" height="348" viewBox="0 0 375 348">
  <defs>
    <clipPath id="clip-path">
      <rect id="Rectangle_18146" data-name="Rectangle 18146" width="375" height="348" fill="none" stroke="#707070" stroke-width="1"/>
    </clipPath>
  </defs>
  <g id="Mask_Group_136" data-name="Mask Group 136" clip-path="url(#clip-path)">
    <g id="Group_39727" data-name="Group 39727" transform="translate(0 -27.109)" opacity="0.46">
      <path id="Path_34530" data-name="Path 34530" d="M-7.834,140.616s.079,77.872,98.586,68.965,92.971,95.528,92.971,95.528" transform="translate(-5 96)" fill="none" stroke="#1add79" stroke-width="2"/>
      <path id="Path_34531" data-name="Path 34531" d="M-6.782,261.549s52.073-30.324,121.077-24.843,132.136,57.657,132.136,57.657" transform="translate(-5 94.342)" fill="none" stroke="#0e675c" stroke-width="2"/>
      <path id="Path_34532" data-name="Path 34532" d="M620.728,588.322l22.7-7.958-5.832,24.419Z" transform="translate(-592 -289)" fill="#1add79"/>
    </g>
    <g id="Group_39730" data-name="Group 39730" opacity="0.46">
      <path id="Path_34530-2" data-name="Path 34530" d="M191.614,0a92.588,92.588,0,0,0-31.95-3.774C130.985-2.336,92.2,11.695,93.028,68.965,94.377,162.088.057,164.493.057,164.493" transform="translate(221.453 177.247) rotate(-111)" fill="none" stroke="#1add79" stroke-width="2"/>
      <path id="Path_34531-2" data-name="Path 34531" d="M253.212,25.505S201.139-4.819,132.136.663,0,58.32,0,58.32" transform="matrix(-0.545, -0.839, 0.839, -0.545, 326.089, 193.607)" fill="none" stroke="#0e675c" stroke-width="2"/>
      <path id="Path_34532-2" data-name="Path 34532" d="M22.7,7.958,0,0,5.832,24.419Z" transform="translate(344.563 62.497) rotate(51)" fill="#1add79"/>
    </g>
  </g>
</svg>
