<svg xmlns="http://www.w3.org/2000/svg" xmlns:xlink="http://www.w3.org/1999/xlink" width="55" height="55" viewBox="0 0 55 55">
  <defs>
    <filter id="Ellipse_4230" x="0" y="0" width="55" height="55" filterUnits="userSpaceOnUse">
      <feOffset dy="1" input="SourceAlpha"/>
      <feGaussianBlur stdDeviation="2.5" result="blur"/>
      <feFlood flood-opacity="0.141"/>
      <feComposite operator="in" in2="blur"/>
      <feComposite in="SourceGraphic"/>
    </filter>
  </defs>
  <g id="Group_41614" data-name="Group 41614" transform="translate(-308.5 -52.5)">
    <g transform="matrix(1, 0, 0, 1, 308.5, 52.5)" filter="url(#Ellipse_4230)">
      <circle id="Ellipse_4230-2" data-name="Ellipse 4230" cx="20" cy="20" r="20" transform="translate(7.5 6.5)" fill="#fff"/>
    </g>
    <g id="Iconly_Light_Notification" data-name="Iconly/Light/Notification" transform="translate(324.5 68.449)">
      <g id="Notification" transform="translate(3.5 2)">
        <path id="Stroke-1" d="M7.692,14.341c5.1,0,7.464-.655,7.692-3.282,0-2.626-1.646-2.457-1.646-5.679A5.835,5.835,0,0,0,7.692,0,5.835,5.835,0,0,0,1.646,5.38C1.646,8.6,0,8.433,0,11.059.229,13.7,2.59,14.341,7.692,14.341Z" transform="translate(0 0)" fill="none" stroke="#00352e" stroke-linecap="round" stroke-linejoin="round" stroke-width="1.5" fill-rule="evenodd"/>
        <path id="Stroke-3" d="M10.426,18.857a2.864,2.864,0,0,1-4.406,0" transform="translate(-0.572 -1.793)" fill="none" stroke="#00352e" stroke-linecap="round" stroke-linejoin="round" stroke-width="1.5" fill-rule="evenodd"/>
      </g>
    </g>
  </g>
</svg>
