<svg xmlns="http://www.w3.org/2000/svg" xmlns:xlink="http://www.w3.org/1999/xlink" width="57.471" height="53.345" viewBox="0 0 57.471 53.345">
  <defs>
    <filter id="Ellipse_4223" x="4.127" y="0" width="53.345" height="53.345" filterUnits="userSpaceOnUse">
      <feOffset dy="5" input="SourceAlpha"/>
      <feGaussianBlur stdDeviation="7" result="blur"/>
      <feFlood flood-opacity="0.071"/>
      <feComposite operator="in" in2="blur"/>
      <feComposite in="SourceGraphic"/>
    </filter>
  </defs>
  <g id="Group_41170" data-name="Group 41170" transform="translate(13254.454 3488.614)">
    <path id="Path_33605" data-name="Path 33605" d="M348.889,900c0,.575.009,1.12,0,1.664-.014.668-.27.919-.946.923-.986.007-1.973.01-2.959,0-.547-.007-.837-.267-.833-.792.026-3.147.04-6.3.12-9.442a7,7,0,0,1,1.543-4.228l-1.281-.425a1.047,1.047,0,0,1-.852-1.267,1.178,1.178,0,0,1,1.184-1.086c.7-.021,1.4-.026,2.105,0a.8.8,0,0,0,.821-.443c.577-.98,1.178-1.947,1.795-2.9a4.172,4.172,0,0,1,3.56-2.03c3.736-.053,7.474-.018,11.211-.018a1.385,1.385,0,0,1,.216.033.3.3,0,0,1,.011.07c-.187,1.295-.187,1.295-1.474,1.295-3.149,0-6.3.008-9.447,0a3.319,3.319,0,0,0-3.1,1.734c-.759,1.291-1.587,2.541-2.35,3.829-.156.263-.311.708-.192.9s.577.3.887.3q8.252.025,16.5,0a1.068,1.068,0,0,1,.886.447c.858.947,1.775,1.84,2.677,2.762-.529.193-1.161.419-1.789.652a1.23,1.23,0,0,0-.938,1.368,1.245,1.245,0,0,0,1.362,1.028c.7.01,1.4,0,2.106,0,1.466,0,1.971-.431,2.2-1.918l1.71.29c.028.587.077,1.17.079,1.752q.015,3.529,0,7.057c0,.789-.239,1.028-1.01,1.032q-1.366.006-2.732,0c-.774,0-1-.237-1-1.029,0-.508,0-1.015,0-1.559Zm10-1.829h3.125c1.044,0,1.063-.038,1.069-1.092,0-.529-.195-.755-.735-.752-2.291.014-4.583,0-6.874.008-.627,0-.726.138-.727.92s.1.911.735.914C356.619,898.172,357.755,898.167,358.892,898.168Zm-9.885-3.8c.455,0,.91.016,1.364,0a1.206,1.206,0,0,0,.373-2.361c-.815-.307-1.638-.593-2.459-.885a1.623,1.623,0,0,0-1.868.439,1.56,1.56,0,0,0-.319,1.743,1.652,1.652,0,0,0,1.6,1.067C348.134,894.381,348.57,894.37,349.006,894.368Z" transform="translate(-13598.117 -4350.067)" fill="#00352e"/>
    <path id="Subtraction_7" data-name="Subtraction 7" d="M8.194,16.387A8.194,8.194,0,0,1,2.4,2.4,8.194,8.194,0,1,1,8.194,16.387Zm0-14.827a6.633,6.633,0,1,0,6.633,6.633A6.641,6.641,0,0,0,8.194,1.561Z" transform="translate(-13231.848 -3475.135)" fill="#00352e"/>
    <g id="Group_39261" data-name="Group 39261" transform="translate(-13229.327 -3472.614)">
      <g transform="matrix(1, 0, 0, 1, -25.13, -16)" filter="url(#Ellipse_4223)">
        <circle id="Ellipse_4223-2" data-name="Ellipse 4223" cx="5.672" cy="5.672" r="5.672" transform="translate(25.13 16)" fill="#11d16e"/>
      </g>
      <g id="Group" transform="translate(3.434 3.428)">
        <path id="Vector" d="M4.293,0H0" transform="translate(0 2.103)" fill="none" stroke="#fff" stroke-linecap="round" stroke-linejoin="round" stroke-width="1.2"/>
        <path id="Vector-2" data-name="Vector" d="M0,0V4.307" transform="translate(2.146 0)" fill="none" stroke="#fff" stroke-linecap="round" stroke-linejoin="round" stroke-width="1.2"/>
      </g>
    </g>
  </g>
</svg>
