<svg xmlns="http://www.w3.org/2000/svg" width="40" height="40" viewBox="0 0 40 40">
  <g id="Group_39749" data-name="Group 39749" transform="translate(-20 -59)">
    <circle id="Ellipse_4228" data-name="Ellipse 4228" cx="20" cy="20" r="20" transform="translate(20 59)" fill="#00352e"/>
    <path id="Path_34538" data-name="Path 34538" d="M3.75,6.5a.75.75,0,0,1,.75-.75h15a.75.75,0,0,1,0,1.5H4.5a.75.75,0,0,1-.75-.75m0,5.5a.75.75,0,0,1,.75-.75h15a.75.75,0,0,1,0,1.5H4.5A.75.75,0,0,1,3.75,12m0,5.5a.75.75,0,0,1,.75-.75h15a.75.75,0,0,1,0,1.5H4.5a.75.75,0,0,1-.75-.75" transform="translate(28 67.25)" fill="#fff"/>
  </g>
</svg>
