<svg xmlns="http://www.w3.org/2000/svg" xmlns:xlink="http://www.w3.org/1999/xlink" width="105.92" height="37.144" viewBox="0 0 105.92 37.144">
  <defs>
    <clipPath id="clip-path">
      <rect id="Rectangle_19442" data-name="Rectangle 19442" width="13.939" height="14.489" transform="translate(0 0)" fill="#fff" stroke="#707070" stroke-width="1"/>
    </clipPath>
    <clipPath id="clip-path-2">
      <rect id="Rectangle_19441" data-name="Rectangle 19441" width="13.756" height="15.59" fill="#fff" stroke="#707070" stroke-width="1"/>
    </clipPath>
    <linearGradient id="linear-gradient" x1="0.43" y1="0.205" x2="0.5" y2="0.97" gradientUnits="objectBoundingBox">
      <stop offset="0" stop-color="#98db39"/>
      <stop offset="1" stop-color="#01dd86"/>
    </linearGradient>
    <linearGradient id="linear-gradient-2" x1="0.5" x2="0.5" y2="1" gradientUnits="objectBoundingBox">
      <stop offset="0"/>
      <stop offset="1" stop-color="#030303"/>
    </linearGradient>
  </defs>
  <g id="Group_39742" data-name="Group 39742" transform="translate(-952.245 -1312.402)">
    <g id="Mask_Group_6" data-name="Mask Group 6" transform="translate(1012.051 1314.617) rotate(6.024)" clip-path="url(#clip-path)">
      <g id="Group_39747" data-name="Group 39747" transform="translate(4.354 1.017)">
        <path id="Path_37163" data-name="Path 37163" d="M1.661.125c.271.076.542.154.81.24a1.021,1.021,0,0,1,.8.688,3.152,3.152,0,0,1,.132.709L3.5,2.8A2.118,2.118,0,0,0,3.857,3.92c.564.807.353,2.071.281,2.991a1.3,1.3,0,0,1-.069.381,1.034,1.034,0,0,1-.23.337,2.793,2.793,0,0,1-1.576.693,2.629,2.629,0,0,1-1.075,0A1.506,1.506,0,0,1,.132,6.918a11.269,11.269,0,0,1-.117-2.3A19.543,19.543,0,0,1,.248,1.836c.095-.542.176-2.027,1-1.816Z" transform="translate(4.848 6.068)" fill="#243a52"/>
        <path id="Path_37164" data-name="Path 37164" d="M.029.008A.079.079,0,0,1,.1.008,1.355,1.355,0,0,1,.469,1.042C.491,1.549.5,2.06.51,2.571S.538,3.617.551,4.147.579,5.193.592,5.723A7.839,7.839,0,0,1,.525,7.236l-.038.186c0,.038-.107.032-.1,0a6.3,6.3,0,0,0,.11-1.5C.5,5.408.471,4.891.456,4.377S.43,3.334.415,2.8.39,1.764.374,1.244A1.626,1.626,0,0,0,.106.131a.693.693,0,0,0-.1-.095C-.013.027.012.011.029.008Z" transform="translate(7.315 6.547)" fill="#2c6491"/>
        <path id="Path_37165" data-name="Path 37165" d="M.145.746Q.121.387.07.027c0-.035.1-.038.1,0A10.228,10.228,0,0,1,.205,2.568c-.025.24-.06.479-.1.715,0,.038-.107.032-.1,0A10.528,10.528,0,0,0,.145.746Z" transform="translate(8.534 10.162)" fill="#2c6491"/>
        <path id="Path_37166" data-name="Path 37166" d="M.176,4.44Q.211,3.015.126,1.6C.1,1.074.053.544,0,.027c0-.035.1-.038.1,0Q.246,1.439.277,2.864C.3,3.81.277,4.755.227,5.7.2,6.23.154,6.76.1,7.277c0,.035-.1.032-.1,0C.094,6.334.158,5.386.176,4.44Z" transform="translate(6.086 6.686)" fill="#2c6491"/>
        <path id="Path_37174" data-name="Path 37174" d="M1.479,2.307c-.028.287.044.769-.315.876a.741.741,0,0,1-.444-.035.923.923,0,0,1-.514-.372,1.207,1.207,0,0,1-.123-.5A7.221,7.221,0,0,1,.016.705a.946.946,0,0,1,.161-.5A.656.656,0,0,1,.927.059,1.132,1.132,0,0,1,1.485.63,3.362,3.362,0,0,1,1.479,2.307Z" transform="translate(1.647 28.169)" fill="#ffa87d"/>
        <path id="Path_37175" data-name="Path 37175" d="M.039,1.048H3.285a.47.47,0,0,0,0-.066,1.167,1.167,0,0,0,0-.148A1.069,1.069,0,0,0,3.128.294.161.161,0,0,0,3.033.212.2.2,0,0,0,2.9.257.766.766,0,0,1,2.321.33a.779.779,0,0,1-.315-.2.46.46,0,0,0-.117-.1A.246.246,0,0,0,1.725.005,2.027,2.027,0,0,0,1.3.264a4.1,4.1,0,0,1-.511.22A4.074,4.074,0,0,0,.344.641.9.9,0,0,0,.029.856a.154.154,0,0,0,.01.192Z" transform="translate(0.013 30.623)" fill="#fff"/>
        <path id="Path_37176" data-name="Path 37176" d="M.043.214H3.29a.47.47,0,0,0,0-.066A1.167,1.167,0,0,0,3.29,0H.043a.154.154,0,0,0,0,.214Z" transform="translate(0.009 31.457)" fill="#152636"/>
        <path id="Path_37177" data-name="Path 37177" d="M0,.488C.02.453.067.444.1.431A4.043,4.043,0,0,0,.641.179C.736.126.833.069.925.006a.057.057,0,0,1,.05,0S1,.006.991.031A4.514,4.514,0,0,1,.439.346C.345.391.247.431.149.469A.177.177,0,0,0,.083.5c-.016.018,0,.044,0,.063S.2.689.178.728.071.674.061.652L.026.592C.02.567-.011.532,0,.488Z" transform="translate(0.773 30.713)" fill="#ef8e95"/>
        <path id="Path_37178" data-name="Path 37178" d="M.007,0h.05L.18.117V.145H.127L0,.025S-.007,0,.007,0Z" transform="translate(1.43 30.747)" fill="#152636"/>
        <path id="Path_37179" data-name="Path 37179" d="M.031.015a.069.069,0,0,1,.05,0,1.214,1.214,0,0,1,.11.11h0a.022.022,0,0,1-.016,0H.123S.053.049.016.015.019.018.031.015Z" transform="translate(1.235 30.827)" fill="#152636"/>
        <path id="Path_37180" data-name="Path 37180" d="M0,0H.071L.156.1H.087L0,0S0,.006,0,0Z" transform="translate(1.063 30.939)" fill="#152636"/>
        <path id="Path_37181" data-name="Path 37181" d="M0,.007a.047.047,0,0,1,.05,0A.6.6,0,0,1,.167.13H.145C.129.13.107.13.1.114L.076.083h0A.482.482,0,0,0,.018.026S-.009.01,0,.007Z" transform="translate(0.863 30.999)" fill="#152636"/>
        <path id="Path_37182" data-name="Path 37182" d="M2.273,1.51c.148.249.492.6.268.889a.737.737,0,0,1-.381.23.9.9,0,0,1-.63,0,1.261,1.261,0,0,1-.394-.315A7.108,7.108,0,0,1,.164,1.09.968.968,0,0,1,0,.589.652.652,0,0,1,.507.021a1.109,1.109,0,0,1,.785.136C1.771.422,2,1.053,2.273,1.51Z" transform="translate(5.934 26.681)" fill="#ffa87d"/>
        <path id="Path_37183" data-name="Path 37183" d="M.11,2.443h0L2.749.535,2.714.466A1.188,1.188,0,0,0,2.632.343a1.116,1.116,0,0,0-.444-.33.161.161,0,0,0-.126,0C2.017.031,2,.082,1.977.126a.766.766,0,0,1-.419.391.772.772,0,0,1-.359,0,.653.653,0,0,0-.158,0A.227.227,0,0,0,.9.6a1.951,1.951,0,0,0-.22.454,4.347,4.347,0,0,1-.284.479,4.438,4.438,0,0,0-.265.388A.9.9,0,0,0,0,2.276a.161.161,0,0,0,.11.167Z" transform="translate(6.312 28.528)" fill="#fff"/>
        <path id="Path_37184" data-name="Path 37184" d="M.113,2.1h0L2.751.192,2.717.123A1.188,1.188,0,0,0,2.635,0L0,1.917a.161.161,0,0,0,.11.183Z" transform="translate(6.31 28.871)" fill="#152636"/>
        <path id="Path_37185" data-name="Path 37185" d="M0,.974A.218.218,0,0,1,.044.87,4.179,4.179,0,0,0,.331.35c.047-.1.088-.2.128-.315A.054.054,0,0,1,.5,0H.522A4.312,4.312,0,0,1,.261.577C.21.669.157.76.1.845A.186.186,0,0,0,.062.908c0,.025.028.038.047.044s.173.035.173.079-.117.022-.139,0L.081,1A.055.055,0,0,1,0,.974Z" transform="translate(6.744 29.193)" fill="#ef8e95"/>
        <path id="Path_37186" data-name="Path 37186" d="M0,.018.022,0H.047L.214.025V.054L.192.072H.167L0,.047Z" transform="translate(6.987 29.386)" fill="#152636"/>
        <path id="Path_37187" data-name="Path 37187" d="M.007.025A.069.069,0,0,1,.055,0,1.262,1.262,0,0,1,.206.025h0a.035.035,0,0,1,0,.018A.05.05,0,0,1,.181.062H.159L.007.036C-.005.069,0,.035.007.025Z" transform="translate(6.914 29.556)" fill="#152636"/>
        <path id="Path_37188" data-name="Path 37188" d="M0,.037A.022.022,0,0,1,0,.018.041.041,0,0,1,.024,0H.046L.178.032V.05c0,.018,0,0-.022.018a.035.035,0,0,1-.025,0L0,.037Z" transform="translate(6.811 29.743)" fill="#152636"/>
        <path id="Path_37189" data-name="Path 37189" d="M.016.025A.057.057,0,0,1,.063,0,.542.542,0,0,1,.224.035h0a.136.136,0,0,1,0,.022S.192.079.176.057H.024C-.006.063-.006.044.016.025Z" transform="translate(6.678 29.915)" fill="#152636"/>
        <path id="Path_37190" data-name="Path 37190" d="M4.02,0a8.14,8.14,0,0,1,0,1.938c0,1.195-.092,2.4-.139,3.59a7.3,7.3,0,0,0,.3,3.322h0a16.117,16.117,0,0,0,.9,1.648c.615,1.04,1.157,2.109,1.7,3.2l-1.147.684-.558.334c-.218.128-.372.252-.552,0q-.782-1.144-1.5-2.3c-.271-.435-.539-.87-.8-1.311A8.387,8.387,0,0,1,.678,7.54C.643,7.073.514,6.594.448,6.131S.325,5.163.265,4.681A36.529,36.529,0,0,1,0,0Z" transform="translate(1.672 14.18)" fill="#2c6491"/>
        <path id="Path_37191" data-name="Path 37191" d="M2.611.029c.028.132.047.255.066.362.128.823.293,1.639.4,2.465A20.825,20.825,0,0,1,3.2,5.516V6.834a8.429,8.429,0,0,0,.123,1.2,16.362,16.362,0,0,1,.123,2.619c-.044,1.775-.265,3.543-.236,5.321a7.026,7.026,0,0,0-1.176-.041c-.347,0-1.324.2-1.321-.315v-1.2C.66,12.6.474,10.793.317,8.98.165,7.247.175,5.494.112,3.745L.036,1.715A7.25,7.25,0,0,1,.068,0Z" transform="translate(0.388 14.151)" fill="#2c6491"/>
        <path id="Path_37192" data-name="Path 37192" d="M.1,0A3.782,3.782,0,0,0,.959,2.166a2.364,2.364,0,0,0,.444.388C1.431,1.7,1.457.851,1.486,0h.1L1.5,2.6q-.047,1.529-.1,3.057L1.356,7.174c0,.255-.016.514-.025.769a1.444,1.444,0,0,0,.066.706c.11.22.243.435.362.63s.246.432.362.649c.23.429.413.879.605,1.324a16.741,16.741,0,0,0,1.405,2.521l.2.3c.018.028-.079.044-.1,0a19.086,19.086,0,0,1-1.459-2.487c-.2-.441-.375-.9-.587-1.333s-.477-.873-.722-1.3a1.339,1.339,0,0,1-.243-.63c0-.252,0-.507.022-.76.016-.514.032-1.024.05-1.535q.047-1.532.1-3.057V2.6H1.368a2.641,2.641,0,0,1-.81-.829A3.76,3.76,0,0,1,.092.6,5.673,5.673,0,0,1,0,0Z" transform="translate(3.318 14.18)" fill="#243a52"/>
        <path id="Path_37193" data-name="Path 37193" d="M.1.016C.1.309.127.6.146.892s.035.5.054.747l.028.372a1.006,1.006,0,0,0,.022.17.5.5,0,0,0,.085.148,3.972,3.972,0,0,1,.315.454C.622,1.917.609,1.047.606.179V.015h.1q0,1.091.028,2.184c0,.192,0,.388.016.583A10.591,10.591,0,0,0,.874,3.873l.161,1.151c.073.526.142,1.056.22,1.576s.158.965.268,1.44a9.3,9.3,0,0,0,.422,1.39,6.163,6.163,0,0,0,.675,1.261c.035.05.069.1.107.145s-.025.032-.035.032a.057.057,0,0,1-.063,0,5.989,5.989,0,0,1-.715-1.261c-.025-.06-.047-.12-.073-.176.022.813,0,1.623,0,2.437s-.05,1.683-.079,2.522c0,.473-.028.946-.044,1.418,0,.038-.1.038-.1,0L1.7,13.285c.025-.842.054-1.68.063-2.522V9.349c0-.018.028-.028.057-.028a9.841,9.841,0,0,1-.359-1.109c-.117-.477-.2-.946-.281-1.444S1.027,5.734.954,5.22C.85,4.548.781,3.874.673,3.206A1.718,1.718,0,0,0,.617,2.89a2.235,2.235,0,0,0-.339-.5C.246,2.342.208,2.3.18,2.254A.429.429,0,0,1,.129,2.1c0-.12-.018-.243-.028-.362C.06,1.236.028.731,0,.224V0Z" transform="translate(1.035 14.164)" fill="#243a52"/>
        <path id="Path_37194" data-name="Path 37194" d="M5.091,2.519q-1.872.035-3.738-.041c-.088,0-.293-.917-.315-1,.025.142-.17.47-.22.611-.069.192-.088.372-.334.369H0A7.361,7.361,0,0,0,0,1.441C.035.839.06.3.75.085a2.742,2.742,0,0,1,1-.066A13.39,13.39,0,0,1,4.848.5c.391.12.611.23.681.63A7.332,7.332,0,0,1,5.63,2.5Z" transform="translate(0.248 13.096)" fill="#fff"/>
        <path id="Path_37195" data-name="Path 37195" d="M5.078,11.306l-1.608-.06-2.437-.088a5.484,5.484,0,0,1-.789-.05A.366.366,0,0,1,.1,11.054c-.167-.123-.069-.413-.063-.58,0-.277.016-.552.028-.825.054-1.6.2-3.174.246-4.766A17.928,17.928,0,0,1,.437,2.556,1.576,1.576,0,0,1,.7,1.841c.164-.22.407-.372.555-.6a2.011,2.011,0,0,1,.136-.224A1.109,1.109,0,0,1,1.836.728a9.985,9.985,0,0,0,.9-.492A1.626,1.626,0,0,1,3.56,0c.287.022.3.22.517.347a1.456,1.456,0,0,0,.23.092.864.864,0,0,1,.126.047A1.856,1.856,0,0,1,5.524,1.551,7.735,7.735,0,0,1,5.68,3.536c.022,1.217-.038,2.433-.069,3.65s.018,2.367.047,3.533a.63.63,0,0,1-.123.482.63.63,0,0,1-.457.1Z" transform="translate(0.245 3.366)" fill="#fada85"/>
        <path id="Path_37196" data-name="Path 37196" d="M1.508.421a1.233,1.233,0,0,1-.315.965,4.558,4.558,0,0,1-.5.485l-.574.492a2.206,2.206,0,0,1-.076-.347A5.415,5.415,0,0,1,0,1.3,2.358,2.358,0,0,1,.067.671,1.3,1.3,0,0,1,.455.422,8.864,8.864,0,0,0,1.262,0a.731.731,0,0,1,.246.422Z" transform="translate(1.628 3.672)" fill="#fff"/>
        <path id="Path_37197" data-name="Path 37197" d="M.114,1.452a2.039,2.039,0,0,1,.148-.34A1.169,1.169,0,0,1,.375.948,3.466,3.466,0,0,1,1.236.424,3.562,3.562,0,0,1,2.393.008a.337.337,0,0,1,.148,0,.388.388,0,0,1,.176.136l.176.211a.558.558,0,0,1,.1.145c.057.164-.208.41-.315.53a5.141,5.141,0,0,1-.489.526c-.092.085-1.081.857-1.069.883C.974,2.1.838,1.758.706,1.423A.023.023,0,0,0,.69,1.4a.125.125,0,0,0-.035,0A5.151,5.151,0,0,0,0,2.082a1.756,1.756,0,0,1,.114-.63Z" transform="translate(1.338 3.297)" fill="#fff"/>
        <path id="Path_37201" data-name="Path 37201" d="M1.9.126c.47-.243,1-.151,1.116.416a1.929,1.929,0,0,1,0,.6,14.7,14.7,0,0,1-1.005,3.89,1.831,1.831,0,0,1-.5.766.946.946,0,0,1-1.51-.571,1.772,1.772,0,0,1,.082-.712C.307,3.644.527,2.775.748,1.9A3.1,3.1,0,0,1,1.139.823,2.156,2.156,0,0,1,1.9.126Z" transform="translate(2.532 5.421)" fill="#ffa87d"/>
        <path id="Path_37203" data-name="Path 37203" d="M0,.007a.06.06,0,0,1,.057,0A1.091,1.091,0,0,1,.519.269C.519.284.519.3.5.3a.06.06,0,0,1-.06,0A1.05,1.05,0,0,0,.017.054S-.011.023,0,.007Z" transform="translate(2.806 9.517)" fill="#e06f63"/>
        <path id="Path_37204" data-name="Path 37204" d="M3.114.968a5.775,5.775,0,0,1-.025,2.3,16.927,16.927,0,0,1-.514,2.238.081.081,0,0,1-.038.066.114.114,0,0,1-.085,0A11.149,11.149,0,0,1,0,4.819a3.754,3.754,0,0,1,.139-.8c.069-.315.154-.6.227-.9C.488,2.61.627,2.093.785,1.586.987.956,1.251.146,2.014.01,2.641-.076,2.96.4,3.114.968Z" transform="translate(2.728 4.217)" fill="#d8b351"/>
        <path id="Path_37205" data-name="Path 37205" d="M.033,0A.057.057,0,0,1,.087.017a.968.968,0,0,1,.1.208C.213.3.241.383.267.462.267.493.191.5.185.462A2.09,2.09,0,0,0,.1.228.738.738,0,0,0,0,.02C-.008,0,.024,0,.033,0Z" transform="translate(2.115 5.037)" fill="#c5e7fc"/>
        <path id="Path_37206" data-name="Path 37206" d="M0,.109.105,0A.041.041,0,0,1,.13,0H.184s0,0,0,.016L.08.125a.041.041,0,0,1-.025,0,.044.044,0,0,1-.035,0A.018.018,0,0,1,0,.128S0,.128,0,.109Z" transform="translate(1.608 4.911)" fill="#c5e7fc"/>
        <path id="Path_37207" data-name="Path 37207" d="M2.166,1.734a.385.385,0,0,1-.154.2q-.574.47-1.154.927a.747.747,0,0,1-.176.117,1.094,1.094,0,0,0-.128.05.838.838,0,0,0-.246.315l-.164.315a.7.7,0,0,0,0-.23V3.241a.8.8,0,0,1,.066-.413c.018-.041.044-.076.066-.117A.7.7,0,0,0,.383,2.4a.63.63,0,0,0-.12-.268A1.667,1.667,0,0,1,.1,1.791a1.128,1.128,0,0,1-.044-.17V1.554C.039,1.463.029,1.368.014,1.274A1.576,1.576,0,0,1,.042.707,1.056,1.056,0,0,1,.212.24.753.753,0,0,1,.867.007.63.63,0,0,1,1.182.1a2.039,2.039,0,0,1,.51.766c.1.176.208.35.315.52.06.085.167.2.167.315a.117.117,0,0,1-.009.031Z" transform="translate(1.669 1.845)" fill="#ffa87d"/>
        <path id="Path_37208" data-name="Path 37208" d="M.564.581A.526.526,0,0,1,.344.9L.312.914.208.731A1.667,1.667,0,0,1,.044.393,1.128,1.128,0,0,1,0,.223V.157C.05.122.1.088.151.056a.262.262,0,0,1,.4.1A.58.58,0,0,1,.564.579Z" transform="translate(1.73 3.258)" fill="#e06f63"/>
        <path id="Path_37209" data-name="Path 37209" d="M.007,1.232a1.406,1.406,0,0,0,.069.362c.025.076.069.142.092.22a.394.394,0,0,1,0,.218C.14,2.149.1,2.266.061,2.379s-.082.227,0,.315a.233.233,0,0,0,.085.06c.088.044.22.047.284.126A1.491,1.491,0,0,1,.594,3.2a1.371,1.371,0,0,0,.176.29.432.432,0,0,0,.514.063,1.286,1.286,0,0,0,.744-.86,1.929,1.929,0,0,0,.063-.381A.291.291,0,0,1,2.2,2.023a.946.946,0,0,0,.312-.829,1.261,1.261,0,0,0-.231-.63A1.047,1.047,0,0,0,1.964.249,1.308,1.308,0,0,0,1.605.111a3.218,3.218,0,0,0-.52-.1.98.98,0,0,0-.315,0A1.04,1.04,0,0,0,.489.145a.983.983,0,0,0-.432.5A1.109,1.109,0,0,0,.01.858a2.093,2.093,0,0,0,0,.375Z" transform="translate(0.38 0.608)" fill="#ffa87d"/>
        <path id="Path_37210" data-name="Path 37210" d="M2.8,2.57l.057.041a1.409,1.409,0,0,0,.315.18,2.143,2.143,0,0,1,.315.076,1.412,1.412,0,0,1-.063-.413V1.747A2.635,2.635,0,0,0,3.39,1.1c-.022-.069-.054-.136-.073-.2C3.282.766,3.341.6,3.234.5S3.017.42,2.944.325,2.894.19,2.85.136A.284.284,0,0,0,2.626.058a.8.8,0,0,1-.246,0A.411.411,0,0,1,2.267.017a.315.315,0,0,0-.258.025c-.076.038-.139.107-.224.11a.6.6,0,0,1-.2-.066.419.419,0,0,0-.315.022.946.946,0,0,0-.252.17A.378.378,0,0,1,.906.344C.821.366.739.307.654.284A.315.315,0,0,0,.282.555.18.18,0,0,1,.282.6C.26.641.206.625.162.628A.176.176,0,0,0,0,.785a.353.353,0,0,0,.063.236.738.738,0,0,0,.394.315c.164.054.315-.018.485,0a.738.738,0,0,1,.477.381,1.261,1.261,0,0,0,.158.24c.192.186.5,0,.706.17S2.621,2.434,2.8,2.57Z" transform="translate(0.004 0.001)" fill="#243a52"/>
        <path id="Path_37211" data-name="Path 37211" d="M.008.781A.176.176,0,0,1,.169.623c.044,0,.1,0,.12-.025a.18.18,0,0,0,0-.047A.315.315,0,0,1,.683.28C.768.3.85.362.935.34A.378.378,0,0,0,1.03.273.946.946,0,0,1,1.282.1.419.419,0,0,1,1.6.081a.6.6,0,0,0,.2.066c.085,0,.148-.073.224-.11A.315.315,0,0,1,2.259.012c.038,0,.076.032.114.041a.8.8,0,0,0,.246,0,.284.284,0,0,1,.224.079c.044.054.05.132.095.189s.208.092.29.17.047.265.082.394a.252.252,0,0,1-.016.066.315.315,0,0,1-.1.114.41.41,0,0,1-.284.1c-.088,0-.173-.047-.265-.054a.7.7,0,0,0-.315.076c-.1.044-.208.092-.315.128a.7.7,0,0,1-.161.035.35.35,0,0,1-.126-.028.977.977,0,0,0-.249-.088.719.719,0,0,0-.315.041,1.368,1.368,0,0,0-.167.082L.919,1.335C.752,1.3.6,1.373.434,1.335A.737.737,0,0,1,.04,1.02.353.353,0,0,1,.008.781Z" transform="translate(0 0)" fill="#152636"/>
        <path id="Path_37212" data-name="Path 37212" d="M0,.124C0,.089.038.058.06.045A.429.429,0,0,1,.313,0a.457.457,0,0,1,.23.054C.578.08.571.115.543.121a.873.873,0,0,1-.128,0A1.45,1.45,0,0,0,.15.153c-.032,0-.107.028-.132,0A.035.035,0,0,1,0,.124Z" transform="translate(0.591 2.113)" fill="#152636"/>
        <path id="Path_37213" data-name="Path 37213" d="M.173.086C.151.033.078-.04.022.026A.12.12,0,0,0,0,.077.23.23,0,0,0,0,.156a.173.173,0,0,0,.076.1H.1A.066.066,0,0,0,.164.238a.1.1,0,0,0,0-.073A.262.262,0,0,0,.173.086Z" transform="translate(0.803 2.387)" fill="#152636"/>
        <path id="Path_37214" data-name="Path 37214" d="M.08.722h0C-.055.507-.043,0,.3,0A.372.372,0,0,1,.6.183c.12.2.1.63-.148.741C.295.968.15.826.08.722Z" transform="translate(1.863 1.796)" fill="#ffa87d"/>
        <path id="Path_37215" data-name="Path 37215" d="M.263.446C.168.49.093.418.026.326.008.295-.011.257.008.229A.142.142,0,0,1,.052.2,1.185,1.185,0,0,0,.244.084C.282.055.345-.011.4,0s.057.123.05.17a.448.448,0,0,1-.06.151A.372.372,0,0,1,.317.411.258.258,0,0,1,.263.446Z" transform="translate(0.975 3.232)" fill="#fff"/>
        <path id="Path_37216" data-name="Path 37216" d="M.244,0A.946.946,0,0,1,.6.125.946.946,0,0,0,.944.251.275.275,0,0,0,1.2.131c.016-.025.1,0,.085,0A.454.454,0,0,1,.738.245C.621.2.518.135.4.087S.086-.017.086.141C.086.172,0,.172,0,.141-.009.015.149-.007.244,0Z" transform="translate(1.205 0.769)" fill="#243a52"/>
        <path id="Path_37217" data-name="Path 37217" d="M.012.031a.066.066,0,0,1,.06,0A.372.372,0,0,0,.236.072.2.2,0,0,0,.364.009c.018-.022.1,0,.076.022A.369.369,0,0,1,.011.063C0,.053,0,.038.012.031Z" transform="translate(2.042 0.69)" fill="#243a52"/>
        <path id="Path_37218" data-name="Path 37218" d="M.019.019c0-.028.095-.022.082,0A.356.356,0,0,0,.142.334.315.315,0,0,0,.4.47S.448.47.448.492.416.514.4.514A.413.413,0,0,1,.074.366.385.385,0,0,1,.019.019Z" transform="translate(0.219 0.705)" fill="#243a52"/>
        <path id="Path_37219" data-name="Path 37219" d="M.032,0H.085A.334.334,0,0,0,.2.17.369.369,0,0,0,.284.218.224.224,0,0,0,.372.236c.016,0,.044,0,.044.022S.385.28.372.28A.4.4,0,0,1,0,.012S.016,0,.032,0Z" transform="translate(0.588 0.803)" fill="#243a52"/>
        <path id="Path_37220" data-name="Path 37220" d="M.04,0A.413.413,0,0,1,.393.177C.393.192.371.2.362.2A.057.057,0,0,1,.308.2a.315.315,0,0,0-.12-.11A.29.29,0,0,0,.115.063H.079a.148.148,0,0,0-.038,0S0,.063,0,.041.031,0,.04,0Z" transform="translate(2.439 0.194)" fill="#243a52"/>
        <path id="Path_37221" data-name="Path 37221" d="M0,.007a.066.066,0,0,1,.06,0,.186.186,0,0,1,.11.107.167.167,0,0,1,0,.145c-.016.028-.1.018-.085,0a.145.145,0,0,0,0-.12V.108h0L.062.086H.047S-.013.007,0,.007Z" transform="translate(3.003 0.619)" fill="#243a52"/>
        <path id="Path_37222" data-name="Path 37222" d="M0,.023c0-.028.085-.032.088,0C.11.338.12.684.113,1.015c0,.032-.085.032-.085,0Q.038.521,0,.023Z" transform="translate(5.796 14.548)" fill="#c5e7fc"/>
        <path id="Path_37223" data-name="Path 37223" d="M.085.022V1.091c0,.028-.085.028-.085,0V.022C0-.006.085-.009.085.022Z" transform="translate(0.242 14.407)" fill="#c5e7fc"/>
      </g>
    </g>
    <g id="Mask_Group_5" data-name="Mask Group 5" transform="translate(1015.843 1315.63)" clip-path="url(#clip-path-2)">
      <g id="Group_39748" data-name="Group 39748" transform="translate(-0.737 0.506)">
        <path id="Path_37224" data-name="Path 37224" d="M80.257,25.89l-.332.159a.3.3,0,0,1-.177.041c-.163-.037-.24-.251-.314-.369s-.214-.369-.314-.561.073-.325.244-.45c.1-.078.31-.255.447-.174a.369.369,0,0,1,.107.128l.487.864.078.133a.159.159,0,0,1,.022.081c0,.037-.048.063-.081.078Z" transform="translate(-76.269 -16.114)" fill="#ffa87d"/>
        <path id="Path_37225" data-name="Path 37225" d="M78.161,29.617a.369.369,0,0,1-.11-.073,9.179,9.179,0,0,1-1.636-2.071.185.185,0,0,1-.044-.14.2.2,0,0,1,.078-.1,2.928,2.928,0,0,1,.686-.407.521.521,0,0,1,.369-.048.539.539,0,0,1,.225.192c.2.251.41.517.583.783a1.359,1.359,0,0,1,.24.831c0,.192-.1.369-.114.558a.764.764,0,0,1-.078.4.181.181,0,0,1-.17.081Z" transform="translate(-73.313 -17.53)" fill="#fff"/>
        <path id="Path_37229" data-name="Path 37229" d="M80.025,22.637h0V22.6a.528.528,0,0,1,.122-.369.679.679,0,0,1,.27-.251.572.572,0,0,1,.487.066.369.369,0,0,1,.166.137.144.144,0,0,1,0,.1l.166.052a.369.369,0,0,1,.162.089.128.128,0,0,1,0,.192.122.122,0,0,1,.1.092.2.2,0,0,1-.148.14.2.2,0,0,1-.07.258.964.964,0,0,1-.177.1.668.668,0,0,0-.177.107.2.2,0,0,0-.03.181.816.816,0,0,0,.055.177,1.954,1.954,0,0,0-.2-.037.982.982,0,0,1-.192-.085.5.5,0,0,1-.265-.3c0-.033,0-.059-.037-.078a.5.5,0,0,1-.073-.048.232.232,0,0,1-.048-.073.151.151,0,0,0-.026-.107c-.026-.026-.078-.052-.1-.1a.236.236,0,0,1,0-.151.306.306,0,0,0,.006-.067Z" transform="translate(-77.603 -14.497)" fill="#ffa87d"/>
        <path id="Path_37230" data-name="Path 37230" d="M81.2,22.844a1.156,1.156,0,0,1,.369-.244,1.108,1.108,0,0,1,.491.041c.059,0,0,.048-.022.041l-.222-.041a.484.484,0,0,0-.218,0,1.208,1.208,0,0,0-.336.222.066.066,0,0,1-.059,0S81.182,22.855,81.2,22.844Z" transform="translate(-78.623 -14.9)" fill="#e06f63"/>
        <path id="Path_37231" data-name="Path 37231" d="M80.256,23.64c.037,0,.073-.044.11-.063l.1-.059a.336.336,0,0,1,.2-.041,4.184,4.184,0,0,1,.487.063c.055,0,.018.052-.022.044a2.754,2.754,0,0,0-.491-.066.487.487,0,0,0-.233.1c-.044.022-.125.089-.177.055S80.23,23.643,80.256,23.64Z" transform="translate(-77.365 -15.459)" fill="#e06f63"/>
        <path id="Path_37232" data-name="Path 37232" d="M80.454,24.529c.118-.03.233-.078.347-.118a.639.639,0,0,1,.166-.037,1.027,1.027,0,0,1,.185,0s.044,0,.044.018-.033.022-.044.022H80.99a.591.591,0,0,0-.159.041,3.1,3.1,0,0,1-.31.11h-.073C80.436,24.566,80.44,24.533,80.454,24.529Z" transform="translate(-77.46 -16.024)" fill="#e06f63"/>
        <path id="Path_37233" data-name="Path 37233" d="M54.775,57.287l-.229-.369a4.646,4.646,0,0,0-.484-.738,3.693,3.693,0,0,1-.547-.631,5.472,5.472,0,0,1-.447-1.9c-.125-.738-.369-1.477-.543-2.215a6.713,6.713,0,0,1-.214-2.042.857.857,0,0,1,.535-.609,4.221,4.221,0,0,1,2.024-.314.469.469,0,0,1,.561.473,13.661,13.661,0,0,1,.11,2.164,19.156,19.156,0,0,0,.222,2.385,4.751,4.751,0,0,0,.628,2.109,8.09,8.09,0,0,1,.9,1.477,44.273,44.273,0,0,0,1.628,4.387c.089.163.314.369.288.558a.454.454,0,0,1-.177.27,8.911,8.911,0,0,1-.916.709.514.514,0,0,1-.4.137.144.144,0,0,1-.041-.022.107.107,0,0,1,0-.059v-.539a1.809,1.809,0,0,0-.369-.923l-.6-1.023c-.391-.665-.786-1.333-1.174-2.005C55.288,58.148,55.034,57.716,54.775,57.287Z" transform="translate(-45.09 -31.213)" fill="#ffa87d"/>
        <path id="Path_37234" data-name="Path 37234" d="M52.294,83.934l.11-.066a8.676,8.676,0,0,0,1.108-.8c.041.085.085.166.133.247.089.163.314.369.288.558a.454.454,0,0,1-.177.27,8.913,8.913,0,0,1-.916.709.514.514,0,0,1-.4.137.144.144,0,0,1-.041-.022.107.107,0,0,1,0-.059V84.37A1.034,1.034,0,0,0,52.294,83.934Z" transform="translate(-39.806 -53.049)" fill="#fff"/>
        <path id="Path_37235" data-name="Path 37235" d="M64.944,67.945a2.512,2.512,0,0,0,.155.461c0,.033-.078.041-.092,0a2.76,2.76,0,0,1-.155-.462C64.844,67.9,64.937,67.9,64.944,67.945Z" transform="translate(-55.606 -43.488)" fill="#e06f63"/>
        <path id="Path_37236" data-name="Path 37236" d="M50.225,86.7a.085.085,0,0,0,.063,0,1.588,1.588,0,0,0,.908-.325l.657-.41c.14-.089.244-.137.284-.3V85.54c.059-.048.122-.1.188-.144a.137.137,0,0,1,.052-.026c.078,0,.122.118.151.166l.827-.521c-.059-.092-.118-.185-.181-.277s-.066-.1-.122-.092h-.011l-.022-.026h0a.705.705,0,0,0-.369-.5.244.244,0,0,0-.166-.048c-.07,0-.07.081-.1.14a2.036,2.036,0,0,1-.211.325c-.1.128-.218.251-.321.369a1.351,1.351,0,0,1-.369.369V85.06a.21.21,0,0,0,0-.118.192.192,0,0,0-.155-.066,1.027,1.027,0,0,0-.3.026.073.073,0,0,0-.03,0,.063.063,0,0,0,0,.044,1.735,1.735,0,0,1-.4.8,2.64,2.64,0,0,1-.325.369.627.627,0,0,0-.107.114.258.258,0,0,0,0,.222.073.073,0,0,0,.03.07,1.242,1.242,0,0,1,.037.126A.081.081,0,0,0,50.225,86.7Z" transform="translate(-38.435 -53.68)" fill="#994e16"/>
        <path id="Path_37237" data-name="Path 37237" d="M56.97,87.61Z" transform="translate(-44.567 -55.912)" fill="#a39c1c"/>
        <path id="Path_37238" data-name="Path 37238" d="M56.99,87.61Z" transform="translate(-44.587 -55.912)" fill="#a39c1c"/>
        <path id="Path_37239" data-name="Path 37239" d="M56.97,87.61Z" transform="translate(-44.567 -55.912)" fill="#a39c1c"/>
        <path id="Path_37240" data-name="Path 37240" d="M50.213,87.635a.085.085,0,0,0,.063,0,1.588,1.588,0,0,0,.908-.325l.657-.41c.14-.089.244-.137.284-.3v-.118c.059-.048.122-.1.188-.144a.137.137,0,0,1,.052-.026c.078,0,.122.118.151.166l.827-.521c-.059-.092-.118-.185-.181-.277s-.066-.1-.122-.092h-.011l-.022-.026a4.092,4.092,0,0,0-.565.443c-.177.159-.369.329-.528.487a4.135,4.135,0,0,1-1.761.978,1.243,1.243,0,0,1,.037.125.081.081,0,0,0,.022.041Z" transform="translate(-38.423 -54.619)" fill="#152636"/>
        <path id="Path_37241" data-name="Path 37241" d="M56.387,87.381h.059a.128.128,0,0,1,.089.059.1.1,0,0,1,0,.092.37.37,0,0,1-.07.078,1.06,1.06,0,0,0-.125.162.343.343,0,0,1-.114.125.229.229,0,0,1-.14,0c-.078,0-.244-.022-.233-.122a.945.945,0,0,1,.159-.284c.037-.059.078-.125.144-.144a.28.28,0,0,1,.11,0Z" transform="translate(-43.729 -55.743)" fill="#152636"/>
        <path id="Path_37242" data-name="Path 37242" d="M70.143,61.766c.037-.092.073-.185.107-.277a6.349,6.349,0,0,0,.233-.912c.073-.314.148-.631.211-.949a13.758,13.758,0,0,0,.277-1.924c.041-.6.192-1.2.273-1.8a11.012,11.012,0,0,0,.125-1.894,14,14,0,0,1,.55-3.265c.122-.572.214-1.137.31-1.71a1.872,1.872,0,0,1,.639-1.255,1.477,1.477,0,0,1,1.06-.17,3.386,3.386,0,0,1,1.385.528,1.68,1.68,0,0,1,.524.521.812.812,0,0,1,.107.34,2.049,2.049,0,0,1-.166.879,4.38,4.38,0,0,1-.369.853,4.631,4.631,0,0,0-.4.694q-.417.927-.775,1.872a4.6,4.6,0,0,0-.225.738,7.065,7.065,0,0,0-.044,1.041,11.448,11.448,0,0,1-.162,1.148,13.355,13.355,0,0,1-1.108,3.386c-.251.547-.517,1.082-.779,1.621-.133.266-.255.539-.391.8a.739.739,0,0,0-.118.3v.347a.5.5,0,0,1-.078.292.594.594,0,0,1-.391.185,4.261,4.261,0,0,1-1.4,0c-.166-.026-.284-.114-.236-.306a.5.5,0,0,1,.174-.244c.078-.066.166-.122.244-.188a1.676,1.676,0,0,0,.428-.66Z" transform="translate(-68.09 -30.663)" fill="#ffa87d"/>
        <path id="Path_37243" data-name="Path 37243" d="M81.231,87.108a.5.5,0,0,1,.174-.244c.078-.066.166-.122.244-.188A1.636,1.636,0,0,0,82.08,86a5.956,5.956,0,0,0,1.4.225l-.026.048a.738.738,0,0,0-.118.3v.347a.5.5,0,0,1-.078.292.594.594,0,0,1-.391.185,4.261,4.261,0,0,1-1.4,0C81.3,87.374,81.183,87.285,81.231,87.108Z" transform="translate(-80.027 -54.897)" fill="#fff"/>
        <path id="Path_37244" data-name="Path 37244" d="M69.466,54.461c.133-.244.266-.491.4-.738,0-.026.107,0,.089,0-.126.247-.258.5-.4.738C69.54,54.5,69.448,54.494,69.466,54.461Z" transform="translate(-62.163 -34.531)" fill="#e06f63"/>
        <path id="Path_37245" data-name="Path 37245" d="M79.9,65.672a.628.628,0,0,0,.166-.391c0-.03.092-.033.1,0a.6.6,0,0,1-.155.37,1.052,1.052,0,0,0-.174.45c0,.037-.1.033-.092,0A1.023,1.023,0,0,1,79.9,65.672Z" transform="translate(-76.169 -41.813)" fill="#e06f63"/>
        <path id="Path_37246" data-name="Path 37246" d="M80.875,88.307a.081.081,0,0,0,.037.055,1.625,1.625,0,0,0,.945.27l.772.044c.166,0,.281.037.41-.073,0,0,.081-.092.07-.1h.236a.107.107,0,0,1,.059,0c.07.033.026.162.026.222l.975.073a1.962,1.962,0,0,1,.018-.329c.018-.11,0-.118-.044-.148h0a.037.037,0,0,1,0-.033v-.018a.712.712,0,0,0,0-.624.273.273,0,0,0-.107-.14c-.063-.026-.1.026-.159.055a1.432,1.432,0,0,1-.369.137c-.159.044-.325.078-.484.118a1.355,1.355,0,0,1-.517.059c.048-.052.092-.107.14-.163a.2.2,0,0,0,.059-.1.185.185,0,0,0-.085-.14.975.975,0,0,0-.258-.159h-.032a.085.085,0,0,0-.037.026,1.717,1.717,0,0,1-.794.417,2.678,2.678,0,0,1-.487.114.55.55,0,0,0-.155.03.277.277,0,0,0-.14.174v.07a.848.848,0,0,1-.044.125.1.1,0,0,0-.033.037Z" transform="translate(-80.875 -55.726)" fill="#994e16"/>
        <path id="Path_37247" data-name="Path 37247" d="M87.11,88.07Z" transform="translate(-85.836 -56.202)" fill="#a39c1c"/>
        <path id="Path_37248" data-name="Path 37248" d="M87.11,88.07Z" transform="translate(-85.836 -56.202)" fill="#a39c1c"/>
        <path id="Path_37249" data-name="Path 37249" d="M87.11,88.07Z" transform="translate(-85.836 -56.202)" fill="#a39c1c"/>
        <path id="Path_37250" data-name="Path 37250" d="M80.931,89.71a.081.081,0,0,0,.037.055,1.624,1.624,0,0,0,.945.27l.772.044c.166,0,.281.037.41-.073,0,0,.081-.092.07-.1H83.4a.107.107,0,0,1,.059,0c.07.033.026.163.026.222l.975.073a1.963,1.963,0,0,1,.018-.329c.018-.11,0-.118-.044-.148h0a.037.037,0,0,1,0-.033,3.884,3.884,0,0,0-.716.022c-.236.022-.477.055-.713.081a4.128,4.128,0,0,1-2-.258.851.851,0,0,1-.044.125.1.1,0,0,0-.033.044Z" transform="translate(-80.931 -57.13)" fill="#152636"/>
        <path id="Path_37251" data-name="Path 37251" d="M86.952,88.067l.041.048a.128.128,0,0,1,.037.1.122.122,0,0,1-.066.07.967.967,0,0,1-.1.022.738.738,0,0,0-.2.052.329.329,0,0,1-.166.033.221.221,0,0,1-.114-.085c-.055-.059-.185-.166-.114-.236a1,1,0,0,1,.3-.137.292.292,0,0,1,.2-.03.218.218,0,0,1,.089.063,1.184,1.184,0,0,1,.1.1Z" transform="translate(-85.438 -56.092)" fill="#152636"/>
        <path id="Path_37252" data-name="Path 37252" d="M66.354,2.405c.281.369.273.886.473,1.307a6.029,6.029,0,0,0,.628.853,1.7,1.7,0,0,1,.3.646,1.016,1.016,0,0,1-.081.7c-.026.052-.078.107-.133.085s-.048-.052-.063-.085c-.052-.14-.1-.281-.159-.422a1.329,1.329,0,0,1-.174.37.768.768,0,0,1-.605.314A1.477,1.477,0,0,1,65.4,5.492a3.563,3.563,0,0,1-.465-1.023,1.846,1.846,0,0,0-.092-.281,1.584,1.584,0,0,0-.425-.539,3.028,3.028,0,0,0-.683-.321,1.351,1.351,0,0,1-.628-.5.539.539,0,0,1,.11-.65.8.8,0,0,1,.218-.125,2.356,2.356,0,0,1,.694-.2c.222-.026.443-.078.665-.085a2.079,2.079,0,0,1,1.274.369,1.226,1.226,0,0,1,.25.233Z" transform="translate(-57.621 -1.765)" fill="#152636"/>
        <path id="Path_37253" data-name="Path 37253" d="M61.468,27.17c.03.081.244.133.465.17l.188.026.277.037a9.429,9.429,0,0,0,1.015.133H63.6a15.848,15.848,0,0,0,1.776.022h.188a13.16,13.16,0,0,0,1.817-.218l.185-.04.321-.1a.321.321,0,0,0,.148-.066.27.27,0,0,0,.052-.2v-.188a12.5,12.5,0,0,0-.181-1.374l-.033-.188c-.1-.561-.211-1.108-.262-1.684v-.188c0-.163-.018-.321-.018-.48-.041-.3-.089-.605-.155-.9a1.736,1.736,0,0,0-.044-.188c-.037-.155-.085-.314-.137-.465a4.962,4.962,0,0,0-.281-.679,3.5,3.5,0,0,1-.31-.532.388.388,0,0,1-.022-.089v-.1a5.365,5.365,0,0,1,.155-1.329l-.018-.066.033-.188c.092-.55.185-1.108.251-1.669l.022-.188a12.441,12.441,0,0,0,.081-1.385v-.524a3.255,3.255,0,0,0-.114-.779,1.975,1.975,0,0,0-.225-.491,1.751,1.751,0,0,0-.137-.188,1.846,1.846,0,0,0-.266-.27,1.351,1.351,0,0,0-.185-.14,1.647,1.647,0,0,0-.284-.159,2.1,2.1,0,0,0-.849-.177H64.92a2.031,2.031,0,0,0-.956.329,1.813,1.813,0,0,0-.188.144,1.478,1.478,0,0,0-.214.236,1.019,1.019,0,0,0-.118.181h0c-.092.162-.177.329-.262.5-.128.262-.255.528-.369.786l-.033.066c-.022.044-.044.089-.063.133s-.059.122-.089.185a4.246,4.246,0,0,0-.417,1.5v.188a15.244,15.244,0,0,0,.033,1.547V18.3c0,.14.022.277.03.417a10.08,10.08,0,0,1,0,1.108v.188c0,.514-.055,1.023-.1,1.536v.185h0c-.052.5-.114,1-.181,1.5a.475.475,0,0,1-.026.188c-.041.317-.085.635-.133.949l-.078.569a.448.448,0,0,1-.026.185c-.073.514-.144,1.027-.218,1.536l-.026.188a.341.341,0,0,1-.018.137v.03A.24.24,0,0,0,61.468,27.17Z" transform="translate(-57.343 -8.422)" fill="#243a52"/>
        <path id="Path_37254" data-name="Path 37254" d="M61.5,26.9l.026-.188h.48c.041-.506.085-1.015.125-1.521l-.369-.026a.466.466,0,0,1,.026-.185l.369.022c.041-.514.078-1.023.118-1.532h-.284a.475.475,0,0,1,.026-.188h.27c0-.17.026-.336.041-.506,0-.273.041-.55.059-.827v-.181h-.2v-.185h.2c.037-.51.073-1.027.1-1.543h-.2v-.188h.2v-.325a10.65,10.65,0,0,0-.026-1.189h-.236V18.15h.236v-.1a13.514,13.514,0,0,1-.044-1.451h-.255v-.188h.255a9.4,9.4,0,0,1,.255-1.5h-.092c.03-.063.055-.122.089-.185h.063a1.013,1.013,0,0,1,.048-.2c.128-.258.255-.524.369-.786-.052.233-.11.465-.166.694-.026.1-.052.2-.073.3l.877.041c0-.506,0-1.015-.026-1.521H63.4a1.018,1.018,0,0,1,.118-.181h.222v-.244a1.814,1.814,0,0,1,.188-.144v.391l.945.022V12.36h.188V13.1h1.108v-.417a1.351,1.351,0,0,1,.185.14V13.1h.27a1.751,1.751,0,0,1,.137.188h-.414l-.037,1.58.8.018v.188H66.3l-.033,1.4h.842l-.022.188h-.738l-.033,1.244v.414h.535L66.8,18.5h-.506v.883a2.24,2.24,0,0,0,.073.521h.262v.1a.387.387,0,0,0,.022.089h-.221l.033.118c.03.092.055.188.085.292.107.41.188.831.258,1.259H67.4a1.734,1.734,0,0,1,.044.188h-.605c.048.306.089.613.133.916l.066.477h.576v.187h-.572a1.068,1.068,0,0,0,.03.185c.078.5.148.993.218,1.477h.587l.033.188h-.591c.063.462.122.923.181,1.385h.591v.188h-.554a2.718,2.718,0,0,0,.041.343l-.185.041a2.287,2.287,0,0,0-.048-.369H65.573V27.6h-.188V26.96H63.66c0,.211-.033.422-.048.631h-.189l.052-.65-1.3-.022c0,.159-.03.317-.041.473l-.188-.026c0-.151.026-.3.041-.45Zm1.064-4.927c0,.273-.041.55-.063.827l-.033.5H63.69c.022-.491.041-.982.059-1.477-.391,0-.779-.033-1.171-.055C62.574,21.853,62.571,21.916,62.564,21.978Zm1.189-.321c0-.528.033-1.056.048-1.588H62.692c-.03.517-.066,1.038-.1,1.547Zm-1.015-2.109v.317h1.108c0-.487,0-.978.026-1.477l-1.13-.052c0,.415,0,.814,0,1.213Zm1.108-4.571-.927-.044a9.383,9.383,0,0,0-.258,1.5l1.185.018c0-.491,0-.982-.018-1.47Zm-1.192,1.639a13.206,13.206,0,0,0,.044,1.433v.122l1.145.052V16.636Zm1.152,8.492c.524.022,1.049.041,1.577.055,0-.487-.037-.975-.059-1.477v-.167H63.9c-.052.524-.081,1.049-.11,1.58Zm.073-1.806h1.407c-.026-.48-.059-.96-.089-1.433-.422,0-.838-.03-1.259-.044-.019.52-.037,1.007-.06,1.479Zm2.278-6.841.033-1.407-1.079-.027v1.433Zm-1.023.186c0,.543.03,1.086.048,1.628l.93.026v-.41l.041-1.233Zm.978,2.736v-.89l-.919-.03.044.975a2.723,2.723,0,0,0,.026.459h.916a2.437,2.437,0,0,1-.066-.514ZM64.923,13.29c-.314,0-.628,0-.938-.022,0,.51.022,1.019.026,1.529l.912.033q-.007-.757,0-1.541Zm0,1.728-.908-.033v1.477h.915C64.934,15.979,64.927,15.5,64.923,15.019Zm.03,1.639h-.919v1.6l.975.037C64.974,17.729,64.952,17.186,64.952,16.658Zm.1,2.8-.044-.99-.982-.037c0,.487,0,.975-.026,1.477h1.078c-.015-.166-.026-.3-.033-.462ZM64,20.084c0,.532-.03,1.064-.044,1.6l1.241.044v-.211c-.03-.465-.059-.942-.089-1.418Zm1.661-6.79h-.547v1.547l1.086.03.037-1.577Zm.7,7.252c-.026-.1-.055-.2-.081-.288l-.048-.17h-.96c.03.473.059.945.089,1.407v.229l1.237.03a9.309,9.309,0,0,0-.236-1.207Zm-.779,6.226h1.75c-.059-.462-.122-.927-.185-1.388-.528,0-1.06-.022-1.591-.037C65.569,25.823,65.576,26.3,65.58,26.772Zm-.089-3.1c.022.491.044.986.059,1.477l1.569.037c-.07-.487-.14-.975-.218-1.477a.547.547,0,0,0-.03-.214H65.48Zm0-.347h1.351c-.022-.151-.041-.3-.063-.45-.044-.31-.089-.631-.137-.945L65.384,21.9c.033.484.063.96.089,1.436Zm-.081,3.438c0-.477,0-.953-.026-1.425l-1.592-.06c-.03.487-.063.978-.1,1.477ZM63.7,23.5H62.471c-.041.51-.078,1.023-.118,1.536.422.026.842.044,1.263.063.011-.535.041-1.056.063-1.591Zm-.222,3.253c.033-.491.066-.982.1-1.477-.425-.018-.846-.037-1.266-.063-.041.506-.081,1.012-.125,1.518Z" transform="translate(-57.361 -8.448)" fill="#2c6491"/>
        <path id="Path_37255" data-name="Path 37255" d="M67.937,14.343a5.753,5.753,0,0,1-.266-.857,3.96,3.96,0,0,1-.063-.462c0-.07-.063-.314-.148-.151a2.555,2.555,0,0,1-.7.883,3.745,3.745,0,0,1,.846-1.543c.144-.122.314-.2.462-.31a1.551,1.551,0,0,1,1.078-.181,1.171,1.171,0,0,1,.5.151c.159.1.406.181.273.422-.078.148-.332.27-.454.369a5.292,5.292,0,0,0-.443.469c-.281.336-.532.691-.794,1.038a.535.535,0,0,1-.258.222A.45.45,0,0,0,67.937,14.343Z" transform="translate(-61.161 -8.027)" fill="#fff"/>
        <path id="Path_37256" data-name="Path 37256" d="M68.515,11.723c0,.052.033.078.073.063a2.813,2.813,0,0,0,.583-.321,12.032,12.032,0,0,0,1.207-.679.159.159,0,0,0,.066-.089.166.166,0,0,0-.033-.107c-.118-.211-.229-.422-.332-.639a.738.738,0,0,0-.547-.447,1.314,1.314,0,0,0-.6.041A.761.761,0,0,0,68.5,9.8a.207.207,0,0,0-.026.066,1.9,1.9,0,0,0,.063.687,3.429,3.429,0,0,1,0,.7A1.879,1.879,0,0,0,68.515,11.723Z" transform="translate(-62.29 -6.637)" fill="#ffa87d"/>
        <path id="Path_37257" data-name="Path 37257" d="M72.011,11.056a2.822,2.822,0,0,0,.037.3.986.986,0,0,0,.447-.266.464.464,0,0,0-.211-.8,1.514,1.514,0,0,0-.31,0,.207.207,0,0,0-.026.066,1.9,1.9,0,0,0,.063.694Z" transform="translate(-65.764 -7.14)" fill="#e06f63"/>
        <path id="Path_37258" data-name="Path 37258" d="M71.3,4.64a1.477,1.477,0,0,0,.055-.569,1.614,1.614,0,0,0-.333-.824.794.794,0,0,0-.436-.332,3.833,3.833,0,0,0-.617-.1A1.51,1.51,0,0,0,69,3.042a1.023,1.023,0,0,0-.413.923,1.343,1.343,0,0,1,0,.273c-.026.229-.24.369-.4.5a.369.369,0,0,0-.073.081.2.2,0,0,0,0,.185c.052.1.159.159.211.262a.96.96,0,0,1,.066.321c0,.233-.026.6.2.738a.514.514,0,0,0,.266.073,1.846,1.846,0,0,0,1.06-.3c.114-.078.218-.174.325-.262a4.006,4.006,0,0,0,.93-.908,1.477,1.477,0,0,0,.128-.3Z" transform="translate(-63.059 -2.423)" fill="#ffa87d"/>
        <path id="Path_37259" data-name="Path 37259" d="M73.921,6.228h0c.022,0,.188.118.2.07h0a.292.292,0,0,0-.11-.155A.605.605,0,0,0,73.682,6a.133.133,0,0,0-.092,0,.078.078,0,0,0-.041.078c0,.059.133.073.181.085a1.633,1.633,0,0,1,.192.07Z" transform="translate(-67.847 -4.428)" fill="#152636"/>
        <path id="Path_37260" data-name="Path 37260" d="M74.314,7.089a.1.1,0,0,1,.125-.073c.078.03.066.163.044.225a.085.085,0,0,1-.144.055.2.2,0,0,1-.026-.207Z" transform="translate(-68.495 -5.075)" fill="#152636"/>
        <path id="Path_37261" data-name="Path 37261" d="M74.247,9.783h.422a.144.144,0,0,1,.066,0h0c.066.03,0,.137-.026.17a.454.454,0,0,1-.122.085h-.211a.27.27,0,0,1-.128-.255Z" transform="translate(-68.738 -6.82)" fill="#fff"/>
        <path id="Path_37262" data-name="Path 37262" d="M67.39,2.2a1.366,1.366,0,0,1,.569.679,2.5,2.5,0,0,1,0,1.226,1.477,1.477,0,0,0,.151.757c.092.214.211.414.317.617a.942.942,0,0,1,.137.459c0,.4-.528.369-.79.247a1.765,1.765,0,0,1-.79-.716A5.992,5.992,0,0,1,66.561,4.4l-.022-.063c-.078-.229-.31-.369-.5-.51A2.758,2.758,0,0,1,65.331,2.5a.477.477,0,0,1-.037-.188c.022-.27.543-.317.738-.343a2.19,2.19,0,0,1,1.134.122,1.846,1.846,0,0,1,.225.114Z" transform="translate(-59.234 -1.874)" fill="#152636"/>
        <path id="Path_37263" data-name="Path 37263" d="M70.815,7.432a.369.369,0,0,0-.044-.125.258.258,0,0,0-.188-.118c-.247-.03-.406.369-.432.572a.306.306,0,0,0,.041.222.244.244,0,0,0,.1.073c.332.155.55-.31.528-.58a.181.181,0,0,0,0-.044Z" transform="translate(-63.282 -5.185)" fill="#ffa87d"/>
        <path id="Path_37264" data-name="Path 37264" d="M70.372,9.381a.144.144,0,0,1,.185-.041.107.107,0,0,1,.044.037.128.128,0,0,1,.063.081.236.236,0,0,1,0,.159.14.14,0,0,1-.174.059.166.166,0,0,1-.11-.125.2.2,0,0,1-.007-.17Z" transform="translate(-63.217 -6.532)" fill="#fff"/>
        <path id="Path_37265" data-name="Path 37265" d="M71.251,2.73a2.038,2.038,0,0,0,.484,1.192A1.954,1.954,0,0,0,72,4.181v.03a.07.07,0,0,1-.066,0A2.068,2.068,0,0,1,71.229,3.1a2.105,2.105,0,0,1-.055-.369C71.155,2.7,71.251,2.7,71.251,2.73Z" transform="translate(-64.841 -2.359)" fill="#243a52"/>
        <path id="Path_37266" data-name="Path 37266" d="M70.248,5.1a1.067,1.067,0,0,0,.51.517c.018,0,0,.026,0,.033a.085.085,0,0,1-.066,0,1.108,1.108,0,0,1-.532-.539C70.144,5.076,70.237,5.069,70.248,5.1Z" transform="translate(-63.232 -3.856)" fill="#243a52"/>
        <path id="Path_37267" data-name="Path 37267" d="M66.464,2.978a.07.07,0,0,1,.081,0,.838.838,0,0,1,.369.369,2.068,2.068,0,0,1,.2.591c0,.03-.085.033-.092,0a1.962,1.962,0,0,0-.2-.569A.8.8,0,0,0,66.483,3S66.449,2.978,66.464,2.978Z" transform="translate(-58.215 -2.522)" fill="#243a52"/>
        <path id="Path_37268" data-name="Path 37268" d="M66.817,9.85a1.621,1.621,0,0,0,1.041.99s.03,0,0,.033-.044,0-.063,0a1.665,1.665,0,0,1-1.082-1.015C66.71,9.832,66.8,9.82,66.817,9.85Z" transform="translate(-59.067 -6.854)" fill="#243a52"/>
        <path id="Path_37269" data-name="Path 37269" d="M65.952,11.1a1.189,1.189,0,0,0,.55.31s.033,0,0,.033a.07.07,0,0,1-.066,0,1.229,1.229,0,0,1-.583-.329C65.841,11.094,65.93,11.079,65.952,11.1Z" transform="translate(-57.393 -7.647)" fill="#243a52"/>
        <path id="Path_37270" data-name="Path 37270" d="M63.853,9.048a.066.066,0,0,1,.059,0,.82.82,0,0,1,.222.443c0,.033-.092.033-.1,0a.82.82,0,0,0-.218-.432Z" transform="translate(-54.26 -6.354)" fill="#243a52"/>
        <path id="Path_37271" data-name="Path 37271" d="M75.153,2.911a.1.1,0,0,1,.066,0l.007.03a.255.255,0,0,0-.122.317c0,.033-.078.041-.089,0a.288.288,0,0,1,.137-.347Z" transform="translate(-69.481 -2.484)" fill="#243a52"/>
        <path id="Path_37272" data-name="Path 37272" d="M56.08,41.314a.314.314,0,0,0-.177.1.369.369,0,0,0-.063.207,2.274,2.274,0,0,0,0,.369.838.838,0,0,1-.1.443.972.972,0,0,0-.048.514,1.994,1.994,0,0,0,.177.517,1.543,1.543,0,0,0,.252.31,1.205,1.205,0,0,1,.107.133,1.186,1.186,0,0,0,.11.163.188.188,0,0,0,.329,0,.521.521,0,0,0,.055-.177c.059.089.144.033.218,0a.185.185,0,0,0,.107-.174.148.148,0,0,0,.192-.026.369.369,0,0,0,.1-.188.185.185,0,0,0,.162-.11.6.6,0,0,0,.052-.406,2.607,2.607,0,0,0-.1-.5,1.506,1.506,0,0,0-.181-.3,1.477,1.477,0,0,1-.314-.738.712.712,0,0,0-.03-.177c-.055-.137-.2-.1-.321-.092a2.193,2.193,0,0,0-.487.1Z" transform="translate(-44.689 -26.627)" fill="#ffa87d"/>
        <path id="Path_37273" data-name="Path 37273" d="M57.274,14.778a.993.993,0,0,1,.609-.052,1.163,1.163,0,0,1,.613.66,29.777,29.777,0,0,1,1.58,3.283,22.28,22.28,0,0,1,.934,3.6q.2,1.049.314,2.1a.336.336,0,0,1-.026.225.317.317,0,0,1-.181.1c.041.151.041.314.078.469-.414.022-.827.063-1.241.118a.229.229,0,0,1-.122,0,.17.17,0,0,1-.085-.151v-.181c-.026-.17-.207-.2-.284-.347a1.2,1.2,0,0,1-.1-.414,13.936,13.936,0,0,0-.809-3.693c-.166-.391-.369-.768-.572-1.145l-.329-.605a2.215,2.215,0,0,0-.262-.4c-.151-.174-.369-.258-.51-.414a1.728,1.728,0,0,1-.27-.484,3.194,3.194,0,0,1-.27-1.038,1.477,1.477,0,0,1,.934-1.639Z" transform="translate(-48.689 -9.924)" fill="#fff"/>
        <path id="Path_37274" data-name="Path 37274" d="M59.283,45.685a1.167,1.167,0,0,1,.148.425c.033.166.063.332.092.5,0,.033-.089.037-.1,0-.03-.159-.055-.321-.089-.484a1.108,1.108,0,0,0-.148-.428C59.172,45.67,59.264,45.659,59.283,45.685Z" transform="translate(-47.94 -29.458)" fill="#e06f63"/>
        <path id="Path_37275" data-name="Path 37275" d="M57.885,47a1.514,1.514,0,0,1,.078.428c0,.033-.092.033-.092,0a1.765,1.765,0,0,0-.073-.417C57.767,47,57.863,47,57.885,47Z" transform="translate(-45.863 -30.297)" fill="#e06f63"/>
        <path id="Path_37276" data-name="Path 37276" d="M56.971,46.706a.186.186,0,0,1,.048-.026c.011,0,.044,0,.048.026a1.336,1.336,0,0,1,.026.369c0,.033-.1.033-.092,0a1.341,1.341,0,0,0-.03-.369Z" transform="translate(-44.694 -30.095)" fill="#e06f63"/>
        <path id="Path_37277" data-name="Path 37277" d="M56.2,46.226c0-.018.037-.026.048-.026s.044,0,.048.026a1.263,1.263,0,0,1,0,.369c0,.022-.03.026-.048.026s-.048,0-.044-.026A1.4,1.4,0,0,0,56.2,46.226Z" transform="translate(-43.624 -29.793)" fill="#e06f63"/>
        <path id="Path_37278" data-name="Path 37278" d="M57.078,41.859h.058a1.968,1.968,0,0,0,.55-.044,2.1,2.1,0,0,0,.262-.066.554.554,0,0,1,.255-.041s.041,0,.033.03-.041.018-.055,0a.82.82,0,0,0-.262.059,2.141,2.141,0,0,1-.266.063,2.216,2.216,0,0,1-.543,0S57.071,41.877,57.078,41.859Z" transform="translate(-45.875 -26.958)" fill="#ef8e95"/>
        <path id="Path_37279" data-name="Path 37279" d="M61.462,29.783a.243.243,0,0,1,0-.041l.033-.066.1-.144c.044-.092.089-.185.128-.281.081-.185.155-.369.222-.561,0-.026.1-.022.092,0-.089.244-.188.487-.3.738-.052.118-.11.233-.17.347-.022.044-.059.073-.11.052S61.462,29.787,61.462,29.783Z" transform="translate(-51.286 -18.737)" fill="#8dc1db"/>
        <path id="Path_37280" data-name="Path 37280" d="M61.485,31.7l.192-.174a.081.081,0,0,1,.066,0s.033.018,0,.033l-.192.14A.081.081,0,0,1,61.485,31.7Z" transform="translate(-51.006 -20.531)" fill="#8dc1db"/>
        <path id="Path_37281" data-name="Path 37281" d="M67.266,20.233a6.838,6.838,0,0,0,.51,1.458c0,.033-.073.041-.089,0a6.712,6.712,0,0,1-.517-1.477C67.167,20.2,67.259,20.2,67.266,20.233Z" transform="translate(-59.139 -13.396)" fill="#8dc1db"/>
      </g>
    </g>
    <g id="Layer_2" data-name="Layer 2" transform="translate(952.245 1312.402)">
      <g id="Character_2" data-name="Character 2" transform="translate(0 0)">
        <g id="Group_39751" data-name="Group 39751" transform="translate(42.591 4.028) rotate(-4.992)">
          <path id="Path_33938" data-name="Path 33938" d="M2.138.142l.364,2.4S1.174,5.411.381,5.162C-.284,4.954.124,2.421.124,2.421A6.962,6.962,0,0,0,.378.379C.269-.3,2.138.142,2.138.142Z" transform="translate(2.971 5.251)" fill="#f7a491"/>
          <path id="Path_33939" data-name="Path 33939" d="M.046.379C-.063-.3,1.8.142,1.8.142l.03.2a1.112,1.112,0,0,1-.2.335A2.455,2.455,0,0,1,0,1.419,3.723,3.723,0,0,0,.046.379Z" transform="translate(3.304 5.251)" fill="#f47458"/>
          <g id="Group_39386" data-name="Group 39386" transform="translate(2.225 0)">
            <path id="Path_33940" data-name="Path 33940" d="M3.19.751c.053-.018.423,2.739-.28,3.5S.838,5.256.347,4.659C-.2,4-.17,1.033.923.252S3.19.751,3.19.751Z" transform="translate(0 1.241)" fill="#f7a491"/>
            <path id="Path_33941" data-name="Path 33941" d="M.949.017A3.032,3.032,0,0,1,2.542.928c.384.046.9.258,1.443,1.152A2.242,2.242,0,0,1,3.388,5a1.745,1.745,0,0,0-.76,1.288l-.122-.357a2,2,0,0,1-.1-.841,1.648,1.648,0,0,1,.125-.506c.185-.4-.4-.664-.562-1-.126-.255-.132-.841-.33-1.263L1.406,2A1.5,1.5,0,0,0,.324,1.692C-.212,1.812-.135-.2.949.017Z" transform="translate(0.391 0)" fill="#04182c"/>
            <path id="Path_33942" data-name="Path 33942" d="M0,.6c-.006.336.147.612.341.615S.7.952.7.615.555,0,.361,0,.006.268,0,.6Z" transform="translate(2.399 3.472)" fill="#f7a491"/>
            <path id="Path_37212-2" data-name="Path 37212" d="M0,.124C0,.089.038.058.06.045A.429.429,0,0,1,.313,0a.457.457,0,0,1,.23.054C.578.08.571.115.543.121a.873.873,0,0,1-.128,0A1.45,1.45,0,0,0,.15.153c-.032,0-.107.028-.132,0A.035.035,0,0,1,0,.124Z" transform="translate(1.327 3.132) rotate(11.016)" fill="#152636"/>
            <path id="Path_37212-3" data-name="Path 37212" d="M0,.124C0,.089.038.058.06.045A.429.429,0,0,1,.313,0a.457.457,0,0,1,.23.054C.578.08.571.115.543.121a.873.873,0,0,1-.128,0A1.45,1.45,0,0,0,.15.153c-.032,0-.107.028-.132,0A.035.035,0,0,1,0,.124Z" transform="translate(0.354 2.908) rotate(11.016)" fill="#152636"/>
            <path id="Path_37213-2" data-name="Path 37213" d="M.173.086C.151.033.078-.04.022.026A.12.12,0,0,0,0,.077.23.23,0,0,0,0,.156a.173.173,0,0,0,.076.1H.1A.066.066,0,0,0,.164.238a.1.1,0,0,0,0-.073A.262.262,0,0,0,.173.086Z" transform="translate(1.482 3.441) rotate(11.016)" fill="#152636"/>
            <path id="Path_37213-3" data-name="Path 37213" d="M.173.086C.151.033.078-.04.022.026A.12.12,0,0,0,0,.077.23.23,0,0,0,0,.156a.173.173,0,0,0,.076.1H.1A.066.066,0,0,0,.164.238a.1.1,0,0,0,0-.073A.262.262,0,0,0,.173.086Z" transform="translate(0.509 3.218) rotate(11.016)" fill="#152636"/>
          </g>
          <path id="Path_33943" data-name="Path 33943" d="M1.06.055,0,0A.465.465,0,0,0,.469.443C1.036.49,1.06.055,1.06.055Z" transform="translate(2.424 4.798)" fill="#fff"/>
          <path id="Path_33944" data-name="Path 33944" d="M5.772.345h0A.611.611,0,0,0,5.288.024,4.686,4.686,0,0,0,.7,2.1,4.485,4.485,0,0,0,.262,3.2L0,4.278l6.438-.209-.011-.715A5.634,5.634,0,0,0,5.772.345Z" transform="translate(0 7.356)" fill="#00cbff"/>
          <path id="Path_37622" data-name="Path 37622" d="M.291,1.1.245,1.085.2,1.075.151,1.068l-.047,0-.021,0L.064,1.057a.045.045,0,0,1-.014-.01.032.032,0,0,1-.008-.015.2.2,0,0,1,0-.051A.2.2,0,0,1,.051.956.19.19,0,0,1,.06.933L.08.87.1.807.123.742.144.676Q.173.594.2.51T.25.342Q.274.258.295.172T.334,0Q.3.079.266.16T.2.323Q.175.405.149.489T.1.657L.078.724.057.79.037.853.017.914a.22.22,0,0,0-.01.031.227.227,0,0,0,0,.1.088.088,0,0,0,.008.017.081.081,0,0,0,.011.014l.014.011.016.007.012,0,.012,0H.1L.15,1.1l.047,0H.244Z" transform="translate(2.929 3.385) rotate(4.992)" fill="#263238"/>
        </g>
        <g id="Group_39750" data-name="Group 39750" transform="translate(48.632 4.036)">
          <path id="Path_37617" data-name="Path 37617" d="M5.163,1.575A3.254,3.254,0,0,0,4.7,1.049,2.994,2.994,0,0,0,4.151.655,2.8,2.8,0,0,0,3.545.4,2.7,2.7,0,0,0,2.9.3a2.229,2.229,0,0,0-.316.007,1.828,1.828,0,0,0-.254.043C2.249.37,2.174.394,2.1.418s-.157.05-.245.076A1.411,1.411,0,0,0,1.6.585a1.5,1.5,0,0,0-.238.139,1.609,1.609,0,0,0-.214.183,1.725,1.725,0,0,0-.184.224,3.05,3.05,0,0,0-.19.3,3.173,3.173,0,0,0-.156.321,3.271,3.271,0,0,0-.12.34,3.34,3.34,0,0,0-.083.355c-.017.125-.031.29-.043.477s-.023.394-.033.6-.018.419-.026.612-.017.367-.025.5-.04.37-.079.671-.085.66-.124,1.017-.067.71-.072,1a1.471,1.471,0,0,0,.074.624L1.82,8.1c.154.014.432.018.772.014s.745-.017,1.149-.035S4.554,8.038,4.9,8.01a7.414,7.414,0,0,0,.785-.093s.01-.164.025-.424.033-.618.05-1.005S5.79,5.683,5.8,5.3s.007-.726-.007-.967-.026-.5-.047-.741-.047-.484-.089-.717A4.1,4.1,0,0,0,5.476,2.2a2.894,2.894,0,0,0-.313-.622Z" transform="translate(0 -0.299)" fill="#263238"/>
          <path id="Path_37618" data-name="Path 37618" d="M1.379,7.275c.006-.112.013-.232.02-.348s.013-.229.019-.327.011-.183.015-.242l.006-.094a.7.7,0,0,1-.145-.045,1.274,1.274,0,0,1-.332-.2,1.552,1.552,0,0,1-.367-.455,2.354,2.354,0,0,1-.252-.8C.318,4.591.3,4.4.29,4.186S.273,3.745.272,3.51s0-.48.008-.719.015-.478.025-.7a2.183,2.183,0,0,1,.137-.638A2.476,2.476,0,0,1,.769.837,1.756,1.756,0,0,1,1.254.378,1.115,1.115,0,0,1,1.861.206L2.255.162l1.48.712a.378.378,0,0,1,.152.047.422.422,0,0,1,.122.1.485.485,0,0,1,.081.147.534.534,0,0,1,.028.177L3.9,7.484,2.9,9.1,1.368,7.953Z" transform="translate(0.272 0.356)" fill="#f7a491"/>
          <path id="Path_37619" data-name="Path 37619" d="M.544.261A.318.318,0,0,0,.536.209.305.305,0,0,0,.519.161.287.287,0,0,0,.5.117.267.267,0,0,0,.464.078.252.252,0,0,0,.394.025.228.228,0,0,0,.315,0,.224.224,0,0,0,.233.008.241.241,0,0,0,.155.045.37.37,0,0,0,.087.117.41.41,0,0,0,.04.206a.438.438,0,0,0-.026.1.448.448,0,0,0,0,.105h0A.354.354,0,0,0,.054.469.326.326,0,0,0,.105.516.3.3,0,0,0,.164.549.284.284,0,0,0,.228.567H.27a.238.238,0,0,0,.052,0A.246.246,0,0,0,.371.55.26.26,0,0,0,.418.526.28.28,0,0,0,.461.491.282.282,0,0,0,.5.443.306.306,0,0,0,.525.387.323.323,0,0,0,.541.326a.329.329,0,0,0,0-.065Z" transform="translate(1.827 4.611)" fill="#6f4439"/>
          <path id="Path_37620" data-name="Path 37620" d="M.008.168A.2.2,0,0,0,.021.233.182.182,0,0,0,.053.286.157.157,0,0,0,.1.323.14.14,0,0,0,.155.339a.125.125,0,0,0,.03,0A.128.128,0,0,0,.213.331.137.137,0,0,0,.24.318.149.149,0,0,0,.265.3.162.162,0,0,0,.285.273.175.175,0,0,0,.3.244.185.185,0,0,0,.31.212a.19.19,0,0,0,0-.034A.2.2,0,0,0,.3.113.182.182,0,0,0,.27.061.157.157,0,0,0,.225.024.14.14,0,0,0,.17.008a.126.126,0,0,0-.03,0A.13.13,0,0,0,.11.015.139.139,0,0,0,.083.028a.15.15,0,0,0-.024.02A.164.164,0,0,0,.038.073.177.177,0,0,0,.023.1a.186.186,0,0,0-.01.032.192.192,0,0,0,0,.034Z" transform="translate(0.813 3.387)" fill="#263238"/>
          <path id="Path_37621" data-name="Path 37621" d="M0,.2c0,.006.015,0,.031,0L.094.172A.66.66,0,0,1,.183.139.444.444,0,0,1,.294.12.466.466,0,0,1,.406.131.7.7,0,0,1,.5.158L.563.182c.016.006.027.007.032,0A.022.022,0,0,0,.6.165.049.049,0,0,0,.589.145.188.188,0,0,0,.565.12L.53.091A.377.377,0,0,0,.475.055.358.358,0,0,0,.416.029.346.346,0,0,0,.355.015a.342.342,0,0,0-.063,0A.35.35,0,0,0,.229.02.362.362,0,0,0,.168.039.381.381,0,0,0,.11.068.4.4,0,0,0,.057.107.308.308,0,0,0,.026.14.183.183,0,0,0,.008.169.075.075,0,0,0,0,.191.016.016,0,0,0,0,.2Z" transform="translate(0.82 2.699)" fill="#263238"/>
          <path id="Path_37622-2" data-name="Path 37622" d="M.42,1.559.354,1.541.288,1.526l-.067-.01L.155,1.511l-.03,0A.112.112,0,0,1,.1,1.5a.064.064,0,0,1-.02-.015.045.045,0,0,1-.011-.021.285.285,0,0,1,0-.072.28.28,0,0,1,.008-.035.269.269,0,0,1,.013-.033l.029-.089.03-.09.03-.092L.211.96Q.253.843.291.724T.362.486Q.4.366.425.244T.481,0q-.05.113-.1.227T.3.459Q.256.575.218.694T.147.932l-.03.1-.029.093-.028.09L.032,1.3a.312.312,0,0,0-.015.044.322.322,0,0,0,0,.138A.125.125,0,0,0,.024,1.5a.114.114,0,0,0,.016.02.1.1,0,0,0,.019.015.1.1,0,0,0,.022.01l.017,0,.017,0,.018,0,.018,0,.067.007.067,0,.067,0A.541.541,0,0,0,.42,1.559Z" transform="translate(1.384 2.843)" fill="#263238"/>
          <path id="Path_37623" data-name="Path 37623" d="M.018.558A2.646,2.646,0,0,0,.434.526a2.709,2.709,0,0,0,.407-.1,2.814,2.814,0,0,0,.393-.16A2.956,2.956,0,0,0,1.607.046a1.1,1.1,0,0,1-.084.147,1.606,1.606,0,0,1-.275.315A1.516,1.516,0,0,1,.752.8,1.735,1.735,0,0,1,0,.887Z" transform="translate(1.692 6.061)" fill="#f47458"/>
          <path id="Path_37624" data-name="Path 37624" d="M.516,0C.509,0,.5.013.5.034S.485.085.474.119A.653.653,0,0,1,.427.232.489.489,0,0,1,.34.349.453.453,0,0,1,.224.432a.565.565,0,0,1-.11.041C.081.482.052.487.032.492S0,.5,0,.508A.024.024,0,0,0,.008.526.056.056,0,0,0,.031.538.206.206,0,0,0,.069.545l.053,0A.383.383,0,0,0,.2.539.4.4,0,0,0,.274.516.419.419,0,0,0,.343.478.448.448,0,0,0,.407.426.422.422,0,0,0,.458.365.454.454,0,0,0,.5.295.48.48,0,0,0,.527.217.5.5,0,0,0,.542.134a.448.448,0,0,0,0-.057A.3.3,0,0,0,.533.034.123.123,0,0,0,.524.008C.521,0,.518,0,.516,0Z" transform="translate(1.775 4.521)" fill="#263238"/>
          <path id="Path_37625" data-name="Path 37625" d="M.006.187A.054.054,0,0,0,.045.208a.339.339,0,0,0,.067,0c.027,0,.057,0,.089,0a.981.981,0,0,1,.1,0c.035,0,.069.006.1.011L.491.23a.333.333,0,0,0,.068,0A.054.054,0,0,0,.613.186.039.039,0,0,0,.607.162.137.137,0,0,0,.583.136L.548.105A.429.429,0,0,0,.493.069.41.41,0,0,0,.435.042.4.4,0,0,0,.374.024.389.389,0,0,0,.311.017a.382.382,0,0,0-.063,0A.389.389,0,0,0,.185.031a.4.4,0,0,0-.06.022A.425.425,0,0,0,.069.085.248.248,0,0,0,.034.114.149.149,0,0,0,.012.142.071.071,0,0,0,0,.168.031.031,0,0,0,.006.187Z" transform="translate(0.817 2.268)" fill="#263238"/>
          <path id="Path_37626" data-name="Path 37626" d="M.316.165A.206.206,0,0,1,.3.23.189.189,0,0,1,.27.284.165.165,0,0,1,.223.321.145.145,0,0,1,.166.337.127.127,0,0,1,.108.331.135.135,0,0,1,.081.317.145.145,0,0,1,.057.3.157.157,0,0,1,.036.273.17.17,0,0,1,.021.244.181.181,0,0,1,.012.213a.188.188,0,0,1,0-.033A.206.206,0,0,1,.022.113.189.189,0,0,1,.054.06.165.165,0,0,1,.1.022.145.145,0,0,1,.158.005a.127.127,0,0,1,.03,0A.128.128,0,0,1,.217.012.135.135,0,0,1,.244.025a.145.145,0,0,1,.024.02A.157.157,0,0,1,.288.07.17.17,0,0,1,.3.1a.181.181,0,0,1,.01.032.189.189,0,0,1,0,.034Z" transform="translate(2.253 3.383)" fill="#263238"/>
          <path id="Path_37627" data-name="Path 37627" d="M.6.2C.6.206.588.2.573.2S.536.181.511.17A.648.648,0,0,0,.421.139.44.44,0,0,0,.309.123.5.5,0,0,0,.195.136.776.776,0,0,0,.1.164C.075.174.053.183.035.189S.008.195,0,.189A.024.024,0,0,1,0,.17.05.05,0,0,1,.01.149.2.2,0,0,1,.034.124L.069.1A.422.422,0,0,1,.125.059.4.4,0,0,1,.186.033.384.384,0,0,1,.248.017a.374.374,0,0,1,.064,0A.356.356,0,0,1,.376.019.362.362,0,0,1,.438.038.376.376,0,0,1,.5.065.4.4,0,0,1,.549.1.267.267,0,0,1,.58.136.172.172,0,0,1,.6.165.073.073,0,0,1,.606.187.014.014,0,0,1,.6.2Z" transform="translate(2.421 2.703)" fill="#263238"/>
          <path id="Path_37628" data-name="Path 37628" d="M.631.215A.057.057,0,0,1,.59.233a.348.348,0,0,1-.07,0L.428.219C.4.215.359.211.321.209s-.073,0-.108,0L.12.212a.37.37,0,0,1-.07,0A.055.055,0,0,1,.01.189.05.05,0,0,1,0,.16.041.041,0,0,1,.011.136.155.155,0,0,1,.038.112L.077.084A.47.47,0,0,1,.2.032.44.44,0,0,1,.459.042.465.465,0,0,1,.578.106.258.258,0,0,1,.611.139.135.135,0,0,1,.63.169.065.065,0,0,1,.636.195a.038.038,0,0,1-.005.02Z" transform="translate(2.318 2.193)" fill="#263238"/>
          <path id="Path_37629" data-name="Path 37629" d="M.048.4A.39.39,0,0,1,.065.3.792.792,0,0,1,.109.185.539.539,0,0,1,.17.084.144.144,0,0,1,.237.03.764.764,0,0,1,.44.014.485.485,0,0,1,.658.078a.448.448,0,0,1,.176.2.966.966,0,0,1,.077.4.89.89,0,0,1-.123.514.543.543,0,0,1-.282.216.738.738,0,0,1-.284.035.269.269,0,0,1-.129-.028c0-.007,0-.052-.007-.121S.076,1.131.071,1.028.06.811.056.7.048.487.048.4Z" transform="translate(4.04 3.605)" fill="#ae7461"/>
          <path id="Path_37630" data-name="Path 37630" d="M0,.747l0,0L.012.754.024.762.04.771A.128.128,0,0,0,.067.78a.126.126,0,0,0,.055,0L.147.771A.375.375,0,0,0,.22.7.414.414,0,0,0,.275.612a.444.444,0,0,0,.031-.1A.456.456,0,0,0,.313.4q0-.03,0-.06A.591.591,0,0,0,.3.283Q.3.254.289.225T.271.17A.194.194,0,0,0,.253.128.179.179,0,0,0,.227.092.163.163,0,0,0,.2.065.15.15,0,0,0,.159.047a.064.064,0,0,0-.026,0A.068.068,0,0,0,.11.055.076.076,0,0,0,.089.072.086.086,0,0,0,.075.1a.073.073,0,0,0,0,.018.122.122,0,0,0,0,.014.044.044,0,0,1,0,.01.005.005,0,0,1-.006,0,.008.008,0,0,1-.007,0,.02.02,0,0,1,0-.009.064.064,0,0,1,0-.017.154.154,0,0,1,0-.025.114.114,0,0,1,0-.017A.11.11,0,0,1,.065.056L.073.042.085.03.1.017.122.008l.02,0H.163a.177.177,0,0,1,.05.017A.191.191,0,0,1,.257.05.21.21,0,0,1,.292.092.231.231,0,0,1,.317.143.588.588,0,0,1,.34.2.605.605,0,0,1,.357.269a.617.617,0,0,1,.01.066A.627.627,0,0,1,.37.4.479.479,0,0,1,.361.526.464.464,0,0,1,.322.641a.427.427,0,0,1-.066.1.382.382,0,0,1-.09.073A.146.146,0,0,1,.132.819.143.143,0,0,1,.1.818.145.145,0,0,1,.066.809.153.153,0,0,1,.035.791.109.109,0,0,1,.016.776.069.069,0,0,1,.005.762.034.034,0,0,1,0,.752S0,.748,0,.747Z" transform="translate(4.355 3.931)" fill="#6f4439"/>
          <path id="Path_37631" data-name="Path 37631" d="M2.782,3.473l-.217.238c-.214-.252-.478-.6-.752-.972S1.258,1.966,1.006,1.6.532.912.378.686.139.334.16.372a2.349,2.349,0,0,1,.31-.1A2.284,2.284,0,0,1,.789.217a2.247,2.247,0,0,1,.64.028A5.13,5.13,0,0,1,2,.407a3.4,3.4,0,0,1,.619.281,1.617,1.617,0,0,1,.487.422.878.878,0,0,1,.176.581q-.023.234-.066.465t-.106.454q-.063.224-.145.44t-.183.423Z" transform="translate(1.528 0.17)" fill="#263238"/>
          <path id="Path_37632" data-name="Path 37632" d="M0,1.554.722.8,3.272.151s.03.05.074.131.1.192.161.313A3.353,3.353,0,0,1,3.663.97a.825.825,0,0,1,.055.314Z" transform="translate(0.929 6.829)" fill="#d65971"/>
        </g>
        <path id="Path_37633" data-name="Path 37633" d="M281.276,29.11a5.75,5.75,0,0,0-1.586,2.548c-.42,1.544-.183,5.942-.811,7.346s-3.575,6.6-3.628,7.744a4.01,4.01,0,0,0,.851,2.67c.635,1.082,2,2.764,3.041,2.782a1.414,1.414,0,0,0,1.343-.987L278.7,47.678l2.342-5.842,1.619-6.441.734-3.175Z" transform="translate(-224.755 -23.771)" fill="#263238"/>
        <path id="Path_37634" data-name="Path 37634" d="M283.519,44.568a1.972,1.972,0,0,0-.075,1.893c.539.89,2.089,3.5,2.924,3.188s1.189-.8,1.113-.906a10.928,10.928,0,0,1-.367-4.218c.255-2,2.256-9.587,2.715-11.347s.7-5.148.009-6.372-2.047-.029-2.047-.029a18.987,18.987,0,0,1,.776,5.1C288.364,33.516,283.519,44.568,283.519,44.568Z" transform="translate(-231.269 -21.439)" fill="#263238"/>
        <rect id="Rectangle_19439" data-name="Rectangle 19439" width="90.51" height="12.659" transform="translate(99.727 31.183) rotate(180)" fill="#455a64"/>
        <g id="Group_39742-2" data-name="Group 39742" transform="translate(9.216 18.524)" opacity="0.4">
          <rect id="Rectangle_19440" data-name="Rectangle 19440" width="90.51" height="12.659" transform="translate(90.51 12.659) rotate(180)"/>
        </g>
        <path id="Path_37635" data-name="Path 37635" d="M381.976,32.19a5.762,5.762,0,0,0-1.588,2.555c-.42,1.544-.183,5.942-.811,7.346s-3.573,6.6-3.626,7.744a4.008,4.008,0,0,0,.849,2.67c.635,1.082,2,2.764,3.041,2.782a1.417,1.417,0,0,0,1.344-.987L379.4,50.766l2.342-5.842,1.621-6.441.734-3.175Z" transform="translate(-306.985 -26.286)" fill="#263238"/>
        <path id="Path_37636" data-name="Path 37636" d="M384.216,47.64a1.976,1.976,0,0,0-.077,1.893c.537.89,2.089,3.5,2.925,3.188s1.188-.8,1.111-.906a10.89,10.89,0,0,1-.367-4.218c.255-2,2.254-9.59,2.713-11.349s.7-5.148.011-6.372-2.047-.029-2.047-.029a19.012,19.012,0,0,1,.776,5.1C389.06,36.582,384.216,47.64,384.216,47.64Z" transform="translate(-313.497 -23.945)" fill="#455a64"/>
        <path id="Path_37637" data-name="Path 37637" d="M104.311,18.837s-.367-3.5-.539-3.94a9.959,9.959,0,0,0-.829-1.372V9.588a1.957,1.957,0,0,0,.581-.886c.092-.237-5.891-.884-5.891-.884S83.987,3.436,81.167,2.6,65.654.56,65.654.56c-9.5-1.207-15.971-.416-22.7,1.946-3.923,1.379-19.944,9.869-19.944,9.869l-1.618.132s-5,.708-6.117.842c-1.852.224-8.527,2.791-11.1,4.426a15.236,15.236,0,0,0-3.254,2.8,2.857,2.857,0,0,0-.688,1.874V27.7c-.123,1.858,4.523,5.532,4.523,5.532h5.724V30.032h0c-.02-.251.145-.5.145-.761,0-5.205,3.885-9.424,8.675-9.424s8.677,4.218,8.677,9.424c0,.257-.013.51-.031.761l-.033,3.188H77.574l.018-4.294c.169-5.044,3.984-9.079,8.67-9.079s8.5,4.035,8.668,9.079l-.011,3.314s6.366-.968,7.153-1.632,4.035-5.09,4.035-6.236S104.311,18.837,104.311,18.837ZM56.722,11.853l-19.729,1.5-3.037-4.4s7.643-4.64,14.359-6.04C55.128,1.486,58.573,1.87,58.573,1.87Zm4.4,0s.62-9.46.868-9.79S80.283,4.179,80.717,4.447s2.665,4.769,2.727,4.961Z" transform="translate(-0.186 -0.001)" fill="url(#linear-gradient)"/>
        <path id="Path_37638" data-name="Path 37638" d="M54.49,102.638s.017-.026.046-.079.073-.132.134-.233c.117-.205.308-.5.567-.873a13.021,13.021,0,0,1,1.045-1.284,10.708,10.708,0,0,1,1.651-1.478A8.858,8.858,0,0,1,60.3,97.426a9.739,9.739,0,0,1,3.065-.5,12.928,12.928,0,0,1,3.5.4,10.655,10.655,0,0,1,1.8.627A8,8,0,0,1,70.4,98.97l.016.013h.018L83.586,97.6l12.222-1.3.352-.039.348-.02.693-.035,1.359-.064,2.6-.1c1.678-.055,3.241-.088,4.67-.11,2.854-.044,5.165-.05,6.76-.059l1.834-.011h0l-1.834-.011c-1.6,0-3.907-.011-6.762.022-1.427.018-2.991.048-4.67.1q-1.26.039-2.6.1l-1.359.061-.7.035-.35.018-.352.037L83.577,97.5,70.421,98.9l.035.011A8.144,8.144,0,0,0,68.7,97.877a10.8,10.8,0,0,0-1.819-.627,13.01,13.01,0,0,0-3.52-.392,9.779,9.779,0,0,0-3.1.488,8.875,8.875,0,0,0-2.384,1.284,10.85,10.85,0,0,0-1.651,1.5,12.816,12.816,0,0,0-1.038,1.3,10.391,10.391,0,0,0-.55.886C54.536,102.523,54.49,102.638,54.49,102.638Z" transform="translate(-44.489 -78.271)" fill="#263238"/>
        <g id="Group_39743" data-name="Group 39743" transform="translate(0.051 17.458)" opacity="0.2">
          <path id="Path_37639" data-name="Path 37639" d="M.239,101.7l3.668-1.394.435,2.124,5.849-.332s2.568-5.247,7.841-5.708a13.823,13.823,0,0,1,8.088,2l25.756-2.727s13.066-.53,18.106-.464,9.48,3.974,9.48,3.974,1.487-2.3,6.759-2.355,7.47,3.25,7.47,3.25a20.951,20.951,0,0,0,10.271-4.521l.257.218c.053.473.088.805.088.805s1.79,4.382,1.79,5.532-3.241,5.576-4.035,6.236-7.153,1.632-7.153,1.632l.011-3.314c-.167-5.044-3.984-9.079-8.668-9.079s-8.5,4.035-8.67,9.079l-.018,4.294H27.919l.033-3.188c.018-.251.031-.5.031-.761,0-5.205-3.885-9.424-8.677-9.424s-8.675,4.218-8.675,9.424c0,.257-.165.51-.145.761h0v3.188H4.762s-4.646-3.67-4.523-5.521Z" transform="translate(-0.237 -95.189)" fill="url(#linear-gradient-2)"/>
        </g>
        <path id="Path_37640" data-name="Path 37640" d="M209.914,13.237,205.035,9.5a1.312,1.312,0,0,0-.624-.259c-10.361-1.449-18.379-2.722-22.559-2.876a43.489,43.489,0,0,0-24.371,5.772c-1.319.662-6.931,4.026-8.2,5.328A1.226,1.226,0,0,0,149,19.1a1.352,1.352,0,0,0,1.236.624l30.239-1.79,24.8-2.916,4.365-.622A.655.655,0,0,0,209.914,13.237Zm-31.875,3.749-19.729,1.5-3.037-4.4s7.643-4.64,14.359-6.04C176.446,6.619,179.89,7,179.89,7Zm4.4,0s.62-9.46.868-9.79S201.6,9.312,202.035,9.58s2.665,4.769,2.727,4.961Z" transform="translate(-121.504 -5.134)" fill="#263238"/>
        <path id="Path_37641" data-name="Path 37641" d="M412.932,19.982l.158,6.6h-.93V19.87Z" transform="translate(-336.559 -16.226)" fill="#263238"/>
        <path id="Path_37642" data-name="Path 37642" d="M171.132,47.5s-.016.033-.046.1-.073.169-.128.3-.13.3-.2.5l-.253.693a24.585,24.585,0,0,0-1.058,4.723,40.548,40.548,0,0,0-.22,7.529c.081,1.453.229,2.993.459,4.6.117.805.251,1.629.42,2.467a4.168,4.168,0,0,0,.16.629,4.9,4.9,0,0,0,.282.585c.211.367.448.734.7,1.1l.013.02h.024l20.5-.4,11.188-.273c1.777-.037,3.507-.075,5.178-.088h1.245a3.026,3.026,0,0,0,1.179-.363,4.19,4.19,0,0,0,.983-.734,5.149,5.149,0,0,0,.761-.961h0c1.909-2.806,3.635-5.4,5.135-7.712.752-1.159,1.454-2.245,2.087-3.263s1.21-1.953,1.7-2.824a12.067,12.067,0,0,0,.64-1.266q.061-.156.121-.308c.039-.1.061-.207.092-.308a2.266,2.266,0,0,0,.079-.3c.017-.1.035-.2.051-.3a4.541,4.541,0,0,0-.125-1.984,4.42,4.42,0,0,0-.488-1.122,2.387,2.387,0,0,0-.242-.339l.061.084c.04.059.1.145.169.262a4.668,4.668,0,0,1,.587,3.081c-.017.1-.035.194-.053.293s-.053.2-.079.3a2.43,2.43,0,0,1-.094.306c-.04.1-.081.2-.121.3a11.685,11.685,0,0,1-.644,1.256c-.488.868-1.066,1.8-1.7,2.815s-1.341,2.1-2.095,3.256c-1.515,2.309-3.245,4.9-5.157,7.7h0a4.769,4.769,0,0,1-1.709,1.664,2.934,2.934,0,0,1-1.146.343,5.715,5.715,0,0,1-.614,0c-.209-.011-.415,0-.624,0-1.673.011-3.4.046-5.181.083l-11.188.27-20.5.413.039.02a12.536,12.536,0,0,1-.693-1.1,4.7,4.7,0,0,1-.279-.572,4.158,4.158,0,0,1-.156-.613c-.169-.835-.3-1.651-.422-2.46-.233-1.609-.383-3.147-.468-4.6a40.912,40.912,0,0,1,.191-7.481,25.181,25.181,0,0,1,1.033-4.723c.094-.262.183-.493.246-.693s.145-.367.2-.5l.121-.3C171.112,47.535,171.132,47.5,171.132,47.5Z" transform="translate(-138.111 -38.788)" fill="#263238"/>
        <path id="Path_37643" data-name="Path 37643" d="M317.549,69.9a.966.966,0,0,0-.053.183c-.027.125-.062.31-.1.55-.073.479-.15,1.174-.2,2.039-.11,1.728-.066,4.119-.033,6.759s.094,5.027.139,6.757c.026.857.046,1.553.061,2.047.009.233.017.42.022.55v.145a.132.132,0,0,0,0,.05.261.261,0,0,0,0-.05v-.7c0-.493-.015-1.19-.028-2.047-.027-1.739-.066-4.123-.108-6.757s-.086-5.027,0-6.753c.04-.862.106-1.559.167-2.038.029-.238.059-.424.081-.55.009-.057.018-.1.024-.143A.231.231,0,0,0,317.549,69.9Z" transform="translate(-258.956 -57.08)" fill="#263238"/>
        <g id="Group_39744" data-name="Group 39744" transform="translate(33.777 24.816)" opacity="0.2">
          <path id="Path_37644" data-name="Path 37644" d="M224.244,135.413s-9.216,4.134-10.893,4.525-28.681.611-28.681.611l-.55-1.284,28.184-.2S223.623,134.551,224.244,135.413Z" transform="translate(-184.12 -135.303)"/>
        </g>
        <path id="Path_37645" data-name="Path 37645" d="M432.2,76.109a.558.558,0,0,0,.05-.048l.143-.138a6.062,6.062,0,0,1,.592-.471,8.231,8.231,0,0,1,1.027-.594,10.6,10.6,0,0,1,1.467-.55,12.128,12.128,0,0,1,1.834-.38c.334-.055.684-.07,1.042-.1.183-.017.367,0,.55-.015a5.216,5.216,0,0,1,.561,0,10.919,10.919,0,0,1,4.734,1.332,9.9,9.9,0,0,1,1.834,1.255l.044.039.033-.048c.878-1.295,1.7-2.52,2.4-3.644s1.31-2.148,1.8-3.01.866-1.561,1.126-2.041c.127-.235.224-.42.3-.55.029-.059.055-.106.073-.145a.214.214,0,0,0,.022-.05A.31.31,0,0,0,451.8,67c-.022.035-.05.081-.082.139-.075.13-.183.312-.31.55L450.255,69.7c-.5.857-1.1,1.874-1.814,2.993s-1.533,2.34-2.414,3.633h.077a9.878,9.878,0,0,0-1.852-1.271,10.955,10.955,0,0,0-4.778-1.337,5.323,5.323,0,0,0-.567,0c-.183,0-.367,0-.55.016-.367.033-.712.051-1.047.108a11.985,11.985,0,0,0-1.852.394,10.387,10.387,0,0,0-1.467.572,8.318,8.318,0,0,0-1.027.614,5.435,5.435,0,0,0-.583.492c-.061.064-.108.112-.136.147A.6.6,0,0,0,432.2,76.109Z" transform="translate(-352.923 -54.671)" fill="#263238"/>
        <path id="Path_37646" data-name="Path 37646" d="M560.79,109.165a1.9,1.9,0,0,0,.075-.315c.042-.2.1-.5.163-.868.132-.734.294-1.755.451-2.883s.275-2.157.348-2.9c.037-.367.062-.673.077-.882a1.758,1.758,0,0,0,.013-.326,1.937,1.937,0,0,0-.053.321c-.029.227-.066.523-.112.879-.092.734-.222,1.763-.378,2.892s-.308,2.146-.42,2.88c-.051.354-.1.647-.13.875A1.889,1.889,0,0,0,560.79,109.165Z" transform="translate(-457.929 -82.468)" fill="#263238"/>
        <path id="Path_37647" data-name="Path 37647" d="M515.52,144.693a.437.437,0,0,0,.106,0h.3c.264,0,.644,0,1.115-.024.941-.035,2.239-.114,3.668-.264s2.72-.347,3.648-.512c.464-.081.84-.154,1.1-.209l.3-.064a.4.4,0,0,0,.1-.031.423.423,0,0,0-.106.009l-.3.044-1.1.174c-.932.143-2.219.325-3.648.477s-2.724.242-3.668.3l-1.111.061-.3.02A.485.485,0,0,0,515.52,144.693Z" transform="translate(-420.962 -117.253)" fill="#263238"/>
        <path id="Path_37648" data-name="Path 37648" d="M3.9,101.712S5.039,98.894,5,98.8c-.183-.5-.831-1.889-.831-1.889a12.882,12.882,0,0,0-1.187.812,15.417,15.417,0,0,0-2.2,2.051,2.338,2.338,0,0,0-.55,1.513v2.359Z" transform="translate(-0.18 -79.136)" fill="#fff"/>
        <path id="Path_37649" data-name="Path 37649" d="M155.57,51.92a6.639,6.639,0,0,0,.53.761,4.78,4.78,0,0,0,.55.734,2.96,2.96,0,0,0-.464-.812A2.916,2.916,0,0,0,155.57,51.92Z" transform="translate(-127.03 -42.398)" fill="#263238"/>
        <path id="Path_37650" data-name="Path 37650" d="M522.163,52.27s-8.642.754-8.547.957,8.547,2.98,8.547,2.98Z" transform="translate(-419.407 -42.683)" fill="#fff"/>
        <path id="Path_37651" data-name="Path 37651" d="M560.1,56.395a19.15,19.15,0,0,0,.053-2.018,19.15,19.15,0,0,0-.053-2.017c-.028,0-.051.9-.053,2.017a19.183,19.183,0,0,0,.053,2.017Z" transform="translate(-457.32 -42.757)" fill="#263238"/>
        <path id="Path_37652" data-name="Path 37652" d="M187.12,142.326h.405l1.161-.015,4.268-.073,14.078-.284,7.76-.16.444-.011a3.6,3.6,0,0,0,.442-.022,3.237,3.237,0,0,0,.825-.29c.523-.226,1.033-.437,1.526-.64.99-.4,1.917-.767,2.762-1.1,1.691-.662,3.057-1.21,3.993-1.609.47-.2.831-.367,1.075-.469l.277-.127.094-.046a.235.235,0,0,0-.1.035l-.281.117-1.082.449c-.939.385-2.309.917-4,1.574-.847.328-1.775.686-2.766,1.088-.5.2-1.009.411-1.531.635a3.1,3.1,0,0,1-.8.281,3.69,3.69,0,0,1-.431.02l-.444.009-7.753.161-14.086.312-4.268.108-1.159.037-.3.011Z" transform="translate(-152.793 -112.265)" fill="#263238"/>
        <path id="Path_37653" data-name="Path 37653" d="M175.687,44.679a7.157,7.157,0,0,1,.7,3.263,1.5,1.5,0,0,1-1.44,1.454l-3.553.029a1.073,1.073,0,0,1-1.066-.945,1.038,1.038,0,0,1,.09-.576c.367-.8.677-.651.677-.651a8.108,8.108,0,0,1,2.713-3.267,1.361,1.361,0,0,1,1.876.691Z" transform="translate(-139.076 -35.798)" fill="#056a5c"/>
        <path id="Path_37654" data-name="Path 37654" d="M175.429,64.446c0,.015-.141-.028-.323-.167a1.425,1.425,0,0,1-.517-.746,3.509,3.509,0,0,1-.072-.917,1.188,1.188,0,0,1,.031-.376,1.169,1.169,0,0,1,.055.367,5.219,5.219,0,0,0,.1.884,1.517,1.517,0,0,0,.444.723C175.319,64.358,175.436,64.428,175.429,64.446Z" transform="translate(-142.498 -50.825)" fill="#263238"/>
        <path id="Path_37656" data-name="Path 37656" d="M320.9,6.62a.477.477,0,0,0-.031.116c-.017.088-.039.2-.066.334-.053.292-.128.713-.216,1.236-.174,1.044-.407,2.487-.629,4.09s-.394,3.056-.481,4.114c-.026.264-.04.5-.051.713s-.024.392-.024.541v.343a.506.506,0,0,0,0,.119.491.491,0,0,0,.015-.119c0-.09.015-.2.024-.341s.024-.328.042-.537.037-.448.066-.712c.106-1.053.288-2.505.512-4.1s.442-3.046.6-4.094c.077-.512.139-.932.183-1.242.02-.136.035-.248.048-.337a.528.528,0,0,0,.011-.119Z" transform="translate(-260.813 -5.406)" fill="#455a64"/>
        <g id="Group_39745" data-name="Group 39745" transform="translate(94.21 9.997)" opacity="0.2">
          <path id="Path_37657" data-name="Path 37657" d="M522.167,58.037l-4.273-2.7-.123-.824a31.6,31.6,0,0,0-4.15.55C513.62,55.2,518.877,56.973,522.167,58.037Z" transform="translate(-513.62 -54.51)"/>
        </g>
        <g id="Group_39746" data-name="Group 39746" transform="translate(0.053 19.663)" opacity="0.2">
          <path id="Path_37658" data-name="Path 37658" d="M5.022,107.21l-2.283,2.069L.25,109.7v2.359l3.668-1.933C4.366,109.006,4.777,107.951,5.022,107.21Z" transform="translate(-0.25 -107.21)"/>
        </g>
        <path id="Path_37659" data-name="Path 37659" d="M26.4,80.336a.209.209,0,0,0,.059-.022l.165-.072.633-.288,2.327-1.062c.985-.446,2.157-.979,3.47-1.53.658-.264,1.343-.55,2.076-.781.367-.1.756-.16,1.146-.231l1.192-.2c3.224-.526,6.148-.97,8.263-1.3l2.5-.393.68-.112.183-.031a.42.42,0,0,0,.059-.015H49.1l-.183.022-.684.09-2.509.367c-2.117.312-5.042.734-8.266,1.267l-1.194.2c-.391.072-.779.134-1.155.235a21.342,21.342,0,0,0-2.085.789c-1.313.55-2.483,1.1-3.465,1.548s-1.77.831-2.315,1.1l-.624.308-.161.083a.279.279,0,0,0-.055.026Z" transform="translate(-21.551 -60.673)" fill="#263238"/>
        <g id="Group_39752" data-name="Group 39752" transform="translate(11.121 20.97)">
          <path id="Path_37664" data-name="Path 37664" d="M76.767,122.309a8.082,8.082,0,1,1-2.449-5.685A8.086,8.086,0,0,1,76.767,122.309Z" transform="translate(-60.594 -114.338)" fill="#00352e"/>
          <path id="Path_37666" data-name="Path 37666" d="M85.088,133.961a5.676,5.676,0,1,1-5.757-5.6A5.676,5.676,0,0,1,85.088,133.961Z" transform="translate(-71.326 -125.957)" fill="#fafafa"/>
          <path id="Path_37667" data-name="Path 37667" d="M79.331,128.357a5.86,5.86,0,0,1,5.757,5.968l-11.351.174A5.888,5.888,0,0,1,79.331,128.357Z" transform="translate(-71.326 -125.956)" fill="#fff"/>
          <path id="Path_37668" data-name="Path 37668" d="M92.745,144.529a3.461,3.461,0,1,1-3.509-3.27A3.387,3.387,0,0,1,92.745,144.529Z" transform="translate(-81.2 -136.492)" fill="#00352e"/>
        </g>
        <g id="Group_39753" data-name="Group 39753" transform="translate(78.037 20.97)">
          <path id="Path_37664-2" data-name="Path 37664" d="M76.767,122.309a8.082,8.082,0,1,1-2.449-5.685A8.086,8.086,0,0,1,76.767,122.309Z" transform="translate(-60.594 -114.338)" fill="#00352e"/>
          <path id="Path_37666-2" data-name="Path 37666" d="M85.088,133.961a5.676,5.676,0,1,1-5.757-5.6A5.676,5.676,0,0,1,85.088,133.961Z" transform="translate(-71.326 -125.957)" fill="#fafafa"/>
          <path id="Path_37667-2" data-name="Path 37667" d="M79.331,128.357a5.86,5.86,0,0,1,5.757,5.968l-11.351.174A5.888,5.888,0,0,1,79.331,128.357Z" transform="translate(-71.326 -125.956)" fill="#fff"/>
          <path id="Path_37668-2" data-name="Path 37668" d="M92.745,144.529a3.461,3.461,0,1,1-3.509-3.27A3.387,3.387,0,0,1,92.745,144.529Z" transform="translate(-81.2 -136.492)" fill="#00352e"/>
        </g>
        <path id="Path_37671" data-name="Path 37671" d="M.011,103.645a1.983,1.983,0,0,0,.02-.339c0-.238.011-.55.018-.917s0-.86.022-1.368A2.828,2.828,0,0,1,.806,99.6a7.573,7.573,0,0,1,1.143-1.135c.381-.317.734-.591,1.034-.816L3.7,97.11a2.047,2.047,0,0,0,.257-.2,1.608,1.608,0,0,0-.279.163c-.183.114-.427.282-.734.5s-.666.484-1.051.8A7.278,7.278,0,0,0,.725,99.518a6.559,6.559,0,0,0-.486.71A1.843,1.843,0,0,0-.033,101c-.017.526,0,.985,0,1.377s.013.688.017.917a1.983,1.983,0,0,0,.028.348Z" transform="translate(0.04 -79.136)" fill="#263238"/>
        <path id="Path_37672" data-name="Path 37672" d="M294.333,10.22a.646.646,0,0,1-.016.139c-.015.1-.037.231-.064.394-.061.352-.147.844-.251,1.447-.226,1.229-.532,2.911-.871,4.769-.22,1.179-.427,2.287-.605,3.235v.033h-.033l-2.568.183-.724.044h-.183a.226.226,0,0,1-.066,0,.308.308,0,0,1,.064-.011l.183-.022.723-.066,2.568-.211-.038.033.594-3.237c.35-1.856.666-3.536.9-4.769.119-.6.215-1.089.284-1.442l.081-.391a.787.787,0,0,1,.028-.13Z" transform="translate(-235.947 -8.346)" fill="#455a64"/>
      </g>
    </g>
  </g>
</svg>
