<svg xmlns="http://www.w3.org/2000/svg" width="9.172" height="17.616" viewBox="0 0 9.172 17.616">
  <path id="Icon_metro-dollar2" data-name="Icon metro-dollar2" d="M19.13,13.853a3.74,3.74,0,0,1-.978,2.59,4.222,4.222,0,0,1-2.541,1.342v1.72a.3.3,0,0,1-.315.315H13.969a.319.319,0,0,1-.315-.315v-1.72a6.2,6.2,0,0,1-1.253-.3,6.037,6.037,0,0,1-1.725-.909,5.6,5.6,0,0,1-.457-.369q-.123-.118-.172-.177a.3.3,0,0,1-.02-.4l1.013-1.327a.306.306,0,0,1,.226-.118.244.244,0,0,1,.236.088l.02.02a5.133,5.133,0,0,0,2.389,1.229,3.434,3.434,0,0,0,.727.079,2.384,2.384,0,0,0,1.4-.423,1.377,1.377,0,0,0,.6-1.2,1,1,0,0,0-.147-.521,1.842,1.842,0,0,0-.329-.413,2.7,2.7,0,0,0-.575-.369q-.393-.2-.649-.315t-.786-.319l-.6-.246q-.221-.088-.6-.261t-.614-.3q-.231-.133-.555-.349a3.462,3.462,0,0,1-.526-.418,6.127,6.127,0,0,1-.428-.482,2.4,2.4,0,0,1-.349-.57,3.943,3.943,0,0,1-.206-.654,3.412,3.412,0,0,1-.084-.767A3.361,3.361,0,0,1,11.147,5.6a4.5,4.5,0,0,1,2.507-1.317V2.518a.319.319,0,0,1,.315-.315H15.3a.3.3,0,0,1,.315.315v1.73a5.468,5.468,0,0,1,1.086.226,6.3,6.3,0,0,1,.855.329,4.737,4.737,0,0,1,.624.369q.295.206.383.285t.147.138a.284.284,0,0,1,.049.374L17.96,7.4a.268.268,0,0,1-.226.157.313.313,0,0,1-.265-.069q-.029-.029-.143-.118t-.383-.261a5.073,5.073,0,0,0-.575-.315,4.391,4.391,0,0,0-.732-.256,3.28,3.28,0,0,0-.841-.113,2.555,2.555,0,0,0-1.524.423,1.322,1.322,0,0,0-.506,1.563,1.106,1.106,0,0,0,.29.408,4.332,4.332,0,0,0,.388.324,3.462,3.462,0,0,0,.551.3q.369.172.595.265t.688.27q.521.2.8.31t.747.344a5.939,5.939,0,0,1,.742.418,6.276,6.276,0,0,1,.61.492,2.545,2.545,0,0,1,.521.624,3.562,3.562,0,0,1,.31.752,3.243,3.243,0,0,1,.128.924Z" transform="translate(-9.957 -2.203)" fill="#fff"/>
</svg>
