<svg xmlns="http://www.w3.org/2000/svg" width="12.848" height="12.848" viewBox="0 0 12.848 12.848">
  <g id="Group_40757" data-name="Group 40757" transform="translate(-2.25 -2.25)">
    <path id="Path_34761" data-name="Path 34761" d="M7.25,7.574a.824.824,0,1,1,.824.824.824.824,0,0,1-.824-.824" transform="translate(-1.706 -1.535)" fill="#00352e"/>
    <path id="Path_34762" data-name="Path 34762" d="M6.939,2.25h3.47c.719,0,1.29,0,1.749.038a3.226,3.226,0,0,1,1.231.3,3.13,3.13,0,0,1,1.367,1.368,3.2,3.2,0,0,1,.3,1.231c.038.459.038,1.03.038,1.749v3.47c0,.719,0,1.29-.038,1.749a3.226,3.226,0,0,1-.3,1.231,3.13,3.13,0,0,1-1.368,1.367,3.214,3.214,0,0,1-1.231.3c-.459.038-1.03.038-1.749.038H6.939c-.719,0-1.29,0-1.749-.038a3.22,3.22,0,0,1-1.231-.3,3.13,3.13,0,0,1-1.368-1.368,3.2,3.2,0,0,1-.3-1.231c-.038-.459-.038-1.03-.038-1.749V6.939c0-.719,0-1.29.038-1.749a3.219,3.219,0,0,1,.3-1.231A3.13,3.13,0,0,1,3.959,2.591a3.2,3.2,0,0,1,1.231-.3c.459-.038,1.03-.038,1.749-.038m-3.7,7.579v.558c0,.746,0,1.276.034,1.691a2.258,2.258,0,0,0,.2.863,2.141,2.141,0,0,0,.936.936,2.271,2.271,0,0,0,.863.2c.256.021.557.029.925.032a7.047,7.047,0,0,1,.391-2.583,3.919,3.919,0,0,0-3.347-1.7M14.11,7.8a6.191,6.191,0,0,0-6.925,6.312h3.2c.746,0,1.276,0,1.691-.034a2.258,2.258,0,0,0,.863-.2,2.141,2.141,0,0,0,.936-.936,2.271,2.271,0,0,0,.2-.863c.034-.415.034-.945.034-1.691ZM4.556,6.038A1.812,1.812,0,1,0,6.368,4.227,1.812,1.812,0,0,0,4.556,6.038m.988,0a.824.824,0,1,1,.824.824.824.824,0,0,1-.824-.824" fill="#00352e"/>
  </g>
</svg>
