<svg xmlns="http://www.w3.org/2000/svg" width="17.5" height="22.833" viewBox="0 0 17.5 22.833">
  <path id="Path_34743" data-name="Path 34743" d="M10.88,18.407H15.62M10.557,3H7.917A2.667,2.667,0,0,0,5.25,5.667v16a2.667,2.667,0,0,0,2.667,2.667H18.583a2.667,2.667,0,0,0,2.667-2.667v-8M10.557,3A2.688,2.688,0,0,1,13.25,5.667V8.333A2.667,2.667,0,0,0,15.917,11h2.667a2.667,2.667,0,0,1,2.667,2.667M10.557,3C14.931,3,21.25,9.353,21.25,13.667" transform="translate(-4.5 -2.25)" fill="none" stroke="#00352e" stroke-linecap="round" stroke-linejoin="round" stroke-width="1.5"/>
</svg>
