<svg xmlns="http://www.w3.org/2000/svg" width="19.793" height="27.286" viewBox="0 0 19.793 27.286">
  <g id="Layer_2" data-name="Layer 2" transform="translate(2.27 0.363)">
    <g id="Layer_1" data-name="Layer 1" transform="translate(-2.27 -0.363)">
      <path id="Path_34753" data-name="Path 34753" d="M36,97.854v-.682c0-2.452-.007-4.905,0-7.357a1.724,1.724,0,0,1,2.248-1.7,1.8,1.8,0,0,1,1.233,1.707c.01,1.233,0,2.465,0,3.7v.471c.473-1.015,1.167-1.53,2.2-1.241,1.145.321,1.366,1.241,1.331,2.3.051-.1.1-.2.156-.3a1.738,1.738,0,0,1,3.267.739,11.653,11.653,0,0,0,.065,1.3c.033-.073.067-.141.1-.212a1.733,1.733,0,0,1,3.3.608,55.411,55.411,0,0,1-.073,5.684A6.822,6.822,0,0,1,43.16,108.9a39.819,39.819,0,0,1-4.6-.078,6.853,6.853,0,0,1-6.031-6.613c-.041-1.63-.018-3.263-.007-4.893.006-.861.671-1.325,1.584-1.137A2.606,2.606,0,0,1,36,97.854Z" transform="translate(-30.151 -81.642)" fill="#00352e"/>
      <path id="Path_34754" data-name="Path 34754" d="M0,7.565A7.568,7.568,0,0,1,15.044,6.41a7.357,7.357,0,0,1-.118,2.879c-.107.442-.384.653-.729.57s-.5-.4-.4-.838A6.377,6.377,0,1,0,1.268,6.727a6.888,6.888,0,0,0,.116,2.3c.1.439-.059.752-.41.83s-.636-.134-.718-.58C.153,8.709.084,8.136,0,7.565Z" transform="translate(0 -0.009)" fill="#11d16e"/>
      <path id="Path_34755" data-name="Path 34755" d="M48.7,44.919a3.47,3.47,0,1,0-6.919.252c0,.049.015.1.017.145a.589.589,0,0,1-.489.657.543.543,0,0,1-.647-.481,4.166,4.166,0,0,1,.254-2.345,4.641,4.641,0,0,1,8.95,2.053,1.394,1.394,0,0,1-.051.321.534.534,0,0,1-.613.394.521.521,0,0,1-.5-.526C48.687,45.234,48.7,45.076,48.7,44.919Z" transform="translate(-37.644 -37.276)" fill="#11d16e"/>
    </g>
  </g>
</svg>
