<svg xmlns="http://www.w3.org/2000/svg" xmlns:xlink="http://www.w3.org/1999/xlink" width="23" height="23" viewBox="0 0 23 23">
  <defs>
    <linearGradient id="linear-gradient" x1="0.234" y1="0.788" x2="0.719" y2="0.418" gradientUnits="objectBoundingBox">
      <stop offset="0" stop-color="#12a8f5"/>
      <stop offset="1" stop-color="#00d48d"/>
    </linearGradient>
  </defs>
  <g id="Iconly_Light_Chat" data-name="Iconly/Light/Chat" transform="translate(-2 -2)">
    <g id="Chat" transform="translate(2 2)">
      <path id="Stroke-4" d="M19.632,19.63a11.507,11.507,0,0,1-12.978,2.3,4.655,4.655,0,0,0-1.634-.458c-1.365.008-3.064,1.332-3.947.45s.441-2.583.441-3.956a4.594,4.594,0,0,0-.45-1.626A11.5,11.5,0,1,1,19.632,19.63Z" transform="translate(0 0)" fill-rule="evenodd" fill="url(#linear-gradient)"/>
      <line id="Stroke-11" x2="0.01" transform="translate(16.03 11.975)" fill="none" stroke="#fff" stroke-linecap="round" stroke-linejoin="round" stroke-width="2"/>
      <line id="Stroke-13" x2="0.01" transform="translate(11.42 11.975)" fill="none" stroke="#fff" stroke-linecap="round" stroke-linejoin="round" stroke-width="2"/>
      <line id="Stroke-15" x2="0.01" transform="translate(6.81 11.975)" fill="none" stroke="#fff" stroke-linecap="round" stroke-linejoin="round" stroke-width="2"/>
    </g>
  </g>
</svg>
