<svg xmlns="http://www.w3.org/2000/svg" width="21.5" height="22.676" viewBox="0 0 21.5 22.676">
  <path id="Path_34739" data-name="Path 34739" d="M8.794,11.235V8.882C8.794,5.634,10.252,3,13.5,3s4.706,2.634,4.706,5.882v2.353M3.5,20.412V15a5.837,5.837,0,0,1,.256-2.479,2.353,2.353,0,0,1,1.028-1.029,5.871,5.871,0,0,1,2.48-.255H19.735a5.871,5.871,0,0,1,2.48.255,2.353,2.353,0,0,1,1.028,1.028A5.846,5.846,0,0,1,23.5,15v5.412a5.846,5.846,0,0,1-.256,2.48,2.353,2.353,0,0,1-1.028,1.028,5.846,5.846,0,0,1-2.48.256H7.265a5.846,5.846,0,0,1-2.48-.256,2.353,2.353,0,0,1-1.028-1.028,5.84,5.84,0,0,1-.256-2.48M13.5,18v-.588M18.206,18v-.588M8.794,18v-.588" transform="translate(-2.75 -2.25)" fill="none" stroke="#00352e" stroke-linecap="round" stroke-linejoin="round" stroke-width="1.5"/>
</svg>
