<svg id="Group_38449" data-name="Group 38449" xmlns="http://www.w3.org/2000/svg" width="26.639" height="27.29" viewBox="0 0 26.639 27.29">
  <path id="Path_1535" data-name="Path 1535" d="M909.52,807.787h-15.6v-2.775h17.334v1.042A1.733,1.733,0,0,1,909.52,807.787Z" transform="translate(-887.496 -780.498)" fill="#056a5c"/>
  <path id="Path_1536" data-name="Path 1536" d="M843.239,613.183l1.217-.248a3.1,3.1,0,0,0,2.322-4h0a4.226,4.226,0,0,0-3.837-2.657h0a1.071,1.071,0,0,0-1.067,1.3Z" transform="translate(-841.848 -606.275)" fill="#00352e"/>
  <path id="Path_1537" data-name="Path 1537" d="M860.776,666.262l-4.347.965-3.977-17.866a1.25,1.25,0,0,1,1.246-1.521l1.185.024a3.145,3.145,0,0,1,2.857,1.978l.44,1.1a26.568,26.568,0,0,1,1.8,7.56Z" transform="translate(-851.118 -642.713)" fill="#056a5c"/>
  <path id="Path_1538" data-name="Path 1538" d="M900.252,762.5,884.6,764.551a1.865,1.865,0,0,0-1.543,1.9h0a1.84,1.84,0,0,0,1.752,1.917h18.3a1.579,1.579,0,0,0,1.5-1.645h0A4.038,4.038,0,0,0,900.252,762.5Z" transform="translate(-877.971 -743.199)" fill="#11d16e"/>
  <path id="Path_1539" data-name="Path 1539" d="M879.054,777.166h3.329l-1.3-5.586a1.913,1.913,0,0,0-2.284-1.451h0a1.913,1.913,0,0,0-1.451,2.283l1.013,4.209A.711.711,0,0,0,879.054,777.166Z" transform="translate(-872.93 -749.877)" fill="#00352e"/>
</svg>
