<svg xmlns="http://www.w3.org/2000/svg" width="24.214" height="17.421" viewBox="0 0 24.214 17.421">
  <g id="Layer_2" data-name="Layer 2" transform="translate(0.03)">
    <g id="Layer_1" data-name="Layer 1" transform="translate(-0.03)">
      <path id="Path_34643" data-name="Path 34643" d="M12.059,17.418c-3.009,0-6.019.005-9.028,0a3.029,3.029,0,0,1-3-2.459,3.9,3.9,0,0,1-.055-.726q0-5.51,0-11.019A3.03,3.03,0,0,1,3.174,0H21a3,3,0,0,1,3.186,3.18q0,5.51,0,11.019a3.032,3.032,0,0,1-3.229,3.215Q16.507,17.42,12.059,17.418Zm-4.514-3.8c1.249,0,2.5,0,3.749,0a.76.76,0,0,0,.787-1.084l-.061-.189A4.652,4.652,0,0,0,7.472,9.086a4.708,4.708,0,0,0-4.448,3.452c-.192.69.1,1.081.808,1.082l3.714,0ZM7.539,3.784A2.263,2.263,0,1,0,9.808,6.041,2.263,2.263,0,0,0,7.539,3.784Zm9.487,2.239c-1.128,0-2.257,0-3.385,0a.765.765,0,0,0-.826.762.784.784,0,0,0,.8.765c.1.006.2,0,.3,0h4.25c.718,0,1.436,0,2.155,0a.767.767,0,1,0-.005-1.527C19.215,6.017,18.121,6.022,17.027,6.023Zm-1.912,4.556c.487,0,.973.005,1.46,0a.753.753,0,0,0,.8-.745.774.774,0,0,0-.816-.777q-1.46-.01-2.921,0a.765.765,0,1,0,.012,1.524C14.146,10.585,14.628,10.578,15.115,10.578Z" transform="translate(0.03)" fill="#00352e"/>
      <path id="Path_34644" data-name="Path 34644" d="M49.641,141.358H45.923c-.711,0-1-.392-.808-1.082a4.708,4.708,0,0,1,4.448-3.452,4.655,4.655,0,0,1,4.548,3.258l.061.189a.76.76,0,0,1-.787,1.084C52.14,141.362,50.89,141.358,49.641,141.358Z" transform="translate(-42.065 -127.741)" fill="#11d16e"/>
      <path id="Path_34645" data-name="Path 34645" d="M82.088,57a2.263,2.263,0,1,1-2.269,2.25A2.263,2.263,0,0,1,82.088,57Z" transform="translate(-74.519 -53.216)" fill="#11d16e"/>
      <path id="Path_34646" data-name="Path 34646" d="M197.766,90.693c1.094,0,2.191-.006,3.282,0a.768.768,0,0,1,.793,1.036.76.76,0,0,1-.787.491c-.718.007-1.436,0-2.155,0h-4.244c-.1,0-.2,0-.3,0a.782.782,0,0,1-.8-.765.766.766,0,0,1,.826-.762C195.514,90.688,196.639,90.693,197.766,90.693Z" transform="translate(-180.709 -84.67)" fill="#fff"/>
      <path id="Path_34647" data-name="Path 34647" d="M195.826,137.868c-.487,0-.974,0-1.46,0a.765.765,0,1,1-.012-1.524q1.46-.008,2.921,0a.771.771,0,0,1,.816.777.751.751,0,0,1-.8.745C196.8,137.873,196.313,137.868,195.826,137.868Z" transform="translate(-180.681 -127.29)" fill="#fff"/>
    </g>
  </g>
</svg>
