<svg xmlns="http://www.w3.org/2000/svg" width="30.033" height="17.205" viewBox="0 0 30.033 17.205">
  <g id="Layer_2" data-name="Layer 2" transform="translate(0 -0.02)">
    <g id="Layer_1" data-name="Layer 1" transform="translate(0 0.02)">
      <path id="Path_34648" data-name="Path 34648" d="M74.444,25.86h-9.2c-.015.287-.021.531-.039.774a1.247,1.247,0,0,1-1.247,1.244c-.623.032-1.25.021-1.874,0a1.251,1.251,0,0,1-1.374-1.416,4.476,4.476,0,0,0-.548-2.267c-1.169-2.288-1-3.684.555-5.852-.27-.077-.525-.167-.786-.221a.735.735,0,0,1-.62-.947,1.259,1.259,0,0,1,.612-.783,1.9,1.9,0,0,1,2.237.15c.336-.7.681-1.386,1-2.083A2.619,2.619,0,0,1,65.4,12.809a42.014,42.014,0,0,1,9.057.027,2.416,2.416,0,0,1,1.981,1.419c.371.735.716,1.482,1.106,2.3.657-.656,1.374-.438,2.1-.234.431.122.8.272.785.834s-.2.909-.792.992a4.651,4.651,0,0,0-.672.2c1.864,2.117,1.551,4.26.29,6.473a3.193,3.193,0,0,0-.231,1.43c-.039,1.2-.44,1.618-1.642,1.625h-1.35c-1.064-.011-1.487-.428-1.532-1.491C74.482,26.225,74.461,26.057,74.444,25.86ZM77.2,17.842c-.551-1.149-1.043-2.221-1.567-3.267a1.576,1.576,0,0,0-1.451-.915c-2.87-.018-5.742-.035-8.611.014a1.662,1.662,0,0,0-1.229.572c-.692,1.13-1.241,2.348-1.877,3.6Zm-7.379,6.991a16.3,16.3,0,0,0,1.714-.018c.282-.03.728-.209.77-.395a1.139,1.139,0,0,0-.3-.9,1.531,1.531,0,0,0-.935-.375,18.156,18.156,0,0,0-2.458,0,1.709,1.709,0,0,0-.978.437,1.017,1.017,0,0,0-.239.851c.053.183.45.351.714.378A16.689,16.689,0,0,0,69.823,24.832Zm-6.152-2.068c1.16.018,1.313-.038,1.365-.476a1.46,1.46,0,0,0-1.187-1.425c-.263-.074-.53-.129-.8-.192-.8-.186-1.26.041-1.379.672A1.248,1.248,0,0,0,62.7,22.757a6.483,6.483,0,0,0,.968.008Zm12.4.018v-.02a4.823,4.823,0,0,0,.966-.012,1.2,1.2,0,0,0,1.007-1.22c.017-.5-.264-.983-.759-.927a5.637,5.637,0,0,0-2.1.639c-.3.167-.327.8-.479,1.221.329.107.654.221.987.312a1.454,1.454,0,0,0,.372.006Z" transform="translate(-50.393 -10.693)" fill="#00352e"/>
      <path id="Path_34649" data-name="Path 34649" d="M5.423,11.9c-.116,1.681-.332,1.877-1.894,1.877H3.3c-1.846,0-2-.164-2.051-1.985a2,2,0,0,0-.266-.9c-1.26-2.185-1.193-3.925.3-5.813a2.258,2.258,0,0,1-.761-.254A1.378,1.378,0,0,1,0,4.051a.9.9,0,0,1,.45-.72c.689-.26,1.428-.578,2.141.12.341-.711.66-1.383.984-2.053A2.089,2.089,0,0,1,5.423.055C8.215.017,11.009,0,13.8.052a2.09,2.09,0,0,1,1.915,1.5A.68.68,0,0,1,14.7,1.368a1.6,1.6,0,0,0-.941-.525A31.393,31.393,0,0,0,5.469.856a1.754,1.754,0,0,0-1.1.771c-.54.918-.948,1.916-1.448,2.959h8.853l.105.24a3.151,3.151,0,0,1-.609.255,14.382,14.382,0,0,0-2.234.429c-.279.105-.467.7-.522,1.1-.1.695.33,1.109,1.035,1.284-.221.452-.395.882-.635,1.277-.081.135-.3.2-.47.27-.248.107-.578.126-.74.3a1.215,1.215,0,0,0-.335.837c.017.15.435.287.689.39a2.317,2.317,0,0,0,.542.074l.069.858Zm-1.467-2.8v.009a1.452,1.452,0,0,0,.371,0c.288-.078.8-.164.809-.279a1.3,1.3,0,0,0-.272-1A4.741,4.741,0,0,0,3.4,7.2c-.548-.176-1.061-.131-1.226.561A1.1,1.1,0,0,0,3.138,9.1a6.752,6.752,0,0,0,.818.006Z" transform="translate(0 -0.02)" fill="#11d16e"/>
    </g>
  </g>
</svg>
