<svg xmlns="http://www.w3.org/2000/svg" xmlns:xlink="http://www.w3.org/1999/xlink" width="155.881" height="175.686" viewBox="0 0 155.881 175.686">
  <defs>
    <linearGradient id="linear-gradient" x1="0.175" y1="0.271" x2="0.816" y2="0.705" gradientUnits="objectBoundingBox">
      <stop offset="0" stop-color="#00d3f2"/>
      <stop offset="1" stop-color="#00d48d"/>
    </linearGradient>
  </defs>
  <g id="Group_37804" data-name="Group 37804" transform="translate(-25.242 -256.17)">
    <path id="Path_33128" data-name="Path 33128" d="M59.422,40.624s-8.548,19.333-12.047,17.52S58.453,37.288,58.453,37.288,47.805,18.7,41.147,15.008c0,0-1.625,23.5-4.57,20.881s-2.39-27.15-2.39-27.15S19.952-5.5,10.688,2.37,2.33,17.977,4.331,20.243,21.977,32.969,20.189,34.706,5.715,32.464,1.121,26.636c0,0-4.495,20.34,4.517,25.35s15.23,1.574,20.743,4.772S34.75,64,31.163,63.605s-11.8-7.43-18.5-6.743-11.648.549-4.9,7.56S29.3,80.119,36.273,76.016l.872-.513a3.873,3.873,0,0,1-.872.513c.868,1.842.269,7.366-.349,11.495-.147.674-.308,1.636-.482,2.972h0c-.1.588-.19,1.066-.253,1.4C33.194,100.713,23.5,111.666,23.5,111.666l1.368,1.6c12.007-9.5,12.295-23.887,12.295-23.887a38.988,38.988,0,0,1,6.08-17.47s20.919,1.927,21.763-14.4C65.009,57.515,64.217,46.59,59.422,40.624Z" transform="matrix(0.995, -0.105, 0.105, 0.995, 25.242, 274.674)" fill="#4c5b91"/>
    <path id="Path_33129" data-name="Path 33129" d="M787.28,453.143s-9.594,19.193-19.34,32.443c-3.878,5.273-7.78,9.6-11.11,11.41a26.548,26.548,0,0,0-8.3,7.557,60.631,60.631,0,0,0-8.643,17.743l-24.921-37.7s.85-36.855,3.843-43.019c4.361-8.984,6.468-27.135,8.143-30.749,1.243-2.681,4.792-16.528,5.133-17.546.148-.438,1.329-1.111,2.863-1.11a4.463,4.463,0,0,1,3.847,3.634,41.414,41.414,0,0,1-.506,20.869c.94,9.5-1.886,16.545.1,18.412.074.069.211.036.4-.087,3.436-2.206,24.759-33.293,27.385-33.964C768.944,400.326,787.28,453.143,787.28,453.143Z" transform="translate(-645.27 -122.298)" fill="#fcb585"/>
    <path id="Path_33130" data-name="Path 33130" d="M463.954,1456.987s-.339,16.754-1.311,39.32H399.782c14.369-30.641,26.861-56.431,26.861-56.431S462.435,1440.969,463.954,1456.987Z" transform="translate(-361.843 -1064.451)" fill="url(#linear-gradient)"/>
    <path id="Path_33131" data-name="Path 33131" d="M1427.4,271.693l-7.717,11.314-7.573,11.1a1.734,1.734,0,0,1-1.575.7c-1.818-.173-4.066-2.794-5.818-4.245l-.178-.146a5.467,5.467,0,0,1-.726-7.675l11.575-13.992h0l3.433-4.149a5.466,5.466,0,0,1,7.675-.726l.178.146A5.468,5.468,0,0,1,1427.4,271.693Z" transform="translate(-1263.604 -5.805)" fill="#fcb585"/>
    <path id="Path_33132" data-name="Path 33132" d="M1490.791,337.643l-7.573,11.1a1.733,1.733,0,0,1-1.574.7l4.853-26.057C1486.508,323.529,1487.333,335.22,1490.791,337.643Z" transform="translate(-1334.711 -60.442)" fill="#ee9868"/>
    <path id="Path_33133" data-name="Path 33133" d="M966.678,1298.7c-3.878,5.273-7.78,9.6-11.11,11.41a26.546,26.546,0,0,0-8.3,7.557c-2.627-1.224-5.621-2.661-8.547-4.083a4.874,4.874,0,0,1-.21-8.667l.1-.055c3.271-1.872,6.622-8.48,6.622-8.48Z" transform="translate(-844.008 -935.416)" fill="#ee9868"/>
    <path id="Path_33134" data-name="Path 33134" d="M865.13,408.874l-2.019,8.152a4.283,4.283,0,0,0,2.9.161C867.143,416.627,868.069,409.313,865.13,408.874Z" transform="translate(-778.493 -137.32)" fill="#ffc197"/>
    <g id="Group_37800" data-name="Group 37800" transform="translate(93.521 256.17)">
      <rect id="Rectangle_17137" data-name="Rectangle 17137" width="58.95" height="110.97" rx="7" transform="translate(0 0)" fill="#4f62a7"/>
      <g id="Group_37799" data-name="Group 37799" transform="translate(2.922 2.751)">
        <path id="Path_33135" data-name="Path 33135" d="M1033.593,289.221v93.227a5.746,5.746,0,0,1-5.708,5.75H986.194a5.745,5.745,0,0,1-5.707-5.75V289.221a5.745,5.745,0,0,1,5.707-5.75h41.691A5.746,5.746,0,0,1,1033.593,289.221Z" transform="translate(-980.487 -283.471)" fill="#ececec"/>
        <path id="Path_33136" data-name="Path 33136" d="M1027.885,283.471,986.71,388.2h-.516a5.745,5.745,0,0,1-5.707-5.75V289.221a5.745,5.745,0,0,1,5.707-5.75Z" transform="translate(-980.487 -283.471)" fill="#f3f3f3"/>
      </g>
      <path id="Rectangle_17138" data-name="Rectangle 17138" d="M2.784,0H19.8a2.784,2.784,0,0,1,2.784,2.784v0A2.784,2.784,0,0,1,19.8,5.567H2.784A2.784,2.784,0,0,1,0,2.784v0A2.784,2.784,0,0,1,2.784,0Z" transform="translate(18.182 0.65)" fill="#4f62a7"/>
      <rect id="Rectangle_6046" data-name="Rectangle 6046" width="32.659" height="2.458" rx="1.229" transform="translate(13.146 64.047)" fill="#bcc0cc"/>
      <rect id="Rectangle_6047" data-name="Rectangle 6047" width="26.103" height="2.458" rx="1.229" transform="translate(16.424 70.488)" fill="#bcc0cc"/>
      <rect id="Rectangle_6048" data-name="Rectangle 6048" width="16.637" height="2.458" rx="1.229" transform="translate(21.157 76.929)" fill="#bcc0cc"/>
      <ellipse id="Ellipse_3371" data-name="Ellipse 3371" cx="14.802" cy="14.802" rx="14.802" ry="14.802" transform="translate(14.674 22.152)" fill="#257ef9"/>
      <g id="Group_20479" data-name="Group 20479" transform="translate(17.208 30.194)">
        <rect id="Rectangle_6015" data-name="Rectangle 6015" width="8.129" height="6.651" transform="translate(8.202 12.646)" fill="#f8f1f1"/>
        <path id="Path_13324" data-name="Path 13324" d="M-384.953,1252.721a3.094,3.094,0,0,0,3.64-.256,9.243,9.243,0,0,0,3.662-7.113l-.1-2.74-5.564-2.112h-3.794l-1.265,2.112-.506,2.375S-390.123,1249.511-384.953,1252.721Z" transform="translate(395.713 -1236.201)" fill="#fff"/>
        <path id="Path_13325" data-name="Path 13325" d="M-403.107,1304.823h-10.579a1.814,1.814,0,0,1-1.814-1.814h0a1.814,1.814,0,0,1,1.131-1.68l6.962-2.828h8.346l7.085,3.1a1.682,1.682,0,0,1,1.008,1.541h0a1.682,1.682,0,0,1-1.682,1.682Z" transform="translate(415.5 -1279.532)" fill="#01df7f"/>
        <ellipse id="Ellipse_3326" data-name="Ellipse 3326" cx="1.135" cy="2.271" rx="1.135" ry="2.271" transform="translate(5.875 8.104)" fill="#fff"/>
        <ellipse id="Ellipse_3327" data-name="Ellipse 3327" cx="1.135" cy="2.271" rx="1.135" ry="2.271" transform="translate(16.472 8.104)" fill="#fff"/>
        <path id="Path_13323" data-name="Path 13323" d="M-390.668,1223.5a18.349,18.349,0,0,0,7.587.759c4.047-.506,4.805,6.323,3.288,8.346,0,0,.506-4.805-8.852-3.794,0,0,.253,3.288-2.276,3.288,0,0-2-4,.25-6.169a1.64,1.64,0,0,0,.232-2.17A2.6,2.6,0,0,0-390.668,1223.5Z" transform="translate(397.75 -1223.5)" fill="#f8f1f1"/>
      </g>
    </g>
    <g id="Group_37801" data-name="Group 37801" transform="translate(143.813 298.118)">
      <path id="Path_33137" data-name="Path 33137" d="M1466.812,683.03l-1.151.437-7.739,2.941a4.932,4.932,0,0,1-.548.174,5.286,5.286,0,0,1-6.25-3.229l-.113-.3a5.287,5.287,0,0,1,3.055-6.8l7.215-2.741.524-.2,1.151-.437a5.285,5.285,0,0,1,6.8,3.055l.113.3A5.287,5.287,0,0,1,1466.812,683.03Z" transform="translate(-1450.668 -672.536)" fill="#fcb585"/>
      <path id="Path_33138" data-name="Path 33138" d="M1479.26,721.68a30.841,30.841,0,0,1-4.88,1.538,2.061,2.061,0,0,1-1.614-.808,4.77,4.77,0,0,1-.973-1.756,5.562,5.562,0,0,1-.264-1.12,4.724,4.724,0,0,1,.042-1.333,1.331,1.331,0,0,1,.739-.951l.005,0a30.517,30.517,0,0,1,4.693-1.84,2.039,2.039,0,0,1,2.529,1.13l.163.444.83,2.275A1.948,1.948,0,0,1,1479.26,721.68Z" transform="translate(-1469.401 -711.009)" fill="#ffd3b6"/>
      <path id="Path_33139" data-name="Path 33139" d="M1486.331,733.041a30.853,30.853,0,0,1-4.88,1.538,2.061,2.061,0,0,1-1.614-.808c-.065-.151-.125-.311-.181-.482a5.562,5.562,0,0,1-.265-1.12,4.711,4.711,0,0,1,.042-1.333,1.33,1.33,0,0,1,.738-.951l.005,0a30.52,30.52,0,0,1,4.694-1.84,2.225,2.225,0,0,1,1.9.3l.83,2.275A1.948,1.948,0,0,1,1486.331,733.041Z" transform="translate(-1476.472 -722.37)" fill="#fff2e9"/>
    </g>
    <g id="Group_37802" data-name="Group 37802" transform="translate(145.979 312.102)">
      <path id="Path_33140" data-name="Path 33140" d="M1482.633,818.735l-5.968,1.625a3.427,3.427,0,0,1-4.195-2.4l-.184-.676a3.427,3.427,0,0,1,2.4-4.195l5.968-1.625a3.427,3.427,0,0,1,4.195,2.4l.184.675A3.427,3.427,0,0,1,1482.633,818.735Z" transform="translate(-1472.166 -811.346)" fill="#fcb585"/>
      <path id="Path_33141" data-name="Path 33141" d="M1488.825,837.2a26.969,26.969,0,0,1-4.116.866,2.012,2.012,0,0,1-1.629-1.291,4.026,4.026,0,0,1-.305-.842,3.981,3.981,0,0,1-.133-.877,3.43,3.43,0,0,1,.133-1.021,1.058,1.058,0,0,1,.675-.682l.005,0a26.71,26.71,0,0,1,3.986-1.112,1.689,1.689,0,0,1,1.992,1.031l.154.538.46,1.614A1.514,1.514,0,0,1,1488.825,837.2Z" transform="translate(-1481.585 -830.103)" fill="#ffd3b6"/>
      <path id="Path_33142" data-name="Path 33142" d="M1491.666,845.2a26.957,26.957,0,0,1-4.116.866,2.012,2.012,0,0,1-1.629-1.291,3.81,3.81,0,0,1-.12-.823,3.424,3.424,0,0,1,.133-1.021,1.06,1.06,0,0,1,.675-.682l.006,0a26.489,26.489,0,0,1,3.986-1.11,1.8,1.8,0,0,1,1.827.672l.46,1.614A1.514,1.514,0,0,1,1491.666,845.2Z" transform="translate(-1484.427 -838.107)" fill="#fff2e9"/>
    </g>
    <path id="Path_33143" data-name="Path 33143" d="M605.655,1415.821s12.284,11.765,20.565,16.308l6.27-4.447v6.56s12.331,2.18,16.22,0v-17.89l-34.633-17.362Z" transform="translate(-546.975 -1027.684)" fill="#139f70"/>
    <path id="Path_33144" data-name="Path 33144" d="M576.139,1296.384s-7.8,11.67-15.554,24.147c0,0,16.339,11.24,25.2,14.537l11.619-13.307-1.659,16.019s10.283,3.748,15.053,2.77c0,0-.3-14.532-.3-24.053C610.5,1316.5,582.231,1308.573,576.139,1296.384Z" transform="translate(-506.445 -935.416)" fill="#ebebeb"/>
    <path id="Path_33145" data-name="Path 33145" d="M734.013,1573.237a1.934,1.934,0,1,1,1.916,1.952A1.934,1.934,0,0,1,734.013,1573.237Z" transform="translate(-662.401 -1182.653)" fill="#257ef9"/>
    <g id="Group_37803" data-name="Group 37803" transform="translate(143.23 284.01)">
      <path id="Path_33146" data-name="Path 33146" d="M1461.422,545.673c-.042.016-.085.03-.129.044l-7.824,2.009a6.468,6.468,0,0,1-7.906-4.136l-.466-1.618a6,6,0,0,1,4.2-7.233l2.583-.664,5.241-1.345a6.468,6.468,0,0,1,7.906,4.136l.465,1.618A5.986,5.986,0,0,1,1461.422,545.673Z" transform="translate(-1444.883 -532.51)" fill="#fcb585"/>
      <path id="Path_33147" data-name="Path 33147" d="M1507.934,570.691l-3.8,1.713-.024.006a4.117,4.117,0,0,1-.46.095c-.064.01-.129.017-.193.024a.514.514,0,0,1-.081,0,.6.6,0,0,1-.525-.854,3.781,3.781,0,0,0,.215-2.577l-.09-.331a.025.025,0,0,0,0-.01l-.294-1.079a4.049,4.049,0,0,0-1.377-2.1c-.078-.064-.159-.123-.241-.18a1.092,1.092,0,0,1,.32-1.944l.024-.007,4.172-.631a1.986,1.986,0,0,1,2.306,1.545l.335,1.229.713,2.621C1509.21,569.244,1508.965,570.411,1507.934,570.691Z" transform="translate(-1494.981 -559.712)" fill="#ffd3b6"/>
      <path id="Path_33148" data-name="Path 33148" d="M1514.246,585.841l-3.8,1.713-.024.006c-.089.017-.368.064-.733.12a.6.6,0,0,1-.524-.854,3.78,3.78,0,0,0,.215-2.577l-.091-.331a.029.029,0,0,0,0-.01l-.294-1.079a4.05,4.05,0,0,0-1.377-2.1,1.057,1.057,0,0,1,.6-.426l.024-.007,4.171-.631a1.9,1.9,0,0,1,2.122,1.076l.713,2.621C1515.522,584.394,1515.277,585.561,1514.246,585.841Z" transform="translate(-1501.294 -574.862)" fill="#fff2e9"/>
    </g>
    <path id="Path_33149" data-name="Path 33149" d="M905.993,678.88s-1.707-14.9-3.282-17.805-2.907-8.725-.484-13.048,3.26-12.643,3.26-12.643c.94,9.5-1.886,16.545.1,18.412.074.069.211.036.4-.087Z" transform="translate(-812.472 -341.009)" fill="#ee9868"/>
    <path id="Path_33151" data-name="Path 33151" d="M1211.6,1409.426c-2.732-10.088-19.755-6.935-19.755-6.935s-11.558,17.653-14.921,18.074,6.935-17.023,6.935-17.023c-6.515-.631-23.118,7.355-23.118,7.355s1.051,20.6-2.312,20.175,0-18.284,0-18.284c-6.3,1.892-12.189,9.247-12.189,9.247-7.356,11.979,8.406,20.806,8.406,20.806a33.525,33.525,0,0,1-4.2,15.342h0a24.312,24.312,0,0,0-2.008,4.085h1.719c.141-.461.3-.906.467-1.334a.01.01,0,0,1,0-.008l.008-.018c.118-.266.287-.644.5-1.1h0s0,0,0,0c.525-1.028.88-1.788,1.1-2.336l0-.005c1.573-3.227,3.84-7.432,5.352-8.314a3.333,3.333,0,0,1-.368-.788l.368.788c2.942,6.3,17.653,7.356,25.85,5.674s4.623-3.993.21-7.745-13.66-2.763-16.392-4.234,1.261-2.942,6.725-2.522,8.2,5.885,17.023,6.725,15.552-15.762,15.552-15.762c-6.094,1.891-17.023-1.471-17.443-3.573s15.762-1.892,18.284-2.522S1214.329,1419.514,1211.6,1409.426Z" transform="translate(-1031.336 -1030.413)" fill="#4c5b91"/>
  </g>
</svg>
