<svg xmlns="http://www.w3.org/2000/svg" width="20" height="20" viewBox="0 0 20 20">
  <g id="start" transform="translate(1044 -8291.001)">
    <path id="Subtraction_13" data-name="Subtraction 13" d="M-5741,11873a10.011,10.011,0,0,1-10-10,10.011,10.011,0,0,1,10-10,9.938,9.938,0,0,1,7.071,2.928A9.938,9.938,0,0,1-5731,11863,10.011,10.011,0,0,1-5741,11873Zm0-14.335a4.338,4.338,0,0,0-4.333,4.335,4.337,4.337,0,0,0,4.333,4.333,4.337,4.337,0,0,0,4.333-4.333A4.338,4.338,0,0,0-5741,11858.666Z" transform="translate(4707 -3562)" fill="#00d48d"/>
  </g>
</svg>
