<svg xmlns="http://www.w3.org/2000/svg" width="25.218" height="17.337" viewBox="0 0 25.218 17.337">
  <g id="Layer_2" data-name="Layer 2" transform="translate(0.013)">
    <g id="Layer_1" data-name="Layer 1" transform="translate(-0.013)">
      <path id="Path_34653" data-name="Path 34653" d="M12.64,90H24.686c.521,0,.531.01.531.536v7.944a2.762,2.762,0,0,1-2.96,2.948H2.963A2.773,2.773,0,0,1,0,98.475V90.5c0-.48.022-.5.5-.5ZM5.129,95.126H4.835a.8.8,0,0,0-.893.886c0,.218-.005.436,0,.657a.783.783,0,0,0,.8.818c.263.01.525.011.788,0a.777.777,0,0,0,.775-.77c.012-.272.012-.546,0-.817a.778.778,0,0,0-.746-.772C5.413,95.116,5.271,95.126,5.129,95.126Z" transform="translate(0.001 -84.091)" fill="#00352e"/>
      <path id="Path_34654" data-name="Path 34654" d="M12.561,4.333H.52C0,4.333-.019,4.325-.012,3.8A10.727,10.727,0,0,1,.053,2.232,2.709,2.709,0,0,1,2.622,0c.087,0,.175,0,.263,0H22.31a2.644,2.644,0,0,1,2.727,1.887A10.8,10.8,0,0,1,25.189,4.1c0,.075-.131.181-.228.226a.722.722,0,0,1-.291.012Z" transform="translate(0.013 0)" fill="#11d16e"/>
      <path id="Path_34655" data-name="Path 34655" d="M61.2,168c.142,0,.284-.009.425,0a.778.778,0,0,1,.748.768c.012.272.012.546,0,.817a.774.774,0,0,1-.775.77c-.263.012-.525.011-.788,0a.783.783,0,0,1-.8-.818c-.007-.218,0-.436,0-.657a.8.8,0,0,1,.893-.886H61.2Z" transform="translate(-56.071 -156.961)" fill="#11d16e"/>
    </g>
  </g>
</svg>
