<svg xmlns="http://www.w3.org/2000/svg" xmlns:xlink="http://www.w3.org/1999/xlink" width="375" height="350" viewBox="0 0 375 350">
  <defs>
    <clipPath id="clip-path">
      <rect id="Rectangle_18145" data-name="Rectangle 18145" width="375" height="350" transform="translate(0 107)" fill="none" stroke="#707070" stroke-width="1"/>
    </clipPath>
    <clipPath id="clip-path-2">
      <path id="Path_53378" data-name="Path 53378" d="M415.836,368.654A13.36,13.36,0,0,0,429.18,355.31V162.994a13.358,13.358,0,0,0-13.344-13.343H321.249a13.358,13.358,0,0,0-13.344,13.343V355.31a13.359,13.359,0,0,0,13.344,13.344h94.587Z" transform="translate(-307.905 -149.651)"/>
    </clipPath>
    <linearGradient id="linear-gradient" x1="0.57" y1="0.205" x2="0.5" y2="0.97" gradientUnits="objectBoundingBox">
      <stop offset="0" stop-color="#98db39"/>
      <stop offset="1" stop-color="#01dd86"/>
    </linearGradient>
  </defs>
  <g id="Mask_Group_134" data-name="Mask Group 134" transform="translate(0 -107)" clip-path="url(#clip-path)">
    <g id="OBJECTS" transform="translate(-93.832 120.551)">
      <g id="Group_41119" data-name="Group 41119" transform="translate(83.878 88.251)">
        <g id="Group_41051" data-name="Group 41051" transform="translate(17.954 0)">
          <path id="Path_53346" data-name="Path 53346" d="M111.188,325.63s-8.06-36.755,32.887-49.944,33.316-35.46,44.537-58.436S226.964,189.958,252.9,200.2s29.972,21.09,49.721,21.274,27.828-15.076,63.286-19.116,71.018,4.835,93.7,58.646c13.241,31.42,10.6,64.272,10.6,64.272" transform="translate(-110.545 -123.118)" fill="#056a5c" opacity="0.34"/>
        </g>
        <g id="Group_41062" data-name="Group 41062" transform="translate(132.436 -57.132)">
          <g id="Group_41059" data-name="Group 41059" transform="translate(0 33.868)">
            <path id="Path_53371" data-name="Path 53371" d="M415.836,368.654A13.36,13.36,0,0,0,429.18,355.31V162.994a13.358,13.358,0,0,0-13.344-13.343H321.249a13.358,13.358,0,0,0-13.344,13.343V355.31a13.359,13.359,0,0,0,13.344,13.344h94.587Z" transform="translate(-305.257 -147.003)" fill="#f4ede3"/>
            <g id="Group_41058" data-name="Group 41058" transform="translate(2.648 2.648)">
              <g id="Group_41057" data-name="Group 41057" clip-path="url(#clip-path-2)">
                <line id="Line_876" data-name="Line 876" x2="136.94" y2="136.94" transform="translate(-2.648 -19.779)" fill="none" stroke="#fff" stroke-width="8.204"/>
                <line id="Line_877" data-name="Line 877" x1="71.811" y2="71.811" transform="translate(-15.722 38.959)" fill="none" stroke="#fff" stroke-width="8.204"/>
                <path id="Path_53372" data-name="Path 53372" d="M322.056,240.67l66.161,66.161,43.3-43.3" transform="translate(-309.267 -158.411)" fill="none" stroke="#fff" stroke-width="8.204"/>
                <path id="Path_53373" data-name="Path 53373" d="M329.436,316.388h0a20.013,20.013,0,0,1,0-28.3l18.69-18.69,28.3,28.3-18.69,18.69A20.012,20.012,0,0,1,329.436,316.388Z" transform="translate(-309.413 -161.176)" fill="none" stroke="#fff" stroke-width="8.204"/>
                <line id="Line_878" data-name="Line 878" x1="45.353" y1="45.353" transform="translate(-12.971 17.313)" fill="none" stroke="#fff" stroke-width="8.204"/>
                <line id="Line_879" data-name="Line 879" y1="42.897" x2="42.898" transform="translate(41.03 -18.997)" fill="none" stroke="#fff" stroke-width="8.204"/>
                <line id="Line_880" data-name="Line 880" y1="62.518" x2="62.518" transform="translate(75.472 -4.177)" fill="none" stroke="#fff" stroke-width="8.204"/>
                <line id="Line_881" data-name="Line 881" x2="86.301" y2="86.301" transform="translate(50.808 152.729)" fill="none" stroke="#fff" stroke-width="8.204"/>
                <path id="Path_53374" data-name="Path 53374" d="M395.263,313.877l20.78,20.78-16.225,16.226" transform="translate(-316.313 -165.457)" fill="none" stroke="#fff" stroke-width="8.204"/>
                <line id="Line_882" data-name="Line 882" x1="79.44" y2="79.44" transform="translate(-9.322 172.039)" fill="none" stroke="#fff" stroke-width="8.204"/>
                <line id="Line_883" data-name="Line 883" y1="43.3" x2="43.301" transform="translate(56.845 83.015)" fill="none" stroke="#fff" stroke-width="4.688"/>
                <line id="Line_884" data-name="Line 884" x2="33.991" y2="33.991" transform="translate(72.74 -7.808)" fill="none" stroke="#fff" stroke-width="4.688"/>
                <line id="Line_885" data-name="Line 885" x2="43.3" y2="43.301" transform="translate(39.39 204.21)" fill="none" stroke="#fff" stroke-width="4.688"/>
                <line id="Line_886" data-name="Line 886" x1="38.71" y2="38.71" transform="translate(-18.687 155.212)" fill="none" stroke="#fff" stroke-width="4.688"/>
                <line id="Line_887" data-name="Line 887" y1="30.509" x2="30.509" transform="translate(101.089 172.501)" fill="none" stroke="#fff" stroke-width="4.688"/>
                <path id="Path_53375" data-name="Path 53375" d="M409.7,228.877l11.817-11.817a7.878,7.878,0,0,0,0-11.142l-10.952-10.952" transform="translate(-317.702 -154.012)" fill="none" stroke="#fff" stroke-width="4.688"/>
                <circle id="Ellipse_4298" data-name="Ellipse 4298" cx="12.62" cy="12.62" r="12.62" transform="translate(87.121 156.491)" fill="#fff"/>
                <path id="Path_53376" data-name="Path 53376" d="M422.368,336.283a4.59,4.59,0,1,1-4.59-4.59A4.59,4.59,0,0,1,422.368,336.283Z" transform="translate(-318.038 -167.172)" fill="#f4ebe2"/>
                <rect id="Rectangle_17813" data-name="Rectangle 17813" width="25.703" height="25.703" transform="translate(43.377 64.082) rotate(45)" fill="#b5f5d0"/>
                <rect id="Rectangle_17814" data-name="Rectangle 17814" width="15.505" height="15.505" transform="translate(79.189 114.101) rotate(45)" fill="#eaded3"/>
                <rect id="Rectangle_17815" data-name="Rectangle 17815" width="15.505" height="15.505" transform="translate(92.867 100.428) rotate(45)" fill="#eaded3"/>
                <rect id="Rectangle_17816" data-name="Rectangle 17816" width="15.505" height="3.791" transform="translate(98.822 94.471) rotate(45)" fill="#eaded3"/>
                <path id="Path_53377" data-name="Path 53377" d="M335.474,312.19h0a12.852,12.852,0,0,1,0-18.174l13.394-13.394L367.042,298.8,353.649,312.19A12.85,12.85,0,0,1,335.474,312.19Z" transform="translate(-310.196 -162.256)" fill="#b5f5d0"/>
                <rect id="Rectangle_17817" data-name="Rectangle 17817" width="25.703" height="25.703" transform="translate(69.334 186.497) rotate(45)" fill="#b5f5d0"/>
                <rect id="Rectangle_17818" data-name="Rectangle 17818" width="25.703" height="25.703" transform="translate(94.199 211.361) rotate(45)" fill="#b5f5d0"/>
                <rect id="Rectangle_17819" data-name="Rectangle 17819" width="25.703" height="25.703" transform="translate(75.471 6.619) rotate(45)" fill="#b5f5d0"/>
                <rect id="Rectangle_17820" data-name="Rectangle 17820" width="25.703" height="25.703" transform="translate(-9.322 44.489) rotate(45)" fill="#b5f5d0"/>
              </g>
            </g>
            <path id="Path_53379" data-name="Path 53379" d="M320.966,152.017h94.588a10.708,10.708,0,0,1,10.7,10.7V355.028a10.708,10.708,0,0,1-10.7,10.7H320.966a10.707,10.707,0,0,1-10.7-10.7V162.712a10.707,10.707,0,0,1,10.7-10.7m0-5.3a15.991,15.991,0,0,0-15.991,15.991V355.028a15.991,15.991,0,0,0,15.991,15.991h94.588a15.991,15.991,0,0,0,15.991-15.991V162.712a15.991,15.991,0,0,0-15.991-15.991Z" transform="translate(-304.975 -146.721)" fill="#00352e"/>
          </g>
          <path id="Path_53380" data-name="Path 53380" d="M444.641,203.793h-2.033V183.609h2.033a2.335,2.335,0,0,1,2.334,2.334v15.515A2.333,2.333,0,0,1,444.641,203.793Z" transform="translate(-318.222 -116.403)" fill="#00352e"/>
          <path id="Path_53381" data-name="Path 53381" d="M444.641,229.96h-2.033V209.776h2.033a2.335,2.335,0,0,1,2.334,2.334v15.515A2.334,2.334,0,0,1,444.641,229.96Z" transform="translate(-318.222 -118.922)" fill="#00352e"/>
          <g id="Group_41061" data-name="Group 41061" transform="translate(15.437 54.809)">
            <g id="Group_41060" data-name="Group 41060">
              <line id="Line_888" data-name="Line 888" x1="2.236" y1="2.238" transform="translate(45.066 109.067)" fill="none" stroke="#fc5475" stroke-linecap="round" stroke-linejoin="round" stroke-width="2"/>
              <line id="Line_889" data-name="Line 889" x1="37.888" y1="37.918" transform="translate(3.883 67.852)" fill="none" stroke="#11d16e" stroke-linecap="round" stroke-linejoin="round" stroke-width="2" stroke-dasharray="7.22 5.157"/>
              <path id="Path_53382" data-name="Path 53382" d="M324.292,242.669l-2.236-2.238,2.237-2.237" transform="translate(-322.056 -176.466)" fill="none" stroke="#11d16e" stroke-linecap="round" stroke-linejoin="round" stroke-width="2"/>
              <line id="Line_890" data-name="Line 890" y1="34.347" x2="34.346" transform="translate(5.224 24.396)" fill="none" stroke="#11d16e" stroke-linecap="round" stroke-linejoin="round" stroke-width="2" stroke-dasharray="6.543 4.674"/>
              <path id="Path_53383" data-name="Path 53383" d="M367.493,194.758l2.237-2.237-2.237-2.237" transform="translate(-326.429 -171.855)" fill="none" stroke="#11d16e" stroke-linecap="round" stroke-linejoin="round" stroke-width="2"/>
              <line id="Line_891" data-name="Line 891" x1="12.005" y1="12.005" transform="translate(26.267 3.632)" fill="none" stroke="#11d16e" stroke-linecap="round" stroke-linejoin="round" stroke-width="2" stroke-dasharray="6.116 4.369"/>
              <line id="Line_892" data-name="Line 892" x1="2.237" y1="2.237" transform="translate(22.635)" fill="none" stroke="#11d16e" stroke-linecap="round" stroke-linejoin="round" stroke-width="2"/>
            </g>
          </g>
          <path id="Path_53384" data-name="Path 53384" d="M356.606,139.706a19.806,19.806,0,0,0,1.991-18.474,18.254,18.254,0,0,0-10.72-10.634c-13.818-5.109-26.821,4.989-26.821,18.127a19.388,19.388,0,0,0,3.394,10.982h0l.018.02a19.584,19.584,0,0,0,3.024,3.435l12.436,12.5a.849.849,0,0,0,1.2,0l12.444-12.508a19.573,19.573,0,0,0,3.013-3.422l.022-.025ZM343.29,124.439a3.929,3.929,0,0,1,1.515,1.5,5.124,5.124,0,0,1-7.047,7.072,3.885,3.885,0,0,1-1.526-1.537A5.12,5.12,0,0,1,343.29,124.439Z" transform="translate(-306.523 -109.246)" fill="#11d16e"/>
          <path id="Path_53385" data-name="Path 53385" d="M345.273,165.008a2.99,2.99,0,1,1-2.99-2.99A2.99,2.99,0,0,1,345.273,165.008Z" transform="translate(-308.278 -114.325)" fill="#11d16e"/>
        </g>
        <g id="Group_41065" data-name="Group 41065" transform="translate(0 201.033)">
          <path id="Path_53386" data-name="Path 53386" d="M396.891,398.294H88.515c-2.561,0-4.637-2.562-4.637-5.723s2.076-5.723,4.637-5.723H396.891c2.561,0,4.637,2.562,4.637,5.723S399.452,398.294,396.891,398.294Z" transform="translate(-46.703 -386.849)" fill="#035f52"/>
          <g id="Group_41064" data-name="Group 41064" transform="translate(5.723 5.723)">
            <g id="Group_41063" data-name="Group 41063" transform="translate(36.536)">
              <line id="Line_893" data-name="Line 893" x2="10.772" transform="translate(0 0)" fill="none" stroke="#dadfe5" stroke-linecap="round" stroke-linejoin="round" stroke-width="1" stroke-dasharray="5"/>
              <line id="Line_894" data-name="Line 894" x2="273.278" transform="translate(19.212 0)" fill="none" stroke="#dadfe5" stroke-linecap="round" stroke-linejoin="round" stroke-width="1" stroke-dasharray="5 12.536"/>
              <line id="Line_895" data-name="Line 895" x2="10.772" transform="translate(296.71 0)" fill="none" stroke="#dadfe5" stroke-linecap="round" stroke-linejoin="round" stroke-width="1" stroke-dasharray="5"/>
            </g>
          </g>
        </g>
        <g id="Group_41078" data-name="Group 41078" transform="translate(248.709 34.55)">
          <g id="Group_41066" data-name="Group 41066" transform="translate(34.48 84.171)">
            <path id="Path_53387" data-name="Path 53387" d="M521.493,309.279a26.764,26.764,0,0,1-.3,2.8c-.269,1.617-.949,4.183-1.767,7.047-.161.562-.329,1.135-.5,1.714a58.74,58.74,0,0,0-2.448,19.368c.526,11.251-3.607,30.258-4.178,32.055-1.034,1.335-3.024.446-3.752.186-.855-12.539-2.441-39.818-2.425-40.427.333-12.9,1.914-24.786,2.043-26.683s.329-12.5,1.238-12.857c2.007-.749,7.207-2.476,9.553.938C521.4,297,521.792,304.467,521.493,309.279Z" transform="translate(-501.797 -291.373)" fill="#5539b4"/>
            <path id="Path_53388" data-name="Path 53388" d="M523.633,311.388a26.746,26.746,0,0,1-.3,2.8c-.269,1.617-.949,4.183-1.767,7.047-.25-4.063-.719-15.343-.719-15.343Z" transform="translate(-503.937 -293.483)" fill="#3a2a87"/>
            <path id="Path_53389" data-name="Path 53389" d="M545.089,369.429c0,1.291-.086,1.974-3.523,1.968.359.5-12.377-28.607-14.314-34.058-.12-.349-.619-1.807-.769-2.3-.918-2.855-3.906-17.407-5.323-23.1l-4.036-18.276s-5.508.746-1.565.516c5.012-.3,11.261-2.795,11.261-2.795,8.352,7.129,9.115,15.328,8.773,19.419-.14,1.673-.048,8.772-.124,10.756a44,44,0,0,0,3.772,19.97C544.241,352.485,544.68,365.766,545.089,369.429Z" transform="translate(-502.962 -291.375)" fill="#5539b4"/>
            <path id="Path_53390" data-name="Path 53390" d="M551.226,385.737A9,9,0,0,1,549.1,387c-.419.19-1.877,1.038-3.314,1.867a3.83,3.83,0,0,1-1.867.489h-2.355c-.439,0-.6-.3-.586-.491a1.23,1.23,0,0,1,1.136-1.037,2.93,2.93,0,0,0,.52-.151,3.835,3.835,0,0,0,1.842-1.568c.436-.7.743-1.3.743-1.3a2.331,2.331,0,0,1,2.047-.679c1.547-.768,1.727-1.427,1.727-1.427C550.328,383.071,551.605,385.347,551.226,385.737Z" transform="translate(-506.863 -304.648)" fill="#012851"/>
            <path id="Path_53391" data-name="Path 53391" d="M511.564,386.006s-.477.5-2.2.433a2.328,2.328,0,0,0-2.126-.369,9.006,9.006,0,0,1-2.954,1.76c-1.226.25-2.659.395-2.99.935a1.115,1.115,0,0,0-.208.893s-.083.228,1.412.291,6.293-.145,7.123-.1a9.175,9.175,0,0,0,2.472-.1C512.611,389.574,512.564,386.963,511.564,386.006Z" transform="translate(-501.061 -305.12)" fill="#012851"/>
          </g>
          <g id="Group_41067" data-name="Group 41067" transform="translate(70.017 98.243)">
            <path id="Path_53392" data-name="Path 53392" d="M569.083,387.68a1.941,1.941,0,1,1-2.378-1.371A1.941,1.941,0,0,1,569.083,387.68Z" transform="translate(-545.931 -319.235)" fill="#353535"/>
            <path id="Path_53393" data-name="Path 53393" d="M556.542,333.785l-7.039,1.891-6.838-25.449a.672.672,0,0,1,.474-.823l5.741-1.543a.672.672,0,0,1,.823.474Z" transform="translate(-542.642 -307.839)" fill="none" stroke="#2d287c" stroke-width="0.847"/>
            <path id="Path_53394" data-name="Path 53394" d="M563.9,336.347l10.533,39.2A2.022,2.022,0,0,1,573,378.025l-12.758,3.428a1.069,1.069,0,0,1-1.307-.761l-11.025-41.033a1.069,1.069,0,0,1,.75-1.313l12.758-3.428A2.023,2.023,0,0,1,563.9,336.347Z" transform="translate(-543.403 -311.765)" fill="#fcc000"/>
            <path id="Path_53395" data-name="Path 53395" d="M564.719,336.347l10.533,39.2a2.022,2.022,0,0,1-1.429,2.478l-7.934,2.131a1.071,1.071,0,0,1-1.315-.758l-11.025-41.033a1.072,1.072,0,0,1,.758-1.315l7.934-2.131A2.023,2.023,0,0,1,564.719,336.347Z" transform="translate(-544.222 -311.765)" fill="#fece00"/>
            <path id="Path_53396" data-name="Path 53396" d="M569.57,350.946l-4.944,1.329a.535.535,0,0,1-.656-.379l-.048-.179a.535.535,0,0,1,.379-.656l4.945-1.329Z" transform="translate(-545.732 -313.928)" fill="#fcc000"/>
            <path id="Path_53397" data-name="Path 53397" d="M571.141,356.795l-4.944,1.329a.535.535,0,0,1-.656-.379l-.048-.179a.535.535,0,0,1,.379-.656l4.944-1.329Z" transform="translate(-545.961 -314.778)" fill="#fcc000"/>
            <path id="Path_53398" data-name="Path 53398" d="M572.713,362.642l-4.945,1.328a.535.535,0,0,1-.656-.379l-.048-.179a.535.535,0,0,1,.379-.656l4.944-1.329Z" transform="translate(-546.189 -315.628)" fill="#fcc000"/>
            <path id="Path_53399" data-name="Path 53399" d="M574.284,368.491l-4.945,1.329a.536.536,0,0,1-.656-.379l-.048-.179a.536.536,0,0,1,.379-.657l4.945-1.328Z" transform="translate(-546.417 -316.479)" fill="#fcc000"/>
            <path id="Path_53400" data-name="Path 53400" d="M575.856,374.338l-4.945,1.329a.535.535,0,0,1-.656-.379l-.048-.179a.536.536,0,0,1,.379-.657l4.945-1.329Z" transform="translate(-546.646 -317.329)" fill="#fcc000"/>
          </g>
          <g id="Group_41074" data-name="Group 41074" transform="translate(41.108 47.414)">
            <g id="Group_41073" data-name="Group 41073">
              <g id="Group_41068" data-name="Group 41068">
                <path id="Path_53401" data-name="Path 53401" d="M531.968,270.878c-.164.892-.4,2.122-.655,3.5a96.924,96.924,0,0,0-1.6,10.218,5.018,5.018,0,0,0,.173,1.32c.273,1.111.783,1.694.4,2.131a3.6,3.6,0,0,1-1.685.783c-.273.073-.573.146-.892.209-2.9.6-7.482,4.395-9.919,3.782-7.439-1.87-9.1-3.622-8.965-4.689a94.626,94.626,0,0,0,.634-12.47c0-10.042-.685-23.039.073-23.906a20.494,20.494,0,0,1,6.275-3.251,20.194,20.194,0,0,1,7.6.628c3.515.911,7.6,1.684,8.205,3.014C532.2,253.42,532.815,266.4,531.968,270.878Z" transform="translate(-508.816 -248.365)" fill="#00b8f0"/>
              </g>
              <g id="Group_41072" data-name="Group 41072" transform="translate(15.588 1.017)">
                <g id="Group_41069" data-name="Group 41069" transform="translate(13.979 45.204)">
                  <path id="Path_53402" data-name="Path 53402" d="M545.433,302.447a16.113,16.113,0,0,1-.042,2.383c-.123.332-1.989,2.152-1.979,3.277a2.129,2.129,0,0,0,1.058.922,6.082,6.082,0,0,0,3.454-.237c.924-.379.992-2.263,1.013-2.513a30.187,30.187,0,0,1-.075-3.62" transform="translate(-543.413 -302.447)" fill="#ffd5b0"/>
                </g>
                <g id="Group_41070" data-name="Group 41070" transform="translate(13.683 49.146)">
                  <path id="Path_53403" data-name="Path 53403" d="M544.141,307.06a5.763,5.763,0,0,0-.979,1.918c-.116.665-.19.849.157.889s.855-.377,1.15-.9" transform="translate(-543.066 -307.06)" fill="#ffd5b0"/>
                </g>
                <g id="Group_41071" data-name="Group 41071">
                  <path id="Path_53404" data-name="Path 53404" d="M531.5,261.125c1.525,3.873,8.009,13.514,8.009,13.514l3.278,21.677a4.355,4.355,0,0,0,1.761.365,7.059,7.059,0,0,0,2.358-.441s1.58-21.081.174-24.955c-1.533-4.223-5.736-14.887-12.275-19.086-2.538-1.63-7.752-2.645-7.752-2.645" transform="translate(-527.056 -249.555)" fill="#00b8f0"/>
                </g>
              </g>
            </g>
          </g>
          <path id="Path_53405" data-name="Path 53405" d="M530.933,279.813s-2.162,8.593,3.286,19.875c0,0-8.03,1.318-15.989,1.959s-10.9-1.389-10.9-1.389,1.467-8.2,1.6-10.025,10.03-4.433,10.03-4.433" transform="translate(-467.493 -205.522)" fill="#00b8f0"/>
          <g id="Group_41076" data-name="Group 41076" transform="translate(0 50.803)">
            <g id="Group_41075" data-name="Group 41075" transform="translate(0 9.274)">
              <path id="Path_53406" data-name="Path 53406" d="M472.708,266.3l-2.874-.687a7.082,7.082,0,0,1-1.577-1.444,3.24,3.24,0,0,0-2.7-.978c-.3.015-.323.39.2.749.351.239.965.128,1.174.949.093.367-.944.38-1.478.2s-2.349-1.043-2.813-1.237-.856.1.356.991a15.732,15.732,0,0,0,1.934,1.243,5.572,5.572,0,0,0,.427.757.55.55,0,0,0,.215.142,4.887,4.887,0,0,0,.4.7.357.357,0,0,0,.091.078c.111.232.217.458.313.652.374.753,1.828.542,2.467.46a21.292,21.292,0,0,1,3.379.535Z" transform="translate(-460.932 -263.181)" fill="#ffd5b0"/>
              <path id="Path_53407" data-name="Path 53407" d="M465.5,266.287a7.155,7.155,0,0,1-1.832-.384c-1.076-.359-2.449-1.125-2.729-1.155s-.312.327,0,.609a10.553,10.553,0,0,0,1.7,1.045,32.481,32.481,0,0,0,3.2.967" transform="translate(-460.717 -263.409)" fill="#ffd5b0"/>
              <path id="Path_53408" data-name="Path 53408" d="M465.92,267.263a7.156,7.156,0,0,1-1.864-.174c-1.11-.235-2.56-.841-2.842-.84s-.273.361.068.6a10.546,10.546,0,0,0,1.808.846c.627.228,3.286.885,3.286.885" transform="translate(-460.76 -263.627)" fill="#ffd5b0"/>
              <path id="Path_53409" data-name="Path 53409" d="M466.978,268.563a7.157,7.157,0,0,1-1.864-.174c-1.11-.235-2.56-.841-2.842-.84s-.273.361.068.6a10.548,10.548,0,0,0,1.808.846,32.437,32.437,0,0,0,3.286.6" transform="translate(-460.913 -263.816)" fill="#ffd5b0"/>
            </g>
            <path id="Path_53410" data-name="Path 53410" d="M505.09,264.323c-.383.264-.81.538-1.248.82a61.426,61.426,0,0,1-8.059,6.238,10.147,10.147,0,0,1-4.563,1.794c-4.808,0-18.578-5.336-18.578-5.336l.62-3.515,17,1.494c3.625-4.335,14.007-13.487,14.007-13.487l.656,9.544Z" transform="translate(-462.45 -252.33)" fill="#00b8f0"/>
          </g>
          <path id="Path_53411" data-name="Path 53411" d="M507.733,267a62.031,62.031,0,0,1-8.014,6.193,108.9,108.9,0,0,0,7.987-8.424C507.714,265.494,507.724,266.24,507.733,267Z" transform="translate(-466.386 -203.334)" fill="#0096d1"/>
          <g id="Group_41077" data-name="Group 41077" transform="translate(42.638 22.893)">
            <path id="Path_53412" data-name="Path 53412" d="M524.6,246.795l-.005.009s-3.413,2.573-7.6-.628c0,0,.531-1.013.62-1.195a9.117,9.117,0,0,0,.974-2.52c.029-.084.042-.178.068-.275a9.684,9.684,0,0,0,.175-1.2,10.245,10.245,0,0,0-.062-2.469l.405-.327,6.683-5.256.761-.594s-.22,1.277-.525,3.147c-.168,1.061-.368,2.3-.566,3.619C525.137,241.77,524.755,244.687,524.6,246.795Z" transform="translate(-511.535 -221.514)" fill="#ffd5b0"/>
            <path id="Path_53413" data-name="Path 53413" d="M523.616,240.29l-.005.009a19.163,19.163,0,0,1-5.937,5.715,9.111,9.111,0,0,0,.974-2.52,6.156,6.156,0,0,1-1.231.237c.018-.305.033-.624.024-.957l.447-.268,1-.491,5.279-2.571S523.982,239.77,523.616,240.29Z" transform="translate(-511.597 -222.547)" fill="#ffb985"/>
            <path id="Path_53414" data-name="Path 53414" d="M512.274,227.663s-1.163,3.185.914,5l.993-4.854Z" transform="translate(-510.802 -220.835)" fill="#3f49a5"/>
            <path id="Path_53415" data-name="Path 53415" d="M523.983,236.68a14.963,14.963,0,0,1-1.091,1.351l-.005.009a12.5,12.5,0,0,1-2.171,1.873,9.207,9.207,0,0,1-2.792,1.322,6.159,6.159,0,0,1-1.231.237,4.7,4.7,0,0,1-2.813-.534c-1.666-2.472-1.6-6.482-1.224-9.524.148-1.232.355-2.3.512-3.053.146-.679.26-1.084.26-1.084.007-.03.009-.051.015-.08.723-3.929,5.973-4.066,9.584-1.854a6.438,6.438,0,0,1,.611.421,7.019,7.019,0,0,1,2.33,2.734c.847,1.855.328,3.966-.539,5.76l-.142.285A16.8,16.8,0,0,1,523.983,236.68Z" transform="translate(-510.872 -220.289)" fill="#ffd5b0"/>
            <path id="Path_53416" data-name="Path 53416" d="M523.933,224.432s-4.28,6.6-11.454,3.127c-2.1-1.014-2.565-8.15-.724-6.724,3.776,2.923,6.746-2.643,10.372-.765A3.75,3.75,0,0,1,523.933,224.432Z" transform="translate(-510.607 -219.673)" fill="#3f49a5"/>
            <path id="Path_53417" data-name="Path 53417" d="M524.354,225.778s-2.487,12.949.142,7c0,0,.667-1.658,1.873-1.507s.237,4.607.072,6.494c0,0,2.76-1.973,3.776-7.849s-2.934-8.29-5.122-5.745Z" transform="translate(-512.45 -220.181)" fill="#3f49a5"/>
            <path id="Path_53418" data-name="Path 53418" d="M526.472,233.734s-.678.092-.821,1.334.656,1.49.816.835-.445-1.05-.577-.776A1.525,1.525,0,0,1,526.472,233.734Z" transform="translate(-512.791 -221.717)" fill="#ffb985"/>
          </g>
          <path id="Path_53419" data-name="Path 53419" d="M524.727,202.725a6.4,6.4,0,0,0,.644-5.967,5.9,5.9,0,0,0-3.463-3.435,6.306,6.306,0,0,0-7.567,9.4h0l.006.007a6.328,6.328,0,0,0,.977,1.109l4.017,4.037a.274.274,0,0,0,.389,0l4.019-4.041a6.3,6.3,0,0,0,.973-1.105l.007-.008h0Zm-4.3-4.932a1.278,1.278,0,0,1,.49.485,1.655,1.655,0,0,1-2.277,2.284,1.259,1.259,0,0,1-.493-.5A1.654,1.654,0,0,1,520.426,197.793Z" transform="translate(-468.352 -192.886)" fill="#fc5475"/>
        </g>
        <g id="Group_41086" data-name="Group 41086" transform="translate(77.165 16.921)">
          <g id="Group_41082" data-name="Group 41082" transform="translate(0 95.109)">
            <g id="Group_41079" data-name="Group 41079" transform="translate(27.016 73.3)">
              <path id="Path_53420" data-name="Path 53420" d="M187.853,370.529l-.185,7.174a4.963,4.963,0,0,0,1.167,2.937c.215.307,3.423,4.906,3.716,5.352-.092.183-2.776,1.327-5.922-3.2a18.848,18.848,0,0,0-2.208-2.7l-1.655-9.174" transform="translate(-182.766 -370.529)" fill="#ffd5b0"/>
              <path id="Path_53421" data-name="Path 53421" d="M184.389,380.5a4.684,4.684,0,0,1,1.646,1.3c.916,1.03,2.726,4.031,3.642,4.6a4.733,4.733,0,0,0,2.726.206s4.25,2.437,4,2.969a.986.986,0,0,1-.88.491c-1.449.161-6.064,0-6.064,0a2.756,2.756,0,0,1-2.13-1.593c-.481-1.375-2.62-3.5-3.436-4.192S183.27,381.941,184.389,380.5Z" transform="translate(-182.828 -371.511)" fill="#1b2072"/>
              <path id="Path_53422" data-name="Path 53422" d="M183.554,384.146s.209,1.35.279,2.656.149,3.622.149,3.622h.485a29.363,29.363,0,0,1,.324-5.316C185.179,383.846,183.554,384.146,183.554,384.146Z" transform="translate(-182.844 -371.867)" fill="#1b2072"/>
            </g>
            <g id="Group_41080" data-name="Group 41080" transform="translate(0 72.179)">
              <path id="Path_53423" data-name="Path 53423" d="M162.543,370.686l-1.773,5.081a5.417,5.417,0,0,0-.248,2.568c.137.944.308,2.2.381,3.02.13,1.474,0,3.447-.975,3.82s-2.806-2.462-3.447-4.071a12.855,12.855,0,0,1-.722-5.184c.16-1,.91-.873,1.168-1.508s1.37-5.127,1.37-5.127" transform="translate(-153.085 -369.285)" fill="#ffd5b0"/>
              <path id="Path_53424" data-name="Path 53424" d="M156.828,374.974a2.584,2.584,0,0,0-.243,2.1c.316,1.37.8,2.519,1.008,3.635s.947,3.815,2.24,4.209.955-3.179.955-3.179.458,2.635.514,3.692c.049.923.423,2.218.388,2.759s-.614.861-1.607.378-3.531-2.043-4.021-3.115.053-2.992-.466-4.577-1.126-2.758-.778-4.069S156.828,374.974,156.828,374.974Z" transform="translate(-152.987 -369.845)" fill="#1b2072"/>
              <path id="Path_53425" data-name="Path 53425" d="M154.753,377.356a47.649,47.649,0,0,1-1.955,5,.784.784,0,0,0,.443.256,19.973,19.973,0,0,1,2.122-3.713" transform="translate(-152.798 -370.08)" fill="#1b2072"/>
            </g>
            <g id="Group_41081" data-name="Group 41081" transform="translate(4.96)">
              <path id="Path_53426" data-name="Path 53426" d="M187.312,333.8v-.063c.1-8.52-2.13-33.291-2.959-41.1l-14.773-3.42c-7.156,15.193.283,18.959,2,22.316.892,1.752,2.056,7.5,3.494,13.209.074.273.136.556.22.828a65.693,65.693,0,0,0,2.644,8.52.1.1,0,0,0,0,.01,4.165,4.165,0,0,1,.3,2.009,54.912,54.912,0,0,0-.078,11.927,153.1,153.1,0,0,0,3.519,18.262,13.7,13.7,0,0,0,4.634-.59S187.449,340.482,187.312,333.8Z" transform="translate(-159.111 -289.218)" fill="#11d16e"/>
              <path id="Path_53427" data-name="Path 53427" d="M176.257,327.525a65.73,65.73,0,0,0,2.644,8.52c1.679-8.918,1.259-27.017,1.259-27.017Z" transform="translate(-160.069 -291.17)" fill="#029c4d"/>
              <path id="Path_53428" data-name="Path 53428" d="M162.732,292.425s-3.6,6.264-3.088,11.82c.37,3.956,2.759,17.875,3.946,26.88a17.907,17.907,0,0,1-.97,8.615,47.324,47.324,0,0,0-2.314,7.838c-1.014,5.931-2.006,14.591-2.006,14.591a7.224,7.224,0,0,0,4.7,1.007s7.736-17.326,9.315-23.318c0-.011.01-.019.013-.03.86-3.447,3.472-17.182,4.937-27.41s1.967-20.536,1.967-20.536Z" transform="translate(-158.3 -289.48)" fill="#11d16e"/>
            </g>
          </g>
          <path id="Path_53429" data-name="Path 53429" d="M178.325,240.477s-.109.319-.27.832c-.175.561-.412,1.354-.624,2.219a14.037,14.037,0,0,0-.514,3.874s-4.358-.727-6.373-2a12.721,12.721,0,0,0-.281-8.577Z" transform="translate(-154.519 -188.947)" fill="#ffd5b0"/>
          <path id="Path_53430" data-name="Path 53430" d="M178.228,241.566c-.175.561-.412,1.354-.624,2.219a11.58,11.58,0,0,1-5.585-4.341Z" transform="translate(-154.692 -189.206)" fill="#ffb985"/>
          <path id="Path_53431" data-name="Path 53431" d="M170.659,237.564c1.62,1.881,10.731,5.689,11.992,1.177s.654-9.857,0-13.111c-.4-2.02-1.482-5.863-6.867-5.269C170.431,220.952,163.551,229.31,170.659,237.564Z" transform="translate(-154.258 -187.32)" fill="#ffd5b0"/>
          <path id="Path_53432" data-name="Path 53432" d="M167.446,224.841s-4.373.41-5.188-2.379,2.3-6.342,5.047-4.875,2.454,5.065,2.454,5.065" transform="translate(-153.717 -187.019)" fill="#15004d"/>
          <path id="Path_53433" data-name="Path 53433" d="M165.936,225.529s.461-4.153,4.411-4.9l-1.479,2.451Z" transform="translate(-154.092 -187.352)" fill="#406aff"/>
          <path id="Path_53434" data-name="Path 53434" d="M181.7,224.357s-1.5,6.464-10.477,6.737a1.023,1.023,0,0,0-1.223.53,2.818,2.818,0,0,0-.04,1.862,11.464,11.464,0,0,1,.617,5.308l.021.2s-4.452-.559-5.663-6.968c-1.4-7.416,5.355-13.407,9.969-12.694C176.851,219.638,181.291,221.275,181.7,224.357Z" transform="translate(-153.975 -187.219)" fill="#15004d"/>
          <path id="Path_53435" data-name="Path 53435" d="M179.716,224.184s2.8,3.845,4.97,3.953c0,0,.7-5.241-2.274-7.367a10.351,10.351,0,0,0-8.644-1.382" transform="translate(-154.864 -187.191)" fill="#15004d"/>
          <path id="Path_53436" data-name="Path 53436" d="M170.118,246.305a4.082,4.082,0,0,1-1.209,1.651,15.125,15.125,0,0,1-2.969,1.293s8.562,6.152,14.89-.4a16.6,16.6,0,0,1-2.928-1.16c-1.534-1.107-1.234-1.657-1.234-1.657" transform="translate(-154.093 -189.855)" fill="#ffd5b0"/>
          <path id="Path_53437" data-name="Path 53437" d="M183.107,263.945s1.492,4.551,2.712,7.96a16.359,16.359,0,0,0,1.667,3.49c.641.821,1.505,1.819,3.051,1s1.78-1.533,1.506-3.1c-.285-1.624-2.9-10.847-2.9-10.847" transform="translate(-155.784 -191.472)" fill="#ffd5b0"/>
          <path id="Path_53438" data-name="Path 53438" d="M186.115,271.578s2.13,7.225,5.172,6.548c1.577-.413,4.339-6.451,5.58-8.846,3.91-7.543,4.221-9.238,4.221-9.238l-1.972-.916s-7.821,10.052-8.439,11" transform="translate(-156.08 -191.145)" fill="#ffd5b0"/>
          <path id="Path_53439" data-name="Path 53439" d="M184.407,291.414c-9.643,2.142-19.346.892-23.365.193.38-2.126,1-3.6,1.523-5.627,1.575-6.218.843-13.418.292-17.681-.217-1.713-.414-2.948-.414-3.462-.005-.408-.032-.938-.074-1.542-.287-3.7-1.246-10.317-1.325-11.2-.1-1.029,5.858-3.292,5.858-3.292s10.55,6.362,11.223-.609a37.978,37.978,0,0,1,5.217,2.083c.445,3.043.668,9.665.753,13.09a12.149,12.149,0,0,1-1.1,3.769s.169,10.306.694,17.823C183.882,287.687,184.548,290.362,184.407,291.414Z" transform="translate(-153.61 -190.068)" fill="#ff5476"/>
          <path id="Path_53440" data-name="Path 53440" d="M165.52,261.24a53.675,53.675,0,0,1-.8,8.074,4.739,4.739,0,0,1-1.723.27c-.217-1.713-.414-2.948-.414-3.462-.005-.408-.032-.938-.074-1.542Z" transform="translate(-153.755 -191.353)" fill="#d83d62"/>
          <path id="Path_53441" data-name="Path 53441" d="M180.857,284.813,177.61,283.7a.154.154,0,0,1-.1-.2l2.367-6.9a.154.154,0,0,1,.2-.1l3.247,1.112a.154.154,0,0,1,.1.2l-2.367,6.9A.154.154,0,0,1,180.857,284.813Z" transform="translate(-155.232 -192.856)" fill="#0831ae"/>
          <path id="Path_53442" data-name="Path 53442" d="M178.628,280.806l-.246,2.585s-.055.055-.52.055a.387.387,0,0,1-.027-.319Z" transform="translate(-155.262 -193.281)" fill="#0831ae"/>
          <g id="Group_41084" data-name="Group 41084" transform="translate(3.4 72.01)">
            <g id="Group_41083" data-name="Group 41083">
              <path id="Path_53443" data-name="Path 53443" d="M157.577,263.6s-.549,4.758-.867,8.365a16.354,16.354,0,0,0,.054,3.867c.239,1.014.606,2.282,2.353,2.183s2.258-.647,2.664-2.185c.421-1.595,1.9-11.065,1.9-11.065" transform="translate(-156.575 -263.595)" fill="#ffd5b0"/>
              <path id="Path_53444" data-name="Path 53444" d="M156.689,273.073s-.66,5.341,1.121,7.031c1.158.747,3.764.947,6.45,1.208,8.456.823,10.144.481,10.144.481l.116-2.172s-12.24-3.521-13.353-3.74" transform="translate(-156.569 -264.529)" fill="#ffd5b0"/>
              <path id="Path_53445" data-name="Path 53445" d="M178.766,279.3l-.347,1-.091.036-.027.31-.246,2.585s-.055.055-.52.055h-.265c-.721-.018-1.333-.712-2.786-.822l.566-2.594a3.254,3.254,0,0,0,1.826-.018c.447-.155.968-.5,1.223-.593A2.321,2.321,0,0,1,178.766,279.3Z" transform="translate(-158.334 -265.138)" fill="#ffd5b0"/>
            </g>
          </g>
          <path id="Path_53446" data-name="Path 53446" d="M178.47,280.354a20.961,20.961,0,0,0,2.115.532c.38.019,1.461-.294,1.87-.336a.727.727,0,0,1,.688.3,5.09,5.09,0,0,1-2.46,1.021,8.8,8.8,0,0,1-2.385-.3" transform="translate(-155.31 -193.236)" fill="#ffd5b0"/>
          <path id="Path_53447" data-name="Path 53447" d="M178.089,281a20.959,20.959,0,0,0,2.115.532c.38.019,1.461-.294,1.87-.336a.726.726,0,0,1,.688.3,5.09,5.09,0,0,1-2.46,1.02,8.8,8.8,0,0,1-2.385-.3" transform="translate(-155.273 -193.299)" fill="#ffd5b0"/>
          <path id="Path_53448" data-name="Path 53448" d="M177.9,281.629a20.959,20.959,0,0,0,2.115.532c.38.019,1.461-.294,1.87-.336a.727.727,0,0,1,.688.3,5.09,5.09,0,0,1-2.46,1.021,8.8,8.8,0,0,1-2.385-.3" transform="translate(-155.254 -193.362)" fill="#ffd5b0"/>
          <path id="Path_53449" data-name="Path 53449" d="M177.522,282.309a20.959,20.959,0,0,0,2.115.532c.38.019,1.461-.294,1.87-.336a.727.727,0,0,1,.688.3,5.094,5.094,0,0,1-2.46,1.021,8.8,8.8,0,0,1-2.385-.3" transform="translate(-155.217 -193.429)" fill="#ffd5b0"/>
          <path id="Path_53450" data-name="Path 53450" d="M172.631,232.5s-.273-1.99-2.062-1.335c-1.405.514-.463,3.152.066,4.048a.94.94,0,0,0,1.751-.01" transform="translate(-154.476 -188.377)" fill="#ffd5b0"/>
          <path id="Path_53451" data-name="Path 53451" d="M191.046,266.608a14.947,14.947,0,0,1-4.347,1.05q-.686.1-1.479.137c-.091,0-.173.009-.265.009a41.68,41.68,0,0,1-1.4-8.356c-.183-3.069,2.247-7.242,2-8.94C188.243,251.64,191.046,266.608,191.046,266.608Z" transform="translate(-155.827 -190.296)" fill="#ff5476"/>
          <path id="Path_53452" data-name="Path 53452" d="M162.183,250.942s-4.2,1.716-5.383,7.938c-1.107,5.814-1.3,8.21-1.3,8.21s4.9,1.542,7.873.729c.558-1.917,1.539-8.094,1.539-8.094" transform="translate(-153.064 -190.338)" fill="#ff5476"/>
          <path id="Path_53453" data-name="Path 53453" d="M183.9,256.39s1.392,3.026,2.1,5.1-.751,6.45-.751,6.45a11.752,11.752,0,0,0,1.392-5.777,7.324,7.324,0,0,0-.943-2.43A27.37,27.37,0,0,0,183.9,256.39Z" transform="translate(-155.862 -190.875)" fill="#d83d62"/>
          <path id="Path_53454" data-name="Path 53454" d="M206.46,254.071c-.142-.134-.325.058-.4.144s-.5.849-.5.849h0c-.157.172-.311.357-.437.515.142-.187.326-.434.506-.694a2.9,2.9,0,0,0,.391-1,2.545,2.545,0,0,0,.051-1.15c-.1-.125-.479.127-.544.843a5.139,5.139,0,0,1-.6,1.024c-.38.443-.692.852-.692.852s.261-.333.569-.808a4.162,4.162,0,0,0,.47-1.019c.191-.67.286-1.106.175-1.21s-.406-.034-.56.528c-.184.452-.338.708-.489,1.042-.454.539-.7.9-.7.9a5.9,5.9,0,0,0,.483-1.087,6.133,6.133,0,0,0,.208-.766c.032-.393.088-.861-.237-.866-.123,0-.4.624-.576,1.186a9.6,9.6,0,0,1-1.414,2.058c-.316.249-.575.444-.748,0s.21-1.31.037-1.788a.477.477,0,0,0-.577-.359c-.58,1.058-.586,3.966-.636,5.023a5.3,5.3,0,0,1-.495,1.057l2.286,1.167a6.46,6.46,0,0,1,1.458-2.055,5.613,5.613,0,0,0,1.53-1.593c.183-.3.676-.991.959-1.532C205.991,255.329,206.642,254.243,206.46,254.071Z" transform="translate(-157.424 -190.459)" fill="#ffd5b0"/>
          <g id="Group_41085" data-name="Group 41085" transform="translate(18.157 37.694)">
            <path id="Path_53455" data-name="Path 53455" d="M182.026,225.529a5.421,5.421,0,0,1-.472,1.825,7.963,7.963,0,0,1-.417.823,6.06,6.06,0,0,1-.608.837,6.491,6.491,0,0,1-.782.784,9.912,9.912,0,0,1-.925.675,10.972,10.972,0,0,1-1.03.495,10.234,10.234,0,0,1-1.048.347c-.348.08-.687.151-1.007.208l-.915.078a9.221,9.221,0,0,1-1.367-.009l-.516-.029.516-.041a13.091,13.091,0,0,0,1.348-.124l.89-.135.968-.251a9.96,9.96,0,0,0,1-.356c.339-.127.647-.332.975-.494a9.407,9.407,0,0,0,.894-.624,6.132,6.132,0,0,0,.763-.732,6.883,6.883,0,0,0,1.078-1.541A6.68,6.68,0,0,0,182.026,225.529Z" transform="translate(-172.939 -225.529)" fill="#15004d"/>
          </g>
          <path id="Path_53456" data-name="Path 53456" d="M171.747,235.541a.425.425,0,1,1-.425-.425A.425.425,0,0,1,171.747,235.541Z" transform="translate(-154.581 -188.779)" fill="#fff"/>
          <path id="Path_53457" data-name="Path 53457" d="M170.843,232.513a.7.7,0,0,1,.864.31c.476.691.358,1.422-.179,1.318-.3-.057-.33-.478-.2-.718a.372.372,0,0,1,.434-.178S171.568,232.415,170.843,232.513Z" transform="translate(-154.576 -188.518)" fill="#ffb985"/>
          <path id="Path_53458" data-name="Path 53458" d="M186.882,269.121c-.457.064-.949.11-1.479.137v-.429a16.036,16.036,0,0,0,.639-1.634c.155-.557.393-1.589.457-1.835a11.514,11.514,0,0,0,.009,1.269A22.36,22.36,0,0,0,186.882,269.121Z" transform="translate(-156.01 -191.759)" fill="#d83d62"/>
          <path id="Path_53459" data-name="Path 53459" d="M184.394,199.1a10,10,0,0,0,1.006-9.33,9.216,9.216,0,0,0-5.414-5.371,9.861,9.861,0,0,0-11.833,14.7h0l.009.01a9.893,9.893,0,0,0,1.527,1.735l6.282,6.313a.429.429,0,0,0,.609,0l6.285-6.318a9.882,9.882,0,0,0,1.522-1.728l.011-.013h0Zm-6.725-7.711a1.985,1.985,0,0,1,.765.759,2.588,2.588,0,0,1-3.56,3.572,1.958,1.958,0,0,1-.771-.776A2.586,2.586,0,0,1,177.669,191.388Z" transform="translate(-154.142 -183.715)" fill="#fc5475"/>
        </g>
        <g id="Group_41118" data-name="Group 41118" transform="translate(135.171 136.71)">
          <g id="Group_41106" data-name="Group 41106" transform="translate(6.379 57.396)">
            <path id="Path_53503" data-name="Path 53503" d="M299.363,413.064h-9.6A3.068,3.068,0,0,1,286.7,410V379.628a3.068,3.068,0,0,1,3.068-3.068h9.6a3.068,3.068,0,0,1,3.068,3.068V410A3.068,3.068,0,0,1,299.363,413.064Z" transform="translate(-286.697 -376.56)" fill="#011815"/>
          </g>
          <g id="Group_41107" data-name="Group 41107" transform="translate(100.697 57.396)">
            <path id="Path_53505" data-name="Path 53505" d="M452.6,413.064H443A3.068,3.068,0,0,1,439.934,410V379.628A3.068,3.068,0,0,1,443,376.56h9.6a3.068,3.068,0,0,1,3.068,3.068V410A3.068,3.068,0,0,1,452.6,413.064Z" transform="translate(-439.934 -376.56)" fill="#011815"/>
          </g>
          <path id="Path_53507" data-name="Path 53507" d="M380.327,293.463a1.433,1.433,0,0,0-1.062-.971l-.067-.015a51.107,51.107,0,0,0-21.731,0l-.067.015a1.436,1.436,0,0,0-1.062.971l-1.746,5.5,13.741-.47,13.741.47Z" transform="translate(-307.502 -291.309)" fill="#00352e"/>
          <path id="Path_53508" data-name="Path 53508" d="M402.252,367.122l-.047-.013v11.2H292.72v-11.2l-.047.013s-3.11-9-1.481-17.4a40.37,40.37,0,0,1,2.067-7.332,14.25,14.25,0,0,1,1.791-3.454c.175-.269.357-.532.545-.794,2.915-3.885,6.887-8.187,6.887-8.187a135.4,135.4,0,0,1,12.125-24.264c2.444-1.535,7.951-2.653,13.775-3.447a140.375,140.375,0,0,1,38.16,0c5.824.794,11.331,1.912,13.775,3.447a135.4,135.4,0,0,1,12.125,24.264s3.972,4.3,6.881,8.187c.2.263.377.532.559.808v-.013a13.462,13.462,0,0,1,1.6,2.989,39.151,39.151,0,0,1,2.255,7.8C405.363,358.12,402.252,367.122,402.252,367.122Z" transform="translate(-286.633 -294.455)" fill="url(#linear-gradient)"/>
          <path id="Path_53509" data-name="Path 53509" d="M389.663,342.817s9.884,8.724,9.65,10.183-5.691,2.63-11.027,5.888S369.911,365,351.468,365s-31.482-2.857-36.818-6.115-10.793-4.429-11.027-5.888,9.65-10.183,9.65-10.183" transform="translate(-290.848 -308.139)" fill="none" stroke="#01241f" stroke-width="0.531"/>
          <path id="Path_53510" data-name="Path 53510" d="M402.252,387.012l-.047-.013v11.048c-.121.054-.249.108-.384.155H292.72V387l-.047.013s-3.11-9-1.481-17.4a40.37,40.37,0,0,1,2.067-7.332,4.411,4.411,0,0,0,.619.229c2.3.653,5.956.7,11.195,3.347a57.3,57.3,0,0,0,20.024,5.976c7.378.749,16.131,1.483,21.376,1.395H347.5c5.245.088,14-.646,21.379-1.395a57.332,57.332,0,0,0,20.029-5.977c5.237-2.645,8.9-2.693,11.195-3.346a3.764,3.764,0,0,0,1.387-.693,39.152,39.152,0,0,1,2.255,7.8C405.363,378.011,402.252,387.012,402.252,387.012Z" transform="translate(-286.633 -314.345)" fill="#f9b234" opacity="0.4"/>
          <path id="Path_53511" data-name="Path 53511" d="M393.906,331.247c-6.011-.712-24.065-2.713-38.18-2.713s-32.169,2-38.18,2.713a1.362,1.362,0,0,1-1.473-1.748c1.036-3.4,2.494-7.251,3.932-10.767,1.684-4.108,3.333-7.751,4.214-9.647a3.9,3.9,0,0,1,2.128-2.015c8.569-3.312,22.028-3.615,29.378-3.615s20.809.3,29.378,3.615a3.9,3.9,0,0,1,2.128,2.015,183.03,183.03,0,0,1,8.146,20.414A1.362,1.362,0,0,1,393.906,331.247Z" transform="translate(-294.897 -295.277)" fill="#01241f"/>
          <g id="Group_41108" data-name="Group 41108" transform="translate(52.229 0.108)">
            <path id="Path_53667" data-name="Path 53667" d="M1.91-2.82V0H1.13V-2.82H.14V-3.5H2.9v.675ZM5.7,0,5.38-.755H3.915L3.59,0H2.76L4.27-3.5h.755L6.535,0ZM4.65-2.455,4.21-1.44h.875ZM8.9-3.5h.94L8.755-1.81,9.935,0h-.95L8.24-1.15,7.5,0H6.56L7.735-1.79,6.64-3.5h.935L8.24-2.46Zm1.51,0h.78V0h-.78Z" transform="translate(2 5)" fill="#fff"/>
          </g>
          <g id="Group_41109" data-name="Group 41109" transform="translate(7.721 53.324)">
            <circle id="Ellipse_4306" data-name="Ellipse 4306" cx="5.148" cy="5.148" r="5.148" fill="#fff"/>
          </g>
          <g id="Group_41110" data-name="Group 41110" transform="translate(19.48 61.23)">
            <path id="Path_53515" data-name="Path 53515" d="M320.229,385.577a3.323,3.323,0,1,1-3.323-3.323A3.323,3.323,0,0,1,320.229,385.577Z" transform="translate(-313.583 -382.254)" fill="#fff"/>
          </g>
          <g id="Group_41111" data-name="Group 41111" transform="translate(102.852 53.324)">
            <circle id="Ellipse_4308" data-name="Ellipse 4308" cx="5.148" cy="5.148" r="5.148" transform="translate(0.564)" fill="#fff"/>
          </g>
          <g id="Group_41112" data-name="Group 41112" transform="translate(94.942 61.23)">
            <path id="Path_53519" data-name="Path 53519" d="M426.21,385.577a3.323,3.323,0,1,0,3.323-3.323A3.323,3.323,0,0,0,426.21,385.577Z" transform="translate(-425.846 -382.254)" fill="#fff"/>
          </g>
          <path id="Path_53521" data-name="Path 53521" d="M357.418,383.585v8.186a1.525,1.525,0,0,1-1.545,1.528c-3.875-.05-14.152-.294-20.578-1.491a4.315,4.315,0,0,1-3.111-2.408,11.643,11.643,0,0,0-1.948-2.855,11.961,11.961,0,0,1-2.432-5.169,1.231,1.231,0,0,1,1.375-1.506,204.653,204.653,0,0,0,26.711,2.188A1.529,1.529,0,0,1,357.418,383.585Z" transform="translate(-298.739 -320.241)" fill="#00352e"/>
          <path id="Path_53522" data-name="Path 53522" d="M376.777,383.585v8.186a1.525,1.525,0,0,0,1.545,1.528c3.875-.05,14.152-.294,20.578-1.491a4.315,4.315,0,0,0,3.111-2.408,11.644,11.644,0,0,1,1.948-2.855,11.969,11.969,0,0,0,2.432-5.169,1.231,1.231,0,0,0-1.374-1.506,204.654,204.654,0,0,1-26.711,2.188A1.53,1.53,0,0,0,376.777,383.585Z" transform="translate(-314.751 -320.241)" fill="#00352e"/>
          <path id="Path_53523" data-name="Path 53523" d="M403.417,399.81a.892.892,0,0,0-1.051-.584c-3.2.778-17.334,3.588-54.8,3.588s-51.6-2.81-54.8-3.588a.893.893,0,0,0-1.052.587,15.146,15.146,0,0,0,.6,10.5,2.442,2.442,0,0,0,1.629,1.437c14.962,3.992,53.624,3.689,53.624,3.689s38.681.3,53.635-3.692a2.429,2.429,0,0,0,1.617-1.431A15.15,15.15,0,0,0,403.417,399.81Z" transform="translate(-286.732 -326.562)" fill="url(#linear-gradient)"/>
          <path id="Path_53524" data-name="Path 53524" d="M380.706,415.195H354.313a.779.779,0,0,1-.78-.78v-4.9a.78.78,0,0,1,.78-.78h26.393a.78.78,0,0,1,.78.78v4.9A.78.78,0,0,1,380.706,415.195Z" transform="translate(-307.157 -329.677)" fill="#fff"/>
          <g id="Group_41113" data-name="Group 41113" transform="translate(0 28.398)">
            <path id="Path_53525" data-name="Path 53525" d="M297.84,343.576c.088-.175.64-1.279-.135-1.926a1.974,1.974,0,0,0-.983-.33,2.109,2.109,0,0,0-1.858.727,2.686,2.686,0,0,1-1.71.835c-1.939.3-6.315-.545-7.742-2.02a3.946,3.946,0,0,1-.31-4.221.118.118,0,0,0,.007-.034,5,5,0,0,1,3.2-2.639c3.959-1.178,9.277.034,11.048,1.252s2.558,5.608,2.558,5.608l-4.093,2.767C297.833,343.59,297.833,343.583,297.84,343.576Z" transform="translate(-284.649 -333.489)" fill="#00352e"/>
            <path id="Path_53526" data-name="Path 53526" d="M297.84,345.107c.088-.175.64-1.279-.135-1.926a1.974,1.974,0,0,0-.983-.33,2.109,2.109,0,0,0-1.858.727,2.686,2.686,0,0,1-1.71.835c-1.939.3-6.315-.545-7.742-2.02a3.946,3.946,0,0,1-.31-4.221c-.047.337-.4,2.684,3.782,3.467,4.215.79,5.172-1.124,6.889-1.185S299.9,342.185,297.84,345.107Z" transform="translate(-284.649 -335.019)" fill="#056a5c" opacity="0.38"/>
          </g>
          <g id="Group_41114" data-name="Group 41114" transform="translate(104.388 28.398)">
            <path id="Path_53527" data-name="Path 53527" d="M443.779,343.576c-.088-.175-.64-1.279.135-1.926a1.974,1.974,0,0,1,.983-.33,2.109,2.109,0,0,1,1.858.727,2.686,2.686,0,0,0,1.71.835c1.939.3,6.315-.545,7.742-2.02a3.946,3.946,0,0,0,.31-4.221.117.117,0,0,1-.007-.034,5,5,0,0,0-3.2-2.639c-3.959-1.178-9.277.034-11.048,1.252s-2.558,5.608-2.558,5.608l4.093,2.767C443.786,343.59,443.786,343.583,443.779,343.576Z" transform="translate(-439.699 -333.489)" fill="#00352e"/>
            <path id="Path_53528" data-name="Path 53528" d="M445.375,345.107c-.088-.175-.64-1.279.135-1.926a1.974,1.974,0,0,1,.983-.33,2.109,2.109,0,0,1,1.858.727,2.686,2.686,0,0,0,1.71.835c1.939.3,6.315-.545,7.742-2.02a3.946,3.946,0,0,0,.31-4.221c.047.337.4,2.684-3.782,3.467-4.215.79-5.172-1.124-6.889-1.185S443.315,342.185,445.375,345.107Z" transform="translate(-441.295 -335.019)" fill="#056a5c" opacity="0.38"/>
          </g>
          <g id="Group_41117" data-name="Group 41117" transform="translate(32.973 74.821)">
            <g id="Group_41115" data-name="Group 41115">
              <path id="Path_53529" data-name="Path 53529" d="M333.624,402.442s.5,14.084,1.515,14.331a9.987,9.987,0,0,0,3.31.191c.954-.463,1.262-14.27,1.262-14.27" transform="translate(-333.624 -402.442)" fill="#fece00"/>
              <path id="Path_53530" data-name="Path 53530" d="M333.624,402.442s.5,14.084,1.515,14.331a9.987,9.987,0,0,0,3.31.191c.954-.463,1.262-14.27,1.262-14.27" transform="translate(-333.624 -402.442)" fill="#00352e"/>
            </g>
            <g id="Group_41116" data-name="Group 41116" transform="translate(48.773)">
              <path id="Path_53531" data-name="Path 53531" d="M412.156,402.442s-.5,14.084-1.515,14.331a9.987,9.987,0,0,1-3.31.191c-.954-.463-1.262-14.27-1.262-14.27" transform="translate(-406.068 -402.442)" fill="#fece00"/>
              <path id="Path_53532" data-name="Path 53532" d="M412.156,402.442s-.5,14.084-1.515,14.331a9.987,9.987,0,0,1-3.31.191c-.954-.463-1.262-14.27-1.262-14.27" transform="translate(-406.068 -402.442)" fill="#00352e"/>
            </g>
          </g>
        </g>
      </g>
    </g>
  </g>
</svg>
