<svg id="Untitled-2" xmlns="http://www.w3.org/2000/svg" width="79.912" height="33.158" viewBox="0 0 79.912 33.158">
  <path id="Path_44545" data-name="Path 44545" d="M0,18.982s5.615.226,5.615-2.047V.706c0-1.1-5.615-.6-5.615-.6Z" transform="translate(74.297 14.17)" fill="#004040"/>
  <path id="SVGID" d="M-30,2.05H45.86c2.242,0,4.052,1.028,4.052,4.824V33.3h0c0-1.779-1.82-2.571-4.052-2.571H-30l8.372-14.306Z" transform="translate(30 -2.05)" fill="#11d16e"/>
  <path id="Path_54050" data-name="Path 54050" d="M1.482,0l.832-2.34H6.266L7.111,0H8.45L5.005-9.4H3.588L.156,0ZM4.134-7.371a5.425,5.425,0,0,0,.156-.546,4,4,0,0,0,.156.546L5.889-3.445H2.7Zm4.693,4.2A3.038,3.038,0,0,0,11.934.156a2.849,2.849,0,0,0,2.964-2.3H13.676A1.7,1.7,0,0,1,11.934-.936c-1.157,0-1.9-.884-1.9-2.249a2,2,0,0,1,1.95-2.262,1.619,1.619,0,0,1,1.677,1.235h1.222a2.747,2.747,0,0,0-2.938-2.327A3.094,3.094,0,0,0,8.827-3.172ZM17.979,0V-5.33h1.248V-6.357H17.979V-8.346H16.757v1.989H15.509V-5.33h1.248V0Zm2.938-7.865a.81.81,0,0,0,.806-.806.8.8,0,0,0-.806-.806.8.8,0,0,0-.806.806A.81.81,0,0,0,20.917-7.865ZM20.319,0h1.222V-6.357H20.319ZM25.09,0H26.3l2.652-6.357H27.677L26.26-2.808a13.639,13.639,0,0,0-.533,1.521c-.1-.39-.286-.923-.507-1.521L23.829-6.357h-1.3Zm7.293.156a2.737,2.737,0,0,0,2.951-2.132H34.19A1.64,1.64,0,0,1,32.409-.858c-1.209,0-1.911-.741-2-2.08l4.914-.013v-.455a2.885,2.885,0,0,0-2.99-3.133,3.091,3.091,0,0,0-3.107,3.367A3.091,3.091,0,0,0,32.383.156Zm-.052-5.668A1.655,1.655,0,0,1,34.1-3.757H30.433A1.817,1.817,0,0,1,32.331-5.512Z" transform="translate(29.23 19.079)" fill="#fff"/>
  <path id="Path_44547" data-name="Path 44547" d="M89.934,105.1l-5.07,5.07-2.839-2.819,1.156-1.136,1.683,1.663,3.914-3.914Z" transform="translate(-66.795 -92.885)" fill="#fff"/>
</svg>
