<svg xmlns="http://www.w3.org/2000/svg" xmlns:xlink="http://www.w3.org/1999/xlink" width="233.957" height="77.824" viewBox="0 0 233.957 77.824">
  <defs>
    <linearGradient id="linear-gradient" x1="0.57" y1="0.205" x2="0.5" y2="0.97" gradientUnits="objectBoundingBox">
      <stop offset="0" stop-color="#98db39"/>
      <stop offset="1" stop-color="#01dd86"/>
    </linearGradient>
  </defs>
  <g id="Group_1" data-name="Group 1" transform="translate(-188.25 -337.98)">
    <path id="Path_33139" data-name="Path 33139" d="M-66.587-30.521c-14.175,0-24.641-12.444-24.641-28.432s9.4-28.432,23.652-28.432c5.934,0,10.549,1.154,16.565,4.945v-.989a29.226,29.226,0,0,0-16.565-4.945c-16.647,0-29.174,13.1-29.174,29.421s13.516,29.421,30.163,29.421a29,29,0,0,0,16.565-4.862v-.989C-56.038-31.675-60.653-30.521-66.587-30.521Zm52.662-25.713c0-4.7-.494-13.845-13.351-13.845-5.11,0-9.89,1.978-14.5,5.851l.742.824c3.791-3.049,7.747-5.11,11.785-5.11,6.758,0,10.137,3.461,10.3,11.291v3.791c-8.324.659-26.207,4.285-26.207,15,0,6.1,6.263,8.9,11.867,8.9A20.287,20.287,0,0,0-18.953-35.3v5.192h5.027ZM-18.953-36.7a17.489,17.489,0,0,1-12.032,5.027c-5.274,0-8.571-3.461-8.571-7.829,0-4.285,3.049-10.878,20.6-12.774Zm32.8-33.377a16.064,16.064,0,0,0-14.175,8.9V-86.644a1.6,1.6,0,0,0-1.731-1.731h-8.653v.989h.165c4.285,0,5.192,1.9,5.192,6.016v51.261h.989l4.038-8.241a16.27,16.27,0,0,0,14.093,8.818c10.384,0,18.708-7.994,18.708-20.273C32.473-62.168,24.232-70.079,13.848-70.079Zm-.082,39.558c-7.912,0-14.093-7.417-14.093-19.285,0-11.95,6.263-19.285,14.175-19.285s13.1,7.829,13.1,19.285C26.951-38.433,21.677-30.521,13.765-30.521Z" transform="translate(285 435.514)" fill="#fff"/>
    <rect id="Rectangle_17156" data-name="Rectangle 17156" width="13.738" height="3.435" transform="translate(322.77 381.471)" fill="#fff"/>
    <g id="Group_37746" data-name="Group 37746" transform="translate(344.092 337.98)">
      <path id="Subtraction_4" data-name="Subtraction 4" d="M25.966,76.719A39.563,39.563,0,1,1,78.115,30.676,36.6,36.6,0,1,0,25.966,76.718Z" transform="translate(0 0)" fill="url(#linear-gradient)"/>
      <path id="Subtraction_5" data-name="Subtraction 5" d="M25.291,63.609A34.219,34.219,0,0,1,0,52.483,34.309,34.309,0,0,0,43.139,0a34.529,34.529,0,0,1,11.93,12.257,34.125,34.125,0,0,1,3.344,8.079A34.4,34.4,0,0,1,59.6,29.3,34.277,34.277,0,0,1,25.291,63.609Z" transform="translate(17.541 14.214)" fill="url(#linear-gradient)"/>
      <path id="Path_33138" data-name="Path 33138" d="M220.735,274.916a11.054,11.054,0,1,1,10.912-10.865A11.107,11.107,0,0,1,220.735,274.916Z" transform="translate(-181.396 -224.195)" fill="#fff"/>
    </g>
  </g>
</svg>
