<svg id="setting-4" xmlns="http://www.w3.org/2000/svg" width="20.723" height="20.723" viewBox="0 0 20.723 20.723">
  <path id="Vector" d="M5.181,0H0" transform="translate(13.815 5.612)" fill="none" stroke="#fff" stroke-linecap="round" stroke-linejoin="round" stroke-width="1.5"/>
  <path id="Vector-2" data-name="Vector" d="M3.454,0H0" transform="translate(1.727 5.612)" fill="none" stroke="#fff" stroke-linecap="round" stroke-linejoin="round" stroke-width="1.5"/>
  <path id="Vector-3" data-name="Vector" d="M6.044,3.022A3.022,3.022,0,1,1,3.022,0,3.022,3.022,0,0,1,6.044,3.022Z" transform="translate(5.612 2.59)" fill="none" stroke="#fff" stroke-linecap="round" stroke-linejoin="round" stroke-width="1.5"/>
  <path id="Vector-4" data-name="Vector" d="M3.454,0H0" transform="translate(15.542 15.11)" fill="none" stroke="#fff" stroke-linecap="round" stroke-linejoin="round" stroke-width="1.5"/>
  <path id="Vector-5" data-name="Vector" d="M5.181,0H0" transform="translate(1.727 15.11)" fill="none" stroke="#fff" stroke-linecap="round" stroke-linejoin="round" stroke-width="1.5"/>
  <path id="Vector-6" data-name="Vector" d="M6.044,3.022A3.022,3.022,0,1,1,3.022,0,3.022,3.022,0,0,1,6.044,3.022Z" transform="translate(9.066 12.088)" fill="none" stroke="#fff" stroke-linecap="round" stroke-linejoin="round" stroke-width="1.5"/>
  <path id="Vector-7" data-name="Vector" d="M0,0H20.723V20.723H0Z" fill="none" opacity="0"/>
</svg>
