<svg id="Group_39805" data-name="Group 39805" xmlns="http://www.w3.org/2000/svg" width="15" height="15" viewBox="0 0 15 15">
  <circle id="Ellipse_4260" data-name="Ellipse 4260" cx="7.5" cy="7.5" r="7.5" fill="#11d16e"/>
  <path id="Path_34608" data-name="Path 34608" d="M12.676,6.1a.566.566,0,0,1,.136.789L9.606,11.43c-.2.287-.376.532-.532.718a1.767,1.767,0,0,1-.587.487,1.6,1.6,0,0,1-1.149.087,1.715,1.715,0,0,1-.65-.4c-.178-.161-.38-.378-.617-.631L5.145,10.7a.566.566,0,1,1,.827-.772l.909.974c.257.276.427.456.565.581a.649.649,0,0,0,.218.153A.466.466,0,0,0,8,11.612a.689.689,0,0,0,.2-.191c.122-.145.268-.351.488-.663l3.193-4.519a.566.566,0,0,1,.789-.136" transform="translate(-1.449 -1.895)" fill="#fff"/>
</svg>
