<svg xmlns="http://www.w3.org/2000/svg" width="21.5" height="21.5" viewBox="0 0 21.5 21.5">
  <g id="Group_40033" data-name="Group 40033" transform="translate(-2.25 -2.25)">
    <path id="Path_34741" data-name="Path 34741" d="M8.339,3.521A1.553,1.553,0,0,1,9.6,3H16.4a1.551,1.551,0,0,1,1.258.521l4.818,4.818A1.551,1.551,0,0,1,23,9.6V16.4a1.552,1.552,0,0,1-.521,1.258l-4.818,4.818A1.551,1.551,0,0,1,16.4,23H9.6a1.552,1.552,0,0,1-1.258-.521L3.522,17.661A1.55,1.55,0,0,1,3,16.4V9.6a1.552,1.552,0,0,1,.521-1.258Z" transform="translate(0 0)" fill="none" stroke="#00352e" stroke-linecap="round" stroke-linejoin="round" stroke-width="1.5"/>
    <path id="Path_34742" data-name="Path 34742" d="M12.056,16.889V11.333H11.5m0,5.556h1.111m-.556-8.333V8" transform="translate(0.944 0.556)" fill="none" stroke="#00352e" stroke-linecap="round" stroke-linejoin="round" stroke-width="1.5"/>
  </g>
</svg>
