<svg xmlns="http://www.w3.org/2000/svg" xmlns:xlink="http://www.w3.org/1999/xlink" width="374" height="479.571" viewBox="0 0 374 479.571">
  <defs>
    <linearGradient id="linear-gradient" x1="0.5" x2="0.5" y2="0.988" gradientUnits="objectBoundingBox">
      <stop offset="0" stop-color="#056a5c"/>
      <stop offset="1" stop-color="#00352e"/>
    </linearGradient>
  </defs>
  <g id="Layer_2" data-name="Layer 2" transform="translate(0 -0.032)">
    <g id="Layer_1" data-name="Layer 1" transform="translate(0 0.032)">
      <path id="Path_34673" data-name="Path 34673" d="M360.776,326.389c-8.269-13.658-21.777-18.526-36.358-20.941-23.671-3.945-46.4-10.447-67.241-22.693-1.128-.663-2.217-1.412-3.353-2.075-9.784-5.72-14.889-14.155-14.889-25.58,0-8.143-.189-16.286,0-24.46a8.167,8.167,0,0,1,2.225-5.105c10.589-10.518,16.791-23.418,20.822-37.518a7.091,7.091,0,0,1,4.774-5.389,22.472,22.472,0,0,0,8.616-7.007,34.717,34.717,0,0,0,5.7-22.093c-.323-4.845-2.2-9.121-6.6-11.457-2.785-1.475-2.328-2.99-1.7-5.373,3.156-11.914,7.1-23.742,8.908-35.877,3.03-20.467.789-40.509-10.534-58.546-7.977-12.672-18.645-22.006-33.786-25.249a4.316,4.316,0,0,1-2.62-1.468C229.324,6.54,220.3,3.407,210.892,1.837,184.728-2.534,159.1,1.38,134.4,9.846c-21.69,7.441-33.534,24.634-39.025,46.229-6.872,27.024-4.308,53.749,3.866,80.1.915,2.967.971,5.042-.978,7.843-9.61,13.792-4.135,32.729,11.086,39.83a5.784,5.784,0,0,1,2.769,3.409c3.724,15.157,10.739,28.405,22.211,39.16,1.428,1.349,2.091,3.906,2.367,6.012,2.967,21-7.685,41.274-27.285,52.786-10.7,6.312-22.614,9.153-34.26,12.822-17.075,5.381-33.928,11.346-49.764,19.813-3.574,1.917-6.967,4.166-11.252,6.754h0a11.706,11.706,0,0,0-1.128.789A31.8,31.8,0,0,0,0,351.18V479.6H374V369.336a76.228,76.228,0,0,0-13.169-42.86Z" transform="translate(0 -0.032)" fill="url(#linear-gradient)"/>
    </g>
  </g>
</svg>
