<svg xmlns="http://www.w3.org/2000/svg" xmlns:xlink="http://www.w3.org/1999/xlink" width="223.449" height="179.637" viewBox="0 0 223.449 179.637">
  <defs>
    <linearGradient id="linear-gradient" x1="0.5" x2="0.5" y2="1" gradientUnits="objectBoundingBox">
      <stop offset="0" stop-color="#00d3f2"/>
      <stop offset="1" stop-color="#00d48d"/>
    </linearGradient>
  </defs>
  <g id="Group_37953" data-name="Group 37953" transform="translate(-78.629 -229)">
    <ellipse id="Ellipse_3328" data-name="Ellipse 3328" cx="89.818" cy="89.818" rx="89.818" ry="89.818" transform="translate(98 229)" fill="url(#linear-gradient)"/>
    <ellipse id="Ellipse_3331" data-name="Ellipse 3331" cx="9.165" cy="9.165" rx="9.165" ry="9.165" transform="translate(84.74 375.947)" fill="#9cd161"/>
    <ellipse id="Ellipse_3332" data-name="Ellipse 3332" cx="5.499" cy="5.499" rx="5.499" ry="5.499" transform="translate(78.629 275.741)" fill="#f35d86"/>
    <ellipse id="Ellipse_3333" data-name="Ellipse 3333" cx="7.943" cy="7.943" rx="7.943" ry="7.943" transform="translate(277.637 260.264)" fill="#12d7c0"/>
    <ellipse id="Ellipse_3334" data-name="Ellipse 3334" cx="6.11" cy="6.11" rx="6.11" ry="6.11" transform="translate(289.858 237.045)" fill="#ffbe16"/>
    <g id="Group_37661" data-name="Group 37661" transform="translate(115 290)">
      <g id="Group_37659" data-name="Group 37659" transform="translate(0 0)">
        <g id="Group_37658" data-name="Group 37658" transform="translate(104.314 31.231)">
          <path id="Subtraction_4" data-name="Subtraction 4" d="M13.307,26.613a13.158,13.158,0,0,1-5.17-1.049,13.416,13.416,0,0,1-7.088-7.088,13.265,13.265,0,0,1,0-10.34A13.416,13.416,0,0,1,8.137,1.049a13.265,13.265,0,0,1,10.34,0,13.416,13.416,0,0,1,7.088,7.088,13.265,13.265,0,0,1,0,10.34,13.416,13.416,0,0,1-7.088,7.088A13.158,13.158,0,0,1,13.307,26.613Zm0-20.946a7.64,7.64,0,1,0,7.64,7.64A7.648,7.648,0,0,0,13.307,5.667Z" transform="translate(0 0)" fill="#f9f9f9" stroke="rgba(0,0,0,0)" stroke-miterlimit="10" stroke-width="1"/>
          <path id="Path_32946" data-name="Path 32946" d="M3358.135,1910.03l-.971,4.916-4.947-.626a6.755,6.755,0,0,0-.5,1.534l4.384,2.411-2.129,4.54a6.136,6.136,0,0,0,1.284.939l3.663-3.413,3.663,3.413a5.42,5.42,0,0,0,1.284-.939l-2.129-4.54,4.383-2.411a6.681,6.681,0,0,0-.47-1.534l-4.978.626-.939-4.916a7.089,7.089,0,0,0-.814-.031,6.3,6.3,0,0,0-.783.031Z" transform="translate(-3345.611 -1904.05)" fill="#f9f9f9" fill-rule="evenodd"/>
          <path id="Path_32947" data-name="Path 32947" d="M3434.77,2000.229a3.663,3.663,0,1,0-3.663-3.663,3.688,3.688,0,0,0,3.663,3.663Z" transform="translate(-3421.464 -1983.259)" fill="#f9f9f9" fill-rule="evenodd"/>
          <path id="Path_32948" data-name="Path 32948" d="M3479.745,2042.466a1.6,1.6,0,1,0,0-3.194,1.6,1.6,0,0,0,0,3.194Z" transform="translate(-3466.438 -2027.562)" fill="#f9f9f9" fill-rule="evenodd"/>
        </g>
        <g id="Group_37657" data-name="Group 37657" transform="translate(12.419 31.168)">
          <path id="Subtraction_3" data-name="Subtraction 3" d="M13.307,26.613a13.158,13.158,0,0,1-5.17-1.049,13.416,13.416,0,0,1-7.088-7.088,13.265,13.265,0,0,1,0-10.34A13.416,13.416,0,0,1,8.137,1.049a13.309,13.309,0,0,1,10.358,0,13.413,13.413,0,0,1,7.1,7.088,13.26,13.26,0,0,1,0,10.34,13.345,13.345,0,0,1-12.289,8.137Zm0-20.946a7.64,7.64,0,1,0,7.64,7.64A7.633,7.633,0,0,0,13.307,5.667Z" transform="translate(0)" fill="#f9f9f9" stroke="rgba(0,0,0,0)" stroke-miterlimit="10" stroke-width="1"/>
          <path id="Path_32951" data-name="Path 32951" d="M1296.087,1908.625l-.939,4.916-4.978-.595a7.7,7.7,0,0,0-.5,1.5l4.384,2.442-2.129,4.509a6.324,6.324,0,0,0,1.315.939l3.632-3.413,3.663,3.413a6.318,6.318,0,0,0,1.315-.939l-2.129-4.509,4.383-2.442a7.69,7.69,0,0,0-.5-1.5l-4.978.595-.939-4.916a6.8,6.8,0,0,0-.814-.031,6.531,6.531,0,0,0-.783.031Z" transform="translate(-1283.563 -1902.645)" fill="#f9f9f9" fill-rule="evenodd"/>
          <path id="Path_32952" data-name="Path 32952" d="M1373.394,1998.823a3.663,3.663,0,1,0-3.632-3.663,3.668,3.668,0,0,0,3.632,3.663Z" transform="translate(-1360.088 -1981.854)" fill="#f9f9f9" fill-rule="evenodd"/>
          <path id="Path_32953" data-name="Path 32953" d="M1417.7,2041.731a1.6,1.6,0,0,0,1.6-1.6,1.581,1.581,0,0,0-3.162,0,1.6,1.6,0,0,0,1.566,1.6Z" transform="translate(-1404.39 -2026.828)" fill="#f9f9f9" fill-rule="evenodd"/>
        </g>
        <path id="Subtraction_2" data-name="Subtraction 2" d="M133.855,47.915a3.012,3.012,0,0,1-.454-.028,14.734,14.734,0,0,0,.344-3.35,16.125,16.125,0,1,0-32.249,0,16.636,16.636,0,0,0,.345,3.35h-.376c-1.311-.016-3.975-.024-8.147-.024-5.211,0-11.981.012-19.148.025h-.541c-6.764.012-14.431.026-20.421.026-7.047,0-10.875-.019-11.7-.058a15.174,15.174,0,0,0,.376-3.381,16.14,16.14,0,0,0-32.281,0,15.746,15.746,0,0,0,.344,3.256,1.54,1.54,0,0,1-.218.014c-.077,0-.155,0-.218-.007s-.128-.007-.19-.007H5.667a5.474,5.474,0,0,1-3.885-1.337A5.881,5.881,0,0,1,.114,42.659a50.734,50.734,0,0,1-.062-5.824A20.334,20.334,0,0,1,.271,34.08,20.16,20.16,0,0,1,1.1,31.767v0a20.161,20.161,0,0,0,.83-2.317,21,21,0,0,0,.229-2.582c.026-.5.052-.975.084-1.332A10.3,10.3,0,0,0,2.3,24.281a4.619,4.619,0,0,1,.448-2.475,4.066,4.066,0,0,0,.313-.47c.667-1.028,2.05-1.943,4.23-2.8a52.035,52.035,0,0,1,5.657-1.725c.783-.205,1.458-.382,2.011-.549.784-.171,1.55-.374,2.129-.532h.094c.337-.1.681-.184,1.014-.269a16.813,16.813,0,0,0,2.618-.827,37.331,37.331,0,0,0,4.79-2.567c.312-.2.59-.417.859-.625l0,0c.269-.208.547-.422.86-.625a57.627,57.627,0,0,1,9.757-6.109,47.272,47.272,0,0,1,11.1-3.315A67.528,67.528,0,0,1,61.825,0c1.1,0,2.236.026,3.382.077a71.871,71.871,0,0,1,8.61.845,66.064,66.064,0,0,1,10.019,2.36,68.319,68.319,0,0,1,9.55,3.933c3.9,1.935,7.285,4.12,13.964,8.485a28.506,28.506,0,0,0,5.726,2.56l.191.07c.518.191,3.823.744,7.321,1.329l.081.014,1.521.255c2.865.475,5.907,1,8.829,1.785a31.661,31.661,0,0,1,8.36,3.382c.137.091.3.189.474.293l0,0a7.592,7.592,0,0,1,.837.55,8.255,8.255,0,0,1,2.693,4.227,9.449,9.449,0,0,1,.439,3.029,14.1,14.1,0,0,0,.219,2.326,5.2,5.2,0,0,0,.37,1.1,4.962,4.962,0,0,1,.444,1.529,29.67,29.67,0,0,1-.156,5.416,7.922,7.922,0,0,1-.658,2.149,5,5,0,0,1-1.315,1.8,2.1,2.1,0,0,1-1.477.376h-6.287c-.2,0-.4.007-.59.014h-.014C134.192,47.909,134.016,47.915,133.855,47.915ZM69.882,15.167h0a6.256,6.256,0,0,0,.117.658c.03.155.054.3.078.437a2.413,2.413,0,0,0,.444,1.286,2.4,2.4,0,0,0,1.638.5l12.712.72c4.817.3,11.613.326,13.581.326.942,0,1.755,0,2.231-.013.914,0,1.235-.33,1.343-.607a1.122,1.122,0,0,0-.279-1.115c-2.4-2.221-7.113-4.835-10.646-6.638a44.952,44.952,0,0,0-6.011-2.6l-.345-.109c-4.382-1.379-8.913-2.8-14.4-2.835-1.12,0-1.527.059-1.676.243-.118.145-.069.373,0,.718.035.166.075.353.106.574.116.778.346,2.5.569,4.16v0l0,.029c.2,1.492.389,2.9.491,3.6a3.725,3.725,0,0,1,.073.7h0S69.9,15.2,69.9,15.19l0-.005c0-.009-.009-.018-.011-.018ZM33.835,17.078c4.14,0,9.3.054,14.935.157,2.208.026,4.379.057,6.479.087l.14,0c2.873.041,5.586.081,7.877.1h.052a.783.783,0,0,0,.606-.262,1.564,1.564,0,0,0,.25-1.242c-.245-1.73-.5-3.549-.725-5.154S63,7.527,62.765,5.9c-.094-.656-.125-.877-1.753-.877a53.027,53.027,0,0,0-15.905,2.63,38.543,38.543,0,0,0-9.926,5.354,27.761,27.761,0,0,0-2.509,2.008c-.8.742-1.142,1.267-1.029,1.561.183.469.712.5,1.561.5h.63Z" fill="#f9f9f9" stroke="rgba(0,0,0,0)" stroke-miterlimit="10" stroke-width="1"/>
      </g>
    </g>
  </g>
</svg>
