<svg xmlns="http://www.w3.org/2000/svg" width="19.853" height="23.9" viewBox="0 0 19.853 23.9">
  <path id="_3668850_insurance_protection_safety_shield_icon" data-name="3668850_insurance_protection_safety_shield_icon" d="M24.1,4.9A36,36,0,0,1,15,3,34.268,34.268,0,0,1,5.9,4.9a1.063,1.063,0,0,0-.9,1V17a8.151,8.151,0,0,0,4.4,7.2l5.1,2.6a.6.6,0,0,0,.4.1c.2,0,.3,0,.4-.1l5.1-2.6A8.037,8.037,0,0,0,24.8,17V5.9C25,5.4,24.6,5,24.1,4.9ZM19.7,22.4,15,24.8V15H7V6.9a43.826,43.826,0,0,0,8-1.7V15h8v2.1A6.009,6.009,0,0,1,19.7,22.4Z" transform="translate(-5 -3)" fill="#11d16e"/>
</svg>
