<svg xmlns="http://www.w3.org/2000/svg" width="13.837" height="13.837" viewBox="0 0 13.837 13.837">
  <path id="Icon_awesome-info-circle" data-name="Icon awesome-info-circle" d="M7.481.562A6.918,6.918,0,1,0,14.4,7.481,6.92,6.92,0,0,0,7.481.562Zm0,3.069A1.172,1.172,0,1,1,6.309,4.8,1.172,1.172,0,0,1,7.481,3.631Zm1.562,7.086a.335.335,0,0,1-.335.335H6.253a.335.335,0,0,1-.335-.335v-.67a.335.335,0,0,1,.335-.335h.335V7.927H6.253a.335.335,0,0,1-.335-.335v-.67a.335.335,0,0,1,.335-.335H8.039a.335.335,0,0,1,.335.335v2.79h.335a.335.335,0,0,1,.335.335Z" transform="translate(-0.563 -0.562)" fill="#394675"/>
</svg>
