<svg xmlns="http://www.w3.org/2000/svg" width="14.986" height="14.986" viewBox="0 0 14.986 14.986">
  <path id="Path_34623" data-name="Path 34623" d="M13.115,4.5V3M6.372,4.5V3M3.187,6.746H16.3M3,8.278a6.666,6.666,0,0,1,.327-2.983,2.922,2.922,0,0,1,1.31-1.237A7.852,7.852,0,0,1,7.8,3.749h3.9a7.852,7.852,0,0,1,3.159.309,2.921,2.921,0,0,1,1.31,1.236,6.677,6.677,0,0,1,.327,2.984v3.68a6.665,6.665,0,0,1-.327,2.983,2.922,2.922,0,0,1-1.31,1.237,7.87,7.87,0,0,1-3.159.308H7.8a7.852,7.852,0,0,1-3.159-.309,2.922,2.922,0,0,1-1.31-1.236A6.677,6.677,0,0,1,3,11.957Z" transform="translate(-2.25 -2.25)" fill="none" stroke="#00352e" stroke-linecap="round" stroke-linejoin="round" stroke-width="1.5"/>
</svg>
