<svg version="1.2" xmlns="http://www.w3.org/2000/svg" viewBox="0 0 1920 1080" width="1920" height="1080">
	<title>New Project</title>
	<style>
		.s0 { fill: none;stroke: #afafaf;paint-order:stroke fill markers;stroke-linecap: round;stroke-linejoin: round;stroke-width: 6 } 
	</style>
	<path id="Vector" fill-rule="evenodd" class="s0" d="m939.9 459.5c0 16.3-9.8 31-24.8 37.2-15.1 6.2-32.4 2.8-44-8.7-11.5-11.5-14.9-28.9-8.7-43.9 6.2-15.1 20.9-24.9 37.2-24.9 5.3 0 10.6 1 15.5 3.1 4.8 2 9.3 4.9 13 8.7 3.8 3.7 6.7 8.2 8.8 13.1 2 4.8 3 10.1 3 15.4z"/>
	<path id="Vector-2" fill-rule="evenodd" class="s0" d="m980.2 338.6h-80.6c-100.7 0-141 40.3-141 141v120.9c0 100.8 40.3 141.1 141 141.1h120.9c100.8 0 141.1-40.3 141.1-141.1v-100.7"/>
	<path id="Vector-5" fill-rule="evenodd" class="s0" d="m772.1 680.1l99.3-66.7c4-2.6 8.4-4.5 13-5.7 4.6-1.2 9.3-1.7 14.1-1.5 4.7 0.3 9.4 1.3 13.8 3 4.5 1.7 8.6 4.1 12.3 7.1l6.7 5.8c4 3.2 8.5 5.8 13.3 7.5 4.8 1.7 9.9 2.6 15.1 2.6 5.1 0 10.2-0.9 15.1-2.6 4.8-1.7 9.3-4.3 13.3-7.5l83.8-71.9c4-3.3 8.5-5.8 13.3-7.6 4.9-1.7 10-2.6 15.1-2.6 5.2 0 10.3 0.9 15.1 2.6 4.8 1.8 9.4 4.3 13.3 7.6l32.9 28.1"/>
</svg>