<svg xmlns="http://www.w3.org/2000/svg" xmlns:xlink="http://www.w3.org/1999/xlink" width="154" height="129.182" viewBox="0 0 154 129.182">
  <defs>
    <filter id="Path_13361" x="17.951" y="0" width="102.044" height="127.587" filterUnits="userSpaceOnUse">
      <feOffset dy="3" input="SourceAlpha"/>
      <feGaussianBlur stdDeviation="3" result="blur"/>
      <feFlood flood-opacity="0.078"/>
      <feComposite operator="in" in2="blur"/>
      <feComposite in="SourceGraphic"/>
    </filter>
    <linearGradient id="linear-gradient" x1="0.43" y1="0.205" x2="0.5" y2="0.97" gradientUnits="objectBoundingBox">
      <stop offset="0" stop-color="#98db39"/>
      <stop offset="1" stop-color="#01dd86"/>
    </linearGradient>
  </defs>
  <g id="Group_40092" data-name="Group 40092" transform="translate(-772.875 -853.883)">
    <g id="Group_40649" data-name="Group 40649" transform="translate(773.139 854.978)">
      <circle id="Ellipse_3646" data-name="Ellipse 3646" cx="34" cy="34" r="34" transform="translate(-0.265 60.087)" fill="#f6f6f6"/>
      <ellipse id="Ellipse_3648" data-name="Ellipse 3648" cx="16.5" cy="15.5" rx="16.5" ry="15.5" transform="translate(3.735 13.087)" fill="#f6f6f6"/>
      <ellipse id="Ellipse_3647" data-name="Ellipse 3647" cx="52.5" cy="52" rx="52.5" ry="52" transform="translate(48.735 0.087)" fill="#f6f6f6"/>
    </g>
    <g id="Group_40121" data-name="Group 40121" transform="translate(799.826 859.866)">
      <rect id="Rectangle_6040" data-name="Rectangle 6040" width="39.55" height="2.472" rx="1.236" transform="translate(10.712 14.025)" fill="#fff"/>
      <g transform="matrix(1, 0, 0, 1, -26.95, -5.98)" filter="url(#Path_13361)">
        <path id="Path_13361-2" data-name="Path 13361" d="M330.912-1207.5a5.412,5.412,0,0,0-5.412,5.412v98.764a5.412,5.412,0,0,0,5.412,5.412h73.221a5.412,5.412,0,0,0,5.412-5.412v-76.529L384.162-1207.5Z" transform="translate(-298.55 1213.5)" fill="#00352e"/>
      </g>
      <rect id="Rectangle_6041" data-name="Rectangle 6041" width="16.479" height="2.472" rx="1.236" transform="translate(10.712 22.264)" fill="#10584f"/>
      <rect id="Rectangle_6042" data-name="Rectangle 6042" width="16.479" height="2.472" rx="1.236" transform="translate(10.712 91.477)" fill="#10584f"/>
      <path id="Path_13362" data-name="Path 13362" d="M422.054-1179.838l-18.486.35a7.069,7.069,0,0,1-7.069-7.069l.151-20.963Z" transform="translate(-337.999 1207.521)" fill="#fff"/>
      <rect id="Rectangle_6045" data-name="Rectangle 6045" width="36.584" height="2.286" rx="1.143" transform="translate(10.712 16.62)" fill="#10584f"/>
      <g id="Group_39786" data-name="Group 39786" transform="translate(7.646 42.615)">
        <path id="Path_107" data-name="Path 107" d="M696.8,564.161c0,.976-1.084,3.253-2.819,3.253h-12.9c-1.735,0-3.47-1.193-5.91-1.193H603.735a17,17,0,0,1-6.859-2.061c-1.627-1.085-1.79-1.356-1.79-2.061v-4.283c0-.65,1.952-1.355,1.952-2.494v-6.289c0-1.626,14.639-12.036,19.3-13.175s25.1-1.247,30.578-.759,17.241,6.289,24.669,11.766c7.97,0,16.536,2,20.277,4.254a10.093,10.093,0,0,1,4.934,7.727Z" transform="translate(-595.087 -534.826)" fill="url(#linear-gradient)"/>
        <path id="Path_108" data-name="Path 108" d="M695.833,565.249a8.313,8.313,0,0,1,.965,3.429v5.314c0,.976-1.084,3.253-2.819,3.253h-12.9c-1.735,0-3.47-1.193-5.91-1.193H603.735a17,17,0,0,1-6.859-2.061c-1.627-1.085-1.79-1.356-1.79-2.06v-4.283c0-.651,1.952-1.355,1.952-2.494v-5.61Z" transform="translate(-595.087 -544.656)" fill="url(#linear-gradient)"/>
        <path id="Path_109" data-name="Path 109" d="M692.741,552.217A105.175,105.175,0,0,0,690.7,538.5h.168a106.214,106.214,0,0,1,2.037,13.7,61.47,61.47,0,0,1,.014,13.827h-.164A61.012,61.012,0,0,0,692.741,552.217Z" transform="translate(-649.15 -536.286)" fill="#695fb2"/>
        <path id="Path_110" data-name="Path 110" d="M599.354,557.361a1.538,1.538,0,0,1-.272-1.4,2.3,2.3,0,0,1,1.093-1.62l.062.15a2.136,2.136,0,0,0-1,1.5,1.384,1.384,0,0,0,.23,1.252c.486.5,3.917,1.023,10.2,1.553,1.421.121,2.32.143,3.271.167,1.092.027,2.221.056,4.265.228a40.961,40.961,0,0,1,7.508,1.414c.229.062.429.117.6.16a3.621,3.621,0,0,0,.779.13c.046.051.088.1.133.156-.03,0-.052.008-.085.008a3.626,3.626,0,0,1-.867-.136c-.17-.044-.371-.1-.6-.161a40.788,40.788,0,0,0-7.478-1.409c-2.04-.172-3.166-.2-4.256-.228-.954-.024-1.854-.047-3.281-.167C603.245,558.421,599.876,557.9,599.354,557.361Z" transform="translate(-526.883 -542.587)" fill="#002f29"/>
        <path id="Path_111" data-name="Path 111" d="M646.45,548.758c.269-1.564,6.844-10.358,8.691-10.6a35.01,35.01,0,0,1,3.558-.109c1.815,0,3.955.035,5.842.065,1.43.023,2.665.043,3.46.043l1.138,0c3.785,0,8.616.169,12.406,1.483a51.355,51.355,0,0,1,8.251,3.993c4.209,2.439,6.48,4.478,6.749,6.06.33,1.94.366,11.343.326,12.865,0,.136-.006.273-.008.411-.024,1.426-.051,3.043-1.577,3.043h-36.8a3.834,3.834,0,0,1-3.079-2.154c-.345-.587-1.206-1.738-2.2-3.072-1.318-1.762-2.959-3.955-3.952-5.589l-.068-.111C647.454,552.245,646.2,550.192,646.45,548.758ZM649.321,555l.067.111c.99,1.628,2.628,3.817,3.944,5.576,1,1.338,1.864,2.492,2.214,3.087a3.676,3.676,0,0,0,2.939,2.074h11.208l-.011.068.161.027.014-.1h25.428c1.367,0,1.391-1.465,1.415-2.883,0-.139,0-.277.008-.413.04-1.52,0-10.9-.324-12.834-.261-1.531-2.505-3.532-6.67-5.947a51.188,51.188,0,0,0-8.223-3.979c-3.767-1.307-8.58-1.475-12.353-1.475l-1.138,0h-.195c-.015-.062-.024-.1-.025-.1l-.158.04.015.061c-.787,0-1.87-.022-3.1-.042-1.887-.03-4.026-.065-5.839-.065a34.96,34.96,0,0,0-3.537.108c-1.791.234-8.315,9.086-8.551,10.465S647.611,552.191,649.321,555Z" transform="translate(-626.09 -536.108)" fill="#002f29"/>
        <path id="Path_112" data-name="Path 112" d="M728.871,567.463a9.915,9.915,0,0,1,9.753,11.738H720.331a8.03,8.03,0,0,1-1.236-.126,9.915,9.915,0,0,1,9.775-11.612Z" transform="translate(-711.683 -547.805)" fill="#002f29"/>
        <path id="Path_113" data-name="Path 113" d="M621.278,579.2h-8.559a9.92,9.92,0,1,1,19.209,1.193h-4.739C625.453,580.394,623.718,579.2,621.278,579.2Z" transform="translate(-541.2 -547.805)" fill="#002f29"/>
        <ellipse id="Ellipse_1" data-name="Ellipse 1" cx="8.539" cy="8.539" rx="8.539" ry="8.539" transform="translate(72.733 21.04)" fill="#01241f"/>
        <ellipse id="Ellipse_2" data-name="Ellipse 2" cx="6.042" cy="6.042" rx="6.042" ry="6.042" transform="translate(84.884 37.323) rotate(-160.007)" fill="#eef5f9"/>
        <ellipse id="Ellipse_5" data-name="Ellipse 5" cx="3.03" cy="3.03" rx="3.03" ry="3.03" transform="translate(83.083 33.463) rotate(-160.007)" fill="#002f29"/>
        <ellipse id="Ellipse_3" data-name="Ellipse 3" cx="8.539" cy="8.539" rx="8.539" ry="8.539" transform="translate(8.648 21.04)" fill="#01241f"/>
        <ellipse id="Ellipse_4" data-name="Ellipse 4" cx="6.042" cy="6.042" rx="6.042" ry="6.042" transform="translate(20.631 37.399) rotate(-158.769)" fill="#eef5f9"/>
        <ellipse id="Ellipse_6" data-name="Ellipse 6" cx="6.042" cy="6.042" rx="6.042" ry="6.042" transform="translate(20.631 37.399) rotate(-158.769)" fill="#eef5f9"/>
        <path id="Path_114" data-name="Path 114" d="M606.559,564.78a9.163,9.163,0,0,1,1.166,1.762c.189.569,0,1.22-.786,1.22H602.33c-.732,0-2.088-1.111-2.846-2.006s-1.9-2.359-1.573-2.548S602.439,563.56,606.559,564.78Z" transform="translate(-507.748 -546.098)" fill="#fff"/>
        <path id="Path_115" data-name="Path 115" d="M596.01,580.321a1.844,1.844,0,0,1,1.467-.976h3.741v2.521a3,3,0,0,1-.241,1.03h-5.289c-.539,0-.757-.437-.485-.976Z" transform="translate(-499.507 -552.531)" fill="#fff"/>
        <path id="Path_116" data-name="Path 116" d="M654.709,548.891h-2.927a4.8,4.8,0,0,1-2.494-.678c-.922-.569-5.035-3.66-7.638-5.184s-4.077-2.3-4.31-2.4c-.417-.182-.6-.711-.061-.711h1.711A76.305,76.305,0,0,1,654.709,548.891Z" transform="translate(-578.208 -536.851)" fill="#012923"/>
        <path id="Path_117" data-name="Path 117" d="M675.563,547.637c.474.37,1,1.383,0,1.437s-20.521-.7-21.443-.719a1.3,1.3,0,0,1-1.355-1.179c-.163-.623-1.3-6.316-1.356-6.8s-.054-.949.787-.949,7.319.244,10.952,1.409A43.747,43.747,0,0,1,675.563,547.637Z" transform="translate(-608.334 -536.654)" fill="#012923"/>
        <path id="Path_118" data-name="Path 118" d="M718.838,540.324s.244,6.452.244,6.777a.793.793,0,0,1-.786.868c-.624,0-20.359-.461-21.172-.488s-1.193-.3-1.057-.867,4.554-5.937,8.186-6.886,13.093-.407,13.554-.407A.939.939,0,0,1,718.838,540.324Z" transform="translate(-678.175 -536.552)" fill="#012923"/>
        <path id="Path_119" data-name="Path 119" d="M745.636,541.117c.623.266,1.48.631,1.682.714.325.136.271.678-.623,1.193a49.637,49.637,0,0,0-4.907,3.985,3.907,3.907,0,0,1-2.711,1.382h-3.957A95.355,95.355,0,0,1,745.636,541.117Z" transform="translate(-730.13 -537.328)" fill="#012923"/>
        <path id="Path_120" data-name="Path 120" d="M751.67,565.027v-5.8h4.635c.678,0,1.031.258.678,1.227a17.032,17.032,0,0,1-2.575,3.951,2.436,2.436,0,0,1-1.545.678h-1.2C751.665,565.063,751.67,565.046,751.67,565.027Z" transform="translate(-749.718 -544.529)" fill="#012923"/>
        <path id="Path_121" data-name="Path 121" d="M760.334,576.305V574.94h1.5a.683.683,0,1,1,0,1.366Z" transform="translate(-760.334 -550.779)" fill="#fff"/>
        <ellipse id="Ellipse_7" data-name="Ellipse 7" cx="3.03" cy="3.03" rx="3.03" ry="3.03" transform="translate(18.999 33.463) rotate(-160.007)" fill="#002f29"/>
      </g>
    </g>
  </g>
</svg>
