<svg id="Group_38449" data-name="Group 38449" xmlns="http://www.w3.org/2000/svg" width="40.085" height="41.065" viewBox="0 0 40.085 41.065">
  <path id="Path_1535" data-name="Path 1535" d="M917.395,809.188H893.919v-4.176H920v1.568A2.608,2.608,0,0,1,917.395,809.188Z" transform="translate(-884.254 -768.123)" fill="#056a5c"/>
  <path id="Path_1536" data-name="Path 1536" d="M843.941,616.67l1.831-.373a4.659,4.659,0,0,0,3.495-6.023h0a6.36,6.36,0,0,0-5.775-4h0a1.611,1.611,0,0,0-1.606,1.96Z" transform="translate(-841.848 -606.275)" fill="#00352e"/>
  <path id="Path_1537" data-name="Path 1537" d="M864.993,675.561l-6.541,1.452-5.984-26.884a1.881,1.881,0,0,1,1.875-2.289l1.784.037a4.733,4.733,0,0,1,4.3,2.976l.662,1.657a39.973,39.973,0,0,1,2.7,11.377Z" transform="translate(-850.46 -640.125)" fill="#056a5c"/>
  <path id="Path_1538" data-name="Path 1538" d="M908.933,762.512,885.376,765.6a2.806,2.806,0,0,0-2.322,2.864h0a2.769,2.769,0,0,0,2.636,2.885h27.538a2.376,2.376,0,0,0,2.262-2.475h0C915.491,765.033,912.421,762.054,908.933,762.512Z" transform="translate(-875.406 -733.474)" fill="#11d16e"/>
  <path id="Path_1539" data-name="Path 1539" d="M879.938,780.741h5.01l-1.956-8.406a2.879,2.879,0,0,0-3.437-2.183h0a2.879,2.879,0,0,0-2.183,3.436l1.524,6.333A1.07,1.07,0,0,0,879.938,780.741Z" transform="translate(-870.722 -739.677)" fill="#00352e"/>
</svg>
